<svg width="86" height="75" viewBox="0 0 86 75" fill="none" xmlns="http://www.w3.org/2000/svg">
<path d="M77.6393 64.2668C77.6393 64.2668 77.6433 65.7708 77.9943 67.2448C78.3443 68.7178 80.1633 67.6728 80.5673 67.3248C81.0043 68.4228 82.0433 68.0728 84.0343 66.5078C86.0263 64.9418 86.0573 65.0268 85.7643 63.9578C85.4723 62.8888 84.5423 61.8508 84.5423 61.8508C84.5423 61.8508 80.7813 59.7188 77.6393 64.2668Z" fill="url(#paint0_radial_525_124)"/>
<path d="M80.2993 63.7383C80.2993 63.7383 80.2963 63.7973 80.2903 63.9013C80.2993 64.0063 80.2963 64.1333 80.3083 64.3043C80.3163 64.4743 80.3263 64.6703 80.3373 64.8803C80.3443 65.0903 80.3623 65.3143 80.3753 65.5373C80.3833 65.7623 80.4143 65.9813 80.4223 66.1933C80.4473 66.3993 80.4713 66.5933 80.4833 66.7623C80.5443 67.0903 80.5683 67.3233 80.5683 67.3233C80.5683 67.3233 80.5433 67.2723 80.4983 67.1833C80.4553 67.0933 80.3913 66.9613 80.3303 66.7993C80.2813 66.6333 80.2263 66.4383 80.1823 66.2253C80.1503 66.0143 80.1143 65.7853 80.1003 65.5553C80.0963 65.4403 80.0923 65.3253 80.0883 65.2123C80.0803 65.1003 80.0923 64.9893 80.0943 64.8813C80.1023 64.6663 80.1213 64.4653 80.1513 64.2953C80.1703 64.1273 80.2173 63.9733 80.2393 63.8813C80.2733 63.7903 80.2993 63.7383 80.2993 63.7383Z" fill="black"/>
<path d="M39.9253 64.1292C39.9253 64.1292 37.8733 65.6242 37.5183 66.9102C37.1603 68.1942 39.6263 67.9322 40.4983 67.4172C40.3463 68.4442 41.5803 68.4412 43.3763 67.7702C45.1733 67.0972 46.2483 65.6572 46.1913 63.5512C44.8533 62.7312 42.1813 62.7372 39.9253 64.1292Z" fill="url(#paint1_radial_525_124)"/>
<path d="M40.4983 67.4178C40.4983 67.4178 40.4923 67.2288 40.5423 66.9538C40.5873 66.6778 40.6853 66.3188 40.8233 65.9738C40.9023 65.8048 40.9673 65.6308 41.0573 65.4808C41.1433 65.3278 41.2213 65.1848 41.3073 65.0748C41.4763 64.8488 41.6043 64.7148 41.6043 64.7148C41.6043 64.7148 41.5543 64.8978 41.4483 65.1498C41.3943 65.2758 41.3463 65.4288 41.2783 65.5848C41.2103 65.7398 41.1493 65.9118 41.0813 66.0778C41.0083 66.2448 40.9483 66.4148 40.8773 66.5708C40.8163 66.7278 40.7473 66.8738 40.6963 66.9998C40.5833 67.2508 40.4983 67.4178 40.4983 67.4178Z" fill="black"/>
<path d="M46.4293 69.4313C46.4293 69.4313 45.0503 71.5533 44.9353 73.4933C44.8203 75.4333 47.2943 75.0903 48.3813 74.2963C48.5213 75.2073 49.9263 74.9863 51.5273 73.9133C53.1283 72.8403 54.1313 70.7993 52.7423 68.6263C51.3513 67.1243 48.4813 66.5363 46.4293 69.4313Z" fill="url(#paint2_radial_525_124)"/>
<path d="M49.0222 69.6445C49.0222 69.6445 48.9732 69.9385 48.8962 70.3745C48.8552 70.5925 48.8092 70.8455 48.7602 71.1175C48.7102 71.3885 48.6562 71.6765 48.6112 71.9665C48.5572 72.2555 48.5202 72.5435 48.4802 72.8165C48.4642 72.9515 48.4482 73.0825 48.4322 73.2085C48.4222 73.3325 48.4122 73.4505 48.4022 73.5605C48.3952 73.6695 48.3912 73.7705 48.3852 73.8605C48.3772 73.9495 48.3802 74.0275 48.3812 74.0915C48.3852 74.2205 48.3812 74.2955 48.3812 74.2955C48.3812 74.2955 48.3582 74.2245 48.3282 74.0985C48.3112 74.0355 48.2932 73.9565 48.2812 73.8665C48.2692 73.7775 48.2502 73.6725 48.2432 73.5615C48.2252 73.3365 48.2222 73.0725 48.2382 72.7935C48.2512 72.6535 48.2542 72.5065 48.2752 72.3615C48.2952 72.2155 48.3112 72.0665 48.3382 71.9195C48.3882 71.6255 48.4502 71.3335 48.5232 71.0645C48.5922 70.7945 48.6692 70.5455 48.7432 70.3345C48.8162 70.1245 48.8882 69.9515 48.9382 69.8305C48.9892 69.7105 49.0222 69.6445 49.0222 69.6445Z" fill="black"/>
<path d="M2.56221 67.6969C2.56221 67.6969 1.34921 69.7109 0.756211 70.6769C0.277211 71.5839 1.46721 72.1769 3.27821 71.6629C3.13921 72.4559 4.30121 72.6509 5.54721 72.2789C6.79221 71.9089 8.94221 70.5999 9.11121 69.9489C9.27821 69.2959 8.90721 67.9939 8.90721 67.9939C8.90721 67.9939 5.89321 62.9029 2.56221 67.6969Z" fill="url(#paint3_radial_525_124)"/>
<path d="M4.46224 67.9766C4.46224 67.9766 4.40124 68.2166 4.29224 68.5646C4.23524 68.7366 4.17024 68.9386 4.09924 69.1536C4.02624 69.3676 3.94724 69.5956 3.86924 69.8246C3.78424 70.0486 3.71924 70.2816 3.63824 70.4916C3.56824 70.7056 3.51024 70.9066 3.44724 71.0776C3.41624 71.1626 3.40524 71.2436 3.38324 71.3126C3.36424 71.3836 3.34824 71.4466 3.33324 71.4996C3.30024 71.6026 3.28124 71.6626 3.28124 71.6626C3.28124 71.6626 3.28025 71.5996 3.27625 71.4926C3.27725 71.4386 3.27924 71.3736 3.28024 71.2976C3.28324 71.2226 3.27624 71.1356 3.29324 71.0446C3.30624 70.9526 3.32024 70.8546 3.34024 70.7506C3.36124 70.6466 3.37224 70.5336 3.40524 70.4236C3.46424 70.2016 3.52625 69.9626 3.60925 69.7326C3.69425 69.5036 3.77525 69.2726 3.87225 69.0636C3.96425 68.8546 4.05924 68.6616 4.14724 68.5006C4.31624 68.1776 4.46224 67.9766 4.46224 67.9766Z" fill="black"/>
<path d="M83.1953 36.3438C83.1953 36.3438 82.6353 37.1237 81.5763 37.2197C80.5173 37.3177 78.2433 37.6647 79.4333 40.5277C79.5573 40.0287 80.1163 39.2818 80.4273 39.1558C79.6823 40.5908 79.7133 40.9027 80.2793 41.9917C80.8423 43.0817 80.3763 44.0478 79.0363 44.3638C80.9403 45.4498 82.9643 44.5417 82.7743 42.7977C83.2743 43.8547 84.3343 43.4788 84.5513 43.2298C83.6773 43.2938 83.3683 41.9168 84.3893 40.9538C85.3853 40.0178 85.4453 38.9578 85.0063 37.9938C84.5683 37.0288 83.2893 36.9058 83.2893 36.9058L83.1953 36.3438Z" fill="url(#paint4_radial_525_124)"/>
<path d="M73.7273 23.7466C73.7273 23.7466 78.1433 26.5066 80.0873 28.2336C82.0303 29.9606 83.6303 32.3816 82.8083 36.6776C82.4663 38.8266 83.2303 38.8246 83.6413 36.9526C84.0533 35.0816 85.0803 31.7666 80.9163 27.3996C78.6883 25.0626 76.1283 23.7856 74.0923 21.7576C72.0543 19.7306 71.1293 18.8086 71.1293 18.8086L73.7273 23.7466Z" fill="url(#paint5_radial_525_124)"/>
<path d="M46.4112 47.7773C46.4112 47.7773 46.3632 49.2163 45.3912 50.8623C44.1112 52.6643 44.1622 53.3323 44.1142 54.2053C44.0652 55.0793 43.9132 55.7993 42.7362 57.5483C41.5582 59.2973 40.2262 61.8173 39.6162 64.0283C39.3112 65.4163 40.3882 64.3343 40.9012 63.9733C40.7992 65.0533 41.2632 65.0523 43.2632 63.7633C42.6502 65.3063 43.5232 64.8413 44.8052 63.8113C45.0142 65.3013 45.8342 65.0923 46.6012 63.2413C47.3682 61.3903 50.7782 48.2293 46.4112 47.7773Z" fill="url(#paint6_radial_525_124)"/>
<path opacity="0.5" d="M46.4112 47.7773C46.4112 47.7773 46.3762 48.7993 45.7842 50.1043C45.9422 50.0783 46.1022 50.0853 46.2652 50.1383C47.5612 50.5693 46.6712 51.8973 46.1822 52.6193C45.9212 53.0043 45.5452 53.4373 45.5332 53.9243C45.5192 54.5123 45.6282 55.0763 45.7642 55.6443C46.0072 56.6533 46.2472 57.6323 46.1192 58.6743C45.9132 60.3513 45.2662 61.6723 44.2702 63.0213C44.2362 63.0663 44.1502 63.1303 44.1512 63.0283C44.1622 62.5473 44.2002 62.0723 44.1622 61.5923C43.7152 62.4293 43.0162 62.9953 42.1782 63.4743C42.1212 63.5063 42.1242 63.4203 42.1292 63.3903C42.1942 63.0103 42.1612 62.6253 42.1892 62.2433C42.1932 62.1713 41.8322 62.4323 41.7742 62.4623C41.2372 62.7413 40.6562 62.9113 40.0482 62.9453C40.0202 62.9463 39.9912 62.9453 39.9632 62.9463C39.8332 63.3123 39.7142 63.6743 39.6162 64.0283C39.3112 65.4163 40.3882 64.3343 40.9012 63.9733C40.7992 65.0533 41.2632 65.0523 43.2632 63.7633C42.6502 65.3063 43.5232 64.8413 44.8052 63.8113C45.0142 65.3013 45.8342 65.0923 46.6012 63.2413C47.3682 61.3903 50.7782 48.2293 46.4112 47.7773Z" fill="url(#paint7_radial_525_124)"/>
<path d="M15.6453 37.363C16.1373 34.209 14.2283 30.868 13.3243 29.5C13.1933 29.9 13.0323 30.313 12.8293 30.723C11.7273 32.942 10.5763 35.116 11.0473 38.533C11.5163 41.949 12.2633 45.272 10.7023 49.341C9.14129 53.407 9.69329 52.436 8.31229 53.734C6.92829 55.029 6.51629 56.278 6.47329 57.895C6.29229 59.28 5.59829 59.097 3.66929 63.258C2.10729 67.048 2.0173 68.064 2.3873 68.156C2.7573 68.248 3.63129 67.46 4.23129 66.488C3.45029 68.245 3.91229 68.937 6.03229 66.716C5.80529 67.963 6.3603 68.885 6.6363 68.1C6.9123 67.314 7.09729 66.852 7.09729 66.852C7.09729 66.852 7.4213 68.051 9.0403 68.742C9.4503 66.432 9.94929 62.735 11.1473 61.578C12.3443 60.42 12.6213 60.235 13.0823 59.172C13.6793 58.015 16.0323 56.856 18.3823 54.91C20.7333 52.965 20.8253 52.965 21.3763 51.347C21.9273 49.727 22.2463 48.621 22.2463 48.621C22.2463 48.621 20.3163 47.175 17.6923 45.02C15.0673 42.865 14.9343 41.883 15.6453 37.363Z" fill="url(#paint8_radial_525_124)"/>
<path d="M81.2873 54.5572C79.6503 52.8622 78.8663 51.7562 79.1883 50.1232C79.5083 48.4902 79.1173 47.8382 78.2003 46.4052C77.2813 44.9702 77.4723 42.4892 77.5313 39.2272C77.5893 35.9632 78.7393 33.5222 73.7273 23.7452C70.3853 17.0092 67.5123 12.5832 64.8343 12.6822C62.1543 12.7792 56.9823 12.6072 55.2243 11.2262C53.4673 9.8452 52.0533 6.2512 48.9533 3.1632C45.8523 0.0782046 40.3213 -2.7788 28.2163 5.0082C26.9063 7.1592 13.8353 26.1492 13.8353 26.1492C13.8353 26.1492 13.8993 27.7172 13.3243 29.5012C14.2283 30.8692 16.1383 34.2102 15.6453 37.3642C14.9343 41.8842 15.0673 42.8662 17.6923 45.0202C20.3163 47.1752 22.2463 48.6212 22.2463 48.6212C22.2463 48.6212 24.4253 50.4562 26.1343 51.8602C27.8463 53.2642 31.2203 54.5372 34.8823 51.2002C37.2233 49.1462 41.1493 46.9762 47.3263 48.5482C47.6133 50.3032 47.8993 51.4362 47.1103 52.9102C46.3223 54.3852 46.6063 55.0642 47.3433 56.2512C48.0833 57.4392 47.6323 58.1202 47.1273 60.1592C46.6213 62.2012 45.4413 66.2252 45.8453 69.4522C46.0203 70.9252 47.2643 69.9022 47.6013 68.7122C47.7753 70.3542 47.7183 70.1282 48.2813 69.3332C48.8473 68.5392 48.8473 68.5392 48.8473 68.5392C48.8473 68.5392 49.6443 69.8392 50.8323 70.4032C52.0243 70.9662 52.0793 69.8332 51.9053 69.0412C52.7593 70.2862 52.7023 70.1732 52.8693 68.6442C53.0353 67.1132 53.3103 64.1662 52.7373 61.5632C52.1663 58.9592 52.5583 57.5412 53.3473 56.1802C54.1373 54.8202 54.1373 54.6492 53.9063 53.0072C54.4123 50.6842 55.2003 49.3212 55.2003 49.3212C55.2003 49.3212 60.1313 49.8192 61.4873 49.0802C62.8443 48.3402 67.4453 43.7092 67.4453 43.7092C67.4453 43.7092 68.8653 46.6882 71.3513 49.0332C73.1183 50.6602 72.9223 51.0532 72.9893 51.5742C73.0553 52.0962 73.3843 52.6832 74.4943 53.2672C74.7573 53.7242 75.2843 56.3332 75.9453 59.1382C76.6053 61.9442 77.1333 65.2702 77.1333 65.2702C77.1333 65.2702 78.5693 64.5492 78.6973 63.1792C78.8313 64.6142 78.8313 64.6142 78.8313 64.6142C78.8313 64.6142 81.0483 63.6312 81.2403 62.1942C82.4173 63.2362 82.4173 63.2362 82.4173 63.2362L82.7413 61.9302C82.7413 61.9302 84.6363 62.9052 85.4823 62.3152C84.1033 58.7932 82.9233 56.2502 81.2873 54.5572Z" fill="url(#paint9_radial_525_124)"/>
<g opacity="0.5">
<path d="M47.2343 26.3516C47.2343 26.3516 47.0933 26.6836 46.8643 27.2696C46.7473 27.5636 46.6133 27.9216 46.4663 28.3346C46.3213 28.7486 46.1553 29.2136 45.9893 29.7286C45.8173 30.2396 45.6523 30.8016 45.4853 31.3956C45.4063 31.6936 45.3243 32.0006 45.2453 32.3136C45.1693 32.6286 45.0933 32.9516 45.0163 33.2786C44.9523 33.6086 44.8843 33.9436 44.8163 34.2836C44.7513 34.6236 44.7133 34.9716 44.6593 35.3206C44.5733 36.0196 44.5133 36.7346 44.5203 37.4466C44.5003 37.8046 44.5423 38.1596 44.5653 38.5126C44.5723 38.8686 44.6583 39.2116 44.7163 39.5556C44.7663 39.9006 44.8793 40.2356 44.9633 40.5746C45.0513 40.9096 45.1393 41.2416 45.2253 41.5686C45.4243 42.2126 45.5893 42.8416 45.7803 43.4306C45.9643 44.0216 46.1523 44.5756 46.3323 45.0856C46.5093 45.5956 46.6763 46.0616 46.8083 46.4826C46.9513 46.8996 47.0403 47.2736 47.1273 47.5776C47.2043 47.8836 47.2413 48.1306 47.2783 48.2946C47.3103 48.4596 47.3263 48.5486 47.3263 48.5486C47.3263 48.5486 47.3053 48.4616 47.2633 48.2966C47.2183 48.1346 47.1653 47.8936 47.0743 47.5916C46.9763 47.2906 46.8693 46.9246 46.7103 46.5166C46.5613 46.1046 46.3733 45.6446 46.1863 45.1386C45.9933 44.6326 45.7913 44.0806 45.5903 43.4936C45.3823 42.9086 45.1953 42.2796 44.9943 41.6316C44.9063 41.3056 44.8143 40.9746 44.7223 40.6396C44.6363 40.3026 44.5213 39.9706 44.4633 39.6106C44.4013 39.2566 44.3103 38.9026 44.2963 38.5376C44.2723 38.1756 44.2263 37.8116 44.2443 37.4476C44.2413 36.7186 44.3103 35.9936 44.4033 35.2866C44.4623 34.9346 44.5013 34.5816 44.5733 34.2396C44.6443 33.8976 44.7143 33.5596 44.7823 33.2266C44.8643 32.8966 44.9443 32.5736 45.0243 32.2566C45.1153 31.9436 45.2043 31.6366 45.2913 31.3386C45.4763 30.7446 45.6563 30.1866 45.8443 29.6776C46.0193 29.1656 46.2063 28.7056 46.3693 28.2966C46.5363 27.8896 46.6863 27.5376 46.8143 27.2476C47.0733 26.6736 47.2343 26.3516 47.2343 26.3516Z" fill="#311C17"/>
<path d="M58.2682 28.6328C58.2682 28.6328 58.3492 28.9588 58.4702 29.5348C58.5302 29.8228 58.5992 30.1728 58.6732 30.5758C58.7462 30.9798 58.8282 31.4348 58.8942 31.9348C58.9692 32.4328 59.0342 32.9768 59.1022 33.5518C59.1292 33.8408 59.1582 34.1358 59.1862 34.4378C59.2142 34.7408 59.2252 35.0508 59.2472 35.3658C59.2682 35.6818 59.2672 36.0038 59.2782 36.3288C59.2902 36.6548 59.2832 36.9828 59.2762 37.3168C59.2742 37.4828 59.2702 37.6498 59.2672 37.8168L59.2332 38.3198L59.2012 38.8238C59.1862 38.9918 59.1582 39.1598 59.1382 39.3278L59.0702 39.8318C59.0462 39.9988 59.0022 40.1638 58.9662 40.3288L58.8602 40.8238C58.8192 40.9868 58.7572 41.1468 58.7092 41.3058C58.6562 41.4658 58.6042 41.6258 58.5512 41.7848C58.4872 41.9358 58.4262 42.0858 58.3622 42.2358C58.2362 42.5328 58.1142 42.8288 57.9922 43.1188C57.5062 44.2798 57.0302 45.3558 56.6342 46.2828C56.4352 46.7458 56.2592 47.1728 56.0752 47.5388C55.8942 47.9078 55.7412 48.2298 55.6122 48.4948C55.3532 49.0228 55.2042 49.3238 55.2042 49.3238C55.2042 49.3238 55.3352 49.0148 55.5642 48.4728C55.6772 48.2028 55.8172 47.8748 55.9782 47.4998C56.1452 47.1268 56.3002 46.6908 56.4922 46.2238C56.8682 45.2888 57.2912 44.1938 57.7712 43.0278C57.8882 42.7378 58.0092 42.4408 58.1322 42.1398C58.1942 41.9898 58.2542 41.8388 58.3182 41.6878C58.3662 41.5348 58.4162 41.3808 58.4642 41.2268C58.5112 41.0698 58.5662 40.9168 58.6052 40.7578L58.7072 40.2738C58.7382 40.1128 58.7812 39.9518 58.8042 39.7868L58.8672 39.2928C58.8882 39.1268 58.9172 38.9618 58.9312 38.7978L58.9692 38.2998L59.0082 37.8038C59.0122 37.6388 59.0162 37.4728 59.0222 37.3088C59.0312 36.9798 59.0412 36.6538 59.0312 36.3318C59.0232 36.0098 59.0302 35.6898 59.0102 35.3768C58.9842 34.7498 58.9462 34.1438 58.9052 33.5698C58.8542 32.9958 58.8072 32.4538 58.7452 31.9548C58.6892 31.4538 58.6282 30.9968 58.5762 30.5908C58.5212 30.1868 58.4682 29.8338 58.4222 29.5438C58.3252 28.9638 58.2682 28.6328 58.2682 28.6328Z" fill="#311C17"/>
<path d="M45.0362 28.457C45.0362 28.457 45.0282 28.528 45.0162 28.652C44.9982 28.775 44.9952 28.953 44.9712 29.163C44.9672 29.268 44.9612 29.383 44.9542 29.503C44.9442 29.624 44.9362 29.751 44.9342 29.882C44.9292 30.013 44.9292 30.15 44.9182 30.286C44.9092 30.424 44.9182 30.564 44.9172 30.705C44.9152 30.845 44.9152 30.984 44.9122 31.122C44.9172 31.261 44.9232 31.397 44.9272 31.528C44.9342 31.659 44.9342 31.787 44.9362 31.908C44.9322 32.029 44.9512 32.142 44.9552 32.248C44.9692 32.459 44.9692 32.638 44.9762 32.762C44.9792 32.886 44.9772 32.958 44.9772 32.958C44.9772 32.958 44.9562 32.892 44.9222 32.77C44.8932 32.649 44.8432 32.476 44.7952 32.267C44.7742 32.163 44.7382 32.05 44.7282 31.927C44.7132 31.805 44.6982 31.676 44.6832 31.542C44.6712 31.409 44.6512 31.271 44.6442 31.13C44.6442 30.988 44.6422 30.845 44.6412 30.702C44.6462 30.558 44.6392 30.414 44.6522 30.273C44.6622 30.132 44.6782 29.994 44.6912 29.861C44.7002 29.726 44.7252 29.599 44.7472 29.477C44.7702 29.356 44.7912 29.242 44.8152 29.138C44.8692 28.929 44.9202 28.758 44.9642 28.639C45.0052 28.522 45.0362 28.457 45.0362 28.457Z" fill="#311C17"/>
<path d="M60.6252 29.5273C60.6252 29.5273 60.6292 29.5933 60.6242 29.7083C60.6182 29.8243 60.6102 29.9893 60.5832 30.1843C60.5582 30.3803 60.5192 30.6083 60.4582 30.8483C60.4022 31.0903 60.3152 31.3413 60.2242 31.5893C60.1752 31.7143 60.1172 31.8323 60.0652 31.9523C60.0072 32.0703 59.9442 32.1823 59.8822 32.2903C59.7542 32.5053 59.6112 32.6923 59.4802 32.8433C59.4102 32.9153 59.3432 32.9793 59.2832 33.0343C59.2292 33.0933 59.1642 33.1303 59.1202 33.1653C59.0282 33.2343 58.9742 33.2693 58.9742 33.2693C58.9742 33.2693 59.0142 33.2153 59.0822 33.1263C59.1162 33.0813 59.1662 33.0333 59.2082 32.9643C59.2502 32.8983 59.2982 32.8243 59.3542 32.7463C59.4032 32.6633 59.4552 32.5723 59.5102 32.4793C59.5602 32.3813 59.6142 32.2783 59.6692 32.1733C59.7692 31.9563 59.8762 31.7253 59.9672 31.4853C60.0122 31.3653 60.0632 31.2473 60.1032 31.1273C60.1442 31.0083 60.1902 30.8923 60.2252 30.7773C60.3002 30.5463 60.3712 30.3313 60.4322 30.1473C60.5472 29.7763 60.6252 29.5273 60.6252 29.5273Z" fill="#311C17"/>
<path d="M26.2432 40.2969C26.2432 40.2969 26.2642 40.4569 26.2962 40.7379C26.3262 41.0179 26.3892 41.4159 26.4552 41.8939C26.4932 42.1329 26.5282 42.3919 26.5792 42.6629C26.6242 42.9359 26.6792 43.2219 26.7352 43.5169C26.7872 43.8149 26.8612 44.1179 26.9232 44.4269C26.9892 44.7349 27.0682 45.0459 27.1432 45.3589C27.2282 45.6669 27.3022 45.9779 27.3942 46.2799C27.4932 46.5789 27.5682 46.8819 27.6742 47.1629C27.7812 47.4429 27.8582 47.7259 27.9672 47.9779C28.0712 48.2319 28.1592 48.4779 28.2632 48.6939C28.3682 48.9099 28.4602 49.1119 28.5432 49.2889C28.6232 49.4679 28.7182 49.6119 28.7822 49.7359C28.9162 49.9849 28.9922 50.1279 28.9922 50.1279C28.9922 50.1279 28.8992 49.9959 28.7372 49.7649C28.6572 49.6479 28.5512 49.5109 28.4522 49.3409C28.3522 49.1709 28.2392 48.9779 28.1222 48.7629C28.0062 48.5509 27.9012 48.3069 27.7802 48.0559C27.6532 47.8069 27.5562 47.5289 27.4432 47.2459C27.3282 46.9639 27.2382 46.6609 27.1382 46.3579C27.0412 46.0529 26.9632 45.7389 26.8712 45.4269C26.7232 44.7959 26.5852 44.1599 26.4962 43.5609C26.3962 42.9609 26.3482 42.3959 26.2992 41.9129C26.2222 40.9439 26.2432 40.2969 26.2432 40.2969Z" fill="#311C17"/>
<path d="M35.7822 50.346C35.7822 50.346 35.8962 50.222 36.0982 50.007C36.3052 49.795 36.5932 49.484 36.9552 49.131C37.3162 48.777 37.7342 48.358 38.1912 47.921C38.6482 47.481 39.1552 47.034 39.6562 46.579C39.9082 46.355 40.1612 46.131 40.4082 45.911C40.6582 45.691 40.9012 45.472 41.1472 45.272C41.6382 44.87 42.1072 44.509 42.5022 44.192C42.8972 43.875 43.2392 43.627 43.4732 43.445C43.7092 43.269 43.8462 43.168 43.8462 43.168C43.8462 43.168 43.7222 43.284 43.5072 43.487C43.2882 43.685 42.9812 43.977 42.6022 44.312C42.2222 44.647 41.7872 45.044 41.3082 45.455C41.0672 45.66 40.8342 45.891 40.5852 46.109C40.3402 46.333 40.0882 46.559 39.8402 46.786C38.8282 47.679 37.8172 48.573 37.0612 49.243C36.6792 49.574 36.3592 49.85 36.1352 50.045C35.9102 50.237 35.7822 50.346 35.7822 50.346Z" fill="#311C17"/>
<path d="M71.7662 24.7891C71.7662 24.7891 71.7812 24.8721 71.8112 25.0281C71.8472 25.1821 71.9012 25.4081 71.9682 25.6951C72.0282 25.9841 72.1522 26.3231 72.2632 26.7181C72.3242 26.9141 72.3882 27.1231 72.4562 27.3431C72.5242 27.5621 72.6122 27.7891 72.6962 28.0271C72.8662 28.5041 73.0502 29.0191 73.2452 29.5641C73.4482 30.1091 73.6702 30.6841 73.8472 31.2971C74.0272 31.9081 74.1842 32.5521 74.2572 33.2261C74.3302 33.8981 74.3092 34.6021 74.1252 35.2771C73.9322 35.9481 73.5752 36.5601 73.1432 37.0831C72.7142 37.5921 72.2922 38.0921 71.8822 38.5771C71.0642 39.5441 70.2842 40.4321 69.6242 41.2021C68.9732 41.9761 68.4282 42.6211 68.0482 43.0741C67.6652 43.5241 67.4442 43.7811 67.4442 43.7811C67.4442 43.7811 67.6492 43.5121 68.0072 43.0401C68.1872 42.8051 68.4052 42.5201 68.6562 42.1931C68.9062 41.8671 69.1862 41.4931 69.5052 41.1001C70.1502 40.3151 70.8892 39.3941 71.6982 38.4201C72.1022 37.9351 72.5192 37.4311 72.9442 36.9211C73.3512 36.4131 73.6802 35.8321 73.8582 35.2011C74.0382 34.5711 74.0642 33.9021 74.0002 33.2531C73.9362 32.6021 73.7872 31.9691 73.6152 31.3641C73.4412 30.7601 73.2432 30.1841 73.0552 29.6351C72.8742 29.0811 72.7042 28.5591 72.5462 28.0761C72.4702 27.8341 72.3862 27.6051 72.3262 27.3821C72.2672 27.1581 72.2152 26.9441 72.1642 26.7441C72.0672 26.3441 71.9602 26.0001 71.9142 25.7071C71.8582 25.4141 71.8162 25.1861 71.7932 25.0311C71.7772 24.8731 71.7662 24.7891 71.7662 24.7891Z" fill="#311C17"/>
<path d="M55.3173 11.3203C55.3173 11.3203 55.7173 11.7123 56.3163 12.3013C56.6113 12.5983 56.9653 12.9343 57.3463 13.2973C57.7253 13.6563 58.1273 14.0443 58.5453 14.4133C58.9543 14.7923 59.3773 15.1543 59.7753 15.4903C59.9793 15.6543 60.1743 15.8143 60.3613 15.9643C60.5473 16.1143 60.7323 16.2443 60.9003 16.3683C61.0683 16.4943 61.2313 16.5933 61.3693 16.6923C61.5103 16.7923 61.6373 16.8663 61.7413 16.9253C61.9543 17.0513 62.0733 17.1243 62.0733 17.1243C62.0733 17.1243 61.9433 17.0693 61.7173 16.9743C61.6053 16.9263 61.4683 16.8653 61.3183 16.7813C61.1693 16.6983 60.9893 16.6163 60.8153 16.4993C60.6373 16.3843 60.4403 16.2663 60.2413 16.1273C60.0443 15.9863 59.8313 15.8453 59.6253 15.6813C59.4193 15.5153 59.1983 15.3563 58.9913 15.1713C58.7813 14.9913 58.5633 14.8103 58.3583 14.6203C57.9423 14.2423 57.5403 13.8483 57.1743 13.4703C56.8063 13.0933 56.4833 12.7243 56.2023 12.4093C55.6493 11.7723 55.3173 11.3203 55.3173 11.3203Z" fill="#311C17"/>
<path d="M53.3933 50.1211C53.3933 50.1211 53.4583 50.3111 53.5263 50.6011C53.5623 50.7441 53.5923 50.9141 53.6273 51.0951C53.6683 51.2731 53.7043 51.4641 53.7423 51.6551C53.8093 52.0371 53.8523 52.4221 53.8693 52.7171C53.8873 53.0091 53.8773 53.2121 53.8773 53.2121C53.8773 53.2121 53.7963 53.0291 53.7143 52.7441C53.6273 52.4581 53.5353 52.0741 53.4673 51.6851C53.4363 51.4911 53.4043 51.2961 53.3843 51.1121C53.3683 50.9281 53.3673 50.7571 53.3673 50.6091C53.3673 50.3181 53.3933 50.1211 53.3933 50.1211Z" fill="#311C17"/>
<path d="M14.1143 56.9258C14.1143 56.9258 14.0613 57.0838 13.9773 57.3078C13.9373 57.4238 13.8753 57.5448 13.8243 57.6848C13.7703 57.8228 13.7043 57.9668 13.6383 58.1098C13.5663 58.2508 13.5003 58.3938 13.4403 58.5288C13.3773 58.6638 13.3143 58.7868 13.2533 58.8918C13.1363 59.1018 13.0363 59.2358 13.0363 59.2358C13.0363 59.2358 13.0483 59.0718 13.1033 58.8348C13.1303 58.7168 13.1673 58.5788 13.2143 58.4348C13.2373 58.3608 13.2573 58.2868 13.2863 58.2118C13.3183 58.1388 13.3513 58.0658 13.3853 57.9918C13.4583 57.8488 13.5303 57.7028 13.6073 57.5718C13.6783 57.4388 13.7703 57.3258 13.8413 57.2268C13.9873 57.0318 14.1143 56.9258 14.1143 56.9258Z" fill="#311C17"/>
</g>
<g opacity="0.3">
<path d="M84.4113 60.8634C83.9543 60.9324 83.3293 60.9934 82.9203 60.7214C82.5583 60.4784 82.2353 60.2104 81.8143 60.0874C81.6813 60.5244 81.5703 60.9624 81.4963 61.4154C81.4923 61.4434 81.4043 61.6244 81.3533 61.5754C80.8983 61.1474 80.6433 60.5834 80.3543 60.0414C80.1153 60.8434 79.7993 61.6074 79.1463 62.1684C79.1183 62.1934 79.0803 62.1964 79.0723 62.1534C78.6833 60.3034 77.4573 58.8314 77.3473 56.8974C77.2893 55.8434 77.2963 54.6324 77.9323 53.7354C78.7663 52.5584 80.1283 53.4494 80.9143 54.1644C80.9213 54.1714 80.9263 54.1764 80.9333 54.1834C79.5403 52.6934 78.8913 51.6314 79.1893 50.1224C79.5093 48.4894 79.1183 47.8374 78.2013 46.4044C77.2823 44.9694 77.4733 42.4884 77.5323 39.2264C77.5903 35.9624 78.7403 33.5214 73.7283 23.7444C76.0423 28.2434 77.0793 31.9774 76.9083 37.1494C76.7343 42.3224 76.5553 45.0934 77.9473 47.3994C79.3383 49.7064 78.6943 51.8314 77.4023 51.9264C76.1103 52.0224 74.5383 51.1954 74.5353 50.0854C74.5343 48.9784 74.5303 47.6854 72.3083 45.7494C69.0813 42.9384 72.7553 39.4684 74.3193 37.0624C75.8853 34.6574 75.6313 33.9574 74.0473 30.7414C72.4613 27.5264 71.6653 24.3094 71.6653 24.3094C71.6653 24.3094 71.9383 27.6594 72.8633 30.3504C73.7903 33.0424 73.1373 35.0794 68.7463 39.2954C62.7163 44.8274 60.8423 39.9574 60.4663 37.0034C60.0903 34.0484 59.9983 34.6034 61.1013 31.4604C61.9013 29.1714 61.2743 27.0274 60.8153 28.3204C60.0633 30.4394 59.8073 31.2794 59.1573 29.6174C58.4283 27.7614 56.8353 24.8204 57.5783 26.8504C58.8813 30.7254 58.4313 35.1614 56.9663 40.7984C55.5013 46.4364 52.2733 48.3834 52.7433 52.3544C53.2153 56.3244 49.9843 57.6254 48.7803 55.7814C47.5753 53.9374 47.6653 53.1054 48.5843 51.1644C49.5053 49.2224 48.6693 47.6534 46.5253 39.7154C44.3823 31.7774 49.1333 23.9954 48.5313 24.3404C47.9293 24.6864 46.4703 26.4984 45.7003 28.6534C44.9313 30.8084 44.7543 29.2584 45.1793 27.1054C43.2923 30.4684 43.4823 37.6154 43.6613 40.5434C43.8393 43.4704 38.7663 46.5834 34.4703 49.8644C30.4583 52.9294 28.1773 47.6414 26.2673 41.1854C26.1853 42.5634 26.5383 46.4394 28.3553 50.3104C30.1733 54.1814 24.9103 49.6284 20.9393 45.8504C16.4743 41.5994 17.1313 38.0214 18.6833 39.0524C20.2373 40.0824 22.4763 40.9384 27.1243 39.6354C31.7713 38.3334 33.2293 35.5734 33.1333 31.2674C33.0363 26.9624 37.0773 24.0244 38.7933 21.0054C40.5073 17.9874 38.2613 14.8064 36.7903 11.7104C35.3183 8.61244 35.5713 6.20144 32.7243 4.57144C31.8113 4.04744 31.8413 3.35044 32.3033 2.64844C31.0303 3.29444 29.6733 4.07244 28.2183 5.00844C26.9083 7.15944 13.8373 26.1494 13.8373 26.1494C13.8373 26.1494 13.9013 27.7174 13.3263 29.5014C14.2303 30.8694 16.1403 34.2104 15.6473 37.3644C14.9363 41.8844 15.0693 42.8664 17.6943 45.0204C20.3183 47.1754 22.2483 48.6214 22.2483 48.6214C22.2483 48.6214 24.4273 50.4564 26.1363 51.8604C27.8483 53.2644 31.2223 54.5374 34.8843 51.2004C37.2253 49.1464 41.1513 46.9764 47.3283 48.5484C47.6153 50.3034 47.9013 51.4364 47.1123 52.9104C46.3243 54.3854 46.6083 55.0644 47.3453 56.2514C48.0853 57.4394 47.6343 58.1204 47.1293 60.1594C46.9733 60.7924 46.7513 61.6154 46.5323 62.5454C46.9773 61.6474 47.3533 60.7214 47.7453 59.7924C48.0043 59.1734 48.3443 58.2704 49.0423 58.0184C50.3943 57.5294 50.5633 59.9474 50.6423 60.7564C50.7553 61.9104 50.9493 63.0474 51.1503 64.1894C51.3303 65.2114 51.7003 66.4354 51.5503 67.4884C51.5023 67.8224 51.2933 68.5584 50.7923 68.4064C50.0573 68.1794 49.7773 67.2854 49.1703 66.8694C48.9183 67.4254 48.5283 67.8474 48.0063 68.1834C47.9763 68.2014 47.9393 68.2164 47.9293 68.1684C47.8623 67.7384 47.8803 67.3144 47.7673 66.8964C47.3303 67.8154 46.6613 68.5034 45.7963 68.8884C45.8073 69.0784 45.8253 69.2674 45.8473 69.4524C46.0223 70.9254 47.2663 69.9024 47.6033 68.7124C47.7773 70.3544 47.7203 70.1284 48.2833 69.3334C48.8493 68.5394 48.8493 68.5394 48.8493 68.5394C48.8493 68.5394 49.6463 69.8394 50.8343 70.4034C52.0263 70.9664 52.0813 69.8334 51.9073 69.0414C52.7613 70.2864 52.7043 70.1734 52.8713 68.6444C53.0373 67.1134 53.3123 64.1664 52.7393 61.5634C52.1683 58.9594 52.5603 57.5414 53.3493 56.1804C54.1393 54.8204 54.1393 54.6494 53.9083 53.0074C54.4143 50.6844 55.2023 49.3214 55.2023 49.3214C55.2023 49.3214 60.1333 49.8194 61.4893 49.0804C62.8463 48.3404 67.4473 43.7094 67.4473 43.7094C67.4473 43.7094 68.8673 46.6884 71.3533 49.0334C73.1203 50.6604 72.9243 51.0534 72.9913 51.5744C73.0573 52.0964 73.3863 52.6834 74.4963 53.2674C74.7593 53.7244 75.2863 56.3334 75.9473 59.1384C76.6073 61.9444 77.1353 65.2704 77.1353 65.2704C77.1353 65.2704 78.5713 64.5494 78.6993 63.1794C78.8333 64.6144 78.8333 64.6144 78.8333 64.6144C78.8333 64.6144 81.0503 63.6314 81.2423 62.1944C82.4193 63.2364 82.4193 63.2364 82.4193 63.2364L82.7433 61.9304C82.7433 61.9304 84.6383 62.9054 85.4843 62.3154C85.2713 61.7714 85.0633 61.2524 84.8563 60.7544C84.7113 60.7994 84.5633 60.8394 84.4113 60.8634Z" fill="url(#paint10_radial_525_124)"/>
</g>
<path d="M32.4912 5.9245C32.4912 5.9245 36.6512 7.3455 40.4812 6.5045C44.3122 5.6645 44.4442 4.6525 43.2412 1.9725C42.5082 0.342503 43.2332 0.0315032 44.6622 1.1565C46.0922 2.2815 49.0412 8.2515 45.5472 10.3385C42.4012 12.2165 35.6112 12.3365 35.6112 12.3365C35.6112 12.3365 34.2382 7.6405 32.4912 5.9245Z" fill="url(#paint11_radial_525_124)"/>
<path d="M43.6592 2.82484C43.5792 2.64584 43.4922 2.48584 43.4032 2.33984C44.4232 4.74584 44.1302 5.70384 40.4812 6.50284C36.6512 7.34384 32.4912 5.92284 32.4912 5.92284C33.1392 6.55884 33.7322 7.60484 34.2282 8.66884C35.3902 8.62184 37.6112 8.47584 40.0692 8.02984C43.6692 7.37384 44.9122 5.59184 43.6592 2.82484Z" fill="url(#paint12_radial_525_124)"/>
<path d="M14.1733 6.82123C14.1733 6.82123 9.94926 7.01523 7.37626 6.94723C4.80426 6.88123 3.37426 6.52323 4.40826 4.02723C5.14326 2.54723 5.62725 1.87723 5.04925 1.80923C4.47125 1.74123 2.90126 2.02223 1.29326 4.95723C-0.108743 7.59423 -0.913742 9.62723 1.79126 11.3762C4.47626 13.0782 8.93326 13.7152 11.7923 12.5762C12.5533 11.5362 13.9603 8.20823 14.1733 6.82123Z" fill="url(#paint13_radial_525_124)"/>
<path d="M6.10229 8.79688C8.26829 9.20088 12.0703 8.76487 13.6863 8.54487C13.9243 7.86887 14.1073 7.25287 14.1723 6.82287C14.1723 6.82287 9.9483 7.01688 7.3753 6.94888C4.9463 6.88488 3.53929 6.56188 4.26029 4.42188C4.21929 4.49787 4.17529 4.57587 4.13029 4.65987C3.35529 6.09287 3.2983 8.27387 6.10229 8.79688Z" fill="url(#paint14_radial_525_124)"/>
<path d="M23.3622 35.9633C26.0862 38.2283 30.6612 34.7693 30.8172 32.3353C30.9722 29.9023 27.0332 28.1263 23.0182 28.3373C19.0972 28.5443 16.2712 30.7983 15.9182 32.3403C16.4792 35.4563 18.6912 37.2043 20.3102 37.4463C21.2752 37.4373 22.5482 37.0993 23.3622 35.9633Z" fill="url(#paint15_radial_525_124)"/>
<path d="M29.5333 24.3576C27.7233 21.3606 23.8413 19.9846 20.0143 22.5796C16.1873 25.1746 15.7853 30.6236 15.7853 30.6236C15.7713 31.2346 15.8213 31.8066 15.9183 32.3396C16.2713 30.7976 19.0973 28.5436 23.0183 28.3366C27.0333 28.1246 30.9723 29.9006 30.8173 32.3346C30.6613 34.7686 26.0863 38.2286 23.3623 35.9626C22.5483 37.0996 21.2753 37.4366 20.3103 37.4456C20.3143 37.4456 20.3213 37.4486 20.3263 37.4486C20.6093 39.7126 23.2413 39.9816 27.3023 38.4486C30.6353 37.1896 31.6933 34.7246 32.0663 32.2476C32.1933 29.9876 31.2693 27.2356 29.5333 24.3576Z" fill="url(#paint16_radial_525_124)"/>
<path d="M36.5472 22.492C38.7572 19.532 38.7542 18.192 37.4562 15.887C36.1572 13.581 35.4102 10.258 34.1572 7.67403C32.9052 5.09103 31.3322 4.07903 28.0532 4.73403C24.1312 5.71303 20.9432 4.93503 18.2162 4.57203C15.4902 4.20803 13.9702 5.27403 13.2842 8.46303C12.5982 11.651 11.3082 13.085 10.2542 15.767C8.55122 20.088 10.2202 22.001 12.8162 25.552C15.4122 29.101 15.7862 30.624 15.7862 30.624C15.7862 30.624 16.1872 25.175 20.0152 22.58C23.8412 19.984 27.7242 21.36 29.5342 24.358C31.2702 27.237 32.1942 29.988 32.0662 32.248C32.1452 31.706 32.1952 31.163 32.2262 30.632C32.4032 27.674 34.3362 25.453 36.5472 22.492Z" fill="url(#paint17_radial_525_124)"/>
<path d="M30.0783 23.6412C30.0783 23.6412 30.8022 21.7872 33.0872 21.4862C32.5502 21.2452 32.0893 21.4422 32.0893 21.4422C32.0893 21.4422 32.6902 20.4252 32.2212 18.4632C31.7512 16.5022 30.2172 14.8892 28.3122 16.0252C26.6712 17.0022 26.5203 19.7012 27.5393 21.3602C28.6603 23.1832 30.1313 22.9712 30.1313 22.9712C30.1313 22.9712 30.0023 23.3402 30.0783 23.6412Z" fill="#B1857C"/>
<path d="M13.9203 23.194C13.9203 23.194 16.1203 23.2921 17.1453 24.7101C17.1623 24.2251 16.9623 23.9481 16.9623 23.9481C16.9623 23.9481 18.9583 23.9551 19.6683 21.2281C20.3773 18.5021 18.8913 16.2761 16.9283 16.1891C14.9653 16.1011 13.2893 19.7761 14.7743 22.7521C14.4033 22.7301 13.9203 23.194 13.9203 23.194Z" fill="#B1857C"/>
<path d="M19.4053 20.3677C19.1893 22.3657 17.9403 23.8678 16.6133 23.7248C15.2873 23.5828 14.3843 21.8478 14.6003 19.8518C14.8173 17.8518 16.0663 16.3478 17.3913 16.4898C18.7183 16.6338 19.6203 18.3687 19.4053 20.3677Z" fill="url(#paint18_linear_525_124)"/>
<path d="M32.0162 18.934C32.3182 20.854 31.4962 22.58 30.1772 22.787C28.8582 22.996 27.5452 21.606 27.2432 19.686C26.9392 17.764 27.7622 16.037 29.0792 15.829C30.3982 15.622 31.7122 17.011 32.0162 18.934Z" fill="url(#paint19_linear_525_124)"/>
<path d="M18.7102 19.8686C18.8282 21.2056 18.2252 22.5516 17.3602 22.8736C16.4952 23.1956 15.7002 22.3706 15.5832 21.0306C15.4642 19.6956 16.0672 18.3486 16.9322 18.0256C17.7962 17.7066 18.5922 18.5306 18.7102 19.8686Z" fill="url(#paint20_radial_525_124)"/>
<path d="M18.2192 20.1013C18.2992 20.9903 17.8983 21.8833 17.3233 22.0953C16.7523 22.3093 16.2213 21.7623 16.1423 20.8743C16.0633 19.9843 16.4643 19.0933 17.0413 18.8773C17.6123 18.6663 18.1392 19.2123 18.2192 20.1013Z" fill="url(#paint21_radial_525_124)"/>
<path d="M18.2873 19.1507C18.4263 19.6487 18.2912 20.2237 17.9872 20.4307C17.6822 20.6417 17.3263 20.4057 17.1863 19.9087C17.0493 19.4097 17.1832 18.8367 17.4882 18.6277C17.7902 18.4177 18.1493 18.6527 18.2873 19.1507Z" fill="url(#paint22_linear_525_124)"/>
<path d="M30.8303 18.7665C31.2803 20.0325 31.0323 21.4855 30.2783 22.0145C29.5203 22.5405 28.5443 21.9435 28.0943 20.6765C27.6443 19.4125 27.8923 17.9585 28.6473 17.4295C29.4023 16.9025 30.3803 17.5025 30.8303 18.7665Z" fill="url(#paint23_radial_525_124)"/>
<path d="M30.4123 19.1122C30.7143 19.9522 30.5483 20.9192 30.0463 21.2672C29.5453 21.6182 28.8963 21.2222 28.5983 20.3812C28.2973 19.5402 28.4633 18.5752 28.9643 18.2232C29.4663 17.8762 30.1143 18.2732 30.4123 19.1122Z" fill="url(#paint24_radial_525_124)"/>
<path d="M30.2413 18.1761C30.4993 18.6231 30.5133 19.2141 30.2713 19.4901C30.0313 19.7701 29.6263 19.6331 29.3663 19.1851C29.1083 18.7371 29.0933 18.1501 29.3383 17.8721C29.5763 17.5911 29.9833 17.7301 30.2413 18.1761Z" fill="url(#paint25_linear_525_124)"/>
<path d="M26.4252 17.793C26.4252 17.793 30.2142 15.159 32.7802 15.154C31.8362 13.187 30.5512 13.39 29.2132 14.507C27.8732 15.622 25.7132 18.28 26.4252 17.793Z" fill="#311C17"/>
<path d="M19.4653 18.4121C19.4653 18.4121 17.9183 16.0481 15.0923 15.3401C14.7493 15.0851 15.9723 13.7131 16.5153 14.0821C17.0573 14.4521 19.0903 16.6441 19.4653 18.4121Z" fill="#311C17"/>
<path d="M19.0362 34.1939C18.4862 33.4339 18.1362 32.3749 18.6462 31.6169C19.0182 31.0639 19.9512 30.6899 20.5882 30.6089C24.0592 30.1629 28.0302 29.9969 28.3482 31.5599C28.6642 33.1229 26.5422 35.5359 23.2282 35.7019C22.0262 35.7599 20.5672 35.6069 19.6082 34.8169C19.4122 34.6539 19.2142 34.4399 19.0362 34.1939Z" fill="url(#paint26_radial_525_124)"/>
<path d="M21.3702 32.9734C21.1472 32.7054 20.8173 32.5094 20.4813 32.4244C20.2933 32.3774 19.8162 32.3974 19.6722 32.5644C19.3832 32.8994 19.5603 33.2394 19.9423 33.4094C20.2413 33.5434 20.5882 33.5724 20.8962 33.7144C21.0982 33.8074 21.6872 34.1774 21.8272 34.4854C21.8382 34.5244 21.8473 34.5634 21.8563 34.6014C21.8563 34.6074 21.8583 34.6124 21.8583 34.6174C21.8583 34.6354 21.8622 34.6424 21.8662 34.6464C21.8772 34.6824 21.8842 34.7184 21.8922 34.7524C21.9302 34.9214 22.0682 34.6944 22.0682 34.6164C22.0702 33.9964 21.7542 33.4374 21.3702 32.9734Z" fill="#3D171B"/>
<path d="M26.9192 31.796C26.3692 31.525 25.7352 32.064 25.4122 32.45C25.0402 32.893 24.9032 33.612 25.0132 34.173C25.0352 34.283 25.1232 34.152 25.1322 34.104C25.1362 34.08 25.1382 34.056 25.1422 34.032C25.4122 33.722 25.6772 33.452 26.0232 33.213C26.3082 33.016 26.6502 32.838 26.8942 32.591C27.1252 32.359 27.2942 31.979 26.9192 31.796Z" fill="#3D171B"/>
<path d="M22.2123 36.9911C22.2123 36.9911 23.0623 36.4531 23.3623 35.9641C24.0813 36.5121 25.6553 37.3241 28.0423 35.9531C26.7543 37.2181 26.1193 38.3781 24.7973 37.8921C23.4753 37.4031 22.2123 36.9911 22.2123 36.9911Z" fill="url(#paint27_linear_525_124)"/>
<path d="M29.8833 28.4727C29.8833 28.4727 29.9083 28.4917 29.9523 28.5177C29.9933 28.5477 30.0593 28.5807 30.1293 28.6257C30.1633 28.6467 30.2073 28.6627 30.2473 28.6877C30.2873 28.7097 30.3313 28.7327 30.3773 28.7507C30.4233 28.7707 30.4723 28.7887 30.5183 28.8137C30.5653 28.8357 30.6193 28.8477 30.6693 28.8647C30.7183 28.8827 30.7673 28.9067 30.8183 28.9197C30.8703 28.9287 30.9193 28.9447 30.9683 28.9577C31.0183 28.9697 31.0673 28.9877 31.1103 29.0017C31.1593 29.0117 31.2043 29.0197 31.2453 29.0277C31.4093 29.0607 31.5293 29.1077 31.5293 29.1077C31.5293 29.1077 31.4173 29.1537 31.2373 29.1867C31.1933 29.1937 31.1443 29.2067 31.0923 29.2067C31.0393 29.2057 30.9853 29.2037 30.9283 29.1977C30.8693 29.1917 30.8113 29.1887 30.7513 29.1787C30.6913 29.1667 30.6343 29.1427 30.5743 29.1257C30.5163 29.1017 30.4573 29.0847 30.4043 29.0557C30.3503 29.0257 30.3003 28.9907 30.2523 28.9597C30.2023 28.9327 30.1623 28.8897 30.1243 28.8537C30.0853 28.8157 30.0493 28.7817 30.0223 28.7447C29.9663 28.6687 29.9273 28.6037 29.9073 28.5527C29.8873 28.5027 29.8833 28.4727 29.8833 28.4727Z" fill="#311C17"/>
<path d="M30.3683 28.8867C30.3683 28.8867 30.4853 29.0597 30.6003 29.3447C30.6643 29.4847 30.7213 29.6547 30.7803 29.8377C30.8373 30.0207 30.8753 30.2237 30.9193 30.4227C30.9333 30.5247 30.9433 30.6277 30.9573 30.7287C30.9693 30.8297 30.9813 30.9277 30.9803 31.0257C30.9793 31.2187 30.9783 31.3997 30.9593 31.5527C30.9033 31.8617 30.8443 32.0557 30.8443 32.0557C30.8443 32.0557 30.8123 31.8477 30.8013 31.5507C30.7943 31.4767 30.7773 31.3967 30.7683 31.3117C30.7573 31.2267 30.7453 31.1387 30.7383 31.0457C30.7313 30.9537 30.7033 30.8597 30.6923 30.7627C30.6773 30.6657 30.6633 30.5677 30.6473 30.4707C30.5763 30.0777 30.5033 29.6847 30.4513 29.3897C30.3983 29.0927 30.3683 28.8867 30.3683 28.8867Z" fill="#311C17"/>
<path d="M11.6222 43.3789C11.6242 43.4119 11.6252 43.4439 11.6252 43.4779L11.6382 43.4689C11.6382 43.4689 11.6322 43.4369 11.6222 43.3789Z" fill="url(#paint28_radial_525_124)"/>
<path opacity="0.3" d="M17.6922 45.019C15.0672 42.865 14.9342 41.883 15.6452 37.363C16.1372 34.209 14.2282 30.868 13.3242 29.5C13.1932 29.9 13.0322 30.313 12.8292 30.723C11.7272 32.942 10.5762 35.116 11.0472 38.533C11.1202 39.075 11.2032 39.612 11.2802 40.152C11.1932 38.246 11.3162 35.983 12.1842 34.688C13.8832 32.158 14.9012 34.682 14.2822 39.548C13.6612 44.413 14.1122 43.486 15.7792 45.422C17.0302 46.875 15.9322 51.449 14.7572 53.114C13.5832 54.78 12.4102 55.116 12.2082 56.433C12.0032 57.749 11.7442 58.97 10.0832 59.805C8.42423 60.639 8.06223 63.382 7.37323 65.323C6.68523 67.264 6.54523 66.017 6.61023 64.979C6.67723 63.939 5.78222 65.951 4.88222 66.577C4.26022 66.855 4.94823 65.052 4.94823 65.052C4.94823 65.052 3.64023 67.076 2.37623 66.802C2.11723 67.76 2.17923 68.105 2.38623 68.156C2.75623 68.248 3.63022 67.46 4.23022 66.488C3.44922 68.245 3.91123 68.937 6.03123 66.716C5.80423 67.963 6.35922 68.885 6.63522 68.1C6.91122 67.314 7.09623 66.852 7.09623 66.852C7.09623 66.852 7.42023 68.051 9.03923 68.742C9.44923 66.432 9.94822 62.735 11.1462 61.578C12.3432 60.42 12.6202 60.235 13.0812 59.172C13.6782 58.015 16.0312 56.856 18.3812 54.91C20.7322 52.965 20.8242 52.965 21.3752 51.347C21.9262 49.727 22.2452 48.621 22.2452 48.621C22.2452 48.621 20.3162 47.174 17.6922 45.019Z" fill="url(#paint29_radial_525_124)"/>
<g opacity="0.5">
<path d="M26.7003 5.77172C27.3963 5.40072 28.2243 4.94372 29.1363 4.57172C28.7983 4.60372 28.4393 4.65472 28.0543 4.73272C24.1323 5.71172 20.9443 4.93372 18.2173 4.57072C17.9713 4.53672 17.7363 4.52172 17.5103 4.51172C18.2923 4.75372 19.1633 5.14672 19.9823 5.78772C22.2713 7.58372 24.4853 6.95472 26.7003 5.77172Z" fill="url(#paint30_radial_525_124)"/>
</g>
<path d="M14.4562 25.5584C12.5642 22.5634 9.86822 19.3224 11.6182 15.6054C12.6382 13.4424 14.0372 11.0854 13.7802 8.5994C13.7742 8.5394 13.7162 8.6224 13.7172 8.6514C13.7752 10.6754 12.7142 12.8334 11.7602 14.5794C11.2432 15.5264 10.3802 17.3134 10.3742 18.4114C10.3642 19.9954 10.7212 20.4504 11.4372 21.9024C12.1702 23.3844 13.0412 24.8624 14.1522 26.0934C14.3192 26.2794 14.5502 25.7064 14.4562 25.5584Z" fill="url(#paint31_radial_525_124)"/>
<path d="M14.8482 26.4632C14.8072 26.3672 14.7102 26.5662 14.7332 26.6302C14.9942 27.3282 15.4012 27.9742 15.5732 28.7062C15.6202 28.9052 15.7902 28.6132 15.7702 28.5042C15.6392 27.7662 15.1332 27.1452 14.8482 26.4632Z" fill="url(#paint32_radial_525_124)"/>
<path d="M23.7013 21.4174C20.9213 21.8964 17.9243 23.4374 17.2553 26.4504C17.2063 26.6684 17.2313 26.7144 17.3273 26.5174C17.9763 25.1904 18.8483 24.1214 20.0453 23.2194C21.1303 22.4034 22.4523 21.9354 23.7053 21.4924C23.7823 21.4644 23.8133 21.3984 23.7013 21.4174Z" fill="url(#paint33_radial_525_124)"/>
<path d="M23.6773 30.4577C22.3983 30.2737 18.9213 30.4257 18.8383 32.2667C18.8343 32.3767 18.9333 32.2887 18.9423 32.2277C19.0803 31.2997 20.6493 31.1247 21.3563 31.0127C22.0913 30.8947 22.8352 30.9737 23.5682 30.8687C23.6872 30.8527 23.8223 30.4787 23.6773 30.4577Z" fill="url(#paint34_linear_525_124)"/>
<path d="M25.1612 30.5034C24.9072 30.3414 24.5072 30.4864 24.2382 30.5594C24.1362 30.5874 24.0392 30.9004 24.1762 30.8834C24.3122 30.8674 24.4472 30.8564 24.5842 30.8544C24.7632 30.8494 24.9062 30.8754 25.0762 30.8164C25.1762 30.7814 25.2662 30.5704 25.1612 30.5034Z" fill="url(#paint35_linear_525_124)"/>
<path d="M12.2132 45.2759C11.9762 48.3969 10.9582 51.2479 8.91123 53.6279C7.71123 55.0219 6.66923 55.6349 6.86923 57.6169C6.89523 57.8899 7.14023 57.5179 7.14923 57.4019C7.24923 55.7399 8.22024 54.9659 9.21224 53.8109C9.86224 53.0539 10.3592 52.1919 10.8692 51.3379C11.9182 49.5799 12.2412 47.2159 12.3372 45.2019C12.3462 45.0599 12.2192 45.1989 12.2132 45.2759Z" fill="url(#paint36_radial_525_124)"/>
<path d="M6.14727 59.6284C4.59527 61.3484 3.63127 63.3584 3.37027 65.6624C3.34127 65.9224 3.58928 65.7114 3.61728 65.5704C4.03528 63.3894 4.83927 61.5584 6.18927 59.7874C6.22627 59.7394 6.23027 59.5384 6.14727 59.6284Z" fill="url(#paint37_radial_525_124)"/>
<path d="M31.8013 14.3166C30.5853 12.8496 28.5733 15.3726 27.9003 16.2006C27.8933 16.2096 27.8913 16.2476 27.9083 16.2306C28.4393 15.6666 29.0033 15.1456 29.6243 14.6816C30.3323 14.1526 30.9333 14.1526 31.6313 14.6556C31.7633 14.7516 31.8793 14.4096 31.8013 14.3166Z" fill="#311C17"/>
<path d="M17.8662 15.7116C17.4932 15.2056 17.2342 14.8466 16.8252 14.4906C16.4512 14.1676 16.0632 14.2776 15.7062 14.5546C15.6872 14.5676 15.6422 14.6776 15.6932 14.6666C16.1072 14.5826 16.4212 14.6526 16.7262 14.9516C17.0722 15.2876 18.1452 16.2876 18.4682 16.6436C18.5752 16.7616 17.9282 15.7926 17.8662 15.7116Z" fill="#311C17"/>
<g opacity="0.5">
<path d="M46.8912 37.1719C46.0902 32.7379 47.3322 28.3999 49.8992 24.7849C49.9432 24.7229 49.9292 24.5469 49.8452 24.6559C49.2712 25.4079 48.6822 26.1949 48.1842 26.9989C47.7052 27.7699 47.4922 28.6499 47.0682 29.4449C46.2032 31.0749 46.3622 33.2499 46.2812 35.0269C46.1782 37.2069 46.7952 39.3809 47.4732 41.4279C47.8392 42.5299 48.2892 43.6169 48.7422 44.6869C49.3462 46.1109 49.6732 47.5329 49.9712 49.0459C50.0382 49.3949 50.3132 48.8809 50.3052 48.7209C50.1002 44.6789 47.6092 41.1419 46.8912 37.1719Z" fill="url(#paint38_radial_525_124)"/>
<path d="M49.4012 52.1565C49.5182 51.4225 49.9662 50.8415 50.0092 50.0885C50.0202 49.9265 49.8722 50.0575 49.8582 50.1465C49.7602 50.7485 49.3892 51.2835 49.1842 51.8505C49.0402 52.2395 49.0162 52.6755 48.9452 53.0795C48.8052 53.8565 49.1712 54.7625 49.6142 55.3735C49.7342 55.5395 49.9492 55.0605 49.8802 54.9295C49.3912 54.0125 49.2352 53.2035 49.4012 52.1565Z" fill="url(#paint39_radial_525_124)"/>
</g>
<path d="M21.1562 15.1784C21.1342 15.1464 21.0912 15.2404 21.1042 15.2664C21.4132 15.8734 21.6482 16.3964 21.3272 17.1114C21.1212 17.5684 20.6952 17.8054 20.3222 18.1034C20.2762 18.1414 20.2602 18.3414 20.3332 18.2874C20.9062 17.8424 21.3432 17.5184 21.5712 16.7924C21.7532 16.2204 21.4732 15.6314 21.1562 15.1784Z" fill="#311C17"/>
<path d="M24.7842 17.5008C23.4822 16.8928 23.8482 15.1828 24.0142 14.0398C24.0292 13.9448 23.9472 13.9868 23.9352 14.0548C23.7432 15.1138 23.2412 17.3138 24.6982 17.7518C24.7892 17.7788 24.8702 17.5408 24.7842 17.5008Z" fill="#311C17"/>
<path opacity="0.5" d="M26.7913 49.8204C25.4583 48.1564 23.5043 46.9024 21.9243 45.4674C21.1343 44.7484 20.4043 43.9604 19.7493 43.1154C19.1373 42.3244 18.7963 41.3704 18.2453 40.5404C18.2033 40.4764 18.1053 40.6654 18.1373 40.7214C18.5763 41.5064 18.8003 42.4114 19.2923 43.1624C19.8813 44.0644 20.5833 44.8754 21.3323 45.6454C22.8883 47.2424 24.7323 49.0414 26.6243 50.2194C26.7553 50.3024 26.8623 49.9104 26.7913 49.8204Z" fill="url(#paint40_radial_525_124)"/>
<defs>
<radialGradient id="paint0_radial_525_124" cx="0" cy="0" r="1" gradientUnits="userSpaceOnUse" gradientTransform="translate(81.77 64.6774) rotate(-0.13751) scale(3.74861 3.74861)">
<stop offset="0.1182" stop-color="#3A3A3A"/>
<stop offset="0.8592"/>
</radialGradient>
<radialGradient id="paint1_radial_525_124" cx="0" cy="0" r="1" gradientUnits="userSpaceOnUse" gradientTransform="translate(41.8386 65.6184) rotate(-0.13751) scale(3.59581 3.59581)">
<stop offset="0.1182" stop-color="#3A3A3A"/>
<stop offset="0.8592"/>
</radialGradient>
<radialGradient id="paint2_radial_525_124" cx="0" cy="0" r="1" gradientUnits="userSpaceOnUse" gradientTransform="translate(49.1629 71.1504) rotate(-0.13751) scale(4.01071 4.01071)">
<stop offset="0.1182" stop-color="#3A3A3A"/>
<stop offset="0.8592"/>
</radialGradient>
<radialGradient id="paint3_radial_525_124" cx="0" cy="0" r="1" gradientUnits="userSpaceOnUse" gradientTransform="translate(4.89994 69.0508) rotate(-0.13751) scale(3.85491 3.85491)">
<stop offset="0.1182" stop-color="#3A3A3A"/>
<stop offset="0.8592"/>
</radialGradient>
<radialGradient id="paint4_radial_525_124" cx="0" cy="0" r="1" gradientUnits="userSpaceOnUse" gradientTransform="translate(84.5005 45.6757) rotate(-0.13751) scale(8.46672)">
<stop offset="0.1182" stop-color="#3A3A3A"/>
<stop offset="0.8592"/>
</radialGradient>
<radialGradient id="paint5_radial_525_124" cx="0" cy="0" r="1" gradientUnits="userSpaceOnUse" gradientTransform="translate(86.9599 31.6404) rotate(-0.13751) scale(24.462 24.462)">
<stop offset="0.1428" stop-color="#93492E"/>
<stop offset="0.8513" stop-color="#401A00"/>
</radialGradient>
<radialGradient id="paint6_radial_525_124" cx="0" cy="0" r="1" gradientUnits="userSpaceOnUse" gradientTransform="translate(33.5356 55.0789) rotate(-0.13751) scale(19.1666 19.1666)">
<stop offset="0.1428" stop-color="#93492E"/>
<stop offset="0.8513" stop-color="#401A00"/>
</radialGradient>
<radialGradient id="paint7_radial_525_124" cx="0" cy="0" r="1" gradientUnits="userSpaceOnUse" gradientTransform="translate(33.5356 55.0789) rotate(-0.13751) scale(19.1666 19.1666)">
<stop offset="0.1428" stop-color="#93492E"/>
<stop offset="0.8513" stop-color="#401A00"/>
</radialGradient>
<radialGradient id="paint8_radial_525_124" cx="0" cy="0" r="1" gradientUnits="userSpaceOnUse" gradientTransform="translate(-3.41802 51.8418) rotate(-0.13751) scale(32.002 32.002)">
<stop offset="0.1428" stop-color="#93492E"/>
<stop offset="0.8513" stop-color="#401A00"/>
</radialGradient>
<radialGradient id="paint9_radial_525_124" cx="0" cy="0" r="1" gradientUnits="userSpaceOnUse" gradientTransform="translate(64.6382 6.05139) rotate(-0.13751) scale(68.8386 68.8386)">
<stop offset="0.1428" stop-color="#93492E"/>
<stop offset="0.8513" stop-color="#401A00"/>
</radialGradient>
<radialGradient id="paint10_radial_525_124" cx="0" cy="0" r="1" gradientUnits="userSpaceOnUse" gradientTransform="translate(61.9414 -1.51825) rotate(-0.13751) scale(58.4445 58.4445)">
<stop offset="0.1428" stop-color="#93492E"/>
<stop offset="0.8513" stop-color="#401A00"/>
</radialGradient>
<radialGradient id="paint11_radial_525_124" cx="0" cy="0" r="1" gradientUnits="userSpaceOnUse" gradientTransform="translate(46.1086 2.02893) rotate(-0.13751) scale(17.5947 17.5946)">
<stop offset="0.1653" stop-color="#FDFADC"/>
<stop offset="1" stop-color="#CBBA9C"/>
</radialGradient>
<radialGradient id="paint12_radial_525_124" cx="0" cy="0" r="1" gradientUnits="userSpaceOnUse" gradientTransform="translate(36.6377 -7.58825) rotate(-0.13751) scale(10.1194)">
<stop offset="0.1653" stop-color="#FDFADC"/>
<stop offset="1" stop-color="#CBBA9C"/>
</radialGradient>
<radialGradient id="paint13_radial_525_124" cx="0" cy="0" r="1" gradientUnits="userSpaceOnUse" gradientTransform="translate(1.32798 4.30464) rotate(-0.13751) scale(15.6209 15.6209)">
<stop offset="0.1653" stop-color="#FDFADC"/>
<stop offset="1" stop-color="#CBBA9C"/>
</radialGradient>
<radialGradient id="paint14_radial_525_124" cx="0" cy="0" r="1" gradientUnits="userSpaceOnUse" gradientTransform="translate(11.7621 0.414525) rotate(-0.13751) scale(6.32812)">
<stop offset="0.1653" stop-color="#FDFADC"/>
<stop offset="1" stop-color="#CBBA9C"/>
</radialGradient>
<radialGradient id="paint15_radial_525_124" cx="0" cy="0" r="1" gradientUnits="userSpaceOnUse" gradientTransform="translate(23.0392 29.4275) rotate(-0.13751) scale(10.0944)">
<stop offset="0.1239" stop-color="#E89E92"/>
<stop offset="0.8698" stop-color="#D88175"/>
</radialGradient>
<radialGradient id="paint16_radial_525_124" cx="0" cy="0" r="1" gradientUnits="userSpaceOnUse" gradientTransform="translate(24.0353 22.2287) rotate(-0.13751) scale(23.4965 23.4965)">
<stop offset="0.1428" stop-color="#93492E"/>
<stop offset="0.8513" stop-color="#401A00"/>
</radialGradient>
<radialGradient id="paint17_radial_525_124" cx="0" cy="0" r="1" gradientUnits="userSpaceOnUse" gradientTransform="translate(20.9455 3.84646) rotate(-0.13751) scale(33.508 33.508)">
<stop offset="0.1428" stop-color="#93492E"/>
<stop offset="0.8513" stop-color="#401A00"/>
</radialGradient>
<linearGradient id="paint18_linear_525_124" x1="14.5652" y1="20.2269" x2="19.4431" y2="20.1565" gradientUnits="userSpaceOnUse">
<stop stop-color="white"/>
<stop offset="0.783" stop-color="#EAEAEA"/>
<stop offset="1" stop-color="#E3E3E3"/>
</linearGradient>
<linearGradient id="paint19_linear_525_124" x1="27.3058" y1="20.0462" x2="31.988" y2="18.6902" gradientUnits="userSpaceOnUse">
<stop stop-color="white"/>
<stop offset="0.783" stop-color="#EAEAEA"/>
<stop offset="1" stop-color="#E3E3E3"/>
</linearGradient>
<radialGradient id="paint20_radial_525_124" cx="0" cy="0" r="1" gradientUnits="userSpaceOnUse" gradientTransform="translate(16.86 17.4034) rotate(-19.3239) scale(5.69849 4.68945)">
<stop offset="0.262" stop-color="#0BB6FF"/>
<stop offset="1" stop-color="#00496E"/>
</radialGradient>
<radialGradient id="paint21_radial_525_124" cx="0" cy="0" r="1" gradientUnits="userSpaceOnUse" gradientTransform="translate(17.8644 18.9354) rotate(-28.0197) scale(4.76794 3.64209)">
<stop offset="0.2679" stop-color="#225673"/>
<stop offset="0.4703" stop-color="#20526F"/>
<stop offset="0.6893" stop-color="#1A4862"/>
<stop offset="0.9152" stop-color="#11364C"/>
<stop offset="1" stop-color="#0C2E42"/>
</radialGradient>
<linearGradient id="paint22_linear_525_124" x1="18.9301" y1="18.8696" x2="16.8161" y2="20.0388" gradientUnits="userSpaceOnUse">
<stop stop-color="white"/>
<stop offset="0.783" stop-color="#EAEAEA"/>
<stop offset="1" stop-color="#E3E3E3"/>
</linearGradient>
<radialGradient id="paint23_radial_525_124" cx="0" cy="0" r="1" gradientUnits="userSpaceOnUse" gradientTransform="translate(28.4217 16.8458) rotate(-33.8398) scale(5.69772 4.68914)">
<stop offset="0.262" stop-color="#0BB6FF"/>
<stop offset="1" stop-color="#00496E"/>
</radialGradient>
<radialGradient id="paint24_radial_525_124" cx="0" cy="0" r="1" gradientUnits="userSpaceOnUse" gradientTransform="translate(29.7769 18.072) rotate(-42.5368) scale(4.77078 3.64385)">
<stop offset="0.2679" stop-color="#225673"/>
<stop offset="0.4703" stop-color="#20526F"/>
<stop offset="0.6893" stop-color="#1A4862"/>
<stop offset="0.9152" stop-color="#11364C"/>
<stop offset="1" stop-color="#0C2E42"/>
</radialGradient>
<linearGradient id="paint25_linear_525_124" x1="30.7934" y1="17.7443" x2="29.041" y2="19.4048" gradientUnits="userSpaceOnUse">
<stop stop-color="white"/>
<stop offset="0.783" stop-color="#EAEAEA"/>
<stop offset="1" stop-color="#E3E3E3"/>
</linearGradient>
<radialGradient id="paint26_radial_525_124" cx="0" cy="0" r="1" gradientUnits="userSpaceOnUse" gradientTransform="translate(22.4901 27.9354) rotate(-0.13751) scale(8.26052)">
<stop offset="0.2342" stop-color="white"/>
<stop offset="0.8698" stop-color="#D88175"/>
</radialGradient>
<linearGradient id="paint27_linear_525_124" x1="24.7796" y1="39.7029" x2="25.3347" y2="34.5417" gradientUnits="userSpaceOnUse">
<stop offset="0.1146" stop-color="#E75667"/>
<stop offset="1" stop-color="#420D00"/>
</linearGradient>
<radialGradient id="paint28_radial_525_124" cx="0" cy="0" r="1" gradientUnits="userSpaceOnUse" gradientTransform="translate(-3.37629 51.9427) rotate(-0.137518) scale(32.028 32.03)">
<stop offset="0.1428" stop-color="#93492E"/>
<stop offset="0.8513" stop-color="#401A00"/>
</radialGradient>
<radialGradient id="paint29_radial_525_124" cx="0" cy="0" r="1" gradientUnits="userSpaceOnUse" gradientTransform="translate(-3.41709 51.8418) rotate(-0.13751) scale(32.0011 32.0011)">
<stop offset="0.1428" stop-color="#93492E"/>
<stop offset="0.8513" stop-color="#401A00"/>
</radialGradient>
<radialGradient id="paint30_radial_525_124" cx="0" cy="0" r="1" gradientUnits="userSpaceOnUse" gradientTransform="translate(20.9451 3.84585) rotate(-0.13751) scale(33.5085 33.5085)">
<stop offset="0.1428" stop-color="#93492E"/>
<stop offset="0.8513" stop-color="#401A00"/>
</radialGradient>
<radialGradient id="paint31_radial_525_124" cx="0" cy="0" r="1" gradientUnits="userSpaceOnUse" gradientTransform="translate(4.39228 14.9498) rotate(-1.34647) scale(17.5252 17.5252)">
<stop offset="0.1428" stop-color="#93492E"/>
<stop offset="0.8513" stop-color="#401A00"/>
</radialGradient>
<radialGradient id="paint32_radial_525_124" cx="0" cy="0" r="1" gradientUnits="userSpaceOnUse" gradientTransform="translate(5.22029 14.7139) rotate(-1.34647) scale(16.9064 16.9064)">
<stop offset="0.1428" stop-color="#93492E"/>
<stop offset="0.8513" stop-color="#401A00"/>
</radialGradient>
<radialGradient id="paint33_radial_525_124" cx="0" cy="0" r="1" gradientUnits="userSpaceOnUse" gradientTransform="translate(20.5026 24.0284) rotate(-0.13751) scale(2.96151)">
<stop offset="0.1428" stop-color="#93492E"/>
<stop offset="0.8513" stop-color="#401A00"/>
</radialGradient>
<linearGradient id="paint34_linear_525_124" x1="22.9462" y1="29.6653" x2="19.4655" y2="32.9645" gradientUnits="userSpaceOnUse">
<stop stop-color="white"/>
<stop offset="0.783" stop-color="#EAEAEA"/>
<stop offset="1" stop-color="#E3E3E3"/>
</linearGradient>
<linearGradient id="paint35_linear_525_124" x1="25.0176" y1="30.3471" x2="24.2889" y2="31.0377" gradientUnits="userSpaceOnUse">
<stop stop-color="white"/>
<stop offset="0.783" stop-color="#EAEAEA"/>
<stop offset="1" stop-color="#E3E3E3"/>
</linearGradient>
<radialGradient id="paint36_radial_525_124" cx="0" cy="0" r="1" gradientUnits="userSpaceOnUse" gradientTransform="translate(3.13332 48.87) rotate(-0.13751) scale(23.8926 23.8926)">
<stop offset="0.1428" stop-color="#93492E"/>
<stop offset="0.8513" stop-color="#401A00"/>
</radialGradient>
<radialGradient id="paint37_radial_525_124" cx="0" cy="0" r="1" gradientUnits="userSpaceOnUse" gradientTransform="translate(3.13256 48.8694) rotate(-0.13751) scale(23.8964 23.8964)">
<stop offset="0.1428" stop-color="#93492E"/>
<stop offset="0.8513" stop-color="#401A00"/>
</radialGradient>
<radialGradient id="paint38_radial_525_124" cx="0" cy="0" r="1" gradientUnits="userSpaceOnUse" gradientTransform="translate(37.3893 29.0202) rotate(-0.13751) scale(36.2191 36.2191)">
<stop offset="0.1428" stop-color="#93492E"/>
<stop offset="0.8513" stop-color="#401A00"/>
</radialGradient>
<radialGradient id="paint39_radial_525_124" cx="0" cy="0" r="1" gradientUnits="userSpaceOnUse" gradientTransform="translate(37.3912 29.0226) rotate(-0.137508) scale(36.2186 36.2183)">
<stop offset="0.1428" stop-color="#93492E"/>
<stop offset="0.8513" stop-color="#401A00"/>
</radialGradient>
<radialGradient id="paint40_radial_525_124" cx="0" cy="0" r="1" gradientUnits="userSpaceOnUse" gradientTransform="translate(22.4726 45.3798) rotate(-0.13751) scale(4.60402 4.60401)">
<stop offset="0.1428" stop-color="#93492E"/>
<stop offset="0.8513" stop-color="#401A00"/>
</radialGradient>
</defs>
</svg>
