<svg width="107" height="77" viewBox="0 0 107 77" fill="none" xmlns="http://www.w3.org/2000/svg">
<path d="M92.6552 7.69786C92.6552 7.69786 94.9002 6.94187 98.0042 7.89887C101.108 8.85887 103.985 10.3979 103.681 9.43987C103.379 8.47987 98.6852 4.31787 93.5132 4.82187C93.5132 4.82187 97.0432 4.19186 100.626 5.02286C104.209 5.85586 105.32 5.42786 102.418 3.81386C99.5182 2.19786 94.2962 2.02187 92.3512 2.42487C92.3512 2.42487 95.1292 1.45287 99.7202 2.23987C104.313 3.03087 102.358 1.65187 100.124 0.760865C97.6002 -0.249135 90.5132 -0.299135 89.5792 0.885865C89.5792 0.885865 92.2252 2.80386 92.6552 7.69786Z" fill="url(#paint0_linear_525_797)"/>
<path d="M96.1592 62.1084C95.5752 60.8554 95.6622 59.3194 95.7832 57.9654C95.9042 56.6214 96.0942 55.3314 96.3252 54.0044C96.7962 51.2854 97.1332 48.5384 97.4702 45.7994C97.7842 43.2074 97.8472 40.2344 97.2712 37.6774C97.1422 37.1084 96.8342 36.5124 96.4162 36.0034C96.7432 35.8604 97.1012 35.7894 97.4922 35.7384C97.5972 35.7254 97.6592 35.6544 97.6872 35.5544C97.8012 35.1644 97.1962 34.9734 96.9292 34.8764C96.6252 34.7644 96.3422 34.6534 96.0622 34.5644C96.3302 34.3144 96.5682 34.0394 96.7062 33.6864C96.7632 33.5414 96.7132 33.3364 96.5512 33.2804C93.5142 32.2254 89.9252 32.3174 86.7842 32.8294C83.1662 33.4174 79.7212 34.5384 76.4542 36.1954C75.4342 36.7104 74.4632 37.3274 73.5462 38.0244C72.8142 36.8594 72.0262 35.7454 71.1052 34.7254C70.9552 34.5594 70.8002 34.4004 70.6432 34.2474C71.6252 33.0914 72.3752 31.6584 72.9812 30.4374C73.3732 29.6524 73.6542 28.8354 73.8632 28.0054C73.9192 28.4434 73.9432 28.8814 73.9432 29.3204C73.9432 29.4844 73.9242 29.5544 74.0382 29.6704C74.0792 29.7104 74.1472 29.7014 74.1932 29.6724C74.7582 29.3404 75.0822 28.3064 75.3392 27.7364C75.7592 26.7994 76.0182 25.8414 76.1812 24.8334C76.2212 24.6004 76.2572 24.3614 76.2882 24.1284C76.2992 24.1624 76.3102 24.1984 76.3202 24.2334C76.3902 24.4814 76.3122 25.0174 76.5652 25.2024C76.6112 25.2354 76.6782 25.2424 76.7242 25.2074C77.3792 24.6904 77.7342 23.7814 78.0702 23.0464C78.5152 22.0724 78.8752 21.0624 79.1582 20.0304C79.3542 19.3204 79.5072 18.5964 79.6042 17.8704C79.6052 17.9484 79.6082 18.0284 79.6082 18.1074C79.6122 18.3534 79.5652 18.8354 79.8672 18.9204C79.9202 18.9344 79.9802 18.9044 80.0132 18.8654C80.3592 18.4334 80.5382 17.8454 80.7552 17.3424C81.0332 16.6994 81.3352 16.0584 81.6362 15.4234C82.2412 14.1314 83.0132 12.9054 83.9412 11.8194C84.9172 10.6744 86.0962 9.6884 87.5082 9.1284C88.2182 8.8464 88.9672 8.7064 89.7282 8.6194C90.4742 8.5364 91.1932 8.69541 91.9342 8.70941C92.0342 8.70941 92.0842 8.5964 92.0592 8.5164C92.0012 8.3304 91.8872 8.1664 91.7312 8.0224C91.7612 8.0204 91.7892 8.01941 91.8142 8.01741C92.2962 7.99641 92.7342 8.09041 93.2052 8.12941C93.2872 8.13641 93.4262 8.08541 93.4552 8.00041C93.5982 7.55341 93.1342 7.2474 92.8132 7.0224C92.7062 6.9494 92.5932 6.87741 92.4812 6.81241C92.8292 6.85241 93.2162 6.83341 93.4172 6.78441C93.7722 6.69541 94.5132 6.2324 94.3292 5.7444C94.2172 5.4354 93.9372 5.1154 93.6412 4.8264C93.8162 4.4924 93.7412 4.0554 93.6432 3.7014C93.3012 2.4314 91.8122 1.32441 90.6882 0.801406C89.2162 0.115406 87.4132 0.0614034 85.8262 0.195403C84.1452 0.338403 82.5702 0.860403 81.0332 1.5294C79.4122 2.2304 77.8452 3.04541 76.3902 4.04941C74.9172 5.06241 73.7052 6.34741 72.3672 7.52141C71.1832 8.56241 70.1222 9.72041 69.1422 10.9544C69.1742 10.7644 69.2122 10.5804 69.2362 10.4344C69.2902 10.0834 69.4012 9.7424 69.5112 9.4064C69.5572 9.2644 69.4152 9.12841 69.2792 9.21941C68.2202 9.94141 67.3702 11.1154 66.7282 12.2074C66.3842 12.7894 66.0582 13.3764 65.6912 13.9444C65.7622 13.5304 65.7772 13.0994 65.7152 12.6404C65.7072 12.5684 65.5982 12.5624 65.5862 12.6364C65.5832 12.6494 65.5832 12.6574 65.5812 12.6704C65.5732 12.6714 65.5692 12.6704 65.5652 12.6754C64.2042 13.6894 63.2852 15.3714 62.4192 16.8014C61.3752 18.5264 60.5852 20.3864 59.5532 22.1154C58.4932 23.8894 57.0762 25.5924 55.3802 26.7914C54.5612 27.3714 53.5642 27.7544 52.6022 28.0294C52.3472 28.1004 52.0722 28.1624 51.7892 28.2104C52.1172 27.1614 52.2722 26.0624 52.2342 24.9984C52.1872 23.6324 51.6042 22.1814 50.9752 20.9874C50.7842 20.6254 50.5502 20.2934 50.2932 19.9834C50.3842 20.0214 50.4722 20.0614 50.5632 20.1064C50.9212 20.2874 51.1972 20.5814 51.5452 20.7684C51.6142 20.8034 51.6752 20.7244 51.6582 20.6624C51.2242 19.1284 50.4832 17.6774 49.5722 16.3724C48.9342 15.4574 48.1912 14.7754 47.2962 14.2934C47.5422 14.3204 47.7882 14.3744 48.0342 14.4664C48.4642 14.6264 48.9212 15.0414 49.3802 15.0874C49.4712 15.0954 49.5412 15.0564 49.5842 14.9774C49.7962 14.5774 48.9712 13.7474 48.7672 13.4904C48.0052 12.5234 47.0602 11.5784 46.0512 10.8774C45.0972 10.2124 44.0042 9.71541 42.9682 9.18941C41.7542 8.57041 40.5272 8.2014 39.2332 7.8074C36.9722 7.1194 34.4882 6.90241 32.1422 7.17941C31.0302 7.31141 29.9462 7.61741 28.9642 8.16341C28.5852 8.37241 28.1672 8.5904 27.7752 8.8394C27.8052 8.3084 27.9592 7.7534 28.1522 7.3354C28.1832 7.2694 28.1522 7.16941 28.0792 7.14441C27.3482 6.90241 26.5752 7.9834 26.2442 8.4904C26.0512 8.7884 25.9182 9.14141 25.8552 9.50841C25.0342 8.60741 23.8222 7.9884 22.7092 8.2854C22.6552 8.3014 22.6152 8.3554 22.6052 8.4104C22.5552 8.6994 23.0502 8.96141 23.2072 9.14041C23.4212 9.38741 23.5802 9.65541 23.7182 9.93541C23.6022 9.94041 23.4892 9.94541 23.3792 9.94441C22.4122 9.92941 21.4342 9.95041 20.4862 10.1684C18.5882 10.6054 16.8022 11.2924 15.1252 12.2824C13.5342 13.2164 12.0482 14.5284 10.8792 15.9494C9.76319 17.3024 8.56821 18.7314 8.32121 20.5334C8.30121 20.6704 8.44121 20.8034 8.57521 20.7444C8.83921 20.6334 9.0382 20.4214 9.2772 20.2704C9.6892 20.0194 10.1812 19.8594 10.6382 19.7184C10.7102 19.6934 10.7882 19.6794 10.8602 19.6614C10.8292 19.6924 10.7942 19.7244 10.7562 19.7594C10.1712 20.3004 9.62519 20.9094 9.18519 21.5774C8.74719 22.2474 8.3802 22.9674 8.0522 23.6964C7.8972 24.0464 7.77921 24.4074 7.68321 24.7764C7.62121 25.0294 7.63321 25.5094 7.48521 25.7164C7.38021 25.8624 7.56621 26.0954 7.71721 25.9614C8.35521 25.3914 8.85221 24.8684 9.61021 24.5184C9.34221 24.9794 9.13319 25.4784 8.98619 25.9834C8.75419 26.7764 8.66419 27.6114 8.58619 28.4304C8.51919 29.1544 8.43919 30.0014 8.56819 30.7174C8.58919 30.8434 8.72119 30.9104 8.83119 30.8374C9.04719 30.6984 9.2202 30.4734 9.4022 30.2744C9.2612 30.5944 9.16821 30.9544 9.09321 31.3574C9.00921 31.8184 9.0182 32.3024 9.1392 32.7514C8.4732 33.2494 7.8432 33.8214 7.3152 34.4464C6.9352 34.8984 6.65221 35.4284 6.41121 35.9724C6.41621 35.8564 6.42319 35.7394 6.43119 35.6214C6.45219 35.3234 6.61019 34.8604 6.55119 34.5644C6.53019 34.4574 6.40519 34.3754 6.30619 34.4534C5.58919 35.0194 5.14819 35.9084 4.67619 36.6764C4.15619 37.5244 3.78021 38.4084 3.46421 39.3474C3.00621 40.7104 2.5092 42.0714 2.2602 43.4794C2.2072 43.2174 2.15521 42.9624 2.07621 42.7244C1.99321 42.4704 1.7132 42.2454 1.5442 42.6004C0.779201 44.2124 0.547188 46.1084 0.443188 47.8654C0.410188 48.4204 0.384199 48.9704 0.367199 49.5224C0.168199 50.1634 0.0302139 50.8324 0.00721386 51.5784C-0.0597861 53.7604 0.350192 55.8094 0.810192 57.9254C1.30519 60.2134 2.35319 62.8534 3.91319 64.9444C4.66019 66.1324 5.49819 67.1184 6.84019 67.7314C6.93319 67.7714 7.02721 67.8054 7.11921 67.8424C10.6412 69.7654 14.7112 69.4954 17.8452 66.9394C18.5272 66.3854 19.1432 65.7274 19.6982 65.0034C19.6272 65.3984 19.5642 65.9044 19.7702 65.9964C20.1742 66.1784 20.8432 65.5004 21.1272 65.3154C21.9432 64.7824 22.7512 64.2474 23.4932 63.6124C24.6082 62.6624 25.5552 61.5194 26.3822 60.2794C26.3012 61.0214 26.2312 61.7284 26.5272 62.5114C27.0052 63.7724 28.2732 64.7374 29.2522 65.5974C29.7152 66.0034 30.2372 66.3804 30.7802 66.6744C31.5392 67.0894 32.1632 67.6604 32.9032 68.0894C34.1722 68.8244 35.7642 69.1654 37.1392 69.6864C40.0392 70.7774 43.0982 71.2644 46.1022 71.9914C52.3702 73.5084 59.5492 73.6494 65.7102 71.5994C68.0892 70.8094 70.9422 69.6284 73.2012 67.9014C73.3852 68.1824 73.5472 68.4954 73.6882 68.8744C74.1182 70.0434 73.7732 71.1664 73.6102 72.3374C73.4252 73.6634 73.9042 75.1234 75.0142 75.9294C75.2292 76.0824 75.5552 75.9384 75.5262 75.6544C75.4342 74.7954 75.4882 74.0704 75.7542 73.4474C76.3062 75.0654 78.3802 76.0374 80.3752 75.9454C82.2882 75.8584 84.4092 74.4364 86.0462 73.5254C86.8302 73.0854 87.5892 72.5854 88.3222 72.0474C89.6722 72.4234 91.2832 72.0374 92.6712 71.7524C94.5932 71.3554 96.9982 70.3514 97.9642 68.5374C99.0482 66.5164 96.9562 63.8144 96.1592 62.1084ZM14.9912 49.1114C14.9912 49.1114 13.8582 47.5404 13.5992 45.3194C13.3442 43.0974 13.4472 42.0324 13.4472 42.0324C13.4472 42.0324 14.5362 42.2114 14.9912 42.3874C15.4452 42.5654 17.0652 42.8724 17.0652 42.8724C17.0652 42.8724 17.7332 44.1284 17.8952 44.8754C17.8952 44.8754 15.0912 47.7954 14.9912 49.1114ZM84.9372 62.3704C84.6992 62.6114 84.2662 62.4984 83.9702 62.4524C83.5952 62.3894 83.5002 62.1824 83.3662 61.8434C83.2112 61.4564 83.0512 61.0774 82.8652 60.7054C82.8242 60.6254 82.7502 60.5084 82.7782 60.4114C82.8242 60.2564 82.9232 60.1654 83.0202 60.0404C83.2822 59.7034 83.4782 59.3354 83.6852 58.9664C84.0432 58.3324 84.3532 57.6734 84.6902 57.0314C84.6902 57.0224 84.6902 57.0134 84.6942 57.0054C84.6982 56.8934 84.8192 56.8604 84.8942 56.9034C84.9402 56.9114 84.9782 56.9374 84.9862 56.9884C85.0942 57.6814 85.1122 58.4454 85.1242 59.1474C85.1362 59.8684 85.0362 60.5904 85.0502 61.3054C85.0552 61.5864 85.1732 62.1364 84.9372 62.3704Z" fill="url(#paint1_linear_525_797)"/>
<path opacity="0.2" d="M97.3792 64.3878C97.7202 65.9988 97.7172 67.6278 96.5622 68.8768C95.7542 69.7488 94.4832 70.3028 93.3392 69.7028C92.0832 69.0448 91.5852 67.6218 91.3382 66.3048C91.0272 64.6428 90.9052 62.9768 90.1002 61.4498C89.2932 59.9278 87.9932 58.6528 87.4272 57.0088C86.8552 55.3468 86.7082 53.5158 86.6322 51.7698C86.5842 50.7018 86.5992 49.6388 86.7412 48.5758C86.8392 47.8428 87.0892 47.0928 87.0982 46.3488C86.8782 46.4118 86.6532 46.4278 86.4282 46.4828C86.3342 46.5048 86.2482 46.4218 86.2712 46.3248C86.8612 44.0258 88.8502 42.5518 89.7722 40.4288C88.6332 40.4258 87.5342 40.6878 86.4282 40.9368C86.3422 40.9568 86.2342 40.8758 86.2712 40.7808C86.5122 40.1278 86.9132 39.5698 87.2702 38.9818C85.7532 39.4698 84.4452 40.7308 83.4092 41.8798C82.2582 43.1598 81.6542 44.8108 80.5572 46.1308C80.4912 46.2078 80.3662 46.1598 80.3412 46.0748C80.0662 45.0848 80.1532 44.0268 79.7572 43.0748C79.2382 44.0478 79.0132 45.1438 78.4712 46.1058C78.4282 46.1818 78.2912 46.1928 78.2492 46.1058C77.4882 44.4138 76.8792 42.6448 75.9942 41.0108C75.5492 40.1858 75.0542 39.4458 74.4072 38.7658C74.1462 38.4958 73.8902 38.2298 73.6602 37.9448C73.6402 37.9588 73.6202 37.9728 73.5992 37.9878C73.9072 38.6368 74.2462 39.2697 74.5302 39.9277C74.9182 40.8147 75.2622 41.7148 75.5712 42.6288C76.1172 44.2478 76.5932 45.8608 76.9682 47.5278C77.7182 50.8648 78.4252 54.4518 81.1742 56.7668C81.2932 56.8688 81.1392 57.0208 81.0172 56.9668C80.4972 56.7338 80.0012 56.4668 79.5302 56.1708C80.0092 56.6878 80.5882 57.0918 81.2502 57.4268C81.6802 57.6418 82.1012 57.8328 82.5632 57.9748C82.8422 58.0598 83.0812 58.1548 83.3002 58.3508C83.3722 58.4158 83.3312 58.5378 83.2422 58.5648C82.4542 58.7958 81.5462 58.7278 80.7072 58.5858C81.1102 58.8328 81.5262 59.0628 81.8952 59.3608C82.2302 59.6308 82.5312 59.9368 82.8052 60.2658C82.9962 59.6818 83.4572 59.2558 83.7052 58.6938C84.0052 58.0028 84.3432 57.3328 84.7252 56.6848C84.7812 56.5878 84.9252 56.6118 84.9572 56.7148C85.2092 57.5198 85.2302 58.3568 85.2182 59.1918C85.2052 59.9888 85.2702 60.7588 85.2992 61.5508C85.3102 61.8748 85.3152 62.3358 84.9392 62.4448C84.6722 62.5228 84.4472 62.5087 84.1882 62.5117C84.3432 62.6567 84.5352 62.7878 84.7782 62.9068C85.4862 63.2488 86.2412 63.5828 86.7142 64.2428C87.6972 65.6138 87.9512 67.4988 87.2372 69.0478C86.1312 71.4378 83.4352 72.9668 80.8692 73.1888C79.2802 73.3278 77.9252 72.7728 77.4712 71.1488C77.0062 69.4898 77.2192 67.7208 77.0222 66.0258C76.9242 65.1878 76.7512 64.2868 76.2472 63.5858C75.9842 63.2198 75.6442 62.9057 75.2382 62.7057C75.1922 62.6817 74.9272 62.5958 74.9792 62.5468C74.9302 62.5948 74.9422 63.0548 74.9332 63.1348C74.8832 63.5138 74.7762 63.8808 74.6592 64.2448C74.6302 64.3408 74.4762 64.3817 74.4262 64.2747C73.9082 63.1727 73.7992 61.9408 73.3672 60.8118C72.3642 60.0108 71.3722 59.2058 70.4922 58.2728C68.7972 56.4888 67.4262 54.2798 66.3582 52.0738C65.3592 50.0088 64.6512 47.7738 64.8752 45.4668C64.1232 46.1668 63.4922 46.9728 62.9162 47.8248C62.8512 47.9208 62.6692 47.8948 62.6782 47.7608C62.8222 45.6888 63.4052 43.6468 64.3792 41.8118C63.3762 42.4498 62.3962 43.1208 61.3402 43.6638C61.2612 43.7038 61.1352 43.6557 61.1482 43.5527C61.1972 43.1627 61.2062 42.7738 61.2112 42.3798C56.5482 46.1478 56.0902 52.1508 55.5372 57.7078C55.5262 57.8268 55.3682 57.8918 55.2982 57.7708C54.8692 57.0258 54.6862 56.1988 54.4352 55.3888C53.8062 56.9358 53.8432 58.6838 53.0972 60.1948C53.0642 60.2648 52.9442 60.2858 52.8972 60.2218C51.3342 58.2098 51.2402 55.3828 51.5392 52.9548C51.8932 50.0608 52.6972 47.1338 53.8722 44.4658C55.1222 41.6248 56.9102 38.8428 59.1632 36.6898C60.2942 35.6078 61.5502 34.6248 62.7792 33.6468C63.9592 32.7078 65.1792 31.8158 66.5672 31.2028C66.6972 31.1458 66.8212 31.2898 66.7202 31.4038C66.4172 31.7478 66.0852 32.0698 65.8502 32.4578C66.5972 32.0308 67.3712 31.6638 68.1892 31.3808C68.3222 31.3358 68.3892 31.5067 68.3132 31.5957C68.0132 31.9597 67.7522 32.3508 67.4972 32.7458C68.6822 32.4668 69.8342 33.1808 70.8632 33.9778C71.7352 32.8758 72.4222 31.5707 72.9812 30.4427C73.3732 29.6577 73.6542 28.8408 73.8632 28.0108C73.9192 28.4488 73.9432 28.8868 73.9432 29.3258C73.9432 29.4898 73.9242 29.5598 74.0382 29.6758C74.0792 29.7158 74.1472 29.7067 74.1932 29.6777C74.7582 29.3457 75.0822 28.3118 75.3392 27.7418C75.7592 26.8048 76.0182 25.8468 76.1812 24.8388C76.2212 24.6058 76.2572 24.3668 76.2882 24.1338C76.2992 24.1678 76.3102 24.2038 76.3202 24.2388C76.3902 24.4868 76.3122 25.0228 76.5652 25.2078C76.6112 25.2408 76.6782 25.2478 76.7242 25.2128C77.3792 24.6958 77.7342 23.7868 78.0702 23.0518C78.5152 22.0778 78.8752 21.0678 79.1582 20.0358C79.3542 19.3258 79.5072 18.6018 79.6042 17.8758C79.6052 17.9538 79.6082 18.0338 79.6082 18.1128C79.6122 18.3588 79.5652 18.8408 79.8672 18.9258C79.9202 18.9398 79.9802 18.9098 80.0132 18.8708C80.3592 18.4388 80.5382 17.8508 80.7552 17.3478C81.0332 16.7048 81.3352 16.0638 81.6362 15.4288C82.2412 14.1368 83.0132 12.9108 83.9412 11.8248C84.9172 10.6798 86.0962 9.69376 87.5082 9.13376C88.2182 8.85176 88.9672 8.71176 89.7282 8.62476C90.4742 8.54176 91.1932 8.70075 91.9342 8.71475C92.0342 8.71475 92.0842 8.60176 92.0592 8.52176C92.0012 8.33576 91.8872 8.17176 91.7312 8.02776C91.7612 8.02576 91.7892 8.02475 91.8142 8.02275C92.2962 8.00175 92.7342 8.09575 93.2052 8.13475C93.2872 8.14175 93.4262 8.09075 93.4552 8.00575C93.5982 7.55875 93.1342 7.25276 92.8132 7.02776C92.7062 6.95476 92.5932 6.88275 92.4812 6.81775C92.8292 6.85775 93.2162 6.83875 93.4172 6.78975C93.7722 6.70075 94.5132 6.23776 94.3292 5.74976C94.2172 5.44076 93.9372 5.12076 93.6412 4.83176C93.8162 4.49776 93.7412 4.06076 93.6432 3.70676C93.3012 2.43676 91.8122 1.32976 90.6882 0.806763C90.2422 0.597763 89.7652 0.45075 89.2722 0.34375C89.2992 0.35475 89.3232 0.363763 89.3452 0.375763C90.4002 0.833763 91.5332 1.43276 92.1162 2.46976C92.1652 2.55576 92.1042 2.66076 92.0052 2.66376C91.3862 2.66976 90.7822 2.74476 90.1882 2.91876C91.1272 3.51176 91.9552 4.22976 92.5422 5.18976C92.5892 5.26676 92.5292 5.39075 92.4322 5.38075C91.3432 5.28375 90.2542 5.02276 89.1682 5.25276C89.4942 5.66876 89.9312 5.98875 90.3142 6.35475C90.4102 6.44975 90.3072 6.58976 90.1892 6.56876C84.3112 5.43476 77.9152 9.98275 76.3002 15.6028C76.9052 15.3998 77.4812 15.1018 78.1172 14.9928C78.2102 14.9768 78.3362 15.0818 78.2592 15.1808C76.5552 17.4338 75.4982 20.0848 74.7872 22.8018C74.7562 22.9188 74.6172 22.9147 74.5552 22.8307C74.1712 22.3337 73.9472 21.7548 73.7772 21.1578C72.2902 23.9788 72.0262 27.2548 70.6962 30.1418C70.6552 30.2268 70.5132 30.2248 70.4732 30.1418C70.0172 29.1698 69.8812 28.1388 69.7972 27.0848C66.9342 29.1588 64.6442 32.1418 61.2682 33.4308C61.1892 33.4598 61.1022 33.3858 61.1062 33.3068C61.1312 32.5408 61.3592 31.7998 61.4272 31.0368C60.4442 31.8158 59.3802 32.4898 58.2212 32.9868C57.1512 33.4488 56.0182 33.7328 54.9402 34.1658C54.3062 34.4208 53.7392 34.7278 53.2232 35.0828C53.5212 34.9438 53.8512 34.8778 54.1902 34.8408C54.9052 34.7618 55.6242 34.6328 56.3422 34.6108C56.4842 34.6048 56.5172 34.8288 56.3762 34.8608C55.8512 34.9758 55.3432 35.2288 55.0552 35.6838C55.8392 35.6708 56.5892 35.4808 57.4022 35.6558C58.0392 35.7928 58.7152 35.9528 59.1572 36.4648C59.2072 36.5238 59.1992 36.6138 59.1392 36.6548C59.1162 36.7118 59.0642 36.7577 58.9882 36.7467C57.9102 36.5697 56.9072 37.4078 56.1702 38.0848C55.5272 38.6738 54.8912 39.2888 54.3042 39.9288C52.6322 41.7428 51.2062 43.7588 49.9992 45.9078C47.4982 50.3538 46.9062 55.4788 45.7982 60.3768C45.7812 60.4668 45.6492 60.5048 45.5852 60.4318C44.3012 58.9408 43.6932 57.0038 42.4242 55.5088C42.0992 56.7468 42.1692 58.0578 41.7182 59.2708C41.6932 59.3368 41.6352 59.3758 41.5622 59.3598C39.5422 58.8788 37.2862 57.8728 35.7972 56.3898C34.4292 55.0248 33.6642 53.1498 32.2052 51.8798C31.6862 53.0558 31.8402 54.4158 31.6932 55.6658C31.6782 55.7848 31.5242 55.8498 31.4532 55.7298C29.6792 52.7038 30.0932 48.4377 31.6232 45.3997C31.6692 45.3087 31.7972 45.3247 31.8442 45.3997C32.6862 46.6817 33.9442 47.4988 35.5222 47.2028C36.9282 46.9398 38.2362 46.1998 39.4282 45.4318C40.7782 44.5598 42.2412 43.4758 43.1272 42.1018C43.8632 40.9588 44.0092 39.5378 44.9062 38.4898C44.9752 38.4088 45.0862 38.4668 45.1182 38.5458C45.4282 39.3038 45.5142 40.1248 45.4282 40.9318C46.6562 39.6608 47.7392 38.2768 48.4552 36.6458C48.5102 36.5218 48.6882 36.5958 48.6932 36.7088C48.7432 37.7868 48.7142 38.8568 48.5492 39.9108C48.6092 39.7918 48.6812 39.6788 48.7412 39.5588C49.7752 37.5368 50.3452 35.3417 50.6262 33.0957C50.6382 33.0007 50.7662 32.9068 50.8452 33.0048C51.1282 33.3608 51.3842 33.7388 51.6842 34.0828C52.6132 32.2818 53.5462 29.9268 53.3122 27.8108C53.0762 27.8928 52.8382 27.9658 52.6052 28.0338C52.3502 28.1048 52.0752 28.1668 51.7922 28.2148C52.1202 27.1658 52.2752 26.0668 52.2372 25.0028C52.1902 23.6368 51.6072 22.1858 50.9782 20.9918C50.7872 20.6298 50.5532 20.2978 50.2962 19.9878C50.3872 20.0258 50.4752 20.0658 50.5662 20.1108C50.9242 20.2918 51.2002 20.5858 51.5482 20.7728C51.6172 20.8078 51.6782 20.7288 51.6612 20.6668C51.2272 19.1328 50.4862 17.6818 49.5752 16.3768C48.9372 15.4618 48.1942 14.7798 47.2992 14.2978C47.5452 14.3248 47.7912 14.3787 48.0372 14.4707C48.4672 14.6307 48.9242 15.0458 49.3832 15.0918C49.4742 15.0998 49.5442 15.0608 49.5872 14.9818C49.7992 14.5818 48.9742 13.7518 48.7702 13.4948C48.0082 12.5278 47.0632 11.5828 46.0542 10.8818C45.1002 10.2168 44.0072 9.71976 42.9712 9.19376C41.7572 8.57476 40.5302 8.20575 39.2362 7.81175C36.9752 7.12375 34.4912 6.90676 32.1452 7.18376C31.0332 7.31576 29.9492 7.62176 28.9672 8.16776C28.5882 8.37676 28.1702 8.59475 27.7782 8.84375C27.8082 8.31275 27.9622 7.75775 28.1552 7.33975C28.1862 7.27375 28.1552 7.17376 28.0822 7.14876C27.3512 6.90676 26.5782 7.98775 26.2472 8.49475C26.0542 8.79275 25.9212 9.14576 25.8582 9.51276C25.0372 8.61176 23.8252 7.99275 22.7122 8.28975C22.6582 8.30575 22.6182 8.35975 22.6082 8.41475C22.5582 8.70375 23.0532 8.96576 23.2102 9.14476C23.4242 9.39176 23.5832 9.65976 23.7212 9.93976C23.6052 9.94476 23.4922 9.94976 23.3822 9.94876C22.4152 9.93376 21.4372 9.95476 20.4892 10.1728C18.5912 10.6098 16.8052 11.2968 15.1282 12.2868C13.5372 13.2208 12.0512 14.5328 10.8822 15.9538C9.76623 17.3068 8.57122 18.7358 8.32422 20.5378C8.30422 20.6748 8.44422 20.8078 8.57822 20.7488C8.84222 20.6378 9.04121 20.4257 9.28021 20.2747C9.69221 20.0237 10.1842 19.8638 10.6412 19.7228C10.7132 19.6978 10.7912 19.6838 10.8632 19.6658C10.8322 19.6968 10.7972 19.7288 10.7592 19.7638C10.1742 20.3048 9.62823 20.9138 9.18823 21.5818C8.75023 22.2518 8.38321 22.9718 8.05521 23.7008C7.90021 24.0508 7.78222 24.4118 7.68622 24.7808C7.62422 25.0338 7.63622 25.5137 7.48822 25.7207C7.38322 25.8667 7.56921 26.0998 7.72021 25.9658C8.35821 25.3958 8.85522 24.8728 9.61322 24.5228C9.34522 24.9838 9.13623 25.4828 8.98923 25.9878C8.75723 26.7808 8.66723 27.6158 8.58923 28.4348C8.52223 29.1588 8.44223 30.0058 8.57123 30.7218C8.59223 30.8478 8.72423 30.9148 8.83423 30.8418C9.05023 30.7028 9.22321 30.4778 9.40521 30.2788C9.26421 30.5988 9.17122 30.9588 9.09622 31.3618C9.05922 31.5658 9.04323 31.7738 9.04523 31.9848C9.86823 31.4648 10.7012 30.9528 11.5922 30.5538C12.5492 30.1258 13.5522 29.8688 14.5522 29.5688C16.1992 29.0718 18.4832 28.2797 20.0872 29.2897C20.1512 29.3287 20.1772 29.4358 20.1122 29.4878C19.7332 29.7958 19.3282 30.0597 18.9662 30.3867C19.7132 30.4787 20.4652 30.6318 21.1332 30.9878C21.8642 31.3758 22.4792 31.9378 23.0532 32.5278C24.0322 33.5388 25.2412 34.9008 25.1202 36.4128C25.1152 36.5008 25.0482 36.5538 24.9622 36.5378C23.8812 36.3148 23.0492 35.5668 22.0532 35.1568C22.2532 35.9548 22.4742 36.7258 22.4442 37.5608C22.4412 37.6608 22.3412 37.7148 22.2542 37.6718C21.1112 37.0978 20.2552 36.0808 19.1002 35.5428C19.3292 36.9478 19.7162 38.3268 19.5082 39.7628C19.4912 39.8628 19.3582 39.8748 19.2952 39.8188C17.9962 38.6678 16.3572 37.8908 14.5882 38.0218C12.9642 38.1408 11.4412 38.8818 10.2072 39.9298C7.72121 42.0348 6.02123 45.2448 5.93823 48.5298C6.64123 48.0118 7.14623 47.2708 7.90823 46.8218C8.01523 46.7598 8.10823 46.8628 8.09323 46.9678C7.98423 47.7298 7.70722 48.4438 7.48322 49.1798C7.22622 50.0308 7.09221 50.9168 7.06021 51.8078C7.00921 53.4348 7.22223 55.0638 7.67923 56.6268C8.02923 57.8168 8.48821 58.9838 9.03821 60.0968C9.30121 60.6268 9.58223 61.1918 9.92523 61.7038C10.1132 61.9308 10.3092 62.1728 10.4922 62.4248C10.5912 62.5288 10.6922 62.6278 10.8022 62.7188C10.8672 62.7717 10.8542 62.8418 10.8062 62.8878C11.1832 63.4928 11.4542 64.1518 11.4252 64.8478C11.3712 66.0178 9.98324 66.6958 9.01624 66.9908C8.07024 67.2818 7.03321 67.4038 6.03421 67.2818C6.28421 67.4508 6.55022 67.6028 6.84222 67.7378C6.93522 67.7778 7.02922 67.8118 7.12122 67.8488C10.6432 69.7718 14.7132 69.5018 17.8472 66.9458C18.5292 66.3918 19.1452 65.7338 19.7002 65.0098C19.6292 65.4048 19.5662 65.9108 19.7722 66.0028C20.1762 66.1848 20.8452 65.5068 21.1292 65.3218C21.9452 64.7888 22.7532 64.2538 23.4952 63.6188C24.6102 62.6688 25.5572 61.5258 26.3842 60.2858C26.3032 61.0278 26.2332 61.7348 26.5292 62.5178C27.0072 63.7788 28.2752 64.7438 29.2542 65.6038C29.7172 66.0098 30.2392 66.3868 30.7822 66.6808C31.5412 67.0958 32.1652 67.6667 32.9052 68.0957C34.1742 68.8307 35.7662 69.1717 37.1412 69.6927C40.0412 70.7837 43.1002 71.2708 46.1042 71.9978C52.3722 73.5148 59.5512 73.6558 65.7122 71.6058C68.0912 70.8158 70.9442 69.6348 73.2032 67.9078C73.3872 68.1888 73.5492 68.5018 73.6902 68.8808C74.1202 70.0498 73.7752 71.1727 73.6122 72.3438C73.4272 73.6697 73.9062 75.1298 75.0162 75.9358C75.2312 76.0888 75.5572 75.9448 75.5282 75.6608C75.4362 74.8018 75.4902 74.0768 75.7562 73.4538C76.3082 75.0718 78.3822 76.0438 80.3772 75.9518C82.2902 75.8648 84.4112 74.4428 86.0482 73.5318C86.8322 73.0918 87.5912 72.5918 88.3242 72.0538C89.6742 72.4298 91.2852 72.0438 92.6732 71.7588C94.5952 71.3618 97.0002 70.3578 97.9662 68.5438C98.6362 67.2848 98.0842 65.7658 97.3792 64.3878ZM14.9912 49.1118C14.9912 49.1118 13.8582 47.5408 13.5992 45.3198C13.3442 43.0978 13.4472 42.0328 13.4472 42.0328C13.4472 42.0328 14.5362 42.2118 14.9912 42.3878C15.4452 42.5658 17.0652 42.8728 17.0652 42.8728C17.0652 42.8728 17.7332 44.1288 17.8952 44.8758C17.8952 44.8758 15.0912 47.7958 14.9912 49.1118Z" fill="url(#paint2_linear_525_797)"/>
<path d="M24.6222 39.1763C24.0832 39.0813 23.6332 38.8523 23.2742 38.4333C23.2002 38.3473 23.0421 38.4153 23.0901 38.5303C23.2411 38.9053 23.3831 39.2603 23.4191 39.6723C23.5321 40.9483 21.9901 39.7063 21.6761 39.4253C21.6531 39.4033 21.6162 39.4343 21.6312 39.4623C21.5952 39.4713 21.5662 39.4973 21.5662 39.5443C21.5662 40.1723 21.5412 40.7653 21.1882 41.3133C20.7692 41.9613 19.9252 42.3433 19.2042 42.4643C17.9082 42.6833 16.6451 42.7433 15.3761 42.3333C14.3711 42.0073 13.4401 41.6953 12.3761 41.9633C11.8801 42.0853 11.3371 42.3043 10.9581 42.6523C10.7761 42.8163 10.5931 42.9673 10.4221 43.1383C10.2751 43.2833 10.1261 43.5633 9.95314 43.6743C9.90514 43.7033 9.94914 43.7793 9.99614 43.7583C10.3881 43.5903 10.7532 43.1143 11.1052 42.8603C11.7582 42.3903 12.5921 42.1923 13.3881 42.2053C13.3371 42.9363 13.3131 43.6723 13.3571 44.3983C13.4041 45.2433 13.6202 46.0613 13.7992 46.8843C14.1342 48.4093 14.9901 49.7823 15.8581 51.0683C16.3621 51.8173 16.9011 52.5203 17.2191 53.3763C17.5001 54.1453 17.6911 54.9273 17.7121 55.7483C17.7301 56.5463 17.5732 57.3283 17.4032 58.1043C17.3012 58.5653 17.2152 59.0263 17.1022 59.4843C17.0402 59.7253 16.9031 59.9673 16.8621 60.2043C16.8481 60.2873 16.9812 60.3323 17.0072 60.2473C17.1602 59.8033 17.4002 59.3283 17.5332 58.8433C17.7532 58.0453 17.9362 57.2183 18.0242 56.3953C18.1752 54.9813 17.7651 53.4363 17.0421 52.2253C16.4191 51.1753 15.7281 50.1943 15.1201 49.1533C15.5031 47.5503 16.7792 46.3493 17.7532 45.0743C17.7822 45.0383 17.7281 45.0003 17.6991 45.0313C17.0151 45.6813 16.3791 46.3223 15.8441 47.1103C15.5001 47.6103 15.0632 48.1573 14.8992 48.7613C14.7092 48.4193 14.5291 48.0693 14.3711 47.7073C13.9891 46.8543 13.8371 45.7463 13.6951 44.8323C13.5591 43.9633 13.5742 43.0833 13.5192 42.2073H13.5221C14.1501 42.2353 14.8452 42.5433 15.4422 42.7383C16.0502 42.9373 16.6802 42.9903 17.3162 43.0363C18.4112 43.1133 19.8091 42.8593 20.7081 42.2073C21.1701 41.8753 21.4501 41.4893 21.6431 40.9613C21.8301 40.4463 21.8001 40.1213 21.7421 39.6093C22.1261 40.0913 22.7541 40.7113 23.3631 40.3643C23.8101 40.1123 23.6511 39.4263 23.4651 38.9153C23.7921 39.1833 24.1761 39.3533 24.6171 39.3003C24.6871 39.2913 24.6902 39.1923 24.6222 39.1763Z" fill="#534141"/>
<path d="M27.1142 59.1246C27.1782 59.0026 26.9962 58.8936 26.9082 58.9996C26.5822 59.4066 26.2141 59.7696 25.9171 60.2106C25.7501 60.4586 25.6012 60.7206 25.4422 60.9776C25.4082 61.0306 25.3822 61.1006 25.3582 61.1706C25.2752 60.8196 25.3382 60.3366 25.3422 60.0416C25.3502 59.3866 25.4582 58.7546 25.6002 58.1186C25.7432 57.4966 25.9322 56.8976 26.1372 56.2946C26.3122 55.7926 26.4582 55.2086 26.7572 54.7636C26.8542 54.6186 26.6532 54.4506 26.5482 54.5926C26.1412 55.1316 25.7912 55.7596 25.3422 56.2606C25.1962 56.4236 24.5122 57.4356 24.3742 56.7636C24.2372 56.0936 24.5632 55.2006 24.7362 54.5646C24.9522 53.7736 25.1392 53.0746 25.5042 52.3326C25.5242 52.2906 25.4612 52.2656 25.4402 52.3046C24.9002 53.2496 24.6422 54.1606 24.3592 55.2036C24.2512 55.6056 23.8662 56.8606 24.2962 57.2166C24.5992 57.4696 24.9432 57.0866 25.1452 56.8746C25.4232 56.5886 25.6692 56.2696 25.9052 55.9446C25.6622 56.6516 25.5032 57.4116 25.3462 58.0786C25.1942 58.7336 25.1112 59.3916 25.0962 60.0646C25.0882 60.5066 25.0022 61.1486 25.2452 61.5396C25.2902 61.6066 25.3912 61.6026 25.4372 61.5446C25.7102 61.2176 25.8772 60.7376 26.1112 60.3666C26.2322 60.1726 26.3782 59.9966 26.5272 59.8236C26.3712 60.1986 26.2542 60.5726 26.1782 61.0246C26.0802 61.5946 26.3812 62.3566 26.6362 62.8446C26.6452 62.8656 26.6772 62.8556 26.6682 62.8326C26.4352 62.2016 26.2272 61.5146 26.3862 60.8446C26.5452 60.2066 26.8172 59.7046 27.1142 59.1246Z" fill="#534141"/>
<path d="M72.9961 67.711C72.2841 66.811 71.5501 65.9199 70.7791 65.0659C68.9891 63.0719 67.0381 61.193 65.1041 59.338C64.1501 58.421 63.2521 57.4979 62.3861 56.4899C61.4341 55.3839 60.6471 54.3129 60.3871 52.8369C60.1541 51.5039 60.3111 50.0009 60.5451 48.6799C60.6641 48.0129 60.8651 47.359 61.0981 46.724C61.3501 46.052 61.7701 45.5629 62.1911 45.0009C62.2541 44.9129 62.1921 44.7489 62.0671 44.7749C61.5881 44.8759 61.1881 45.2709 60.8351 45.5889C60.6061 45.7979 60.3971 46.0319 60.1881 46.2599C60.0791 46.3789 59.9601 46.5599 59.8381 46.7139C59.8531 46.0339 59.9541 45.354 60.1321 44.7C60.3641 43.833 60.6331 43.2079 61.1461 42.4809C61.1851 42.4249 61.1091 42.3609 61.0641 42.4149C60.8171 42.7129 60.5841 42.9449 60.4041 43.2939C60.1851 43.7159 60.0811 44.1929 59.9391 44.6429C59.6921 45.4249 59.5891 46.234 59.5711 47.051C59.5681 47.157 59.7051 47.1949 59.7761 47.1449C60.0641 46.9599 60.3121 46.5279 60.5471 46.2739C60.8261 45.9699 61.2191 45.5139 61.6431 45.2489C61.4551 45.4829 61.2731 45.7179 61.1231 45.9879C60.8211 46.5339 60.6521 47.148 60.4761 47.743C60.0971 49.013 60.0231 50.354 60.0231 51.668C60.0261 52.953 60.3231 54.1449 60.9991 55.2419C61.6941 56.3689 62.7491 57.379 63.6441 58.351C64.5481 59.331 65.5871 60.189 66.5361 61.125C67.5691 62.145 68.6031 63.165 69.6161 64.202C70.5861 65.193 71.4441 66.265 72.3581 67.299C72.7691 67.765 73.2261 68.2689 73.5151 68.8199C73.7571 69.2839 73.8611 69.7999 73.9861 70.3049C73.9991 70.3579 74.0841 70.335 74.0771 70.284C73.9161 69.257 73.6451 68.533 72.9961 67.711Z" fill="#534141"/>
<path d="M89.6261 66.1305C88.4181 63.0445 86.2391 62.4735 85.1461 62.4095C85.1671 61.7645 85.2981 61.1355 85.2731 60.4895C85.2391 59.6705 85.2641 58.8525 85.2641 58.0325C85.2641 57.2015 85.0921 56.2375 84.8301 55.4465C84.5331 54.5535 84.3381 53.6575 84.1251 52.7475C83.6571 50.7475 83.5071 48.7335 84.0501 46.7405C84.3101 45.7865 84.6501 44.8995 85.0871 44.0155C85.2931 43.5955 85.5381 43.2275 85.8411 42.8725C86.1511 42.5065 86.4601 42.0155 86.9481 41.8795C87.0801 41.8435 87.0301 41.6135 86.8911 41.6425C86.8451 41.6495 86.7981 41.6636 86.7531 41.6796C86.3031 41.7916 85.8931 41.9855 85.5201 42.2665C85.2841 42.4435 85.0611 42.6305 84.8411 42.8275C84.7191 42.9385 84.5171 43.2045 84.3271 43.3295C84.4001 43.0435 84.5901 42.7095 84.7051 42.4895C84.9811 41.9655 85.2271 41.4605 85.5721 40.9715C85.8161 40.6265 86.0411 40.2685 86.3041 39.9355C86.5571 39.6205 86.9191 39.3955 87.1401 39.0655C87.1641 39.0315 87.1191 38.9915 87.0931 39.0245C86.8401 39.3305 86.4581 39.5425 86.1901 39.8425C85.8121 40.2605 85.5021 40.7545 85.1791 41.2115C84.9141 41.5845 84.6901 41.9826 84.5121 42.4016C84.3701 42.7276 84.0901 43.1325 84.0741 43.4885C84.0711 43.5545 84.1161 43.6295 84.1931 43.6165C84.4511 43.5745 84.6391 43.3266 84.8221 43.1516C85.1761 42.8136 85.5651 42.4706 86.0021 42.2226C85.7601 42.4836 85.5481 42.7835 85.3521 43.0145C84.8141 43.6535 84.5021 44.5395 84.1881 45.2995C83.4231 47.1335 83.2401 49.1765 83.5311 51.1285C83.6711 52.0795 83.8641 53.0365 84.0901 53.9695C84.2611 54.6675 84.4731 55.3465 84.6531 56.0345C84.6441 56.8235 84.2451 57.6045 83.8981 58.2845C83.7191 58.6365 83.5171 58.9755 83.3291 59.3205C83.1951 59.5655 82.9411 60.0255 82.7091 60.3185C82.4581 59.9505 82.1871 59.5615 81.8651 59.2875C81.6041 59.0655 81.3191 58.8915 81.0441 58.6945C81.1231 58.7175 81.2001 58.7415 81.2781 58.7705C81.4811 58.8345 81.7751 58.7796 81.9871 58.7766C82.4141 58.7766 82.9361 58.8275 83.3381 58.6805C83.4291 58.6495 83.4431 58.5485 83.4031 58.4745C83.2201 58.1355 82.2821 58.0075 81.9701 57.8905C81.3401 57.6555 80.5671 57.2125 79.9731 56.6835C80.4891 56.9395 81.0631 57.1075 81.5831 57.2655C81.7191 57.3095 81.8201 57.1555 81.7121 57.0535C81.4901 56.8385 81.2371 56.6375 80.9951 56.4475C80.6241 56.1515 80.3291 55.6765 80.0421 55.3035C79.4401 54.5305 78.8951 53.6255 78.5871 52.6915C77.9951 50.8865 77.5121 49.0155 77.0471 47.1715C76.5901 45.3445 75.7871 43.6445 75.2381 41.8485C74.7541 40.2545 74.0581 38.5715 73.0241 37.2375C73.0241 37.2195 73.0241 37.2025 73.0121 37.1845C72.6341 36.5085 72.2321 35.8165 71.6751 35.2685C71.0251 34.6245 70.2481 34.1255 69.5061 33.5945C69.2061 33.3805 68.9421 33.1705 68.6141 32.9965C68.3741 32.8695 68.0931 32.6105 67.8211 32.5525C67.7431 32.5365 67.6931 32.5175 67.6241 32.5245C67.8441 32.2415 68.1371 32.0135 68.3691 31.7445C68.4431 31.6595 68.4161 31.4865 68.3001 31.4545C68.0031 31.3615 67.6241 31.4165 67.3271 31.4885C67.1261 31.5355 66.9431 31.6035 66.7521 31.6805C66.9191 31.4405 67.1111 31.2185 67.2971 30.9875C67.4151 30.8325 67.2561 30.5955 67.0691 30.6705C65.3121 31.3595 63.7241 32.6425 62.1771 33.6955C61.1331 34.4055 60.1721 35.2845 59.2561 36.1865C58.9811 36.0825 58.7261 35.8895 58.4441 35.7865C58.0441 35.6385 57.6351 35.5295 57.2121 35.4635C56.7851 35.4005 56.3311 35.4635 55.9021 35.5055C55.5651 35.5385 55.2601 35.6315 54.9441 35.7015C55.2221 35.4255 55.6931 35.2585 55.9971 35.1165C56.3441 34.9525 56.7261 34.8985 57.0681 34.7475C57.2061 34.6825 57.1571 34.4915 57.0091 34.4925C55.9801 34.5025 55.0011 34.4725 53.9811 34.6935C52.9601 34.9165 52.2101 35.4585 51.3391 35.9875C51.2971 36.0145 51.3361 36.0916 51.3811 36.0696C51.7831 35.8746 52.1301 35.5975 52.5311 35.4105C53.0731 35.1575 53.6391 34.9715 54.2251 34.8555C54.9131 34.7175 55.5891 34.7215 56.2701 34.7395C55.5721 34.9525 54.7701 35.2125 54.5151 35.8415C54.4771 35.9325 54.5471 36.0515 54.6551 36.0345C55.0181 35.9845 55.3441 35.8315 55.7151 35.7875C56.1901 35.7315 56.6911 35.7016 57.1691 35.7356C57.6271 35.7686 58.0851 35.9425 58.5151 36.1005C58.7061 36.1715 58.8771 36.2945 59.0651 36.3745C58.7281 36.7105 58.3941 37.0455 58.0661 37.3785C56.8191 38.6415 55.7021 40.0775 54.8211 41.6205C53.8891 43.2595 52.8561 44.9615 52.2121 46.7395C51.8911 47.6205 51.5001 48.4515 51.2191 49.3535C50.9241 50.2955 50.6501 51.2466 50.4151 52.2076C49.9981 53.9336 49.6621 55.8045 49.8381 57.5845C49.9191 58.3735 49.8991 59.1615 50.0781 59.9365C49.9661 61.3585 49.9461 62.7845 50.1441 64.2055C50.2531 64.9825 50.4071 65.6575 50.7681 66.3555C51.1011 66.9955 51.5711 67.5855 52.0541 68.1225C52.0931 68.1655 52.1611 68.1175 52.1281 68.0685C51.7651 67.4585 51.3221 66.9085 51.0081 66.2655C50.6491 65.5235 50.5101 64.7615 50.3861 63.9515C50.2081 62.7955 50.1981 61.6085 50.2111 60.4315C50.4581 61.2555 50.8151 62.0525 51.1691 62.8345C51.5121 63.5835 51.8401 64.3195 52.3111 64.9945C52.8511 65.7695 53.5111 66.4525 54.0101 67.2535C54.2231 67.5975 54.4851 67.9435 54.7941 68.2065C54.8481 68.2535 54.9271 68.1785 54.8851 68.1215C54.4641 67.5955 54.1901 66.9505 53.7771 66.4135C53.2561 65.7255 52.7271 65.0025 52.2741 64.2635C51.7841 63.4535 51.4341 62.5075 51.0741 61.6355C50.7061 60.7475 50.3921 59.8285 50.3301 58.8685C50.2691 57.9335 50.1731 57.0175 50.2441 56.0815C50.3101 55.1795 50.4241 54.2985 50.5561 53.3985C50.6891 52.4715 50.9911 51.5345 51.2491 50.6345C51.5531 49.5855 51.8451 48.5105 52.3081 47.5185C53.8691 44.1785 55.4021 40.8695 57.9191 38.1195C58.5691 37.4085 59.2851 36.7595 59.9861 36.1005C60.6571 35.4755 61.2991 34.8305 62.0401 34.2865C62.8151 33.7115 63.6421 33.1995 64.4471 32.6635C65.0981 32.2285 65.7561 31.7655 66.4581 31.3955C66.2941 31.6185 66.1561 31.8525 66.0651 32.1165C66.0061 32.2815 66.1441 32.4375 66.3161 32.3855C66.5691 32.3085 66.7491 32.0985 66.9991 31.9955C67.2121 31.9095 67.5271 31.7965 67.8141 31.7745C67.5151 32.0605 67.1901 32.3415 67.0791 32.7415C67.0611 32.7985 67.0961 32.8865 67.1461 32.9195C67.2111 32.9605 67.2711 33.0135 67.3521 33.0055C67.6441 32.9785 67.7361 32.9205 68.0401 33.1125C68.6401 33.4875 69.2391 33.8535 69.8401 34.2345C70.4691 34.6345 71.1151 35.0405 71.6241 35.5865C72.1021 36.1015 72.4901 36.6995 72.8661 37.2855C72.8951 37.3295 72.9361 37.3325 72.9731 37.3145C73.9221 38.7685 74.5501 40.5176 75.0361 42.1666C75.3241 43.1346 75.7301 44.0625 76.0931 45.0025C76.4231 45.8535 76.6491 46.8135 76.8651 47.7005C77.1071 48.6835 77.4321 49.6385 77.6641 50.6295C77.8741 51.5285 78.1111 52.5265 78.5251 53.3535C78.9351 54.1685 79.3821 54.9295 79.9521 55.6485C80.3181 56.1145 80.7161 56.4815 81.1291 56.8595C80.4571 56.6435 79.7301 56.3675 79.2771 55.8805C79.1611 55.7555 78.9691 55.8865 79.0611 56.0365C79.4521 56.6855 80.2671 57.2775 80.9111 57.6535C81.3461 57.9095 81.7861 58.1235 82.2671 58.2785C82.3901 58.3175 82.7741 58.3835 83.0011 58.4825C82.5981 58.5485 82.1191 58.4985 81.7471 58.4955C81.4021 58.4945 80.9311 58.2175 80.6051 58.3295C80.5361 58.3525 80.5111 58.4165 80.5101 58.4795C80.4941 58.8665 81.2661 59.1945 81.5321 59.3955C81.9521 59.7105 82.2801 60.2415 82.5791 60.6655C82.8911 61.0985 83.2521 61.6955 83.3081 62.2405C83.3601 62.7705 84.4691 62.6165 84.7971 62.6495C84.9141 62.6605 85.0281 62.6725 85.1451 62.6855C86.0731 62.8015 86.6451 63.0355 87.2451 63.4135C88.2751 64.0655 89.0551 65.2225 89.4241 66.3725C89.7541 67.4175 89.6661 68.4636 89.4081 69.5266C89.1541 70.5736 88.4361 71.5275 87.7831 72.3645C87.7381 72.4255 87.8191 72.5125 87.8791 72.4645C89.7581 70.9835 90.4671 68.2855 89.6261 66.1305ZM84.9331 62.3725C84.5121 62.3155 83.6721 62.5065 83.5651 61.9855C83.4701 61.5365 83.2041 61.0225 82.9371 60.6505C82.8921 60.5865 82.8451 60.5215 82.7991 60.4525C83.0411 60.2275 83.2251 59.8905 83.4291 59.6535C83.7751 59.2485 84.0291 58.6595 84.2751 58.1915C84.4211 57.9145 84.6991 57.4055 84.8521 56.9065C84.8671 56.9875 84.8851 57.0685 84.8991 57.1485C85.1921 58.8515 84.9361 60.6565 84.9331 62.3725Z" fill="#534141"/>
<path opacity="0.2" d="M71.1883 65.5056C69.1283 63.0736 66.6083 61.0756 64.4373 58.7446C63.4553 57.6866 62.4452 56.5146 61.6732 55.2236C61.8622 56.2006 62.2022 57.1406 62.7542 58.0166C63.7232 59.5506 65.0023 60.8456 66.0453 62.3216C66.8013 63.3896 67.4202 64.6956 66.5912 65.9196C64.8272 68.5216 60.6413 68.2786 58.0633 67.2926C55.0493 66.1426 52.4042 63.7836 51.0512 60.8306C50.7072 60.0716 50.4372 59.2816 50.2982 58.4676C50.2332 60.3556 50.5282 62.2326 51.0092 64.1296C51.3522 65.4736 51.8943 66.8576 52.0323 68.2466C52.1273 69.1966 51.9442 70.2726 50.9362 70.6506C48.7902 71.4536 46.3153 70.8076 44.1273 69.9676C42.4493 69.6586 40.8072 69.1786 39.1942 68.6116C35.8892 67.4526 32.7722 65.6876 30.2812 63.1976C29.2112 62.1296 28.2862 60.9786 28.1732 59.4126C28.1022 58.3946 28.2692 57.3906 28.4362 56.3876C27.7942 57.1756 27.0943 57.9236 26.3633 58.6316C26.2573 58.7336 26.0972 58.6036 26.1642 58.4756C26.6822 57.4906 26.8072 56.4336 27.0782 55.3716C27.2812 54.5836 27.5323 53.8066 27.6703 53.0046C26.8203 53.3876 26.1252 54.0166 25.4662 54.6706C25.3862 54.7496 25.2532 54.6906 25.2492 54.5786C25.2282 54.0256 25.3122 53.4836 25.3742 52.9336C25.0072 53.4706 24.6152 53.9946 24.2502 54.5336C23.6402 55.4306 23.1992 56.3636 22.8872 57.4046C22.3542 59.1756 21.9742 60.9906 20.8372 62.4956C20.7762 62.5836 20.6412 62.5806 20.6072 62.4676C20.5832 62.3896 20.5613 62.3136 20.5363 62.2386C20.5333 62.2366 20.5323 62.2366 20.5283 62.2326C20.2453 61.7736 20.1122 61.2576 19.9702 60.7466C19.9262 60.6346 19.8883 60.5266 19.8503 60.4136C19.3873 61.0206 19.1002 61.7326 18.6642 62.3586C18.2282 62.9876 17.7533 63.5876 17.2263 64.1416C16.1493 65.2746 14.9403 66.3056 13.5273 66.9966C12.2663 67.6156 10.9033 67.9936 9.50626 68.1436C8.95626 68.2036 8.38624 68.2336 7.82324 68.1956C11.1772 69.7186 14.9192 69.3256 17.8452 66.9396C18.5272 66.3856 19.1432 65.7276 19.6982 65.0036C19.6272 65.3986 19.5643 65.9046 19.7703 65.9966C20.1743 66.1786 20.8433 65.5006 21.1273 65.3156C21.9433 64.7826 22.7513 64.2476 23.4933 63.6126C24.6083 62.6626 25.5553 61.5196 26.3823 60.2796C26.3013 61.0216 26.2313 61.7286 26.5273 62.5116C27.0053 63.7726 28.2733 64.7376 29.2523 65.5976C29.7153 66.0036 30.2372 66.3806 30.7802 66.6746C31.5392 67.0896 32.1633 67.6606 32.9033 68.0896C34.1723 68.8246 35.7643 69.1656 37.1393 69.6866C40.0393 70.7776 43.0983 71.2646 46.1023 71.9916C52.3703 73.5086 59.5493 73.6496 65.7103 71.5996C68.0083 70.8366 70.7473 69.7036 72.9683 68.0696C72.4673 67.1676 71.8713 66.3116 71.1883 65.5056Z" fill="url(#paint3_linear_525_797)"/>
<path opacity="0.2" d="M12.1501 42.3579C11.6551 42.7979 11.2511 43.3089 11.0121 43.9869C10.6751 44.9529 10.5201 45.9759 10.5161 46.9989C10.5121 49.0919 11.0701 51.0929 12.0951 52.9159C13.1581 54.8069 14.5451 56.4779 15.8911 58.1749C16.3421 58.7469 16.7621 59.3319 17.1271 59.9389C17.3571 59.2549 17.7361 57.7819 17.8461 57.4759C18.4081 55.9429 18.3781 54.4629 17.9111 52.9079C17.4921 51.5129 16.7261 50.1109 16.5351 48.6629C16.4481 47.9999 16.4901 47.3209 16.7121 46.6859C16.8161 46.3959 16.9331 46.1099 17.0421 45.8219C16.2081 46.7939 15.0541 48.2739 14.9901 49.1099C14.9901 49.1099 13.8571 47.5389 13.5981 45.3179C13.3961 43.5579 13.4181 42.5259 13.4391 42.1719C13.0751 42.1879 12.5881 42.2429 12.1501 42.3579Z" fill="url(#paint4_linear_525_797)"/>
<path opacity="0.2" d="M86.8032 42.0547C84.9662 43.2107 83.8912 45.2817 83.4702 47.3827C83.0532 49.4837 82.9412 51.7547 80.8792 52.9677C80.1212 53.4137 79.3872 53.5307 78.6992 53.4177C79.2812 54.6747 80.0572 55.8267 81.1732 56.7657C81.2922 56.8677 81.1382 57.0197 81.0162 56.9657C80.4962 56.7327 80.0002 56.4657 79.5292 56.1697C80.0082 56.6867 80.5872 57.0907 81.2492 57.4257C81.6792 57.6407 82.1002 57.8317 82.5622 57.9737C82.8412 58.0587 83.0802 58.1537 83.2992 58.3497C83.3712 58.4147 83.3302 58.5367 83.2412 58.5637C82.4532 58.7947 81.5452 58.7267 80.7062 58.5847C81.1092 58.8317 81.5252 59.0617 81.8942 59.3597C82.2292 59.6297 82.5302 59.9357 82.8042 60.2647C82.9952 59.6807 83.4562 59.2547 83.7042 58.6927C84.0042 58.0017 84.3422 57.3317 84.7242 56.6837C84.7802 56.5867 84.9242 56.6107 84.9562 56.7137C84.9582 56.7237 84.9622 56.7337 84.9662 56.7447C84.9452 54.4637 84.0452 52.1117 83.8302 49.8497C83.6812 48.2617 83.8792 46.6647 84.5742 45.2137C85.1412 44.0387 85.9502 43.0287 86.8032 42.0547Z" fill="url(#paint5_linear_525_797)"/>
<path d="M17.0652 42.8725C17.0652 42.8725 18.2992 44.6765 18.1952 47.6535C18.0872 50.6295 17.7912 54.7115 20.5092 48.9075C20.5092 48.9075 20.4462 51.2895 21.0622 51.2895C21.6762 51.2895 22.8492 48.3555 23.0202 46.0815C23.0202 46.0815 23.0832 48.9715 23.6542 49.0765C24.2292 49.1825 25.2292 47.6755 25.2292 43.7635C25.2292 39.8515 24.6972 39.3015 24.6972 39.3015C24.6972 39.3015 23.5502 38.9955 23.1882 38.3945C23.1882 38.3945 23.8482 39.8765 23.3582 40.2375C22.8702 40.5975 21.6762 39.4245 21.6762 39.4245C21.6762 39.4245 22.1042 41.4905 20.2572 42.3405C18.4082 43.1895 17.0652 42.8725 17.0652 42.8725Z" fill="url(#paint6_linear_525_797)"/>
<path d="M89.6511 65.8727C89.6511 65.8727 93.2581 62.8677 97.1031 62.1957C100.945 61.5217 100.743 60.4097 97.2041 60.4427C93.6631 60.4757 89.4821 62.4317 88.1331 63.7137C88.1331 63.7137 91.1331 60.5087 95.5871 59.3277C100.034 58.1497 97.5411 56.8337 93.7641 57.5747C90.3641 58.2417 86.2541 61.7547 85.4431 62.5207C87.2211 62.4577 88.8731 64.4757 89.5021 65.9477C89.9381 66.9647 90.1921 68.1517 89.7501 69.2077C89.6851 69.3597 89.6081 69.4977 89.5211 69.6277C89.5661 69.6327 89.6061 69.6427 89.6521 69.6487C89.6521 69.6487 94.9781 66.2417 99.1601 65.3317C103.341 64.4217 99.9331 61.8257 89.6511 65.8727Z" fill="url(#paint7_linear_525_797)"/>
<path d="M104.987 69.9519C102.674 68.3509 99.6842 66.2829 98.0122 66.1719C98.2252 66.9469 98.1122 67.8189 97.8072 68.5639C97.4282 69.4849 96.6022 70.1629 95.7242 70.5939C95.6002 70.6549 95.4712 70.7139 95.3342 70.7729C94.6492 71.1909 93.8302 71.5659 93.0022 71.7469C94.1972 72.0899 95.9322 72.6499 97.2662 73.3579C99.4912 74.5399 102.357 76.5949 103.135 76.5949C103.907 76.5949 102.998 74.5389 100.403 72.5489C100.403 72.5489 103.368 73.8979 104.82 74.8419C106.267 75.7849 106.235 74.4039 104.415 72.7519C102.595 71.0989 101.616 70.4249 101.616 70.4249C101.616 70.4249 103.941 71.0989 105.359 71.8749C106.775 72.6499 107.617 71.7739 104.987 69.9519Z" fill="url(#paint8_linear_525_797)"/>
<path d="M50.9782 20.9875C50.7872 20.6255 50.5532 20.2935 50.2962 19.9835C50.3872 20.0215 50.4752 20.0615 50.5662 20.1065C50.9242 20.2875 51.2002 20.5815 51.5482 20.7685C51.6172 20.8035 51.6782 20.7245 51.6612 20.6625C51.2272 19.1285 50.4862 17.6775 49.5752 16.3725C48.9372 15.4575 48.1942 14.7755 47.2992 14.2935C47.5452 14.3205 47.7912 14.3745 48.0372 14.4665C48.4672 14.6265 48.9242 15.0415 49.3832 15.0875C49.4742 15.0955 49.5442 15.0565 49.5872 14.9775C49.7992 14.5775 48.9742 13.7475 48.7702 13.4905C48.0082 12.5235 47.0632 11.5785 46.0542 10.8775C45.1002 10.2125 44.0072 9.7155 42.9712 9.1895C41.7572 8.5705 40.5302 8.20151 39.2362 7.80751C36.9752 7.11951 34.4912 6.9025 32.1452 7.1795C31.0332 7.3115 29.9492 7.61751 28.9672 8.16351C28.5882 8.37251 28.1702 8.59051 27.7782 8.83951C27.8082 8.30851 27.9622 7.75351 28.1552 7.33551C28.1862 7.26951 28.1552 7.1695 28.0822 7.1445C27.3512 6.9025 26.5782 7.98351 26.2472 8.49051C26.0542 8.78851 25.9212 9.1415 25.8582 9.5085C25.0372 8.6075 23.8252 7.9885 22.7122 8.2855C22.6582 8.3015 22.6182 8.3555 22.6082 8.4105C22.5582 8.6995 23.0532 8.9615 23.2102 9.1405C23.4242 9.3875 23.5832 9.6555 23.7212 9.9355C23.6052 9.9405 23.4922 9.9455 23.3822 9.9445C22.4152 9.9295 21.4372 9.9505 20.4892 10.1685C18.5912 10.6055 16.8052 11.2925 15.1282 12.2825C13.5372 13.2165 12.0512 14.5285 10.8822 15.9495C9.76623 17.3025 8.57122 18.7315 8.32422 20.5335C8.30422 20.6705 8.44421 20.8035 8.57821 20.7445C8.84221 20.6335 9.04121 20.4215 9.28021 20.2705C9.69221 20.0195 10.1842 19.8595 10.6412 19.7185C10.7132 19.6935 10.7912 19.6795 10.8632 19.6615C10.8322 19.6925 10.7972 19.7245 10.7592 19.7595C10.1742 20.3005 9.62823 20.9095 9.18823 21.5775C8.75023 22.2475 8.3832 22.9675 8.0552 23.6965C7.9002 24.0465 7.78222 24.4075 7.68622 24.7765C7.62422 25.0295 7.63622 25.5095 7.48822 25.7165C7.38322 25.8625 7.56921 26.0955 7.72021 25.9615C8.35821 25.3915 8.85522 24.8685 9.61322 24.5185C9.34522 24.9795 9.13622 25.4785 8.98922 25.9835C8.75722 26.7765 8.66723 27.6115 8.58923 28.4305C8.52223 29.1545 8.44222 30.0015 8.57122 30.7175C8.59222 30.8435 8.72423 30.9105 8.83423 30.8375C9.05023 30.6985 9.22321 30.4735 9.40521 30.2745C9.26421 30.5945 9.17122 30.9545 9.09622 31.3575C9.01222 31.8185 9.02121 32.3025 9.14221 32.7515C9.14221 32.7515 14.1142 28.7355 18.1412 30.5095C18.1412 30.5095 16.8762 31.0755 16.3252 31.6385C16.3252 31.6385 20.0212 30.2075 22.7642 33.8705C25.5042 37.5345 24.8252 38.8305 24.6982 39.2995C24.6982 39.2995 25.0262 39.5365 25.1812 41.9025C25.1812 41.9025 25.2282 42.4175 25.2542 43.1335C26.3332 43.4855 27.4452 43.7405 28.5852 43.8315C29.4352 43.8985 30.3082 43.9145 31.1432 44.1125C32.0172 44.3155 32.8262 44.7215 33.7052 44.9245C35.6642 45.3825 37.6472 44.8645 39.2512 43.6555C40.0572 43.0495 40.7802 42.3055 41.3012 41.4325C41.7472 40.6805 42.0552 39.8655 42.4052 39.0635C42.7512 38.2755 43.1512 37.5545 43.7212 36.9045C44.2392 36.3095 44.8132 35.7675 45.3372 35.1815C46.5822 33.7855 47.4752 31.9035 47.7632 30.0505C47.7672 30.0305 47.7772 30.0115 47.7852 29.9985C47.8842 29.1525 48.4502 28.3705 48.9882 27.7305C49.8922 26.6595 50.8622 25.7035 51.5882 24.4925C51.7472 24.2245 51.8972 23.9575 52.0432 23.6865C51.8122 22.7405 51.4082 21.8025 50.9782 20.9875Z" fill="url(#paint9_linear_525_797)"/>
<path d="M50.9782 20.9875C50.7872 20.6255 50.5532 20.2935 50.2962 19.9835C50.3872 20.0215 50.4752 20.0615 50.5662 20.1065C50.9242 20.2875 51.2002 20.5815 51.5482 20.7685C51.6172 20.8035 51.6782 20.7245 51.6612 20.6625C51.2272 19.1285 50.4862 17.6775 49.5752 16.3725C48.9372 15.4575 48.1942 14.7755 47.2992 14.2935C47.5452 14.3205 47.7912 14.3745 48.0372 14.4665C48.4672 14.6265 48.9242 15.0415 49.3832 15.0875C49.4742 15.0955 49.5442 15.0565 49.5872 14.9775C49.7992 14.5775 48.9742 13.7475 48.7702 13.4905C48.0082 12.5235 47.0632 11.5785 46.0542 10.8775C45.1002 10.2125 44.0072 9.7155 42.9712 9.1895C41.7572 8.5705 40.5302 8.20151 39.2362 7.80751C36.9752 7.11951 34.4912 6.9025 32.1452 7.1795C31.0332 7.3115 29.9492 7.61751 28.9672 8.16351C28.5882 8.37251 28.1702 8.59051 27.7782 8.83951C27.8082 8.30851 27.9622 7.75351 28.1552 7.33551C28.1862 7.26951 28.1552 7.1695 28.0822 7.1445C27.3512 6.9025 26.5782 7.98351 26.2472 8.49051C26.0542 8.78851 25.9212 9.1415 25.8582 9.5085C25.0372 8.6075 23.8252 7.9885 22.7122 8.2855C22.6582 8.3015 22.6182 8.3555 22.6082 8.4105C22.5582 8.6995 23.0532 8.9615 23.2102 9.1405C23.4242 9.3875 23.5832 9.6555 23.7212 9.9355C23.6052 9.9405 23.4922 9.9455 23.3822 9.9445C22.4152 9.9295 21.4372 9.9505 20.4892 10.1685C18.5912 10.6055 16.8052 11.2925 15.1282 12.2825C13.5372 13.2165 12.0512 14.5285 10.8822 15.9495C9.76623 17.3025 8.57122 18.7315 8.32422 20.5335C8.30422 20.6705 8.44421 20.8035 8.57821 20.7445C8.84221 20.6335 9.04121 20.4215 9.28021 20.2705C9.69221 20.0195 10.1842 19.8595 10.6412 19.7185C10.7132 19.6935 10.7912 19.6795 10.8632 19.6615C10.8322 19.6925 10.7972 19.7245 10.7592 19.7595C10.1742 20.3005 9.62823 20.9095 9.18823 21.5775C8.75023 22.2475 8.3832 22.9675 8.0552 23.6965C7.9002 24.0465 7.78222 24.4075 7.68622 24.7765C7.62422 25.0295 7.63622 25.5095 7.48822 25.7165C7.38322 25.8625 7.56921 26.0955 7.72021 25.9615C8.35821 25.3915 8.85522 24.8685 9.61322 24.5185C9.34522 24.9795 9.13622 25.4785 8.98922 25.9835C8.75722 26.7765 8.66723 27.6115 8.58923 28.4305C8.52223 29.1545 8.44222 30.0015 8.57122 30.7175C8.59222 30.8435 8.72423 30.9105 8.83423 30.8375C9.05023 30.6985 9.22321 30.4735 9.40521 30.2745C9.26421 30.5945 9.17122 30.9545 9.09622 31.3575C9.01222 31.8185 9.02121 32.3025 9.14221 32.7515C9.14221 32.7515 14.1142 28.7355 18.1412 30.5095C18.1412 30.5095 16.8762 31.0755 16.3252 31.6385C16.3252 31.6385 20.0212 30.2075 22.7642 33.8705C23.0722 34.2805 23.3342 34.6615 23.5602 35.0135C23.6552 34.5695 23.8132 34.1415 24.0202 33.7495C24.7852 32.3255 26.0052 31.2185 26.7752 29.7975C27.5832 28.3045 27.9102 26.6365 27.7502 24.9455C27.6142 23.5265 27.2052 21.9095 26.0852 20.9345C24.4382 19.4985 22.3962 20.0435 20.4982 20.5455C19.7352 20.7485 18.2802 21.2645 18.7732 19.9235C19.0342 19.2195 19.6712 18.6135 20.2132 18.1235C20.4022 17.9545 20.5972 17.7945 20.8022 17.6495C21.7412 16.5835 23.5172 16.5655 24.5822 17.5185C24.6392 16.8665 24.5722 16.2105 24.6122 15.5575C24.6202 15.4415 24.7422 15.3945 24.8302 15.4655C25.3572 15.9045 25.7412 16.4495 26.0282 17.0625C26.4702 16.2595 26.6882 15.3395 27.3912 14.7035C27.4532 14.6465 27.5452 14.6555 27.5912 14.7285C27.9072 15.2425 28.0692 15.8175 28.3162 16.3595C28.8792 15.3135 29.4962 14.2635 30.6042 13.7245C30.7132 13.6735 30.8092 13.7575 30.7922 13.8705C30.7252 14.3345 30.5372 15.4905 31.3292 15.4405C31.8832 15.4045 32.3582 15.1205 32.8212 14.8365C33.3992 14.4815 34.0832 14.0285 34.7962 14.0455C36.1052 13.9135 37.3472 14.5395 38.4272 15.2135C38.8682 15.4875 40.2462 16.4915 39.0782 16.8495C38.7002 16.9645 38.3342 16.9305 37.9442 16.9495C37.5202 16.9705 37.0912 17.0655 36.6832 17.1835C35.8502 17.4245 35.0302 17.7575 34.3112 18.2465C32.7912 19.2745 31.7112 20.9265 31.6292 22.7925C31.5542 24.5335 32.1962 26.3135 33.4032 27.5805C34.5912 28.8275 36.0912 29.3595 37.7322 29.7335C38.1832 29.8385 38.7182 29.9205 39.2492 30.0415C39.4952 30.0625 39.7412 30.0875 39.9912 30.1175C41.0882 30.2505 42.4922 30.9065 42.4622 32.2175C42.4212 33.7215 41.1922 34.9035 40.6092 36.2145C39.5792 38.5405 39.7242 41.9665 36.7502 42.8465C35.5222 43.2075 34.1892 43.1945 32.9922 42.7295C32.1752 42.6305 31.4052 42.2725 30.7002 41.7465C30.6712 41.7225 30.6392 41.6995 30.6082 41.6755C29.2242 41.0675 27.8742 40.2175 26.8292 39.7275C26.1802 39.4225 25.4582 39.0775 24.8542 38.6135C24.8242 38.9435 24.7362 39.1595 24.6972 39.3005C24.6972 39.3005 25.0252 39.5375 25.1802 41.9035C25.1802 41.9035 25.2272 42.4185 25.2532 43.1345C26.3322 43.4865 27.4442 43.7415 28.5842 43.8325C29.4342 43.8995 30.3072 43.9155 31.1422 44.1135C32.0162 44.3165 32.8252 44.7225 33.7042 44.9255C35.6632 45.3835 37.6462 44.8655 39.2502 43.6565C40.0562 43.0505 40.7792 42.3065 41.3002 41.4335C41.7462 40.6815 42.0542 39.8665 42.4042 39.0645C42.7502 38.2765 43.1502 37.5555 43.7202 36.9055C44.2382 36.3105 44.8122 35.7685 45.3362 35.1825C46.5812 33.7865 47.4742 31.9045 47.7622 30.0515C47.7662 30.0315 47.7762 30.0125 47.7842 29.9995C47.8832 29.1535 48.4492 28.3715 48.9872 27.7315C49.8912 26.6605 50.8612 25.7045 51.5872 24.4935C51.7462 24.2255 51.8962 23.9585 52.0422 23.6875C51.8122 22.7405 51.4082 21.8025 50.9782 20.9875Z" fill="url(#paint10_linear_525_797)"/>
<path d="M40.2842 36.8279C40.2722 36.7219 40.1092 36.7089 40.0962 36.8189C40.0252 37.4279 40.0132 37.9699 39.7872 38.5539C39.5552 39.1539 39.4162 39.7719 39.1412 40.3609C38.5712 41.5859 37.4492 42.3379 36.1802 42.6999C34.8072 43.0939 33.5832 42.9169 32.2752 42.4059C31.7392 42.1969 31.2582 41.7809 30.7672 41.4789C30.2672 41.1719 29.7892 40.8309 29.2892 40.5249C29.2322 40.4929 29.1842 40.5789 29.2322 40.6189C30.2502 41.4539 31.2692 42.3109 32.4682 42.8569C33.7652 43.4479 35.1562 43.3829 36.4942 43.0049C37.6562 42.6739 38.6632 41.9269 39.2862 40.8969C39.6652 40.2729 39.8622 39.5479 40.0442 38.8509C40.2292 38.1469 40.3752 37.5599 40.2842 36.8279Z" fill="#534141"/>
<path d="M35.1143 32.0652C35.1593 31.5902 35.0532 31.1172 34.8532 30.6652C34.5592 30.0092 34.0163 29.9542 33.4163 29.7792C33.3783 29.7662 33.3652 29.8242 33.3962 29.8412C33.8642 30.0862 34.2873 30.1212 34.6023 30.6122C34.7873 30.8972 34.8742 31.2112 34.9052 31.5332C34.8422 31.4322 34.7723 31.3392 34.6883 31.2502C33.8253 30.3492 32.7172 30.1922 31.5262 30.4102C30.7822 30.5472 30.0913 30.8232 29.4383 31.1832C29.1663 31.3022 28.8953 31.4312 28.6283 31.5872C28.1663 31.8592 27.7573 32.4102 27.6493 32.9772C27.6443 33.0012 27.6363 33.0232 27.6323 33.0482C27.5683 33.3482 27.5953 33.5492 27.7163 33.7342C27.7523 33.8282 27.8002 33.9172 27.8662 34.0032C28.1112 34.3262 28.6623 34.5042 29.0293 34.6272C29.5703 34.8132 30.1503 34.8342 30.7183 34.8352C32.0073 34.8372 33.6163 34.4152 34.6173 33.5632C35.0703 33.1762 35.2283 32.6012 35.1143 32.0652ZM33.7793 33.6862C32.0623 34.5342 30.2663 34.7352 28.4843 34.0222C27.8623 33.7712 27.9133 33.1582 28.1143 32.6482L28.1162 32.6472C28.3802 32.2822 28.8042 31.9702 29.1122 31.7672C29.7582 31.3382 30.5923 30.9722 31.3553 30.8232C32.2273 30.6552 32.9442 30.5872 33.7882 30.9362C34.3252 31.1602 34.7623 31.7292 34.8553 32.2932C34.8663 32.3602 34.8673 32.4252 34.8633 32.4882C34.8583 32.5392 34.8532 32.5892 34.8452 32.6362C34.8422 32.6392 34.8452 32.6402 34.8452 32.6452C34.7332 33.1412 34.2003 33.4772 33.7793 33.6862Z" fill="#534141"/>
<path d="M33.8812 31.7865C33.6082 31.5035 33.2822 31.6765 33.0662 31.9295C32.9462 32.0705 32.8672 32.2405 32.7752 32.3995C32.7042 32.5285 32.6332 32.6525 32.5962 32.7895C32.5022 32.9235 32.4282 33.0665 32.4742 33.2425C32.4952 33.3265 32.5953 33.3515 32.6663 33.3325C32.9123 33.2645 33.0992 33.0885 33.3212 32.9685C33.4982 32.8775 33.6732 32.7825 33.8112 32.6425C34.0202 32.4345 34.1002 32.0105 33.8812 31.7865Z" fill="#534141"/>
<path d="M31.0912 33.47C30.7852 33.108 30.4952 32.619 30.0152 32.473C29.7422 32.392 29.1282 32.387 29.0872 32.798C29.0492 33.216 29.4332 33.409 29.7872 33.487C29.9952 33.533 30.2032 33.571 30.4142 33.599C30.5962 33.625 30.8012 33.717 30.9852 33.699C31.0882 33.688 31.1622 33.557 31.0912 33.47Z" fill="#534141"/>
<path d="M41.5592 30.78C40.7492 30.873 39.6472 31.03 39.0262 30.324C38.9972 30.289 38.9242 30.318 38.9492 30.366C39.1282 30.742 39.5742 31.026 40.0712 31.165C39.8372 31.439 39.6282 31.736 39.3662 31.997C38.9252 32.438 38.4702 32.877 37.9792 33.265C36.8882 34.127 35.6802 34.869 34.4542 35.519C33.0502 36.264 31.5472 36.738 29.9712 36.952C29.3952 37.03 28.8162 37.062 28.2312 37.06C28.2052 37.053 28.1772 37.045 28.1502 37.036C28.0882 37.016 28.0392 37.03 28.0022 37.058C27.8342 37.054 27.6722 37.053 27.5052 37.045C26.8592 37.016 25.8642 36.993 25.2512 36.652C25.8182 36.251 26.5382 35.91 26.7012 35.173C26.7142 35.119 26.6312 35.096 26.6102 35.147C26.3172 35.837 25.4092 36.116 24.8692 36.534C24.7872 36.598 24.7792 36.723 24.8632 36.79C25.3052 37.147 25.9462 37.199 26.4872 37.288C27.0832 37.389 27.6962 37.429 28.3042 37.427C28.5042 37.489 28.7132 37.533 28.9012 37.634C29.3342 37.86 29.7892 38.034 30.1962 38.308C30.8912 38.779 31.4752 39.396 32.1752 39.864C33.3752 40.66 35.0462 40.629 36.2602 39.883C37.5582 39.085 37.9312 37.204 38.4632 35.893C38.7872 35.093 39.0882 34.267 39.3662 33.449C39.6282 32.671 40.0982 31.975 40.4632 31.246C40.9092 31.299 41.3532 31.228 41.6392 30.989C41.7202 30.916 41.6802 30.766 41.5592 30.78Z" fill="#534141"/>
<path d="M38.4462 34.9128C38.1582 35.6818 37.8662 36.4498 37.5622 37.2088C37.2572 37.9668 36.9662 38.7988 36.3452 39.3568C35.8522 39.8028 35.0112 40.0448 34.3502 40.0758C33.2912 40.1268 32.5512 39.6068 31.7122 39.0548C31.1082 38.6568 30.6402 38.0978 29.9922 37.7478C29.7532 37.6158 29.5032 37.5048 29.2612 37.3868C30.8782 37.2588 32.5122 36.8688 33.9792 36.1658C35.3372 35.5168 36.6782 34.7038 37.8752 33.7868C38.4032 33.3808 38.9052 32.9418 39.3782 32.4668C39.4602 32.3848 39.5372 32.3018 39.6122 32.2148C39.5322 32.3768 39.4542 32.5408 39.3742 32.7018C39.0172 33.4178 38.7282 34.1618 38.4462 34.9128Z" fill="url(#paint11_linear_525_797)"/>
<path d="M33.0661 37.7999C34.6401 37.3599 36.0111 36.3609 37.1871 35.2489C37.8941 34.5799 38.5581 33.8538 39.1881 33.0948C39.2491 32.9628 39.3091 32.8318 39.3741 32.7018C39.4541 32.5408 39.5321 32.3768 39.6121 32.2148C39.5371 32.3018 39.4601 32.3848 39.3781 32.4668C38.9051 32.9428 38.4031 33.3808 37.8751 33.7868C36.6791 34.7038 35.3381 35.5158 33.9791 36.1658C32.5991 36.8268 31.0721 37.2068 29.5461 37.3568C30.6121 37.9478 31.8221 38.1459 33.0661 37.7999Z" fill="url(#paint12_linear_525_797)"/>
<path d="M36.8902 37.3507C35.9142 37.1917 34.8492 37.3397 34.1142 38.0627C33.6042 38.5647 33.2622 39.2127 33.1792 39.8827C33.5362 40.0187 33.9162 40.0957 34.3502 40.0747C35.0112 40.0437 35.8522 39.8027 36.3452 39.3557C36.8952 38.8637 37.1832 38.1557 37.4542 37.4767C37.2692 37.4257 37.0822 37.3807 36.8902 37.3507Z" fill="url(#paint13_linear_525_797)"/>
<path d="M35.4472 16.3477C34.9032 15.6597 34.3051 15.2617 33.4131 15.2657C32.5211 15.2737 31.7091 16.0326 31.4491 16.8396C31.3531 17.1346 31.3211 17.4967 31.5251 17.7467C31.7001 17.9657 31.9082 18.0676 32.1402 17.8976C32.4532 17.6646 32.6322 17.1336 32.8732 16.8226C33.1362 16.6306 33.4411 16.5816 33.7461 16.5036C34.2951 16.3646 34.7911 16.4716 35.3371 16.5256C35.4281 16.5376 35.5122 16.4317 35.4472 16.3477Z" fill="url(#paint14_linear_525_797)"/>
<path d="M20.0872 19.7768C20.2512 18.9148 20.6002 18.2838 21.3922 17.8768C22.1842 17.4728 23.2592 17.7708 23.8602 18.3678C24.0832 18.5848 24.2762 18.8888 24.2132 19.2058C24.1572 19.4818 24.0201 19.6698 23.7361 19.6228C23.3491 19.5608 22.9472 19.1748 22.5872 19.0088C22.2702 18.9608 21.9722 19.0578 21.6682 19.1298C21.1142 19.2578 20.7252 19.5828 20.2702 19.8828C20.1882 19.9338 20.0672 19.8788 20.0872 19.7768Z" fill="url(#paint15_linear_525_797)"/>
<path d="M48.2632 30.1841C48.5022 29.1161 48.5292 28.0071 48.4572 26.9161C48.3272 24.8841 47.8712 22.9681 46.9872 21.2191C46.5992 20.8981 46.1832 20.6091 45.7422 20.3501C42.7772 18.6171 39.4042 16.1501 35.8002 17.6861C33.5282 18.6561 31.6362 20.9421 32.1292 23.5241C32.6372 26.1751 33.6022 27.9501 37.3082 28.8611C38.1822 29.0761 39.1182 29.1621 40.0152 29.1881C41.6242 29.2331 43.2482 29.2051 44.8462 29.4031C45.9172 29.5351 47.1592 30.4601 48.2632 30.1841Z" fill="url(#paint16_linear_525_797)"/>
<path opacity="0.5" d="M48.4583 26.919C48.3283 24.887 47.8723 22.971 46.9883 21.222C46.6003 20.901 46.1843 20.612 45.7433 20.353C43.4503 19.011 40.9093 17.235 38.2123 17.207C40.4183 17.782 42.9272 18.25 44.2972 20.151C44.3422 20.214 44.2973 20.326 44.2213 20.338C43.4503 20.469 42.6182 20.696 42.0992 21.312C43.1672 21.74 43.8952 22.679 44.5512 23.594C44.6092 23.672 44.5323 23.791 44.4423 23.785C43.9933 23.765 43.5543 23.659 43.1053 23.654C43.5583 24.581 44.8313 25.566 44.3763 26.689C44.0303 27.533 43.1602 27.908 42.3102 28.062C39.1722 28.635 34.4463 27.566 33.3593 24.105C33.0553 23.132 32.8703 21.511 33.1653 20.525C33.7153 18.692 35.5613 18.027 37.1823 17.285C36.7273 17.361 36.2663 17.492 35.8033 17.688C33.5313 18.658 31.6393 20.944 32.1323 23.526C32.6403 26.177 33.6053 27.952 37.3113 28.863C38.1853 29.078 39.1213 29.164 40.0183 29.19C41.6273 29.235 43.2512 29.207 44.8492 29.405C45.9192 29.538 47.1623 30.463 48.2663 30.187C48.5033 29.119 48.5293 28.01 48.4583 26.919Z" fill="url(#paint17_linear_525_797)"/>
<path d="M20.0852 16.9405C19.3202 16.7705 18.5132 16.8985 18.5132 16.8985C21.1512 14.8145 23.9542 15.6665 23.9542 15.6665C23.6542 15.1555 22.5512 14.0935 22.5512 14.0935C24.6762 13.9645 25.8252 15.6235 25.8252 15.6235C26.3332 14.2625 27.6002 12.8595 27.6002 12.8595L28.2042 14.5165C29.6492 11.8815 32.0512 12.0105 32.0512 12.0105C31.3962 12.4785 31.1212 13.7965 31.1212 13.7965C35.7342 10.9895 39.5132 13.6665 39.5132 13.6665C38.2372 13.5405 37.8102 14.0055 37.8102 14.0055C44.3132 15.9635 46.6542 22.4685 46.6542 22.4685C45.1672 22.0405 44.1032 22.4685 44.1032 22.4685C46.7802 24.0805 47.8002 26.2055 47.8002 26.2055C47.1552 25.7005 45.5492 25.0585 45.5492 25.0585C45.5492 25.0585 47.6292 28.2045 47.1622 30.9255C46.6952 33.6455 44.6532 35.6855 44.6532 35.6855C45.9292 35.2185 46.4822 33.9435 46.4822 33.9435C47.7122 36.8775 46.4822 38.3925 46.4822 38.3925C48.8622 36.2085 48.1372 33.5165 48.1372 33.5165C48.8202 34.1555 48.8622 35.3195 48.8622 35.3195C50.3912 33.2555 49.4172 30.3095 49.4172 30.3095C49.8832 31.0545 50.8172 31.6385 50.8172 31.6385C51.9002 30.1815 51.7922 28.2105 51.7922 28.2105C52.1202 27.1615 52.2752 26.0625 52.2372 24.9985C52.1902 23.6325 51.6072 22.1815 50.9782 20.9875C50.7872 20.6255 50.5532 20.2935 50.2962 19.9835C50.3872 20.0215 50.4752 20.0615 50.5662 20.1065C50.9242 20.2875 51.2002 20.5815 51.5482 20.7685C51.6172 20.8035 51.6782 20.7245 51.6612 20.6625C51.2272 19.1285 50.4862 17.6775 49.5752 16.3725C48.9372 15.4575 48.1942 14.7755 47.2992 14.2935C47.5452 14.3205 47.7912 14.3745 48.0372 14.4665C48.4672 14.6265 48.9242 15.0415 49.3832 15.0875C49.4742 15.0955 49.5442 15.0565 49.5872 14.9775C49.7992 14.5775 48.9742 13.7475 48.7702 13.4905C48.0082 12.5235 47.0632 11.5785 46.0542 10.8775C45.1002 10.2125 44.0072 9.7155 42.9712 9.1895C41.7572 8.5705 40.5302 8.2015 39.2362 7.8075C36.9752 7.1195 34.4912 6.90251 32.1452 7.17951C31.0332 7.31151 29.9492 7.6175 28.9672 8.1635C28.5882 8.3725 28.1702 8.59049 27.7782 8.83949C27.8082 8.30849 27.9622 7.7535 28.1552 7.3355C28.1862 7.2695 28.1552 7.1695 28.0822 7.1445C27.3512 6.9025 26.5782 7.98349 26.2472 8.49049C26.0542 8.78849 25.9212 9.1415 25.8582 9.5085C25.0372 8.6075 23.8252 7.98849 22.7122 8.28549C22.6582 8.30149 22.6182 8.35549 22.6082 8.41049C22.5582 8.69949 23.0532 8.9615 23.2102 9.1405C23.4242 9.3875 23.5832 9.6555 23.7212 9.9355C23.6052 9.9405 23.4922 9.9455 23.3822 9.9445C22.4152 9.9295 21.4372 9.9505 20.4892 10.1685C18.5912 10.6055 16.8052 11.2925 15.1282 12.2825C13.5372 13.2165 12.0512 14.5285 10.8822 15.9495C9.76623 17.3025 8.57122 18.7315 8.32422 20.5335C8.30422 20.6705 8.44421 20.8035 8.57821 20.7445C8.84221 20.6335 9.04121 20.4215 9.28021 20.2705C9.69221 20.0195 10.1842 19.8595 10.6412 19.7185C10.7132 19.6935 10.7912 19.6795 10.8632 19.6615C10.8322 19.6925 10.7972 19.7245 10.7592 19.7595C10.1742 20.3005 9.62823 20.9095 9.18823 21.5775C8.75023 22.2475 8.3832 22.9675 8.0552 23.6965C7.9002 24.0465 7.78222 24.4075 7.68622 24.7765C7.62422 25.0295 7.63622 25.5095 7.48822 25.7165C7.38322 25.8625 7.56921 26.0955 7.72021 25.9615C8.35821 25.3915 8.85522 24.8685 9.61322 24.5185C9.34522 24.9795 9.13622 25.4785 8.98922 25.9835C8.75722 26.7765 8.66723 27.6115 8.58923 28.4305C8.52223 29.1545 8.44222 30.0015 8.57122 30.7175C8.59222 30.8435 8.72423 30.9105 8.83423 30.8375C9.05023 30.6985 9.22321 30.4735 9.40521 30.2745C9.26421 30.5945 9.17122 30.9545 9.09622 31.3575C9.01222 31.8185 9.02121 32.3025 9.14221 32.7515C10.9622 31.0585 13.3712 30.6575 13.3712 30.6575C13.0302 20.8265 20.0852 16.9405 20.0852 16.9405Z" fill="url(#paint18_linear_525_797)"/>
<path opacity="0.5" d="M52.2372 24.9982C52.1902 23.6322 51.6072 22.1812 50.9782 20.9872C50.7872 20.6252 50.5532 20.2932 50.2962 19.9832C50.3872 20.0212 50.4752 20.0612 50.5662 20.1062C50.9242 20.2872 51.2002 20.5812 51.5482 20.7682C51.6172 20.8032 51.6782 20.7242 51.6612 20.6622C51.6462 20.6102 51.6272 20.5582 51.6102 20.5062C50.7002 19.3982 49.7032 18.3662 48.5282 17.5282C48.8422 18.2462 48.9742 19.0042 48.8362 19.8012C48.8192 19.8922 48.6832 19.9262 48.6232 19.8572C46.4442 17.2842 44.2682 14.2602 40.7732 13.5122C40.6402 13.4872 40.6582 13.3022 40.7732 13.2662C41.4862 13.0372 42.2152 12.8542 42.8812 12.5062C41.3542 11.8032 39.5972 11.3612 37.9182 11.3922C36.4222 11.4202 34.9272 11.7372 33.4402 11.4722C33.3392 11.4542 33.3202 11.3232 33.3812 11.2592C34.0352 10.5642 34.7932 9.96521 35.6052 9.46121C33.7702 9.79021 32.1222 10.6932 30.3812 11.3452C30.3032 11.3722 30.2182 11.2992 30.2222 11.2222C30.2342 10.5272 30.3472 9.81422 30.6732 9.19922C28.9602 9.92822 27.5232 11.1282 26.2942 12.5222C26.2352 12.5922 26.1392 12.5612 26.0942 12.4982C25.7772 12.0632 25.4972 11.6032 25.1682 11.1772C24.8922 12.1032 24.5172 13.0052 24.0172 13.8382C23.9842 13.8962 23.9032 13.9202 23.8462 13.8832C22.6812 13.1612 21.1012 12.7322 19.7192 12.9152C20.0282 13.4232 20.3802 13.9092 20.7042 14.4102C20.7502 14.4832 20.7042 14.5712 20.6272 14.5982C18.5342 15.3232 16.1642 15.6952 14.5222 17.2832C15.1372 17.2882 15.7472 17.3132 16.3542 17.4122C16.4472 17.4272 16.4802 17.5682 16.4092 17.6252C14.5942 19.1082 12.6972 20.4982 11.2012 22.3092C11.7042 21.9792 12.2522 21.7052 12.8472 21.8122C12.9332 21.8272 12.9582 21.9322 12.9222 22.0002C11.4632 24.8982 9.70418 27.6442 8.56018 30.6882C8.56418 30.7002 8.5662 30.7082 8.5672 30.7192C8.5882 30.8452 8.7202 30.9122 8.8302 30.8392C9.0462 30.7002 9.21918 30.4752 9.40118 30.2762C9.26018 30.5962 9.16719 30.9562 9.09219 31.3592C9.00819 31.8202 9.01718 32.3042 9.13818 32.7532C10.9582 31.0602 13.3672 30.6592 13.3672 30.6592C13.0272 20.8272 20.0822 16.9412 20.0822 16.9412C19.3172 16.7712 18.5102 16.8992 18.5102 16.8992C21.1482 14.8152 23.9512 15.6672 23.9512 15.6672C23.6512 15.1562 22.5482 14.0942 22.5482 14.0942C24.6732 13.9652 25.8222 15.6242 25.8222 15.6242C26.3302 14.2632 27.5972 12.8602 27.5972 12.8602L28.2012 14.5172C29.6462 11.8822 32.0482 12.0112 32.0482 12.0112C31.3932 12.4792 31.1182 13.7972 31.1182 13.7972C35.7312 10.9902 39.5102 13.6672 39.5102 13.6672C38.2342 13.5412 37.8072 14.0062 37.8072 14.0062C44.3102 15.9642 46.6512 22.4692 46.6512 22.4692C45.1642 22.0412 44.1002 22.4692 44.1002 22.4692C46.7772 24.0812 47.7972 26.2062 47.7972 26.2062C47.1522 25.7012 45.5462 25.0592 45.5462 25.0592C45.5462 25.0592 47.6262 28.2052 47.1592 30.9262C46.6922 33.6462 44.6502 35.6862 44.6502 35.6862C45.9262 35.2192 46.4792 33.9442 46.4792 33.9442C47.7092 36.8782 46.4792 38.3932 46.4792 38.3932C48.8592 36.2092 48.1342 33.5172 48.1342 33.5172C48.8172 34.1562 48.8592 35.3202 48.8592 35.3202C50.3882 33.2562 49.4142 30.3102 49.4142 30.3102C49.8802 31.0552 50.8142 31.6392 50.8142 31.6392C51.8972 30.1822 51.7892 28.2112 51.7892 28.2112C52.1202 27.1612 52.2752 26.0622 52.2372 24.9982Z" fill="url(#paint19_linear_525_797)"/>
<path d="M26.7082 28.5392C27.4582 26.9612 27.4532 25.0651 26.9962 23.3981C26.2472 20.6791 22.9992 19.7252 20.6162 20.8802C19.3002 21.5182 18.3042 22.3802 17.5262 23.6212C16.7652 24.8332 16.2162 26.1631 15.4962 27.3981C14.7512 28.6681 14.0362 29.4481 13.2002 30.5751C14.1952 30.2031 16.1412 29.7112 18.1412 30.5112C18.1412 30.5112 16.8982 31.1091 16.3252 31.6401C16.3252 31.6401 19.9272 30.1812 22.7642 33.8722C23.0672 33.2082 23.4462 32.6122 23.9462 32.0422C24.9132 30.9412 26.0712 29.8822 26.7082 28.5392Z" fill="url(#paint20_linear_525_797)"/>
<path opacity="0.5" d="M26.9962 23.3983C26.6222 22.0463 25.6332 21.1303 24.4372 20.6953C25.4282 21.2383 26.2392 22.0533 26.6622 23.1043C27.3372 24.7723 26.9962 27.0283 26.0042 28.5063C25.5182 29.2313 24.8852 29.8973 24.2132 30.4473C23.9122 30.6933 23.6082 30.9233 23.2502 31.0793C22.8962 31.2343 22.5202 31.1143 22.1542 31.0643C22.1292 31.2883 22.1092 31.5113 22.0832 31.7303C22.0712 31.8193 21.9822 31.9053 21.8912 31.8413C20.9352 31.1843 19.9082 30.7873 18.7772 30.5373C18.6842 30.5163 18.6552 30.3893 18.7212 30.3233C19.0592 30.0053 19.0502 29.9263 18.6382 29.6513C18.3022 29.4283 17.9472 29.2503 17.5662 29.1163C16.9052 28.8873 16.2182 28.7323 15.5462 28.5413C15.4712 28.5183 15.4262 28.4233 15.4702 28.3523C16.2712 27.1313 16.5672 25.7063 17.0852 24.3753C16.5362 25.3713 16.0692 26.4113 15.4962 27.3953C14.7512 28.6653 14.0362 29.4453 13.2002 30.5723C14.1952 30.2003 16.1412 29.7083 18.1412 30.5083C18.1412 30.5083 16.8982 31.1063 16.3252 31.6373C16.3252 31.6373 19.9272 30.1783 22.7642 33.8693C23.0672 33.2053 23.4462 32.6093 23.9462 32.0393C24.9142 30.9383 26.0722 29.8803 26.7092 28.5363C27.4582 26.9603 27.4532 25.0653 26.9962 23.3983Z" fill="url(#paint21_linear_525_797)"/>
<path d="M40.4962 20.4769C39.4552 19.3909 37.7002 18.5789 36.1852 19.0669C35.0582 19.4319 34.1882 20.4829 33.9422 21.6329C33.7242 22.6579 33.8352 23.8109 34.3342 24.7429C35.2052 26.3889 36.9462 27.5889 38.8692 27.1659C39.3212 27.0629 39.8332 26.8749 40.2282 26.6239C41.0502 26.0949 41.7622 25.4059 41.9052 24.3929C42.1042 22.9829 41.5002 21.5259 40.4962 20.4769Z" fill="url(#paint22_linear_525_797)"/>
<path d="M40.2722 21.8766C41.3042 23.3756 41.0012 25.2936 39.5992 26.1566C38.1962 27.0176 36.2242 26.5036 35.1922 25.0026C34.1622 23.5036 34.4632 21.5846 35.8662 20.7236C37.2702 19.8586 39.2412 20.3766 40.2722 21.8766Z" fill="url(#paint23_radial_525_797)"/>
<path opacity="0.7" d="M39.3132 22.4473C39.9592 23.2593 39.8822 24.3454 39.1422 24.8714C38.4042 25.3974 37.2832 25.1674 36.6362 24.3554C35.9902 23.5424 36.0692 22.4574 36.8082 21.9314C37.5452 21.4034 38.6702 21.6363 39.3132 22.4473Z" fill="#020202"/>
<path d="M36.4832 23.0727C36.4622 23.8297 36.0472 24.4117 35.5532 24.3757C35.0582 24.3367 34.6742 23.6937 34.6952 22.9377C34.7152 22.1777 35.1311 21.5957 35.6241 21.6347C36.1211 21.6707 36.5002 22.3177 36.4832 23.0727Z" fill="white"/>
<path d="M18.8672 28.7955C19.2842 29.6615 20.1252 30.0625 21.0162 30.2825C21.4442 30.3855 21.9572 30.3985 22.3972 30.3485C24.2542 30.1385 25.4832 28.5235 25.8012 26.7755C25.9822 25.7855 25.7572 24.7165 25.2692 23.8615C24.7162 22.9015 23.6362 22.2265 22.5122 22.2465C21.0032 22.2725 19.6542 23.5465 19.0222 24.8425C18.4172 26.0945 18.2832 27.5895 18.8672 28.7955Z" fill="url(#paint24_linear_525_797)"/>
<path d="M24.8353 28.319C23.8493 29.848 21.9662 30.309 20.6252 29.347C19.2902 28.389 19.0033 26.368 19.9883 24.839C20.9753 23.307 22.8612 22.845 24.1992 23.806C25.5372 24.766 25.8213 26.787 24.8353 28.319Z" fill="url(#paint25_radial_525_797)"/>
<path opacity="0.7" d="M23.9403 27.6536C23.4383 28.5606 22.4093 28.9096 21.6373 28.4326C20.8663 27.9526 20.6453 26.8276 21.1473 25.9206C21.6453 25.0086 22.6783 24.6616 23.4473 25.1416C24.2193 25.6196 24.4373 26.7456 23.9403 27.6536Z" fill="#020202"/>
<path d="M21.3623 26.0216C21.1143 26.6916 20.5823 27.0896 20.1733 26.9166C19.7673 26.7406 19.6373 26.0555 19.8883 25.3865C20.1363 24.7185 20.6663 24.3206 21.0783 24.4936C21.4833 24.6706 21.6113 25.3536 21.3623 26.0216Z" fill="white"/>
<path d="M42.7372 24.4597C41.4552 24.8877 40.3372 26.2577 40.1252 27.5827C40.1172 27.6237 40.1742 27.6407 40.1922 27.6037C40.4382 27.0777 40.7301 26.5737 41.1071 26.1287C41.6221 25.5247 42.2242 25.1287 42.8452 24.6587C42.9462 24.5797 42.8612 24.4187 42.7372 24.4597Z" fill="#3D3130"/>
<path d="M21.7712 31.3116C21.4292 30.6096 20.8202 30.1196 20.1592 29.7216C19.3912 29.2536 18.6652 29.1386 17.7912 29.0666C17.7372 29.0616 17.7262 29.1356 17.7752 29.1486C18.5202 29.3336 19.1592 29.5426 19.8382 29.9086C20.5262 30.2806 21.0632 30.8886 21.6412 31.4086C21.6992 31.4616 21.8082 31.3876 21.7712 31.3116Z" fill="#3D3130"/>
<path d="M25.1801 41.9023C25.1801 41.9023 25.7532 43.6763 28.0752 43.8723C28.0752 43.8723 27.3351 44.6453 26.3661 44.3563C26.3661 44.3563 26.9832 46.0623 29.8502 46.1283C29.8502 46.1283 26.9712 47.4263 25.0092 46.5843C25.0092 46.5843 25.4041 43.7723 25.1801 41.9023Z" fill="url(#paint26_linear_525_797)"/>
<path d="M20.6282 42.4218C20.6132 42.3778 20.5542 42.4018 20.5642 42.4448C21.2522 45.2438 20.9172 48.3818 19.4122 50.8638C19.3862 50.9038 19.4582 50.9468 19.4842 50.9078C21.1212 48.4998 21.5982 45.1908 20.6282 42.4218Z" fill="#534141"/>
<path d="M21.9732 39.835C21.9422 39.807 21.8862 39.839 21.9122 39.869C23.1152 41.224 23.0572 42.902 23.0532 44.481C23.0532 46.13 22.5542 47.782 22.0772 49.379C22.0702 49.406 22.1252 49.419 22.1362 49.393C22.8272 47.86 23.2442 46.09 23.2402 44.468C23.2392 42.89 23.2882 41.139 21.9732 39.835Z" fill="#534141"/>
<path d="M102.328 74.3136C101.5 73.2846 100.493 72.5796 99.4722 71.7636C98.6132 71.0776 97.4962 70.5686 96.4242 70.3446C96.3872 70.3356 96.3712 70.4016 96.4112 70.4116C98.6982 71.0806 100.616 72.7026 102.271 74.3566C102.303 74.3856 102.352 74.3496 102.328 74.3136Z" fill="#534141"/>
<path d="M103.695 72.1389C102.974 71.3509 102.15 70.6279 101.262 70.0329C100.315 69.3989 99.3053 69.0289 98.2663 68.5999C98.2293 68.5859 98.2072 68.6409 98.2412 68.6559C98.6892 68.8579 99.1573 68.9849 99.5923 69.2169C100.128 69.4989 100.662 69.8139 101.169 70.1479C102.048 70.7269 102.896 71.4539 103.656 72.1779C103.678 72.2009 103.716 72.1629 103.695 72.1389Z" fill="#534141"/>
<defs>
<linearGradient id="paint0_linear_525_797" x1="89.579" y1="4.87147" x2="104.074" y2="4.87147" gradientUnits="userSpaceOnUse">
<stop stop-color="#FFDBCB"/>
<stop offset="0.3719" stop-color="#FFE3D3"/>
<stop offset="0.9458" stop-color="#FFF9E8"/>
<stop offset="1" stop-color="#FFFBEA"/>
</linearGradient>
<linearGradient id="paint1_linear_525_797" x1="49.1646" y1="75.6796" x2="49.0371" y2="3.5039" gradientUnits="userSpaceOnUse">
<stop stop-color="#493F3E"/>
<stop offset="0.4138" stop-color="#6D5D5D"/>
<stop offset="0.4345" stop-color="#6F5F5F"/>
<stop offset="0.5491" stop-color="#756465"/>
<stop offset="0.8571" stop-color="#826F71"/>
</linearGradient>
<linearGradient id="paint2_linear_525_797" x1="52.1352" y1="75.6779" x2="52.0077" y2="3.50075" gradientUnits="userSpaceOnUse">
<stop stop-color="#493F3E"/>
<stop offset="0.4138" stop-color="#6D5D5D"/>
<stop offset="0.4345" stop-color="#6F5F5F"/>
<stop offset="0.5491" stop-color="#756465"/>
<stop offset="0.8571" stop-color="#826F71"/>
</linearGradient>
<linearGradient id="paint3_linear_525_797" x1="40.4113" y1="75.6966" x2="40.2838" y2="3.5181" gradientUnits="userSpaceOnUse">
<stop stop-color="#493F3E"/>
<stop offset="0.4138" stop-color="#6D5D5D"/>
<stop offset="0.4345" stop-color="#6F5F5F"/>
<stop offset="0.5491" stop-color="#756465"/>
<stop offset="0.8571" stop-color="#826F71"/>
</linearGradient>
<linearGradient id="paint4_linear_525_797" x1="14.4403" y1="79.228" x2="14.2996" y2="-0.440919" gradientUnits="userSpaceOnUse">
<stop stop-color="#493F3E"/>
<stop offset="0.4138" stop-color="#6D5D5D"/>
<stop offset="0.4345" stop-color="#6F5F5F"/>
<stop offset="0.5491" stop-color="#756465"/>
<stop offset="0.8571" stop-color="#826F71"/>
</linearGradient>
<linearGradient id="paint5_linear_525_797" x1="82.8011" y1="75.6226" x2="82.6736" y2="3.45101" gradientUnits="userSpaceOnUse">
<stop stop-color="#493F3E"/>
<stop offset="0.4138" stop-color="#6D5D5D"/>
<stop offset="0.4345" stop-color="#6F5F5F"/>
<stop offset="0.5491" stop-color="#756465"/>
<stop offset="0.8571" stop-color="#826F71"/>
</linearGradient>
<linearGradient id="paint6_linear_525_797" x1="20.7732" y1="37.819" x2="22.1333" y2="55.5021" gradientUnits="userSpaceOnUse">
<stop stop-color="#FFDBCB"/>
<stop offset="0.3719" stop-color="#FFE3D3"/>
<stop offset="0.9458" stop-color="#FFF9E8"/>
<stop offset="1" stop-color="#FFFBEA"/>
</linearGradient>
<linearGradient id="paint7_linear_525_797" x1="85.4421" y1="63.5044" x2="100.902" y2="63.5044" gradientUnits="userSpaceOnUse">
<stop stop-color="#FFDBCB"/>
<stop offset="0.3719" stop-color="#FFE3D3"/>
<stop offset="0.9458" stop-color="#FFF9E8"/>
<stop offset="1" stop-color="#FFFBEA"/>
</linearGradient>
<linearGradient id="paint8_linear_525_797" x1="93.0028" y1="71.3828" x2="106.695" y2="71.3828" gradientUnits="userSpaceOnUse">
<stop stop-color="#FFDBCB"/>
<stop offset="0.3719" stop-color="#FFE3D3"/>
<stop offset="0.9458" stop-color="#FFF9E8"/>
<stop offset="1" stop-color="#FFFBEA"/>
</linearGradient>
<linearGradient id="paint9_linear_525_797" x1="27.0613" y1="16.4435" x2="36.259" y2="44.6601" gradientUnits="userSpaceOnUse">
<stop stop-color="#F2EDEC"/>
<stop offset="0.3315" stop-color="#ECE6E5"/>
<stop offset="0.4942" stop-color="#E7E1DF"/>
<stop offset="0.6724" stop-color="#D1CBC8"/>
<stop offset="1" stop-color="#A19994"/>
</linearGradient>
<linearGradient id="paint10_linear_525_797" x1="27.0613" y1="16.4435" x2="36.259" y2="44.6601" gradientUnits="userSpaceOnUse">
<stop stop-color="#F2EDEC"/>
<stop offset="0.3315" stop-color="#ECE6E5"/>
<stop offset="0.4942" stop-color="#E7E1DF"/>
<stop offset="0.6724" stop-color="#D1CBC8"/>
<stop offset="1" stop-color="#A19994"/>
</linearGradient>
<linearGradient id="paint11_linear_525_797" x1="29.2616" y1="36.1466" x2="39.6122" y2="36.1466" gradientUnits="userSpaceOnUse">
<stop offset="0.1146" stop-color="#E75667"/>
<stop offset="1" stop-color="#420D00"/>
</linearGradient>
<linearGradient id="paint12_linear_525_797" x1="29.5466" y1="35.0927" x2="39.6121" y2="35.0927" gradientUnits="userSpaceOnUse">
<stop stop-color="white"/>
<stop offset="0.8358" stop-color="#EAEAEA"/>
<stop offset="1" stop-color="#E5E5E5"/>
</linearGradient>
<linearGradient id="paint13_linear_525_797" x1="33.1795" y1="38.6859" x2="37.4549" y2="38.6859" gradientUnits="userSpaceOnUse">
<stop offset="0.1146" stop-color="#E75667"/>
<stop offset="1" stop-color="#CA1A18"/>
</linearGradient>
<linearGradient id="paint14_linear_525_797" x1="31.374" y1="16.6248" x2="35.4704" y2="16.6248" gradientUnits="userSpaceOnUse">
<stop stop-color="#484852"/>
<stop offset="0.5888" stop-color="#2E272A"/>
<stop offset="1" stop-color="#1F1313"/>
</linearGradient>
<linearGradient id="paint15_linear_525_797" x1="20.0847" y1="18.7971" x2="24.2246" y2="18.7971" gradientUnits="userSpaceOnUse">
<stop stop-color="#1F1313"/>
<stop offset="0.4112" stop-color="#2E272A"/>
<stop offset="1" stop-color="#484852"/>
</linearGradient>
<linearGradient id="paint16_linear_525_797" x1="32.0509" y1="23.7186" x2="48.4926" y2="23.7186" gradientUnits="userSpaceOnUse">
<stop stop-color="#484852"/>
<stop offset="0.5888" stop-color="#2E272A"/>
<stop offset="1" stop-color="#1F1313"/>
</linearGradient>
<linearGradient id="paint17_linear_525_797" x1="32.051" y1="23.7223" x2="48.4927" y2="23.7223" gradientUnits="userSpaceOnUse">
<stop stop-color="#484852"/>
<stop offset="0.5888" stop-color="#2E272A"/>
<stop offset="1" stop-color="#1F1313"/>
</linearGradient>
<linearGradient id="paint18_linear_525_797" x1="36.6752" y1="47.41" x2="23.3073" y2="3.2879" gradientUnits="userSpaceOnUse">
<stop stop-color="#493F3E"/>
<stop offset="0.2239" stop-color="#4C4241"/>
<stop offset="0.4124" stop-color="#574B4A"/>
<stop offset="0.5877" stop-color="#685959"/>
<stop offset="0.6408" stop-color="#6F5F5F"/>
<stop offset="0.7382" stop-color="#756465"/>
<stop offset="1" stop-color="#826F71"/>
</linearGradient>
<linearGradient id="paint19_linear_525_797" x1="36.6742" y1="47.4088" x2="23.3067" y2="3.28792" gradientUnits="userSpaceOnUse">
<stop stop-color="#493F3E"/>
<stop offset="0.4138" stop-color="#6D5D5D"/>
<stop offset="0.4345" stop-color="#6F5F5F"/>
<stop offset="0.5491" stop-color="#756465"/>
<stop offset="0.8571" stop-color="#826F71"/>
</linearGradient>
<linearGradient id="paint20_linear_525_797" x1="13.2" y1="27.1352" x2="27.3109" y2="27.1352" gradientUnits="userSpaceOnUse">
<stop stop-color="#1F1313"/>
<stop offset="0.4112" stop-color="#2E272A"/>
<stop offset="1" stop-color="#484852"/>
</linearGradient>
<linearGradient id="paint21_linear_525_797" x1="13.2" y1="27.2836" x2="27.3109" y2="27.2836" gradientUnits="userSpaceOnUse">
<stop stop-color="#484852"/>
<stop offset="0.5888" stop-color="#2E272A"/>
<stop offset="1" stop-color="#1F1313"/>
</linearGradient>
<linearGradient id="paint22_linear_525_797" x1="33.8352" y1="23.0867" x2="41.9423" y2="23.0867" gradientUnits="userSpaceOnUse">
<stop stop-color="white"/>
<stop offset="0.8358" stop-color="#EAEAEA"/>
<stop offset="1" stop-color="#E5E5E5"/>
</linearGradient>
<radialGradient id="paint23_radial_525_797" cx="0" cy="0" r="1" gradientUnits="userSpaceOnUse" gradientTransform="translate(37.7328 23.4407) rotate(-31.6206) scale(3.18227 3.10854)">
<stop offset="0.3792" stop-color="#321D23"/>
<stop offset="0.8984" stop-color="#4C2608"/>
<stop offset="1" stop-color="#522802"/>
</radialGradient>
<linearGradient id="paint24_linear_525_797" x1="25.7776" y1="25.134" x2="18.4082" y2="27.4697" gradientUnits="userSpaceOnUse">
<stop stop-color="white"/>
<stop offset="0.8358" stop-color="#EAEAEA"/>
<stop offset="1" stop-color="#E5E5E5"/>
</linearGradient>
<radialGradient id="paint25_radial_525_797" cx="0" cy="0" r="1" gradientUnits="userSpaceOnUse" gradientTransform="translate(22.4128 26.5773) rotate(35.6677) scale(3.18276 3.10934)">
<stop offset="0.3792" stop-color="#321D23"/>
<stop offset="0.8984" stop-color="#4C2608"/>
<stop offset="1" stop-color="#522802"/>
</radialGradient>
<linearGradient id="paint26_linear_525_797" x1="28.499" y1="49.8852" x2="15.1289" y2="5.75578" gradientUnits="userSpaceOnUse">
<stop stop-color="#493F3E"/>
<stop offset="0.2239" stop-color="#4C4241"/>
<stop offset="0.4124" stop-color="#574B4A"/>
<stop offset="0.5877" stop-color="#685959"/>
<stop offset="0.6408" stop-color="#6F5F5F"/>
<stop offset="0.7382" stop-color="#756465"/>
<stop offset="1" stop-color="#826F71"/>
</linearGradient>
</defs>
</svg>
