<svg width="110" height="72" viewBox="0 0 110 72" fill="none" xmlns="http://www.w3.org/2000/svg">
<path d="M35.3953 41.1236C35.3323 40.2376 35.2133 39.3506 35.1063 38.4916C34.7643 35.7686 34.3193 33.0936 32.7263 30.7906C31.4613 28.9566 30.1183 26.5486 27.5413 26.7326C25.3503 26.8876 23.9313 29.7646 24.0383 31.7116C24.0413 31.7656 24.0783 31.7946 24.1203 31.8016C24.5963 32.2756 24.9823 32.8616 25.4373 33.3556C25.6873 33.6296 25.8203 33.9936 25.9883 34.3196C26.1553 34.6486 26.3043 34.9866 26.4503 35.3266C26.7493 36.0226 27.1173 36.6906 27.3933 37.3946C27.4123 37.4426 27.4293 37.4936 27.4463 37.5426C27.4413 37.5706 27.4383 37.5976 27.4343 37.6236C27.3123 38.3286 27.0033 38.9516 26.7493 39.6116C26.5223 40.1956 26.2113 40.7486 25.8953 41.2866C23.0033 46.1896 20.1873 51.2186 17.4853 56.2276C17.1843 56.7866 16.9483 57.3696 16.6863 57.9456C16.4243 58.5146 16.1643 59.0766 15.9923 59.6786C15.6433 60.8886 15.6183 62.0986 15.6513 63.3476C15.6743 64.2146 15.7843 65.0836 16.1143 65.8916C16.4553 66.7256 16.8353 67.6506 17.4313 68.3366C17.8283 68.7936 18.4223 69.3986 19.0753 69.4086C19.2773 69.4116 19.5863 69.4476 19.7353 69.2646C19.7843 69.2056 19.8213 69.1416 19.8533 69.0766C19.9323 69.1196 20.0123 69.1566 20.0913 69.1846C20.6183 69.3686 21.2063 68.9826 21.4973 68.5746C21.6893 68.3086 21.7483 67.9766 21.7303 67.6346C21.8183 67.6546 21.9053 67.6706 21.9913 67.6766C23.2413 67.7826 23.1153 66.3936 22.8263 65.5446C22.5883 64.8466 22.0963 64.3346 21.6183 63.7936C21.1863 63.3016 20.8203 62.6756 20.1973 62.3876C19.9063 62.2556 19.5663 62.1656 19.2483 62.1566C19.2763 61.9576 19.3093 61.7606 19.3483 61.5616C19.6213 60.1426 20.7473 58.9516 21.6783 57.8936C22.6413 56.7986 23.7053 55.7496 24.8073 54.7976C25.8523 53.8966 26.7803 52.8666 27.8743 52.0216C29.8773 50.4756 32.1383 49.0526 33.8303 47.1466C35.3563 45.4286 35.5473 43.2816 35.3953 41.1236Z" fill="#FAB600"/>
<path d="M29.1243 40.4071C28.6273 40.1781 27.9063 40.8981 28.2243 41.3811C28.3803 41.6161 28.6043 41.7951 28.8333 41.9621C29.1273 42.1391 29.4723 42.2841 29.5803 42.0461C29.7663 41.6391 29.5713 40.6131 29.1243 40.4071Z" fill="#7C4706"/>
<path d="M31.3914 43.1928C31.0164 42.9948 30.8654 43.4078 30.6554 43.6358C30.6374 43.6548 30.6164 43.6618 30.5964 43.6608C30.5474 43.8258 30.5124 44.0858 30.7224 44.1338C30.8774 44.1698 31.0414 44.1158 31.1744 44.0328C31.3994 43.8898 31.7754 43.3968 31.3914 43.1928Z" fill="#7C4706"/>
<path d="M28.7373 48.2242C28.6773 48.5362 28.7223 48.8522 28.7613 49.1672C28.8203 49.5072 28.9613 49.8912 29.3403 49.7512C29.8933 49.5472 30.0513 48.9992 29.7273 48.5042C29.5713 48.2662 28.8463 47.6452 28.7373 48.2242Z" fill="#7C4706"/>
<path d="M25.6664 51.9325C25.4244 52.0145 25.4044 52.2495 25.4534 52.4635C25.5404 52.6935 25.8064 52.9275 26.0614 52.7765C26.2904 52.6415 26.4664 52.2785 26.2334 52.0645C26.0884 51.9305 25.8564 51.8665 25.6664 51.9325Z" fill="#7C4706"/>
<path d="M23.0633 56.1307C23.1583 56.1097 23.2503 56.0767 23.3343 56.0327C23.6203 55.8927 23.7563 55.7287 23.8013 55.4747C23.5793 54.7557 23.3303 53.7287 22.7073 53.9857C22.2643 54.1677 22.2923 55.0597 22.3943 55.4437C22.5103 55.8807 22.7583 56.0527 23.0633 56.1307Z" fill="#7C4706"/>
<path d="M17.8834 56.3552C18.0634 56.5012 18.2924 56.5433 18.5184 56.5153C19.0244 56.4513 19.2164 56.0532 19.0494 55.5932C18.9034 55.1992 18.6294 54.9132 18.2704 54.7812C18.0594 55.1712 17.8464 55.5622 17.6354 55.9532C17.6814 56.1122 17.7594 56.2512 17.8834 56.3552Z" fill="#7C4706"/>
<path d="M26.9484 44.3722C26.2584 43.7232 25.9614 45.9382 25.9534 46.3112C25.9744 46.4002 26.0064 46.4842 26.0574 46.5592C26.3474 46.9972 27.0124 46.8332 27.4264 46.6962C27.8214 46.5652 28.4754 46.3952 28.1464 45.8582C27.9654 45.5592 27.7194 45.3202 27.4794 45.0692C27.2804 44.8572 27.1584 44.5702 26.9484 44.3722Z" fill="#7C4706"/>
<path d="M21.5514 50.329C21.7444 50.308 21.9384 50.281 22.1294 50.241C22.3214 50.199 22.5214 50.158 22.7054 50.083C23.0584 49.939 23.1074 49.633 23.0384 49.283C22.9554 48.88 22.8454 48.457 22.6184 48.108C22.5184 47.955 22.3984 47.765 22.2324 47.676C22.2254 47.672 22.2194 47.671 22.2144 47.668C21.7544 48.481 21.2984 49.297 20.8434 50.113C21.0514 50.255 21.2724 50.355 21.5514 50.329Z" fill="#7C4706"/>
<path d="M32.7673 45.9938C32.5583 45.8508 32.5344 45.6978 32.5714 45.4588C32.6224 45.1188 32.3004 45.2008 32.2014 45.3088C32.1494 45.3648 32.1044 45.4248 32.0704 45.4918C32.0884 45.5288 32.0864 45.5788 32.0424 45.6078C32.0284 45.6178 32.0174 45.6268 32.0074 45.6368C31.9824 45.7048 31.9634 45.7748 31.9594 45.8458C32.0124 45.9638 32.1614 46.0768 32.2104 46.1618C32.2514 46.2378 32.2743 46.3208 32.2673 46.4098C32.2653 46.4508 32.2263 46.6178 32.3023 46.6278C32.4393 46.6478 32.5684 46.6138 32.6814 46.5408C32.9104 46.3878 33.0373 46.1808 32.7673 45.9938Z" fill="#7C4706"/>
<path d="M20.3594 69.1412C18.9274 68.7872 18.2224 67.2402 17.8004 65.9612C17.7884 65.9272 17.7324 65.9402 17.7384 65.9762C17.8684 66.7302 18.1834 67.4052 18.6154 68.0362C19.0024 68.6012 19.6104 69.2732 20.3574 69.2252C20.4084 69.2212 20.4044 69.1532 20.3594 69.1412Z" fill="#D28000"/>
<path d="M22.0784 67.6043C21.4554 67.4413 20.9064 67.2033 20.4184 66.7783C19.9764 66.3933 19.6364 65.8553 19.3184 65.3703C19.2954 65.3353 19.2334 65.3683 19.2544 65.4063C19.7594 66.4623 20.7684 67.7343 22.0744 67.6703C22.1154 67.6683 22.1134 67.6133 22.0784 67.6043Z" fill="#D28000"/>
<path d="M20.0263 62.2285C19.5153 61.9385 18.7223 61.8965 18.4273 62.4985C18.4173 62.5215 18.4523 62.5435 18.4673 62.5225C18.8313 62.0225 19.4803 62.1515 19.9893 62.3115C20.0443 62.3285 20.0783 62.2575 20.0263 62.2285Z" fill="#D28000"/>
<path d="M35.3953 41.1236C35.3323 40.2376 35.2133 39.3506 35.1063 38.4916C34.7643 35.7686 34.3193 33.0936 32.7263 30.7906C31.4613 28.9566 30.1183 26.5486 27.5413 26.7326C25.7943 26.8566 24.5383 28.7106 24.1553 30.4436C24.4833 30.5896 24.7833 30.8086 25.0543 31.0516C25.7733 31.6926 26.3963 32.4406 27.0733 33.1246C28.1133 34.1766 29.1053 35.3266 29.6613 36.6796C30.2543 37.5546 30.5153 38.6656 30.6583 39.6936C30.9613 41.8536 30.4743 44.1406 29.6163 46.1276C28.6563 48.3556 27.0723 50.1606 25.3243 51.8086C23.4773 53.5476 21.4603 55.1846 19.9663 57.2546C19.1973 58.3186 18.5393 59.5076 18.4183 60.8376C18.3613 61.4416 18.3973 62.0346 18.4993 62.6186C18.5553 62.5856 18.6163 62.5586 18.6873 62.5426C19.0203 62.4676 19.3823 62.7106 19.6213 62.9126C19.9853 63.2186 20.2973 63.5876 20.5603 63.9806C20.8753 64.4536 21.2713 64.8856 21.4983 65.4126C21.6653 65.8036 21.7933 66.2986 21.5063 66.6706C21.3293 66.9006 20.8943 66.8356 20.6663 66.7376C20.2253 66.5496 19.8623 66.1896 19.5753 65.7696C19.5933 65.8066 19.6143 65.8416 19.6333 65.8786C19.8853 66.3726 20.2623 67.0456 20.1633 67.6236C20.0673 68.1776 19.3983 68.2076 19.0073 67.9266C18.6513 67.6726 18.3893 67.3156 18.1813 66.9236C18.3183 67.3216 18.4513 67.7216 18.5263 68.1406C18.6063 68.5936 18.4753 68.9306 18.0503 68.9536C18.3573 69.2066 18.7083 69.4016 19.0763 69.4076C19.2783 69.4106 19.5873 69.4466 19.7363 69.2636C19.7853 69.2046 19.8223 69.1406 19.8543 69.0756C19.9333 69.1186 20.0133 69.1556 20.0923 69.1836C20.6193 69.3676 21.2073 68.9816 21.4983 68.5736C21.6903 68.3076 21.7493 67.9756 21.7313 67.6336C21.8193 67.6536 21.9063 67.6696 21.9923 67.6756C23.2423 67.7816 23.1163 66.3926 22.8273 65.5436C22.5893 64.8456 22.0973 64.3336 21.6193 63.7926C21.1873 63.3006 20.8213 62.6746 20.1983 62.3866C19.9073 62.2546 19.5673 62.1646 19.2493 62.1556C19.2773 61.9566 19.3103 61.7596 19.3493 61.5606C19.6223 60.1416 20.7483 58.9506 21.6793 57.8926C22.6423 56.7976 23.7063 55.7486 24.8083 54.7966C25.8533 53.8956 26.7813 52.8656 27.8753 52.0206C29.8783 50.4746 32.1393 49.0516 33.8313 47.1456C35.3563 45.4286 35.5473 43.2816 35.3953 41.1236Z" fill="#D4CEA5"/>
<path d="M59.7763 39.9267C59.7763 39.9267 62.5893 43.4337 63.8443 46.0317C65.1003 48.6297 65.0143 52.1797 64.9283 53.3057C64.8423 54.4307 63.0223 63.3067 63.0223 63.3067C63.0223 63.3067 62.6763 63.3507 62.0483 62.4617C61.4203 61.5747 60.5333 61.8337 60.2733 62.1167C60.2733 62.1167 58.6063 61.1417 58.0663 62.4187C58.0663 62.4187 56.9843 61.8567 56.7673 63.3067C56.5493 64.7567 57.5473 66.2937 58.5413 65.6017C58.5413 65.6017 58.8443 66.1817 59.9493 65.7727C59.9493 65.7727 60.3823 66.3447 62.8923 65.9187C65.4043 65.4927 65.7483 65.3627 65.8353 64.4537C65.9233 63.5437 66.3143 59.5397 68.2613 56.1407C70.2083 52.7427 71.5523 52.3517 71.5083 51.0327C71.4643 49.7117 70.1873 49.4307 70.0143 48.1747C69.8413 46.9197 73.4353 39.7927 75.2323 38.1717C77.0283 36.5517 78.0033 29.4927 73.6283 29.1477C69.2573 28.7997 57.4813 36.8007 59.7763 39.9267Z" fill="#F59C00"/>
<path opacity="0.5" d="M69.9883 35.7334C69.8443 35.6654 69.6813 35.6684 69.5263 35.6544C69.5173 35.6544 69.5113 35.6504 69.5053 35.6484C69.3303 35.8264 69.1813 36.0384 69.1113 36.2634C68.9943 36.6404 69.1743 36.8754 69.5703 36.8704C69.9363 36.8664 70.3543 36.7284 70.2973 36.2714C70.2763 36.0844 70.1773 35.8224 69.9883 35.7334Z" fill="#241000"/>
<path opacity="0.5" d="M73.2992 35.9742C73.2202 35.7432 73.1682 35.5302 73.1452 35.2882C73.1052 34.9112 73.0592 34.4112 72.5432 34.6682C72.3572 34.7612 72.1842 34.8762 72.0002 34.9742C71.8212 35.2992 71.8392 35.8082 71.9432 36.1402C72.0902 36.6092 72.4222 36.7082 72.8262 36.8912C73.0682 37.0012 73.2542 37.2012 73.4882 37.3102C73.6282 37.3732 73.5122 36.5872 73.4872 36.5102C73.4292 36.3302 73.3612 36.1542 73.2992 35.9742Z" fill="#241000"/>
<path opacity="0.5" d="M68.7442 42.2266C68.4862 42.0746 68.2322 42.2386 68.1192 42.4836C68.1122 42.4996 68.1012 42.5096 68.0912 42.5176C68.0332 42.6846 68.0172 42.9296 68.2052 43.0086C68.3382 43.0656 68.4952 42.9686 68.5922 42.8816C68.7452 42.7406 69.0282 42.3916 68.7442 42.2266Z" fill="#241000"/>
<path opacity="0.5" d="M65.3912 39.8417C65.1412 39.7097 64.8682 39.9597 64.6412 40.1417C64.5622 40.3447 64.5822 40.5567 64.8092 40.7437C65.0122 40.9107 65.5402 41.1917 65.7272 40.8387C65.8892 40.5367 65.6922 40.0037 65.3912 39.8417Z" fill="#241000"/>
<path opacity="0.5" d="M63.8633 43.1586C63.8323 43.6766 63.6653 44.2466 63.8183 44.7376C63.9573 45.1786 64.3953 45.2096 64.7973 45.1466C65.2063 45.0826 66.2443 44.8616 65.7833 44.2026C65.4093 43.6716 65.2523 42.8526 64.7493 42.4306C64.3303 42.0776 64.0513 42.5426 63.8633 43.1586Z" fill="#241000"/>
<path opacity="0.5" d="M68.6752 48.0956C68.2862 48.0386 67.8602 48.1116 67.6762 48.4616C67.4942 48.8066 67.5952 49.2096 67.7582 49.5416C67.9822 50.0046 68.3342 50.4666 68.8212 50.6816C69.3372 50.9106 69.3362 50.3496 69.3632 49.9866C69.3862 49.6326 69.4252 49.2486 69.3522 48.8976C69.2682 48.4776 69.0052 48.2206 68.6752 48.0956Z" fill="#241000"/>
<path opacity="0.5" d="M64.8643 53.7872C64.9023 53.9392 64.9663 54.0792 65.0693 54.1802C65.4183 54.5272 66.4243 54.1842 66.3653 53.6322C66.2983 52.9962 65.1193 52.1222 64.9453 53.1332C64.9443 53.1402 64.9403 53.1432 64.9383 53.1482C64.9343 53.2032 64.9313 53.2572 64.9273 53.3052C64.9213 53.4062 64.8983 53.5712 64.8643 53.7872Z" fill="#241000"/>
<path opacity="0.5" d="M72.7603 39.207C72.4313 38.923 72.1003 38.651 71.7893 38.338C71.5213 38.067 71.1803 37.919 70.9953 38.349C70.7823 38.848 70.7323 39.46 70.6933 39.999C70.6643 40.411 70.7523 41.07 71.3213 40.996C71.6843 40.95 72.0603 40.75 72.3683 40.558C72.7843 40.298 73.3633 39.862 72.9043 39.352C72.8593 39.302 72.8103 39.254 72.7603 39.207Z" fill="#241000"/>
<path d="M64.2763 62.7062C64.0223 63.0392 63.7993 63.3902 63.3113 63.3242C62.9833 63.2782 62.6873 63.0612 62.4363 62.8652C62.4113 62.8452 62.3693 62.8802 62.3923 62.9062C62.6533 63.1892 63.0003 63.5122 63.4183 63.5112C63.8903 63.5102 64.1883 63.1632 64.3423 62.7452C64.3563 62.7062 64.3073 62.6702 64.2763 62.7062Z" fill="#D28000"/>
<path d="M60.6344 65.9731C59.7704 65.7811 59.5674 65.0671 59.4674 64.2801C59.4104 63.8141 59.5724 63.3291 59.7644 62.9161C59.9464 62.5271 60.2494 62.2861 60.5384 61.9861C60.5624 61.9621 60.5304 61.9161 60.5014 61.9321C59.6324 62.3631 59.2034 63.4811 59.3194 64.4101C59.3824 64.9051 59.5214 65.4271 59.8434 65.7511C58.9444 66.0781 58.2074 65.3811 57.9444 64.5731C57.6514 63.6721 57.9114 62.6751 58.4584 61.9391C58.4764 61.9141 58.4424 61.8751 58.4174 61.8971C57.6254 62.5931 57.4984 63.7871 57.8074 64.7531C57.9514 65.1971 58.2854 65.6151 58.6854 65.8421C58.9794 66.0071 59.6694 66.0771 59.9474 65.8591C59.9514 65.8561 59.9554 65.8521 59.9584 65.8481C60.1334 65.9821 60.3544 66.0641 60.6344 66.0661C60.6874 66.0681 60.6844 65.9851 60.6344 65.9731Z" fill="#D28000"/>
<path d="M73.6294 29.1476C71.1044 28.9476 66.1094 31.5326 62.7824 34.3536C62.6174 34.7056 62.4654 35.0616 62.3224 35.4206C61.6874 37.0376 61.5524 39.0106 62.0484 40.6826C62.5524 42.3746 63.9314 43.4976 64.6864 45.0496C65.1544 46.0126 65.3674 47.0576 65.6954 48.0696C65.8734 48.6206 66.0764 49.1796 66.4044 49.6606C66.6854 50.0726 67.0794 50.3426 67.3814 50.7236C67.8454 51.3056 67.4784 52.1366 67.1104 52.6846C66.8064 53.1436 66.4124 53.5416 66.1314 54.0146C65.8074 54.5566 65.6164 55.1856 65.4474 55.7896C65.0774 57.1016 64.8674 58.4476 64.6874 59.7966C64.5754 60.6496 64.5474 61.5726 64.2404 62.3876C64.1404 62.6506 63.9734 63.0416 63.7114 63.1966C63.6014 63.2866 63.4794 63.3556 63.3404 63.3846C63.1904 63.4166 63.0454 63.3816 62.9174 63.3096C62.8214 63.3836 62.6364 63.3756 62.3964 63.3056C61.8364 63.1396 61.1664 63.1766 60.8224 63.7316C60.7304 63.8786 60.6114 64.1466 60.4204 64.2006C59.8614 64.3576 59.6114 63.7786 59.6474 63.3096C59.6794 62.8786 59.9414 62.4416 60.2544 62.1086C59.7154 62.1596 59.2044 62.3876 58.9224 62.8876C58.7284 63.2366 58.6564 63.6436 58.5604 64.0286C58.5024 64.2666 58.3964 64.6706 58.0814 64.5016C57.6944 64.2946 57.8434 63.3386 57.8844 63.0316C57.9104 62.8386 57.9544 62.6506 58.0144 62.4686C57.3334 62.6676 57.3854 63.6026 57.3954 64.1676C57.3994 64.3976 57.3784 64.6596 57.0944 64.6566C57.0164 64.6566 56.9384 64.6156 56.8654 64.5576C57.1444 65.4716 57.8444 66.0906 58.5454 65.6026C58.5454 65.6026 58.8484 66.1826 59.9534 65.7736C59.9534 65.7736 60.3864 66.3456 62.8964 65.9196C65.4084 65.4936 65.7524 65.3636 65.8394 64.4546C65.9274 63.5446 66.3184 59.5406 68.2654 56.1416C70.2124 52.7436 71.5564 52.3526 71.5124 51.0336C71.4684 49.7126 70.1914 49.4316 70.0184 48.1756C69.8454 46.9206 73.4394 39.7936 75.2364 38.1726C77.0284 36.5516 78.0034 29.4926 73.6294 29.1476Z" fill="#D4CEA5"/>
<path d="M73.2704 12.8086C74.3134 13.0456 75.3724 13.0936 76.4344 13.4366C81.9894 15.2376 87.7604 19.0426 90.4914 24.3526C92.2254 27.7266 93.1214 31.4996 93.2124 35.2866C93.3664 41.8236 90.0684 49.8546 94.8554 55.5496C96.1094 57.0396 98.1404 57.8596 100.001 57.1226C102.975 55.9456 102.913 52.5356 102.913 52.5356L103.285 53.7136C103.285 53.7136 103.161 51.0486 105.515 50.4896L105.269 51.4816C105.269 51.4816 106.445 49.1266 109.482 49.5616C109.482 49.5616 111.341 55.1386 107.251 58.4236C104.183 60.8876 99.9554 64.0626 95.8994 61.8746C94.8924 61.3316 93.7234 60.4796 93.0034 59.5816C92.1504 58.5176 91.1824 57.0766 90.7714 55.7646C89.8704 52.8786 89.9134 49.8286 90.0624 46.8416C90.1334 45.4226 90.2504 44.0006 90.2914 42.5786C90.3584 40.2876 90.4624 37.9976 90.2074 35.7126C89.7114 31.2776 88.9674 29.9056 86.9234 29.1346C86.9214 29.1356 80.3804 14.4216 73.2704 12.8086Z" fill="url(#paint0_linear_525_209)"/>
<path d="M91.1584 29.8744C90.5124 30.4234 90.8554 31.2594 91.3324 31.8064C91.6324 32.1524 91.9774 32.5444 92.4064 32.7314C92.6844 32.8524 92.8824 32.8154 93.0194 32.6894C92.8694 31.4814 92.6384 30.2844 92.3224 29.1094C92.0444 29.1514 91.7394 29.2624 91.5894 29.4134C91.4404 29.5634 91.3214 29.7364 91.1584 29.8744Z" fill="#7C4706"/>
<path d="M91.0334 35.8317C91.2764 35.6057 91.4014 35.2797 91.3634 34.9457C91.2714 34.1457 90.6594 33.9197 89.9824 34.0367C90.0624 34.5417 90.1364 35.0977 90.2054 35.7127C90.2164 35.7997 90.2224 35.8857 90.2294 35.9717C90.5084 36.0507 90.8054 36.0437 91.0334 35.8317Z" fill="#7C4706"/>
<path d="M91.0644 51.0256C91.2544 51.1736 91.5374 51.1186 91.7604 51.1106C92.1004 51.0976 92.4054 51.1186 92.6734 51.2106C92.5354 50.6546 92.4394 50.0886 92.3704 49.5156C92.0154 49.6606 91.6574 49.8346 91.3974 50.1046C91.2684 50.2396 90.7934 50.8176 91.0644 51.0256Z" fill="#7C4706"/>
<path d="M92.1444 54.2054C92.0204 54.6834 91.9624 55.3474 92.1554 55.8174C92.5044 56.6714 93.2844 55.3754 93.6754 55.1754C93.9294 55.0454 94.2294 55.0894 94.5264 55.1344C93.9844 54.4204 93.5614 53.6734 93.2374 52.8984C92.6924 53.1104 92.2984 53.6054 92.1444 54.2054Z" fill="#7C4706"/>
<path d="M94.6794 59.9394C94.8384 60.1944 95.1574 60.4984 95.3954 60.0964C95.4874 59.9374 95.5554 59.7704 95.6164 59.5974C95.7444 59.2184 95.8894 58.8414 96.0624 58.4794C96.3064 57.9674 96.6014 57.5004 96.9564 57.0794C96.4414 56.8764 95.9584 56.5824 95.5264 56.2184C95.3984 56.2024 95.2674 56.1874 95.1374 56.1784C94.9774 56.1674 94.6904 56.1104 94.5334 56.1744C94.3164 56.2614 94.5664 56.7784 94.5624 56.9434C94.5624 57.0334 94.4744 57.1274 94.4164 57.1864C93.7934 57.8204 94.2644 59.2744 94.6794 59.9394Z" fill="#7C4706"/>
<path d="M101.611 60.8838C101.345 60.3768 101.189 59.7608 100.73 59.3848C100.552 59.2388 100.241 59.0128 100.281 58.7388C100.303 58.5918 100.371 58.4738 100.471 58.3618C100.603 58.2148 100.921 57.8228 100.516 57.8118C100.39 57.8078 100.162 57.8408 100.064 57.7368C99.8835 57.5458 100.054 57.2758 100.265 57.0078C100.179 57.0488 100.09 57.0868 99.9985 57.1228C99.1755 57.4488 98.3235 57.4668 97.5165 57.2608C97.8185 57.6258 98.1845 57.9608 98.2445 58.4368C98.2505 58.4858 98.1995 58.5208 98.1575 58.5238C97.9645 58.5378 97.2195 58.5358 97.6365 58.8368C97.7365 58.9068 97.8185 58.9938 97.8065 59.1278C97.7835 59.3848 97.6725 59.6258 97.6505 59.8888C97.6305 60.1438 97.6275 60.4018 97.6585 60.6568C97.7425 61.3408 97.9925 62.0288 98.3975 62.5938C99.7325 62.6738 101.057 62.3128 102.324 61.7218C102.037 61.4918 101.787 61.2188 101.611 60.8838Z" fill="#7C4706"/>
<path d="M107.755 56.6812C106.933 56.3412 106.415 55.6732 105.943 54.9452C105.411 54.1252 104.838 53.1402 104.97 52.1232C105.009 51.8212 105.142 51.5672 105.305 51.3282L105.513 50.4922C103.159 51.0512 103.283 53.7162 103.283 53.7162L102.911 52.5382C102.911 52.5382 102.937 54.0182 102.104 55.3642C102.033 55.6772 101.923 55.9782 101.876 56.2962C101.863 56.3862 101.848 56.4792 101.848 56.5692C101.822 56.6962 101.891 56.7662 102.056 56.7822C102.118 56.6832 102.167 56.5752 102.233 56.4792C102.337 56.3272 102.452 56.2472 102.643 56.2912C102.812 56.3292 102.835 56.6722 102.872 56.7912C103.231 57.9902 104.265 59.2492 105.508 59.7722C106.119 59.3232 106.703 58.8642 107.248 58.4252C107.833 57.9562 108.291 57.4412 108.655 56.9012C108.346 56.8822 108.031 56.7962 107.755 56.6812Z" fill="#7C4706"/>
<path d="M91.2194 47.1373C91.4854 47.5703 91.8994 47.5683 92.2484 47.3583C92.2464 46.9023 92.2604 46.4443 92.2834 45.9843C91.6034 45.6813 90.7724 46.4133 91.2194 47.1373Z" fill="#7C4706"/>
<path d="M92.3734 41.5019C92.2664 41.4139 92.1114 41.2989 91.9624 41.3049C91.7534 41.3129 91.5294 41.4879 91.5474 41.7169C91.5724 42.0489 91.8284 42.4819 92.1344 42.6349C92.2874 42.7119 92.4384 42.7119 92.5824 42.6749C92.6174 42.3889 92.6514 42.1039 92.6864 41.8189C92.5904 41.7049 92.4894 41.5949 92.3734 41.5019Z" fill="#7C4706"/>
<path d="M92.2704 38.3518C92.2664 38.8898 92.5464 39.2138 92.9814 39.3698C93.0304 38.9168 93.0754 38.4658 93.1144 38.0188C92.9914 37.9518 92.8704 37.8858 92.7374 37.8438C92.3594 37.7238 92.2714 38.0168 92.2704 38.3518Z" fill="#7C4706"/>
<path d="M109.49 49.5912C109.533 50.3092 109.448 51.0262 109.453 51.7452C109.457 52.2922 109.484 52.9062 109.193 53.3932C109.162 53.4452 109.072 53.4542 109.045 53.3932C108.724 52.7212 108.485 51.9202 107.891 51.4842C107.647 51.9282 107.398 52.3622 107.173 52.7872C107.144 52.8402 107.078 52.8392 107.036 52.8052C106.798 52.6052 106.488 52.5632 106.211 52.4392C106.126 52.9592 106.041 53.4772 105.883 53.9802C105.863 54.0422 105.785 54.0642 105.738 54.0172C105.407 53.7032 105.029 53.4592 104.64 53.2252C104.29 54.5252 103.896 55.8812 102.997 56.9182C101.783 58.3162 100.058 59.2692 98.1633 59.0742C96.3393 58.8872 94.7033 57.8472 93.5453 56.4552C92.1073 54.7202 91.5833 52.5392 91.5463 50.3212C91.5253 49.1212 91.6133 47.9252 91.7003 46.7282C91.7933 45.4832 91.8343 44.2432 91.8873 42.9972C92.0073 40.2122 92.3383 37.4262 92.2513 34.6342C92.1733 32.2102 91.8143 29.7962 90.4853 27.7162C88.9113 25.2542 86.4273 23.6842 83.6733 23.0352C85.6723 26.3302 86.9193 29.1372 86.9193 29.1372C88.9633 29.9082 89.7073 31.2792 90.2033 35.7152C90.4583 38.0002 90.3543 40.2902 90.2873 42.5812C90.2463 44.0032 90.1293 45.4252 90.0583 46.8442C89.9093 49.8312 89.8663 52.8812 90.7673 55.7672C91.1783 57.0802 92.1473 58.5202 92.9993 59.5842C93.7203 60.4822 94.8893 61.3342 95.8953 61.8772C99.9513 64.0652 104.178 60.8912 107.247 58.4262C111.178 55.2712 109.621 50.0062 109.49 49.5912Z" fill="#D2D2D2"/>
<path d="M102.437 61.2815C100.211 61.9075 97.8623 61.5275 95.9163 60.2685C94.8043 59.5495 93.8923 58.5695 93.1993 57.4475C92.7733 56.8985 92.4093 56.3005 92.1223 55.6675C91.1343 53.5045 90.9673 51.0765 90.9333 48.7295C90.9153 47.4135 90.9463 46.0975 90.9293 44.7815C90.9193 43.8885 90.8823 43.0005 90.9103 42.1085C90.9673 40.4565 91.1063 38.8075 91.0883 37.1535C91.0853 36.9365 91.0803 36.7175 91.0723 36.4975C91.0303 35.8425 90.9633 35.1895 90.8563 34.5425C90.7763 34.0445 90.6723 33.5315 90.5323 33.0245C90.4513 32.7865 90.3603 32.5495 90.2563 32.3195C89.8313 31.3915 89.2143 30.6375 88.4443 30.0625C89.3913 31.0095 89.8603 32.6125 90.2063 35.7115C90.4613 37.9965 90.3573 40.2865 90.2903 42.5775C90.2493 43.9995 90.1323 45.4215 90.0613 46.8405C89.9123 49.8275 89.8693 52.8775 90.7703 55.7635C91.1813 57.0765 92.1503 58.5165 93.0023 59.5805C93.7233 60.4785 94.8923 61.3305 95.8983 61.8735C98.8833 63.4845 101.963 62.1875 104.604 60.4085C103.922 60.7715 103.2 61.0675 102.437 61.2815Z" fill="#D2D2D2"/>
<path d="M29.2764 11.5598C29.2764 11.5598 32.4184 12.9788 35.6414 11.5598C38.8644 10.1398 40.3794 10.0508 40.3794 10.0508C40.3794 10.0508 38.7344 11.3538 38.4304 11.9388C38.4304 11.9388 40.0764 10.6078 42.0684 10.7638C42.0684 10.7638 40.5964 11.4528 40.2074 12.3118C40.2074 12.3118 42.9784 10.7468 44.4484 11.7428C45.9214 12.7388 49.8194 19.7948 54.4504 19.0598C59.0844 18.3248 68.4354 11.8298 72.0724 11.7858C75.7104 11.7428 87.8764 20.2718 88.9584 24.3858C90.0404 28.4998 86.9654 34.2138 86.4464 37.4608C85.9264 40.7088 84.6724 44.5188 85.4504 45.5138C86.2304 46.5108 87.8764 48.1988 88.0924 48.9778C88.3094 49.7578 84.3254 60.2348 84.4564 61.4038C84.5864 62.5728 85.3634 65.4748 83.6764 66.2098C81.9884 66.9458 80.5594 66.8158 79.6064 66.2098C79.6064 66.2098 78.3944 66.6858 77.5724 65.8628C77.5724 65.8628 76.3604 66.8588 75.9694 64.6078C75.5794 62.3568 77.5294 62.7898 77.5294 62.7898C77.5294 62.7898 78.7844 61.3598 80.0844 62.6608C80.0844 62.6608 80.4744 62.2698 81.3844 62.5308C81.3844 62.5308 81.5984 61.7948 81.9884 61.5348C81.9884 61.5348 82.5094 56.7288 82.9404 54.4778C83.3734 52.2258 83.4304 51.3888 82.6804 50.7828C81.9294 50.1778 79.2164 48.5608 77.9764 46.8008C76.7364 45.0398 73.8764 36.2598 73.7444 31.9278C73.7444 31.9278 72.2574 32.3248 70.1724 33.9788C68.0904 35.6318 64.1874 40.2968 60.8464 41.3538C57.5044 42.4128 53.7354 42.8748 53.0064 42.7098C53.0064 42.7098 54.1314 43.3058 54.7264 43.3708C54.7264 43.3708 53.7354 43.7668 52.2134 43.6368C52.2134 43.6368 52.8424 44.0668 54.0664 44.2308C54.0664 44.2308 52.6424 44.8928 51.4524 44.7608C51.4524 44.7608 52.1474 45.0578 52.6784 45.1568C52.6784 45.1568 51.4204 45.4878 49.6014 45.2228C47.7834 44.9578 47.5494 44.2308 47.5494 44.2308C47.5494 44.2308 47.0214 46.4808 47.4834 48.5968C47.9484 50.7148 48.6084 53.3278 48.4124 54.0218C48.2124 54.7158 46.4254 58.2518 46.3264 62.0238C46.2264 65.7968 46.2604 66.7568 46.6884 67.5828C47.1194 68.4088 47.2514 69.1368 46.6244 69.8648C45.9964 70.5938 45.8954 70.8228 44.6404 71.0228C43.3834 71.2218 41.3984 71.3538 40.6364 70.7578C40.6364 70.7578 39.8544 71.0938 39.1774 70.6978C39.1774 70.6978 37.1904 71.2068 36.9274 69.6608C36.6614 68.1128 37.6394 66.9788 38.1044 66.7328C38.5714 66.4868 39.3974 66.6268 39.3974 66.6268C39.3974 66.6268 40.5414 65.7568 41.4534 66.7328C41.4534 66.7328 42.0694 66.2658 43.2484 67.2508C43.2484 67.2508 43.8324 64.4918 43.0244 59.7298C42.2144 54.9678 41.4074 47.5208 40.1374 46.0198C38.8664 44.5188 34.3564 39.6698 29.2794 39.9578C29.2794 39.9578 28.2594 37.2878 29.5164 34.2568C29.5164 34.2568 28.3184 34.9648 28.3184 36.4938C28.3184 36.4938 27.6824 34.3858 28.9964 32.6248C28.9964 32.6248 27.1124 30.0128 25.5444 29.5518C23.9704 29.0888 22.3814 18.1738 29.2764 11.5598Z" fill="#F8A90F"/>
<path d="M72.5144 25.6797C70.3264 27.5547 68.6714 30.1377 66.0684 31.5177C65.8954 31.6087 65.7534 31.4317 65.8204 31.2717C65.8484 31.2087 65.8714 31.1427 65.8974 31.0807C64.9234 32.3017 63.8254 33.4067 62.5464 34.3467C62.3944 34.4587 62.2154 34.2467 62.2994 34.0987C62.4614 33.8117 62.6184 33.5037 62.7584 33.1837C62.1994 33.9467 61.5554 34.6417 60.7804 35.1917C59.3674 36.1977 57.4224 36.9747 55.6654 36.5897C55.5124 36.5567 55.4914 36.3347 55.6234 36.2607C56.2264 35.9207 56.8204 35.5747 57.3344 35.1187C55.7714 35.4937 54.2574 35.7507 52.7974 34.7887C51.9854 34.2547 51.2564 33.5457 50.3884 33.1007C49.5454 32.6687 48.8084 32.6857 48.0074 32.8547C49.7744 33.6117 50.3914 35.6167 50.8324 37.3907C50.8524 37.4727 50.8184 37.5487 50.7494 37.5947C50.6454 37.6637 50.5514 37.7397 50.4514 37.8137C50.1384 38.2517 49.7894 38.7197 49.4474 39.2087C49.1004 39.9937 48.5514 40.7087 48.2094 41.4917C47.8964 42.2007 47.6814 42.9617 47.5214 43.7337C47.5184 43.9027 47.5244 44.0717 47.5424 44.2407C47.5444 44.2347 47.5454 44.2257 47.5454 44.2257C47.5454 44.2257 47.7784 44.9537 49.5974 45.2177C51.4164 45.4827 52.6744 45.1517 52.6744 45.1517C52.1444 45.0527 51.4484 44.7557 51.4484 44.7557C52.6384 44.8877 54.0624 44.2257 54.0624 44.2257C52.8384 44.0617 52.2094 43.6317 52.2094 43.6317C53.7304 43.7627 54.7224 43.3657 54.7224 43.3657C54.1274 43.2997 53.0024 42.7047 53.0024 42.7047C53.7304 42.8697 57.5004 42.4067 60.8424 41.3487C64.1834 40.2907 68.0864 35.6257 70.1684 33.9737C71.8094 32.6727 73.0734 32.1507 73.5424 31.9867C73.3654 29.8527 73.2294 27.6987 72.5144 25.6797Z" fill="url(#paint1_linear_525_209)"/>
<path d="M32.0123 31.1419C31.7113 31.0839 31.5263 31.3109 31.3913 31.5959C31.2503 32.1429 30.7933 32.8289 31.4793 33.2009C31.9853 33.4739 33.0283 33.3039 33.0043 32.5549C32.9893 32.0789 32.5213 31.2389 32.0123 31.1419Z" fill="#7C4706"/>
<path d="M39.3833 32.2203C38.9693 32.2523 38.6513 32.6183 38.5763 33.0153C38.5753 33.0243 38.5743 33.0363 38.5713 33.0463C38.5633 33.1033 38.5583 33.1583 38.5613 33.2163C38.5613 33.2273 38.5583 33.2363 38.5543 33.2453C38.5543 33.5333 38.6713 33.7913 39.0223 33.8803C39.4783 33.9963 40.0703 33.8593 40.0673 33.2763C40.0643 32.8933 39.8973 32.1813 39.3833 32.2203Z" fill="#7C4706"/>
<path d="M41.8413 37.35C41.8383 37.345 41.8383 37.34 41.8363 37.334C41.6283 37.127 41.2583 37.032 41.1523 37.408C41.1183 37.535 41.0913 37.662 41.0723 37.793C40.9923 38.325 40.9803 38.973 41.2613 39.453C41.7043 40.209 42.5213 39.795 42.8943 39.185C43.1633 38.746 42.7833 38.535 42.5253 38.233C42.2823 37.947 42.0373 37.669 41.8413 37.35Z" fill="#7C4706"/>
<path d="M42.6253 43.808C42.6033 43.8 42.5793 43.795 42.5563 43.791C41.7263 43.669 41.4423 44.721 41.4563 45.33C41.4673 45.809 41.4773 46.291 41.5023 46.768C41.5273 47.222 41.5813 48.156 42.1713 48.269C43.0393 48.435 44.0153 47.315 44.2373 46.581C44.6103 45.342 43.2643 44.654 42.6253 43.808Z" fill="#7C4706"/>
<path d="M47.1773 53.6453C47.2823 53.5293 47.3383 53.3753 47.3713 53.2233C47.4393 52.9063 47.4803 52.5233 47.4003 52.2033C47.2443 51.5923 46.8333 51.9353 46.6183 52.2823C46.5893 52.3383 46.5603 52.3933 46.5303 52.4493C46.5283 52.4533 46.5263 52.4583 46.5243 52.4623C46.5233 52.4663 46.5193 52.4673 46.5193 52.4703C46.3663 52.7633 46.2463 53.0533 46.4673 53.3813C46.5923 53.5693 46.9513 53.8913 47.1773 53.6453Z" fill="#7C4706"/>
<path d="M43.3853 30.2511C43.3723 30.2931 43.3623 30.3351 43.3493 30.3781C43.3633 30.3961 43.3683 30.4191 43.3643 30.4461C43.2813 30.8931 43.0593 31.6081 43.3093 32.0321C43.5183 32.3861 44.0463 32.2631 44.3503 32.1071C44.8383 31.8571 45.0763 31.4161 44.7483 30.9001C44.4883 30.4981 43.7083 29.2591 43.3853 30.2511Z" fill="#7C4706"/>
<path d="M52.8282 37.9651C52.6952 37.9421 52.6092 38.0171 52.5552 38.1311C52.5622 38.1431 52.5662 38.1571 52.5662 38.1751C52.5552 38.4701 52.4662 38.9201 52.8742 39.0061C53.3062 39.0961 53.2202 38.5151 53.1082 38.2851C53.0552 38.1721 52.9682 37.9891 52.8282 37.9651Z" fill="#7C4706"/>
<path d="M56.9272 28.6846C56.8712 28.5886 56.8112 28.4786 56.7252 28.4076C56.5062 28.2346 56.3612 28.6166 56.3442 28.7226C56.3122 28.9276 56.2932 29.1226 56.2402 29.3186C56.2582 29.3336 56.2682 29.3546 56.2672 29.3836C56.2632 29.6576 56.3882 30.3836 56.7912 30.3326C57.3552 30.2626 57.2652 29.5686 57.1402 29.1836C57.0872 29.0106 57.0202 28.8416 56.9272 28.6846Z" fill="#7C4706"/>
<path d="M67.2033 27.9414C67.0743 27.8544 66.8383 27.6924 66.6993 27.8664C66.6293 27.9554 66.5653 28.0474 66.5043 28.1414C66.5253 28.1654 66.5353 28.2014 66.5183 28.2384C66.2843 28.7494 65.1233 30.5484 66.3753 30.5114C66.6873 30.5024 66.9853 30.4314 67.2893 30.3664C67.6503 30.2894 68.4383 30.2834 68.4103 29.7334C68.3753 29.1024 67.7163 28.2834 67.2033 27.9414Z" fill="#7C4706"/>
<path d="M46.0983 26.3142C46.2543 26.2982 46.4403 26.1532 46.4163 25.9802C46.4023 25.8552 46.3513 25.7282 46.2913 25.6172C46.2293 25.5052 46.1543 25.3552 46.0333 25.2952C45.9003 25.2292 45.8463 25.3592 45.8173 25.4682C45.8253 25.4802 45.8343 25.4932 45.8343 25.5102C45.8503 25.7192 45.7143 26.3542 46.0983 26.3142Z" fill="#7C4706"/>
<path d="M49.4463 24.7494C49.0763 24.6644 48.5123 24.6894 48.2273 24.9904C48.1063 25.1184 48.0563 25.2654 48.0393 25.4204C48.2273 26.1944 48.4653 26.9274 49.2333 27.2964C49.5063 27.4274 49.9223 27.5874 50.2093 27.3994C50.5423 27.1834 50.6623 26.7114 50.6373 26.3344C50.5933 25.6504 50.1573 24.9124 49.4463 24.7494Z" fill="#7C4706"/>
<path d="M53.5483 24.1254C53.6013 24.1474 53.6533 24.1674 53.7053 24.1844C53.7153 24.1844 53.7263 24.1874 53.7353 24.1884C53.7543 24.1894 53.7683 24.1963 53.7793 24.2043C54.1763 24.3033 54.5353 24.1934 54.6393 23.7144C54.7903 23.0204 54.8683 21.8103 53.8313 21.8363C53.3103 21.8503 52.1413 22.0864 52.3753 22.8384C52.4063 22.9394 52.4503 23.0463 52.5063 23.1553C52.5423 23.1223 52.6083 23.1144 52.6413 23.1714C52.8633 23.5384 53.1383 23.9484 53.5483 24.1254Z" fill="#7C4706"/>
<path d="M58.8612 20.0013C58.7312 20.0133 58.5942 20.1033 58.4652 20.1863C58.1802 20.3803 57.6372 20.8083 58.0092 21.0233C58.2802 21.1803 58.7642 21.1733 59.0222 20.9813C59.1842 20.8603 59.3292 20.6573 59.3162 20.4453C59.3042 20.2253 59.1082 19.9803 58.8612 20.0013Z" fill="#7C4706"/>
<path d="M63.9493 18.0198C63.9243 18.1558 63.8443 18.6518 64.0633 18.6998C64.2033 18.7298 64.3473 18.5768 64.4313 18.4848C64.5003 18.4078 64.6513 18.2697 64.6103 18.1477C64.5413 17.9437 64.1203 17.8808 63.9493 18.0198Z" fill="#7C4706"/>
<path d="M71.8223 21.0729C71.8143 21.0869 71.8023 21.0959 71.7933 21.1039C71.7393 21.2739 71.7743 21.4119 71.9943 21.4599C72.1553 21.4959 72.3823 21.5199 72.5293 21.4259C72.6713 21.3359 72.7103 21.1099 72.6193 20.9699C72.3993 20.6249 71.9863 20.7559 71.8223 21.0729Z" fill="#7C4706"/>
<path d="M86.2232 23.6943C86.7112 23.7903 87.1752 23.2543 86.9942 22.7753C86.8612 22.4203 86.2212 21.9983 85.9592 22.4503C85.9022 22.8813 85.6352 23.5793 86.2232 23.6943Z" fill="#7C4706"/>
<path d="M86.4843 26.5537C86.2353 26.5817 86.1263 26.8777 86.0653 27.0847C86.0533 27.1207 86.0463 27.1567 86.0383 27.1937C86.0463 27.6487 85.8603 28.2917 86.1423 28.6647C86.4773 29.1027 87.0063 28.8837 87.0943 28.3987C87.1513 28.0897 87.2323 27.7497 87.2113 27.4357C87.1883 27.0917 86.9173 26.5047 86.4843 26.5537Z" fill="#7C4706"/>
<path d="M78.6783 30.5005C78.5373 30.2855 78.3413 29.9955 78.1163 30.1635C77.7443 30.4385 77.6193 31.1075 77.6363 31.5385C77.6463 31.8405 77.7063 32.0955 78.0393 32.1715C78.3213 32.2345 78.6403 32.2375 78.9143 32.1425C79.8123 31.8285 79.0263 31.0195 78.6863 30.5735C78.6663 30.5475 78.6663 30.5225 78.6783 30.5005Z" fill="#7C4706"/>
<path d="M85.1863 32.4836C85.1283 31.9826 85.0013 31.4376 84.6333 31.0686C84.3093 30.7436 83.9053 30.6086 83.5083 30.4016C83.3033 30.2946 82.8783 30.0146 82.6773 30.2656C82.5623 30.4076 82.5043 30.5856 82.4693 30.7616C82.4593 30.8126 82.4523 30.8636 82.4443 30.9146C82.4683 30.9266 82.4863 30.9506 82.4853 30.9856C82.4633 31.5286 82.3663 32.0846 82.4253 32.6276C82.4983 33.2956 82.8193 33.7236 83.4873 33.8816C83.8723 33.9716 84.6353 34.1016 84.9833 33.8576C85.3583 33.5906 85.2333 32.8816 85.1863 32.4836Z" fill="#7C4706"/>
<path d="M77.1593 43.4506C76.8903 43.2436 76.6073 43.1326 76.3173 43.0156C76.6523 43.9616 76.9793 44.8036 77.2783 45.4746C77.5133 45.1966 77.7903 44.9486 77.8853 44.6006C78.0253 44.0886 77.5153 43.7266 77.1593 43.4506Z" fill="#7C4706"/>
<path d="M85.5254 46.3085C85.7344 46.4695 85.9733 46.4985 86.2163 46.4255C85.9463 46.1135 85.6943 45.8175 85.4923 45.5625C85.2823 45.7775 85.1844 46.0435 85.5254 46.3085Z" fill="#7C4706"/>
<path d="M84.1363 53.5532C84.6353 53.3902 84.4883 52.5232 84.2053 52.2362C83.9383 51.9652 83.5983 51.8292 83.2323 51.7852C83.2813 52.1552 83.2493 52.6232 83.1562 53.2412C83.4773 53.4762 83.8403 53.6502 84.1363 53.5532Z" fill="#7C4706"/>
<path d="M47.9123 20.2694C48.2463 20.5974 48.6613 20.9684 49.1383 21.0584C49.5093 21.1274 49.8813 20.9904 49.7803 20.5514C49.7513 20.4264 49.7193 20.3024 49.7023 20.1764C49.6143 19.5724 49.6233 18.8484 49.2643 18.3264C48.7203 17.5314 47.8783 18.0504 47.2753 18.5124C47.1843 18.6874 47.1433 18.8844 47.2003 19.1184C47.3083 19.5684 47.5863 19.9474 47.9123 20.2694Z" fill="#7C4706"/>
<path d="M46.5453 16.0085C46.6923 16.0075 46.8273 15.9545 46.8913 15.8135C46.9183 15.7545 46.9293 15.6855 46.8913 15.6285C46.7823 15.4675 46.1993 15.3705 46.2803 15.6745C46.2903 15.7135 46.2763 15.7425 46.2533 15.7615C46.2813 15.8995 46.3713 16.0085 46.5453 16.0085Z" fill="#7C4706"/>
<path d="M33.3073 15.8317C33.3753 15.8757 33.4603 15.9017 33.5683 15.9007C33.8603 15.8987 33.7293 15.5067 33.6353 15.3567C33.5943 15.2907 33.3763 14.9967 33.2773 15.1127C33.1793 15.2257 33.1853 15.4317 33.2003 15.5737C33.2103 15.6917 33.2493 15.7747 33.3073 15.8317Z" fill="#7C4706"/>
<path d="M35.9023 14.0532C35.2593 13.6042 35.3143 14.6302 35.3133 14.9622C35.3383 15.2232 35.3453 15.4852 35.3623 15.7492C35.3833 16.1352 35.4263 17.2802 36.0873 16.8332C36.3163 16.6792 36.5143 16.4872 36.7383 16.3322C37.0463 16.1222 37.6273 15.8152 37.3683 15.3602C37.0423 14.7942 36.4263 14.4182 35.9023 14.0532Z" fill="#7C4706"/>
<path d="M43.9332 14.8858C44.3292 14.8398 43.9762 13.9528 43.8582 13.7678C43.5962 13.3548 43.2452 13.4928 42.9182 13.6948C42.7822 13.9348 42.7212 14.1868 42.9652 14.4078C43.1862 14.6078 43.6082 14.9238 43.9332 14.8858Z" fill="#7C4706"/>
<path d="M39.4193 16.8949C39.8803 16.9669 40.6623 16.8739 40.6213 16.2329C40.6013 15.8959 40.4043 15.6649 40.0783 15.5819C39.8763 15.5299 39.5603 15.4259 39.3943 15.6239C39.2453 15.8049 39.0933 15.9789 38.9563 16.1619C38.9333 16.2109 38.9133 16.2599 38.9013 16.3099C38.8263 16.6439 39.1313 16.8499 39.4193 16.8949Z" fill="#7C4706"/>
<path d="M45.5653 19.3705C45.4923 19.0345 45.3713 18.5675 44.9853 18.4685C44.5943 18.3665 44.1253 18.4845 43.7493 18.6015C43.4473 18.6975 42.9143 18.8665 43.1503 19.2995C43.2133 19.4125 43.2823 19.5235 43.3553 19.6305C43.8093 20.1175 44.4143 20.5305 45.0023 20.7075C45.8093 20.9495 45.6653 19.8475 45.5653 19.3705Z" fill="#7C4706"/>
<path d="M85.8373 48.6178C85.6503 48.6718 85.4793 48.7548 85.3013 48.8348C85.0013 49.1788 85.2553 49.8088 85.6243 50.0178C86.2613 50.3738 86.3883 49.5058 86.3443 49.0848C86.3153 48.8138 86.1943 48.5168 85.8373 48.6178Z" fill="#7C4706"/>
<path d="M81.2403 46.2729C80.8443 45.9809 79.7793 45.3239 79.7343 46.2679C79.7103 46.8129 79.8923 47.2929 80.0373 47.8069C80.1503 48.1929 80.2533 48.6549 80.6013 48.8989C80.6053 48.9019 80.6063 48.9049 80.6103 48.9089C80.7473 48.9589 80.8983 48.9729 81.0703 48.9339C81.4883 48.8419 82.0843 48.5699 82.2663 48.1559C82.5693 47.4749 81.7563 46.6539 81.2403 46.2729Z" fill="#7C4706"/>
<path d="M79.9903 41.1859C79.9043 41.2169 79.8923 41.3979 79.8823 41.4729C79.8703 41.5469 79.8643 41.6209 79.8603 41.6959C79.8653 41.7099 79.8673 41.7269 79.8623 41.7459C79.8573 41.7629 79.8543 41.7829 79.8523 41.8039C79.8503 41.8419 79.8493 41.8809 79.8463 41.9189C79.8563 42.0979 79.9383 42.2829 80.1543 42.1649C80.3833 42.0399 80.3693 41.7539 80.2923 41.5379C80.2573 41.4459 80.1403 41.1319 79.9903 41.1859Z" fill="#7C4706"/>
<path d="M83.6323 38.5402C83.2133 38.1072 82.4863 37.8092 82.1273 38.5232C81.9543 38.8692 81.9503 39.2462 82.0143 39.6262C82.0463 39.6282 82.0783 39.6472 82.0923 39.6862C82.3293 40.4362 82.6133 41.5832 83.6293 41.4752C84.0433 41.4312 84.7093 41.2072 84.8223 40.7362C84.9333 40.2762 84.6033 39.8672 84.3413 39.5232C84.1003 39.2072 83.9093 38.8262 83.6323 38.5402Z" fill="#7C4706"/>
<path d="M78.0183 37.1215C77.6613 36.6635 77.0863 35.5355 76.3853 35.6175C75.5553 35.7165 75.4063 37.2735 75.5213 37.8895C75.5973 38.2885 75.7903 38.5315 76.0503 38.6725C76.0503 38.6725 76.0523 38.6715 76.0553 38.6725C76.5963 38.7145 77.1663 38.7085 77.6853 38.5285C78.0333 38.4085 78.6943 38.1565 78.4053 37.6555C78.2943 37.4635 78.1523 37.2965 78.0183 37.1215Z" fill="#7C4706"/>
<path d="M85.6743 37.9051C85.7513 37.7771 85.7853 37.6231 85.7733 37.4761C85.7543 37.2811 85.6393 37.0161 85.3983 37.1421C85.2843 37.2021 85.2093 37.2961 85.1603 37.4041C85.1433 37.6051 85.1183 37.8691 85.2533 37.9871C85.3783 38.0951 85.5903 38.0411 85.6743 37.9051Z" fill="#7C4706"/>
<path d="M80.5903 28.2136C80.5543 28.2286 80.5203 28.2516 80.4903 28.2766C80.4203 28.5166 80.2333 28.9646 80.6123 28.9466C80.8853 28.9346 81.0423 28.6476 80.9553 28.3966C80.9023 28.2446 80.7473 28.1546 80.5903 28.2136Z" fill="#7C4706"/>
<path d="M83.8133 23.2547C83.7373 22.6777 83.4993 21.8417 82.7643 21.8637C82.2773 21.8797 81.8153 22.0817 81.4223 22.3647C80.9623 22.9257 80.6743 23.5577 81.2633 24.2167C81.6813 24.6817 82.2453 25.0757 82.7683 25.4197C83.1223 25.6537 83.7863 26.0937 83.8983 25.4127C83.9563 25.0567 83.9193 24.6927 83.8883 24.3357C83.8563 23.9767 83.8583 23.6137 83.8133 23.2547Z" fill="#7C4706"/>
<path d="M76.4573 25.6432C76.1883 25.2932 75.9743 24.9572 75.7583 24.5742C75.6293 24.3482 75.3383 23.7982 74.9613 24.0552C74.7543 24.1992 74.5983 24.3912 74.4573 24.6002C74.1723 25.0222 73.0373 27.1812 74.0433 27.3382C74.3543 27.3872 74.6663 27.3802 74.9773 27.3502C74.9883 27.3412 74.9983 27.3342 75.0143 27.3302C75.4593 27.2362 75.9583 27.1752 76.3573 26.9462C76.9613 26.6012 76.8173 26.1142 76.4573 25.6432Z" fill="#7C4706"/>
<path d="M77.2243 19.9979C77.2243 20.0029 77.2243 20.0069 77.2243 20.0119C77.2073 20.5299 77.7163 21.0029 78.2483 20.9699C78.8333 20.9339 78.7583 20.0729 78.5173 19.7179C78.1773 19.2219 77.5353 19.6299 77.2243 19.9979Z" fill="#7C4706"/>
<path d="M74.9613 14.6172C74.6873 14.6502 74.4213 14.7372 74.1843 14.8712C74.1803 14.8802 74.1763 14.8882 74.1673 14.8972C73.8443 15.2562 73.2793 15.8532 73.7893 16.3302C74.0273 16.5532 74.3373 16.6992 74.6523 16.7822C74.9533 16.8622 75.3173 16.9452 75.6263 16.8542C75.9953 16.7462 75.9713 16.3432 75.9063 16.0382C75.8113 15.5812 75.5843 14.5412 74.9613 14.6172Z" fill="#7C4706"/>
<path d="M68.8963 16.8953C69.1053 17.0453 70.0423 17.7363 70.0423 17.1023C70.0423 16.4953 70.0313 15.8133 69.8193 15.2373C69.6893 14.8823 69.4423 14.4483 69.0023 14.4653C68.6373 14.4793 68.2123 14.5873 67.8723 14.7263C67.5433 14.8603 67.5143 15.1763 67.6273 15.5553C67.6503 15.5583 67.6703 15.5703 67.6873 15.5933C67.9963 16.0963 68.4163 16.5513 68.8963 16.8953Z" fill="#7C4706"/>
<path d="M66.8693 22.8968C67.0143 22.2838 67.0663 21.4148 66.8983 20.8028C66.7773 20.3598 66.4743 20.0398 66.0203 20.3398C65.8223 20.4698 65.6443 20.5708 65.4043 20.5528C65.3983 20.5518 65.3943 20.5498 65.3883 20.5478C65.1543 20.6728 64.9713 20.8368 65.0783 21.1488C65.2363 21.6098 65.4623 22.0648 65.7513 22.4588C65.9403 22.7148 66.6933 23.6418 66.8693 22.8968Z" fill="#7C4706"/>
<path d="M64.3852 16.0522C64.3482 16.0622 64.3192 16.0772 64.2912 16.0942C64.2462 16.2342 64.1972 16.3842 64.2172 16.5252C64.2462 16.7692 64.4972 16.8032 64.6932 16.7432C64.8452 16.6962 64.9822 16.6082 64.9772 16.4332C64.9742 16.3462 64.9452 16.2602 64.8822 16.1962C64.7602 16.0722 64.5582 16.0002 64.3852 16.0522Z" fill="#7C4706"/>
<path d="M61.3543 18.8638C61.7813 18.8328 62.0383 18.0768 62.1923 17.7268C62.3563 17.3538 62.6933 16.4398 61.9023 16.6638C61.2793 16.8408 60.8273 17.2458 60.4553 17.7438C60.3893 17.9278 60.4093 18.1288 60.6023 18.3508C60.7763 18.5498 61.0553 18.8858 61.3543 18.8638Z" fill="#7C4706"/>
<path d="M62.5883 25.6482C62.4193 25.4372 62.2873 25.2002 62.1173 24.9882C62.1063 24.9732 62.1013 24.9592 62.0993 24.9452C61.8953 24.6762 61.6703 24.4142 61.3843 24.3532C60.6323 24.1932 60.5983 25.5112 60.5893 25.9782C60.5823 26.2352 60.5863 26.4902 60.5973 26.7452C60.6073 26.9732 60.5793 27.2782 60.7073 27.4782C60.9593 27.8732 61.5303 27.6742 61.8603 27.4982C62.2523 27.2922 62.9903 26.9422 63.0893 26.4622C63.1643 26.1102 62.7763 25.8772 62.5883 25.6482Z" fill="#7C4706"/>
<path d="M70.6983 25.8761C70.5473 25.7871 70.3803 25.7981 70.2363 25.8681C70.1313 25.9481 70.0333 26.0361 69.9763 26.1511C69.9083 26.2871 69.9553 26.4841 70.1213 26.5231C70.2373 26.5481 70.3653 26.5211 70.4723 26.4641C70.6443 26.3711 70.9823 26.0451 70.6983 25.8761Z" fill="#7C4706"/>
<path d="M61.6644 32.5272C61.5144 32.1682 61.1954 31.8572 60.7794 32.1232C60.7364 32.1502 60.7003 32.1832 60.6583 32.2132C60.6623 32.2352 60.6564 32.2592 60.6374 32.2802C60.2504 32.7122 59.4264 34.0982 60.5004 34.2492C60.7744 34.2882 61.0533 34.2562 61.3263 34.2162C61.5543 34.1822 61.8153 34.1942 62.0313 34.1222C62.6673 33.9092 62.0184 33.4012 61.8874 33.1062C61.8024 32.9162 61.7434 32.7182 61.6644 32.5272Z" fill="#7C4706"/>
<path d="M55.1063 32.8355C54.8353 32.6035 54.2573 32.1225 53.8803 32.4005C53.7023 32.5305 53.5923 32.7155 53.5053 32.9165C53.4453 33.3705 53.2713 33.7835 53.1523 34.2275C53.0863 34.4855 52.9743 34.8935 53.3563 34.9495C53.5283 34.9755 53.7033 34.9605 53.8723 34.9265C54.1623 34.8685 54.4463 34.7825 54.7343 34.7095C55.0533 34.6295 55.5713 34.5365 55.7183 34.1935C55.9343 33.6835 55.4673 33.1415 55.1063 32.8355Z" fill="#7C4706"/>
<path d="M46.8573 34.6914C47.1653 34.6104 47.5193 34.3884 47.4203 34.0074C47.3773 33.8384 47.2533 33.7174 47.1073 33.6914C47.1013 33.6954 47.0973 33.6994 47.0913 33.7034C46.8883 33.8214 46.6933 34.0104 46.5663 34.2094C46.5063 34.3044 46.4133 34.4484 46.4533 34.5684C46.5093 34.7344 46.7173 34.7284 46.8573 34.6914Z" fill="#7C4706"/>
<path d="M43.8473 34.9406C43.6563 35.1176 43.6313 35.3826 43.6893 35.6236C43.7773 35.8746 43.9323 36.1486 44.1703 36.1996C44.6313 36.2966 44.5723 35.6846 44.4793 35.4166C44.4073 35.2076 44.1453 34.6626 43.8473 34.9406Z" fill="#7C4706"/>
<path d="M46.8793 37.332C46.6533 37.157 46.5053 37.311 46.4063 37.59C46.4293 37.609 46.4443 37.638 46.4363 37.675C46.3333 38.213 46.2063 38.771 46.2393 39.322C46.2543 39.537 46.2913 39.98 46.5993 39.973C46.9613 39.966 47.4323 39.648 47.6663 39.39C48.0653 38.952 47.8443 38.584 47.5653 38.174C47.3693 37.881 47.1603 37.551 46.8793 37.332Z" fill="#7C4706"/>
<path d="M45.9353 48.3653C45.7953 48.4243 45.7183 48.5633 45.6613 48.7133C45.6553 48.8323 45.6323 48.9483 45.6273 49.0683C45.6233 49.1723 45.6653 49.5393 45.8563 49.4593C46.0363 49.3853 46.1663 49.0653 46.2063 48.8903C46.2523 48.6863 46.3233 48.2013 45.9353 48.3653Z" fill="#7C4706"/>
<path d="M45.8912 58.2876C46.1862 58.2556 46.3532 58.0056 46.4632 57.7546C46.5212 57.6216 46.5842 57.4616 46.5692 57.3126C46.5492 57.1076 46.3862 57.0826 46.2292 57.1796C46.1282 57.2426 46.0362 57.3216 45.9382 57.3946C45.8162 57.5496 45.6362 57.6956 45.5932 57.8966C45.5452 58.1116 45.6432 58.3136 45.8912 58.2876Z" fill="#7C4706"/>
<path d="M43.7383 58.8108C44.7863 58.2868 43.2333 56.8768 42.5093 56.4648C42.6383 57.3138 42.7633 58.1358 42.8883 58.9098C43.1903 58.9598 43.5033 58.9288 43.7383 58.8108Z" fill="#7C4706"/>
<path d="M43.2383 54.4653C43.6873 54.1383 43.7773 52.9703 43.3673 52.5693C42.9733 52.1833 42.3683 52.1583 41.8683 52.3383C41.9633 52.8973 42.0523 53.4703 42.1433 54.0473C42.3853 54.4803 42.6653 54.8803 43.2383 54.4653Z" fill="#7C4706"/>
<path d="M47.5493 44.2376C47.6623 43.7716 48.0473 43.0966 47.3593 42.9966C46.9453 42.9356 46.3953 43.0996 46.2863 43.5616C46.1193 44.2746 46.7683 44.8756 47.4343 44.8526C47.4923 44.4646 47.5473 44.2296 47.5473 44.2296C47.5473 44.2296 47.5493 44.2336 47.5493 44.2376Z" fill="#7C4706"/>
<path d="M41.8823 25.9603C41.7733 26.1683 41.7553 26.4053 41.7453 26.6363C41.7393 26.7003 41.6793 26.7263 41.6323 26.7153C41.5973 26.8803 41.5693 27.0473 41.5673 27.2123C41.5563 27.5703 41.6593 27.8793 42.0663 27.8793C42.3043 27.8793 42.5653 27.8323 42.7713 27.7033C43.2933 27.3753 42.9273 26.7363 42.6473 26.3473C42.5613 26.2283 42.0753 25.5843 41.8823 25.9603Z" fill="#7C4706"/>
<path d="M39.6122 21.5161C39.3442 21.3481 39.0292 21.2431 38.7782 21.3661C38.4352 22.1831 38.2602 23.1751 38.7972 23.9591C39.3322 24.7361 40.6422 23.9691 40.8272 23.2221C40.9852 22.5861 40.1142 21.8281 39.6122 21.5161Z" fill="#7C4706"/>
<path d="M34.8853 26.8846C34.5723 26.9806 34.2003 27.1096 33.9923 27.3776C33.7423 27.6996 33.6793 28.0816 33.6463 28.4766C33.6443 28.5066 33.6293 28.5276 33.6093 28.5406C33.6483 28.7596 33.7793 28.9316 34.0723 28.9816C34.7623 29.0996 35.9023 28.9776 36.0923 28.1606C36.1753 27.8066 36.1683 27.3006 35.8753 27.0296C35.5993 26.7746 35.2283 26.7786 34.8853 26.8846Z" fill="#7C4706"/>
<path d="M29.1183 27.7495C29.1163 27.7665 29.1103 27.7835 29.0963 27.7995C28.7343 28.1975 27.8873 29.3935 28.6403 29.8225C29.1983 30.1405 30.1523 30.1015 30.3043 29.3485C30.4033 28.8525 30.2503 28.2355 29.9083 27.8555C29.6163 27.5345 29.3523 27.5685 29.1183 27.7495Z" fill="#7C4706"/>
<path d="M73.3953 30.0842C73.2503 29.3572 73.1374 28.6212 73.0104 27.8892C72.9444 27.4992 72.8244 27.1172 72.7464 26.7272C72.6864 26.4172 72.6573 26.1012 72.5443 25.8032C72.5303 25.7682 72.4843 25.7892 72.4933 25.8232C72.6563 26.5022 72.6963 27.2192 72.8473 27.9042C73.0043 28.6322 73.0643 29.3732 73.2153 30.1012C73.5153 31.5232 73.6813 32.9652 73.9923 34.3892C73.9993 34.4212 74.0513 34.4172 74.0463 34.3822C73.8623 32.9392 73.6803 31.5102 73.3953 30.0842Z" fill="#D28000"/>
<path d="M83.8663 63.999C83.3283 64.151 82.8173 63.609 82.4933 63.275C82.2543 63.029 81.9543 62.782 81.6583 62.609C80.8833 62.154 80.0003 62.445 79.5273 63.152C79.0923 63.799 78.9303 64.841 79.1653 65.585C79.2333 65.801 79.3423 65.98 79.4793 66.128C79.1523 66.229 78.8573 66.274 78.4873 66.229C77.8453 66.15 77.4903 65.627 77.3023 65.068C77.0033 64.178 77.2613 62.916 78.1063 62.406C78.1333 62.39 78.1093 62.347 78.0813 62.357C77.0123 62.774 76.8383 64.181 77.1053 65.141C77.4213 66.278 78.5893 66.691 79.6043 66.251C79.9343 66.531 80.3813 66.664 80.8333 66.674C80.8733 66.675 80.8713 66.616 80.8373 66.609C80.4113 66.523 80.0403 66.343 79.7703 66.074C79.4833 65.791 79.3073 65.408 79.3043 64.928C79.2983 63.982 79.7023 62.677 80.8223 62.649C81.5683 62.63 82.1393 63.248 82.6483 63.712C82.9183 63.957 83.5543 64.348 83.8963 64.057C83.9243 64.032 83.9023 63.988 83.8663 63.999Z" fill="#D28000"/>
<path d="M83.8734 64.5346C83.8674 64.4756 83.7764 64.4716 83.7694 64.5306C83.7364 64.7866 83.7264 65.0366 83.6444 65.2836C83.5274 65.6376 83.1464 65.9846 82.7474 65.9386C82.7194 65.9376 82.7134 65.9766 82.7394 65.9826C83.0694 66.0586 83.4464 65.8446 83.6404 65.5866C83.8524 65.3046 83.9094 64.8746 83.8734 64.5346Z" fill="#D28000"/>
<path d="M44.7374 67.9669C44.4354 68.0369 44.1494 67.8319 43.9154 67.6719C43.6964 67.5249 43.4474 67.3319 43.2644 67.1449C43.0264 66.8989 42.5424 66.6449 42.2044 66.6149C41.9554 66.5929 41.7264 66.6269 41.5204 66.6989C41.2614 66.1049 40.3954 66.1429 39.8594 66.2799C39.6774 66.3259 39.5064 66.4089 39.3464 66.5169C38.8674 66.2559 38.2374 66.4909 37.8774 66.8509C37.2894 67.4359 36.9284 68.1749 36.8174 68.9989C36.7404 69.5819 36.8704 70.3769 37.4284 70.7069C37.6644 70.8479 37.9744 70.9879 38.2564 70.9959C38.4564 71.0009 38.6274 70.9819 38.8194 70.9199C38.8994 70.8939 39.1334 70.7109 39.2094 70.7109C39.2144 70.7109 39.2174 70.7099 39.2214 70.7089C39.6124 70.9249 40.0834 71.0119 40.6044 70.9059C41.1794 71.2389 41.9824 71.3769 42.5424 71.1899C42.5734 71.1809 42.5624 71.1319 42.5304 71.1359C42.1634 71.1999 41.7014 71.0669 41.3544 70.9529C41.1534 70.8859 40.9484 70.8069 40.7624 70.7029C40.7424 70.6749 40.7124 70.6539 40.6744 70.6529C40.4574 70.5149 40.2794 70.3329 40.1844 70.0719C40.0324 69.6629 40.1354 69.1199 40.2284 68.7139C40.3394 68.2239 40.6034 67.7759 40.9344 67.4029C41.2434 67.0519 41.7464 66.7239 42.2394 66.8719C42.6034 66.9819 42.9354 67.1099 43.2114 67.3779C43.4644 67.6239 43.8254 67.8399 44.1394 68.0049C44.3384 68.1109 44.5774 68.1419 44.7714 68.0259C44.8074 68.0069 44.7724 67.9579 44.7374 67.9669ZM38.8454 70.6119C38.4964 70.7659 38.1924 70.7539 37.8354 70.6189C37.1834 70.3709 37.0004 69.6779 37.0724 69.0419C37.1824 68.0699 37.9914 66.3819 39.2114 66.6179C38.7724 66.9679 38.4394 67.5059 38.2724 67.9889C37.9284 68.9779 38.2614 69.9939 38.9654 70.5419C38.9244 70.5689 38.8834 70.5959 38.8454 70.6119ZM40.2524 67.9239C39.8774 68.5989 39.5754 69.9469 40.1854 70.5879C40.2174 70.6219 40.2524 70.6539 40.2884 70.6859C39.7934 70.7059 39.3504 70.5919 38.9514 70.2189C38.3934 69.7009 38.3334 68.8999 38.4984 68.1979C38.6304 67.6309 39.0374 67.1229 39.4794 66.7619C39.9254 66.3979 41.0054 66.2309 41.4254 66.7349C40.9204 66.9479 40.5364 67.4089 40.2524 67.9239Z" fill="#D28000"/>
<path d="M40.8083 46.5884C40.6623 46.0454 40.4683 45.5154 40.3363 44.9664C40.1923 44.3654 39.9423 43.7694 39.7673 43.1744C39.5653 42.4904 39.3493 41.8124 39.1503 41.1274C38.7933 39.9024 38.4763 38.6584 38.0333 37.4604C37.8343 36.9244 37.5853 36.4224 37.2773 35.9414C37.0003 35.5064 36.6903 34.9784 36.2293 34.7164C36.1803 34.6894 36.1313 34.7694 36.1773 34.8004C36.6273 35.1094 36.9053 35.7244 37.1733 36.1844C37.5043 36.7494 37.7363 37.3694 37.9453 37.9894C38.3383 39.1474 38.6593 40.3404 38.9853 41.5184C39.6033 43.7524 40.4023 45.9354 41.0933 48.1434C41.1113 48.2024 41.2043 48.1804 41.1973 48.1194C41.1303 47.6094 40.9423 47.0904 40.8083 46.5884Z" fill="#D28000"/>
<path d="M50.9653 37.4909C50.9653 37.4889 50.9643 37.4859 50.9623 37.4839C50.9643 37.4759 50.9613 37.4679 50.9573 37.4619C50.6853 36.5279 50.5083 35.5369 50.0433 34.6709C49.7953 34.2089 49.5173 33.7309 49.1533 33.3489C48.8433 33.0219 48.4693 32.8809 48.0763 32.7339C48.3893 32.6339 48.7943 32.6129 49.0793 32.5889C49.3173 32.5679 49.5633 32.5749 49.8033 32.5849C49.9493 32.5899 50.0733 32.6589 50.2133 32.6649C50.2893 32.6669 50.3483 32.6079 50.3233 32.5309C50.1333 31.8849 49.3773 31.4709 48.7973 31.2209C48.1973 30.9619 47.6513 30.9289 47.0533 31.0099C47.1043 30.9829 47.1493 30.9569 47.1743 30.9409C47.4723 30.7479 47.7813 30.5889 48.1023 30.4379C48.5683 30.2169 49.2053 30.0079 49.7193 30.0079C49.7953 30.0079 49.8233 29.9259 49.8073 29.8659C49.7463 29.6179 49.3473 29.3889 49.1473 29.2589C48.7493 28.9969 48.3113 28.8719 47.8533 28.7519C47.0473 28.5379 45.9893 28.7389 45.3583 29.2909C45.3293 29.3199 45.3633 29.3709 45.4013 29.3459C46.0733 28.9079 46.8983 28.7989 47.6813 28.9149C48.0573 28.9709 48.4423 29.1159 48.7853 29.2789C48.9413 29.3539 49.3593 29.5929 49.5363 29.8069C48.9823 29.8459 48.3793 30.0739 47.8963 30.3019C47.5783 30.4519 47.2883 30.6509 46.9723 30.8059C46.8333 30.8749 46.6543 30.9959 46.5803 31.1369C46.5463 31.2029 46.6103 31.3019 46.6863 31.2859C47.3613 31.1509 47.9153 31.1189 48.5773 31.3609C49.0713 31.5429 49.7973 31.9199 50.0633 32.4359C49.9873 32.4159 49.9103 32.3939 49.8323 32.3859C49.5783 32.3599 49.3123 32.3769 49.0583 32.3879C48.6613 32.4039 48.0953 32.4549 47.7443 32.6559C47.6783 32.6949 47.6943 32.8069 47.7623 32.8329C48.2353 33.0199 48.6413 33.1509 49.0243 33.5089C49.4363 33.8919 49.7473 34.5099 49.9893 35.0109C50.3703 35.7979 50.5193 36.6949 50.7833 37.5219C50.2603 37.8679 49.8823 38.4759 49.5233 38.9679C49.1103 39.5379 48.7943 40.1879 48.5203 40.8349C48.2483 41.4729 48.0423 42.1509 47.8153 42.8049C47.5673 43.5129 47.3823 44.2999 47.3483 45.0499C47.3443 45.1079 47.4283 45.1249 47.4393 45.0639C47.7193 43.6909 48.1733 42.3629 48.6633 41.0529C49.1383 39.7829 49.8993 38.5779 50.8523 37.6119C50.9123 37.6239 50.9873 37.5699 50.9653 37.4909Z" fill="#D28000"/>
<path d="M88.0914 48.9781C87.8754 48.1991 86.2304 46.5111 85.4494 45.5141C84.6714 44.5191 85.9254 40.7091 86.4454 37.4611C86.9644 34.2141 90.0394 28.4991 88.9574 24.3861C88.7494 23.5961 88.1334 22.6441 87.2454 21.6211C87.8594 23.1041 88.1114 24.7001 87.9444 26.3671C87.8154 27.6431 87.5254 28.8921 87.1734 30.1241C86.8074 31.4091 86.4444 32.7011 86.0524 33.9781C85.6484 35.3001 85.1794 36.6021 84.7304 37.9091C84.5014 38.5771 84.2154 39.2631 84.0604 39.9521C83.9304 40.5371 83.8444 41.1281 83.7364 41.7181C83.5474 42.7321 83.3024 43.8281 82.4544 44.5091C81.9104 44.9471 81.2254 45.1411 80.5394 44.9551C80.1434 44.8481 79.7894 44.6651 79.4724 44.4341C77.1124 43.1851 76.0094 40.6011 75.3514 38.0551C74.9504 36.5011 74.6744 34.9141 74.2484 33.3661C73.7384 31.5081 73.2524 29.6431 72.9484 27.7401C71.4244 28.8511 70.0814 30.2441 68.6884 31.4951C67.7594 32.3271 66.8504 33.1871 66.0274 34.1261C65.3164 34.9371 64.7394 35.8861 63.9694 36.6431C61.4934 39.0731 57.4724 40.5241 54.0134 40.0781C53.8794 40.0611 53.7844 39.9381 53.8574 39.8061C54.0044 39.5391 54.1844 39.3001 54.3704 39.0591C53.3074 39.8071 52.1354 40.3701 50.8574 40.5671C50.7134 40.5891 50.6104 40.4891 50.6344 40.3451C50.7474 39.6581 50.7474 39.0061 50.6724 38.3161C50.6554 38.1671 50.8354 38.1071 50.9444 38.1601C51.0944 38.2321 51.2444 38.3051 51.3924 38.3811C51.3894 37.4461 51.3774 36.4441 51.0844 35.5661C50.8254 34.7891 50.2994 34.1651 49.9294 33.4421C49.8794 33.3461 49.9154 33.2001 50.0364 33.1761C50.6754 33.0591 51.3674 33.0061 51.9974 33.1861C51.5484 32.1671 50.3254 31.4341 49.3594 31.0421C49.2354 30.9911 49.1574 30.7821 49.3164 30.7121C50.1924 30.3331 51.0804 29.9921 51.9854 29.7041C50.3204 28.4921 48.0754 27.9691 46.1034 28.5291C45.8474 28.6961 45.6174 28.8931 45.4114 29.1201C45.8844 28.8681 46.5264 28.7621 46.9094 28.7181C47.9124 28.6071 49.2084 28.8491 49.8194 29.7271C49.8554 29.7811 49.8054 29.8591 49.7444 29.8571C48.5384 29.8181 47.5354 30.3871 46.8174 31.2411C48.0614 31.1301 49.2794 31.4571 50.2374 32.3071C50.2974 32.3601 50.2494 32.4541 50.1764 32.4551C49.3694 32.4771 48.5144 32.3481 47.7684 32.6081C48.0964 32.9111 48.3714 33.2871 48.5994 33.6521C48.9754 34.2561 49.3194 34.9451 49.4044 35.6601C49.4344 35.9291 49.4224 36.1631 49.3594 36.3741C49.3544 36.7091 49.2784 37.0541 49.1024 37.4051C48.4194 38.7831 47.1554 39.7621 46.4394 41.1181C45.4124 43.0661 45.3954 45.3931 45.2604 47.5451C45.1704 49.0041 45.1204 50.4641 45.1564 51.9231C45.2384 51.7661 45.3234 51.6171 45.4154 51.4971C45.4894 51.4001 45.6624 51.3601 45.7284 51.4971C46.2024 52.4941 47.0114 53.7411 46.8964 54.8981C46.7504 56.3521 45.7064 57.3961 45.2314 58.7291C44.1494 61.7781 45.1744 65.1411 45.3314 68.2601C45.3374 68.3881 45.1684 68.4991 45.0594 68.4161C44.6414 68.1001 44.2004 67.8251 43.7624 67.5421C43.7184 67.5251 43.6734 67.5131 43.6334 67.4911C43.7304 67.5951 43.8234 67.7051 43.9074 67.8251C44.1544 68.1831 44.3624 68.5841 43.9874 68.9231C43.6414 69.2331 43.0564 69.3011 42.6204 69.3541C42.1864 69.4081 41.7394 69.4761 41.3034 69.4191C40.9694 69.3761 40.5384 69.2721 40.3774 68.9341C40.1984 68.5601 40.2724 68.0851 40.4694 67.7281C40.7574 67.2091 41.2574 66.8671 41.8004 66.7811C41.6934 66.7551 41.5854 66.7311 41.4794 66.7161C41.4624 66.7261 41.4494 66.7341 41.4494 66.7341C41.4414 66.7251 41.4344 66.7181 41.4284 66.7101C41.3584 66.7031 41.2904 66.6991 41.2234 66.7011C40.7154 66.7241 40.3244 67.1661 40.0184 67.5331C39.7664 67.8361 39.3164 68.8211 38.7894 68.4141C38.3614 68.0861 38.8524 67.2831 39.0834 66.9861C39.1874 66.8521 39.3004 66.7361 39.4214 66.6321C39.0694 66.7251 38.7574 66.9231 38.5064 67.1921C38.3024 67.4081 38.1824 67.6761 37.9884 67.8951C37.7914 68.1151 37.4684 68.2281 37.3124 67.9021C37.2784 67.8371 37.2644 67.7571 37.2594 67.6731C36.9804 68.1851 36.7884 68.8681 36.9254 69.6601C37.1884 71.2061 39.1754 70.6971 39.1754 70.6971C39.8524 71.0931 40.6344 70.7571 40.6344 70.7571C41.3964 71.3521 43.3814 71.2201 44.6384 71.0221C45.8944 70.8231 45.9944 70.5931 46.6224 69.8641C47.2494 69.1361 47.1174 68.4081 46.6864 67.5821C46.2574 66.7561 46.2244 65.7961 46.3244 62.0231C46.4234 58.2511 48.2104 54.7151 48.4104 54.0211C48.6064 53.3261 47.9464 50.7131 47.4814 48.5961C47.0184 46.4801 47.5474 44.2301 47.5474 44.2301C47.5474 44.2301 47.7804 44.9581 49.5994 45.2221C51.4184 45.4871 52.6764 45.1561 52.6764 45.1561C52.1464 45.0571 51.4504 44.7601 51.4504 44.7601C52.6404 44.8921 54.0644 44.2301 54.0644 44.2301C52.8404 44.0661 52.2114 43.6361 52.2114 43.6361C53.7324 43.7671 54.7244 43.3701 54.7244 43.3701C54.1294 43.3041 53.0044 42.7091 53.0044 42.7091C53.7324 42.8741 57.5024 42.4111 60.8444 41.3531C64.1854 40.2951 68.0884 35.6301 70.1704 33.9781C72.2554 32.3241 73.7424 31.9271 73.7424 31.9271C73.8754 36.2591 76.7344 45.0391 77.9744 46.8001C79.2144 48.5601 81.9274 50.1771 82.6784 50.7821C83.4284 51.3881 83.3704 52.2251 82.9384 54.4771C82.5064 56.7281 81.9864 61.5341 81.9864 61.5341C81.6424 61.7631 81.4334 62.3621 81.3894 62.5001C81.7344 62.6831 82.0514 63.0181 82.3254 63.2461C82.5614 63.4421 83.0924 63.7701 83.0974 64.1301C83.1024 64.5561 82.6654 64.7831 82.3184 64.9331C81.8464 65.1381 81.3424 65.2301 80.8244 65.1971C80.0224 65.1441 78.9164 64.6721 79.3364 63.6641C79.4844 63.3101 79.7444 62.9681 80.0544 62.7661C80.0784 62.7351 80.1074 62.7071 80.1344 62.6791C79.1174 62.5561 79.0074 63.6681 78.4124 64.2211C78.1194 64.4931 77.5924 64.6661 77.3674 64.1981C77.1484 63.7421 77.2604 63.2531 77.4924 62.8271C77.0974 62.9401 76.8244 63.3521 76.7614 63.7481C76.7264 63.9821 76.7004 64.2311 76.5694 64.4341C76.3844 64.7231 76.0894 64.4601 76.0204 64.2371C75.9724 64.0781 75.9464 63.9251 75.9354 63.7781C75.9044 64.0031 75.9134 64.2751 75.9674 64.6071C76.3594 66.8581 77.5704 65.8621 77.5704 65.8621C78.3924 66.6841 79.6044 66.2091 79.6044 66.2091C80.5574 66.8151 81.9864 66.9451 83.6744 66.2091C85.3624 65.4741 84.5844 62.5721 84.4544 61.4031C84.3244 60.2351 88.3084 49.7581 88.0914 48.9781Z" fill="#D2D2D2"/>
<path d="M39.9613 44.8206C39.2413 42.7656 38.7833 40.6526 38.1553 38.5716C38.1373 38.5156 38.1193 38.4586 38.1033 38.4026C37.8633 37.8706 37.5913 37.3586 37.2783 36.8866C36.5403 35.7786 35.4273 35.0596 34.5203 34.1076C34.3923 33.9736 36.0203 34.1456 36.6233 34.4486C36.3573 33.8756 36.0693 33.3146 35.7503 32.7786C35.2103 32.1906 34.6003 31.6616 33.9813 31.1736C32.6013 30.0846 29.2503 28.9876 29.2833 28.8766C29.7813 27.2586 31.1963 26.1416 32.4113 25.0526C33.0973 24.4376 33.9393 23.6326 34.8723 23.2406C33.6113 23.2156 32.3763 23.5456 31.2643 24.2046C31.1333 24.2836 30.9483 24.1546 30.9983 24.0016C31.6463 22.0796 32.3953 20.1876 32.4033 18.1266C32.4103 16.3686 32.1483 14.6286 32.0553 12.8756C31.9073 12.6186 31.7503 12.3666 31.5743 12.1326C30.2083 11.9776 29.2753 11.5586 29.2753 11.5586C22.3803 18.1726 23.9693 29.0876 25.5403 29.5506C27.1083 30.0116 28.9923 32.6236 28.9923 32.6236C27.6793 34.3846 28.3143 36.4926 28.3143 36.4926C28.3143 34.9626 29.5123 34.2556 29.5123 34.2556C28.2553 37.2866 29.2753 39.9566 29.2753 39.9566C34.3523 39.6686 38.8633 44.5176 40.1333 46.0186C40.3213 46.2416 40.4993 46.5966 40.6693 47.0526C40.4773 46.2736 40.2033 45.5126 39.9613 44.8206Z" fill="url(#paint2_linear_525_209)"/>
<path d="M25.0144 43.9905C23.8504 45.7515 22.7894 47.5855 21.6604 49.3705C20.4704 51.2545 19.2894 53.1435 18.2534 55.1175C16.7484 57.9815 14.5274 62.4765 16.2874 65.6775C16.3384 65.7715 16.4784 65.5705 16.4564 65.5005C15.1744 61.6015 17.2334 57.5065 19.0974 54.1335C20.9774 50.7255 23.5284 47.5915 25.0594 44.0045C25.0774 43.9595 25.0344 43.9595 25.0144 43.9905Z" fill="#E74315"/>
<path d="M42.7174 52.8435C42.0594 49.3825 41.1204 45.9935 40.0944 42.6275C40.0634 42.5235 39.9264 42.6865 39.9474 42.7585C40.8464 46.0665 41.7214 49.3885 42.3804 52.7535C43.0584 56.2135 43.3104 59.6655 43.5324 63.1745C43.5364 63.2715 43.6394 63.1605 43.6434 63.1095C43.8584 59.6935 43.3554 56.1895 42.7174 52.8435Z" fill="#E74315"/>
<path d="M79.4343 43.5959C76.9653 41.6089 76.0633 38.8199 75.3653 35.8289C74.9693 34.1229 74.5923 32.4169 74.2823 30.6929C73.9343 28.7479 73.6543 26.7679 72.9843 24.9019C72.9553 24.8189 72.8633 24.9499 72.8713 25.0029C73.5733 28.7999 74.2213 32.5999 75.0953 36.3609C75.7463 39.1529 76.6413 42.3129 79.3313 43.7729C79.4023 43.8129 79.4953 43.6459 79.4343 43.5959Z" fill="#E74315"/>
<path d="M38.7234 4.31699C38.2614 2.14799 36.6444 0.304988 34.0884 0.0369884C32.8774 -0.0900116 31.6334 0.101989 30.5754 0.737989C29.5224 1.36999 28.7664 2.44199 28.0794 3.42099C27.6354 4.05299 27.0884 4.56299 26.4354 4.97799C26.1224 5.17599 25.8454 5.37799 25.4844 5.48699C25.4464 5.49899 25.4064 5.50799 25.3674 5.51699C25.3414 5.28199 25.3274 5.04299 25.3224 4.79599C25.3224 4.68599 25.1714 4.67899 25.1274 4.76399C25.1624 4.69699 24.9394 4.86899 24.9104 4.90399C24.8184 5.00999 24.7244 5.14399 24.6244 5.26799C24.6744 4.89599 24.7304 4.51599 24.7094 4.15399C24.7034 4.08399 24.6094 4.03599 24.5544 4.08399C24.2214 4.36599 23.8804 4.64799 23.5394 4.92599C23.2894 4.95899 23.0234 4.92799 22.7814 4.90099C22.1894 4.83499 21.6084 4.84999 21.0174 4.81299C19.8574 4.74099 18.7174 4.76699 17.5634 4.93599C16.3384 5.11399 15.1124 5.51599 13.9704 5.97599C13.3904 6.21099 12.8084 6.48599 12.1894 6.58999C11.0914 6.34199 10.0974 5.46299 9.29839 4.75899C8.27939 3.86299 7.35939 3.21899 5.99639 3.00199C2.25939 2.40199 -1.62261 7.22499 0.70239 10.581C1.27239 11.401 2.46139 12.342 3.41739 12.651C4.52839 13.008 5.72139 12.961 6.82839 12.645C7.41839 12.476 7.95239 12.207 8.53439 12.029C8.34739 12.422 8.28839 12.821 8.29139 13.263C8.29139 13.306 8.29139 13.349 8.29439 13.391C7.98739 13.696 7.72239 14.048 7.50839 14.466C7.05539 15.344 6.82239 16.481 6.96239 17.465C6.97739 17.561 7.08739 17.591 7.15039 17.522C7.26339 17.401 7.32039 17.256 7.43039 17.127C7.60139 16.928 7.80839 16.753 8.00539 16.581C8.04339 16.547 8.08539 16.516 8.12939 16.483C7.61039 17.886 7.17839 19.315 7.57139 20.83C7.81539 21.774 8.29639 22.657 8.78039 23.497C8.98439 23.85 9.20939 24.197 9.44439 24.539C8.79639 25.084 8.24439 25.832 7.83139 26.506C7.33439 27.313 7.01639 28.391 6.91639 29.329C6.90639 29.41 6.97439 29.456 7.04839 29.439C7.15039 29.415 7.19439 29.342 7.25539 29.258C7.46839 28.966 7.76739 28.844 8.09039 28.713C8.13139 28.697 8.17239 28.683 8.21339 28.667C8.11939 28.814 8.02939 28.963 7.95239 29.112C7.77739 29.457 7.55339 29.813 7.44439 30.183C7.41739 30.271 7.52539 30.344 7.60239 30.313C7.95939 30.18 8.23439 30.094 8.62439 30.127C8.94239 30.153 9.25439 30.232 9.56139 30.318C10.2114 30.5 10.7674 30.763 11.3434 31.11C11.3434 31.11 11.2354 32.211 12.7914 32.397C14.7184 32.626 14.3264 31.915 14.7584 32.119C16.5444 32.965 16.8384 34.69 18.5214 35.593C20.1184 36.45 22.1994 35.578 23.5344 34.593C24.1904 34.108 24.7934 33.527 25.2704 32.867C25.7174 32.247 25.8444 31.482 26.2334 30.864C28.1104 27.875 31.1244 25.586 33.7174 23.244C34.4444 22.591 35.3804 21.657 36.4154 21.584C36.9824 21.544 35.9554 20.433 35.8634 20.316C35.6544 20.052 35.4064 19.867 35.1244 19.712C35.1644 19.706 35.2014 19.699 35.2434 19.694C35.7424 19.628 36.2314 19.756 36.7204 19.715C36.7814 19.711 36.8264 19.645 36.8034 19.588C36.5724 19.02 35.5644 18.655 35.0504 18.449C34.6614 18.293 34.2864 18.162 33.8684 18.098C33.7184 18.075 33.5634 18.07 33.4094 18.07C33.4414 16.639 33.1354 15.143 32.7174 13.795C32.4804 13.031 32.1964 12.225 31.7884 11.533C31.7184 11.416 31.6364 11.302 31.5534 11.191C31.9664 11.326 32.3954 11.413 32.8114 11.454C33.3864 11.511 33.8884 11.449 34.4324 11.26C35.0234 11.054 35.6204 10.9 36.1754 10.602C36.6624 10.343 37.0694 10.027 37.4214 9.60499C38.7094 8.07799 39.1024 6.08899 38.7234 4.31699Z" fill="#FAB600"/>
<path d="M32.8475 22.9603C31.2845 23.6013 28.1154 25.2163 28.1424 25.1083C28.2214 24.7843 28.3794 24.5213 28.5854 24.2963C27.8654 24.5533 27.1644 24.8603 26.4544 25.1463C26.3424 25.1903 27.0854 23.9853 27.5124 23.5013C26.8844 23.5813 26.2665 23.7523 25.6985 24.0343C25.2565 24.2553 24.7874 24.4943 24.5224 24.9343C24.3674 25.1943 24.2215 25.4593 24.0525 25.7123C23.9625 25.8473 23.7844 25.7443 23.7844 25.6083C23.7934 23.7613 23.1184 21.6193 21.6514 20.4023C21.6264 20.9373 21.5804 21.4483 21.3474 21.9503C21.0204 22.6513 20.4165 23.3173 19.8965 23.8813C18.7885 25.0843 17.4234 25.9443 16.1024 26.8863C15.6414 27.2153 15.0004 27.6863 14.3934 27.6083C13.5244 27.4943 12.7824 27.0683 11.8624 27.2313C11.1264 27.3603 11.0074 27.7723 10.9414 28.4233C10.9014 28.8133 10.8454 29.2053 10.8464 29.5993C10.8484 29.9343 10.8484 30.4263 10.9184 30.8683C11.0604 30.9443 11.2004 31.0243 11.3434 31.1103C11.3434 31.1103 11.2354 32.2113 12.7914 32.3973C14.7184 32.6263 14.3264 31.9153 14.7584 32.1193C16.5444 32.9653 16.8385 34.6903 18.5215 35.5933C20.1185 36.4503 22.1994 35.5783 23.5344 34.5933C24.1904 34.1083 24.7934 33.5273 25.2704 32.8673C25.7174 32.2473 25.8444 31.4823 26.2334 30.8643C28.1104 27.8753 31.1244 25.5863 33.7174 23.2443C34.0584 22.9363 34.4465 22.5703 34.8675 22.2583C34.1725 22.4313 33.4885 22.6983 32.8475 22.9603Z" fill="url(#paint3_linear_525_209)"/>
<path d="M8.60938 6.58213C8.06138 4.85613 5.74138 4.01413 4.11538 4.44213C3.62538 4.57013 3.08338 4.82513 2.69438 5.15413C2.42638 5.38013 2.16738 5.67213 1.98738 5.97313C1.74738 6.38213 1.52838 6.94313 1.48138 7.41913C1.42338 8.00113 1.49738 8.58913 1.66138 9.14713C1.83038 9.72013 2.25638 10.2211 2.63638 10.6661C3.38738 11.5501 4.39938 11.8301 5.53238 11.7981C6.43638 11.7721 7.68938 11.4551 8.07038 10.5451C8.44938 9.64213 7.96038 8.68513 7.19238 8.20613C6.72938 7.91613 6.24538 7.73713 5.75238 7.68513C5.98138 7.62513 6.21138 7.57613 6.44838 7.54213C6.71738 7.50313 6.99838 7.51713 7.26838 7.51613C7.60138 7.51513 7.87038 7.64513 8.18338 7.67013C8.25338 7.67413 8.30238 7.60613 8.26238 7.54313C7.95938 7.07313 7.14638 6.75813 6.65538 6.54913C6.50138 6.48413 6.35038 6.44113 6.20238 6.40713C6.95938 6.28013 7.71438 6.34113 8.41238 6.76413C8.53138 6.83613 8.64338 6.68813 8.60938 6.58213Z" fill="url(#paint4_radial_525_209)"/>
<path opacity="0.5" d="M6.65633 6.54744C6.50233 6.48244 6.35133 6.43944 6.20333 6.40544C6.76633 6.31144 7.32433 6.32044 7.86333 6.50644C7.09233 6.01544 6.14033 5.82644 5.18933 5.97544C5.61633 6.35144 6.15233 6.57844 6.54233 7.00044C6.59533 7.05744 6.56133 7.15944 6.47833 7.15744C5.75633 7.13844 5.10433 7.40144 4.50433 7.77844C5.35433 7.99544 6.57133 8.46544 6.48833 9.47544C6.38333 10.7624 4.43733 10.6834 3.59733 10.2994C2.53433 9.81344 1.64033 8.66944 1.47533 7.48244C1.42933 8.04344 1.50033 8.60744 1.66033 9.14644C1.82933 9.71944 2.25533 10.2204 2.63533 10.6654C3.38733 11.5484 4.39933 11.8284 5.53233 11.7964C6.43633 11.7704 7.68933 11.4534 8.07033 10.5434C8.44933 9.64044 7.96033 8.68344 7.19233 8.20444C6.72933 7.91444 6.24533 7.73544 5.75233 7.68344C5.98133 7.62344 6.21133 7.57444 6.44833 7.54044C6.71733 7.50144 6.99833 7.51544 7.26833 7.51444C7.60133 7.51344 7.87033 7.64344 8.18333 7.66844C8.25333 7.67244 8.30233 7.60444 8.26233 7.54144C7.96033 7.07144 7.14733 6.75644 6.65633 6.54744Z" fill="#885504"/>
<path d="M27.8934 24.7386C27.8704 24.7516 27.8464 24.7646 27.8234 24.7786C27.3384 25.0616 26.8934 25.5646 26.7684 25.9666C26.6864 26.2306 26.6294 26.5026 26.5844 26.7766C26.5704 26.9696 26.5624 27.1626 26.5444 27.3416C26.4704 28.1396 26.4484 28.9586 26.2894 29.7446C26.2544 29.9156 26.2114 30.0826 26.1634 30.2496C26.1094 30.5756 26.0494 30.9016 25.9884 31.2276C26.0004 31.2046 26.0134 31.1806 26.0254 31.1576C26.1694 30.6756 26.3564 30.2066 26.5314 29.7316C26.6234 29.2256 26.6774 28.7206 26.7064 28.1916C26.7274 27.8086 26.7964 27.4286 26.8244 27.0456C26.8534 26.6536 26.8554 26.2736 26.9904 25.9006C27.2404 25.1986 27.9284 24.9746 28.4784 24.5926C28.4924 24.5836 28.4964 24.5706 28.4964 24.5586C28.3034 24.5626 28.0974 24.6306 27.8934 24.7386Z" fill="#D28000"/>
<path d="M13.0384 6.42381C12.6794 6.64981 12.2184 7.13881 11.7584 7.11081C11.1614 7.07281 10.5764 7.14081 9.98242 7.13981C9.86942 7.13981 9.86942 7.29181 9.95142 7.33581C10.2274 7.49081 10.5854 7.67781 10.7834 7.95781C10.1074 7.90281 9.54942 8.06181 8.93042 8.38381C9.11542 8.42681 9.30142 8.50681 9.43042 8.55481C9.61442 8.62181 9.83742 8.68681 10.0394 8.78181C9.87942 8.58581 9.59242 8.46681 9.31242 8.41881C9.84042 8.20181 10.3354 8.09081 10.9534 8.18281C11.0274 8.19381 11.0974 8.11881 11.0674 8.04481C10.9404 7.73881 10.6634 7.52281 10.3764 7.34581C10.9274 7.34481 11.4964 7.33681 12.0324 7.28581C12.0724 7.28281 12.1114 7.26781 12.1534 7.25181C12.2644 7.14281 12.3844 7.03881 12.5054 6.93981C12.8744 6.64281 13.2384 6.38081 13.6264 6.13281C13.4154 6.19981 13.2274 6.30581 13.0384 6.42381Z" fill="#D28000"/>
<path d="M28.8274 17.3121C28.6484 17.1381 27.8434 17.2061 27.6724 17.2341C26.4604 17.4301 27.4104 18.5411 25.8444 19.5211C25.1234 19.9721 24.2844 19.9341 23.5104 19.6791C21.0764 18.8821 20.8984 14.4481 22.8714 13.1331C23.6564 12.6071 24.4394 12.5481 25.2824 12.9261C25.8014 13.1591 26.2734 13.9021 26.4704 13.9711C26.6274 14.0291 26.5604 13.8991 26.5164 13.7791C26.1704 12.8621 25.0324 12.1301 24.3554 11.9851C23.8424 11.8761 23.3884 11.9191 22.8954 12.0991C20.9294 12.8141 20.3064 15.6301 20.4694 17.4531C20.5414 18.2311 20.7034 19.1821 21.2174 19.8021C22.0794 20.8441 22.7214 22.0491 23.1734 23.3211C23.6474 24.6551 23.2634 26.2221 22.6864 27.4501C22.6594 27.5061 22.6334 27.5621 22.6064 27.6191C22.4434 28.2421 22.2244 28.8231 21.7374 29.3601C21.5324 29.5891 21.3164 29.7881 21.0964 29.9641C20.8474 30.2041 20.5724 30.4071 20.2674 30.5471C20.1544 30.6001 20.0374 30.6401 19.9224 30.6801C19.3914 31.0481 18.6994 31.1201 18.0444 31.0561C16.6534 31.0391 15.0764 30.4141 14.9224 28.9951C14.8644 28.8471 14.8124 28.6981 14.7684 28.5441C14.7914 28.5351 14.8144 28.5291 14.8374 28.5221C15.3634 28.3411 15.7324 27.9941 16.1614 27.6711C16.5944 27.3481 17.6564 26.0471 16.8624 25.6461C16.4524 25.4401 15.8124 25.4551 15.3644 25.4411C14.9004 25.4281 14.4384 25.4371 13.9784 25.4791C13.8784 25.4761 13.7794 25.4721 13.6794 25.4691C13.0354 25.4491 12.3804 25.6581 11.7714 25.8551C11.4084 25.9731 11.0744 26.1211 10.7784 26.3421C10.6364 25.7341 10.8554 25.1011 11.0854 24.5321C11.3344 23.9111 11.6394 23.3471 12.0004 22.7841C12.6264 21.8021 13.4474 20.8991 14.3614 20.1771C14.3934 20.1801 14.4284 20.1671 14.4454 20.1311C14.4494 20.1231 14.4504 20.1131 14.4554 20.1041C14.9834 19.7001 15.5624 19.3981 16.1814 19.1601C16.2004 19.1521 16.2214 19.1441 16.2444 19.1361C16.7274 18.9141 17.2524 18.7671 17.7794 18.6011C17.3274 18.5351 16.8894 18.7141 16.4404 18.8381C16.0184 18.9551 15.6154 19.1221 15.2314 19.3241C15.4384 19.2151 15.0024 17.7761 14.9424 17.5661C14.6484 16.5261 14.0734 15.2581 13.1024 14.6851C13.0304 14.6351 12.9564 14.5861 12.8774 14.5411C11.0234 13.5131 9.79737 15.8601 9.98437 17.4161C10.1894 16.4811 10.4114 15.0401 11.4334 14.6351C12.1534 14.3501 12.8724 14.7401 13.3554 15.2671C13.9454 15.9061 14.1334 16.7711 14.2454 17.6061C14.3054 18.0471 14.7284 19.5991 14.3104 19.9031C13.3174 20.6271 12.0314 22.6241 10.6874 21.3551C10.6634 21.3461 10.6404 21.3341 10.6214 21.3061C10.3954 20.9961 9.96637 21.0441 9.62437 21.0281C9.52337 21.0241 9.42537 21.0141 9.32837 21.0001C9.72237 21.5311 10.1204 21.9091 10.7254 22.2391C11.0284 22.4041 11.4694 22.6091 11.8504 22.5601C11.7114 22.7561 11.5764 22.9561 11.4464 23.1551C11.0794 23.7151 10.7884 24.4171 10.6094 25.0591C10.5224 25.3691 10.4724 25.6661 10.4634 25.9871C10.4584 26.1791 10.4964 26.3611 10.5454 26.5421C10.5264 26.5621 10.5034 26.5821 10.4814 26.6041C10.1514 26.9491 10.2774 27.3771 10.4654 27.7471C10.5854 27.9831 10.8034 28.1501 11.0404 28.2821C10.9714 28.4431 10.9054 28.6071 10.8574 28.7791C10.7234 29.2431 10.8334 29.8261 10.8704 30.3001C10.9444 31.2881 11.3204 32.0391 12.2564 32.4461C12.6864 32.6341 13.2324 32.6761 13.6804 32.6071C14.0484 32.5491 14.4784 32.3961 14.7584 32.1201C14.7884 32.0901 14.8164 32.0571 14.8434 32.0241C15.9534 32.2491 16.8274 32.8751 17.7544 33.5031C18.1134 33.7471 18.4584 33.8281 18.8874 33.8081C19.3504 33.7861 19.7834 33.3311 20.1204 33.0621C20.8924 32.4421 21.8004 31.8841 22.3114 31.0041C22.5754 30.2271 22.6064 29.4651 22.7414 28.6491C22.7734 28.4531 22.8314 28.2881 22.9134 28.1421C22.9204 28.1121 22.9274 28.0821 22.9344 28.0511C23.2694 27.5241 23.5874 26.9631 23.8124 26.3901C24.3324 25.0601 24.0964 23.2651 23.3654 22.0561C23.1814 21.7561 22.9834 21.4681 22.8094 21.1601C22.7104 20.9891 22.6154 20.8181 22.5174 20.6461C22.1504 19.9961 22.9114 20.1331 23.1144 20.1551C23.9524 20.2461 24.8434 20.2551 25.6474 19.9711C26.7954 19.5651 27.2844 18.4171 28.2624 17.7901C28.3704 17.7221 28.8234 17.5531 28.8564 17.4271C28.8734 17.3791 28.8584 17.3431 28.8274 17.3121ZM15.1544 30.5861C15.1234 30.9471 14.9284 31.3351 14.7834 31.6651C14.5874 32.1131 14.0804 32.2811 13.6624 32.3441C13.1804 32.4171 12.6914 32.3321 12.2324 32.1331C11.3354 31.7461 11.1854 30.8561 11.1234 29.9831C11.0974 29.6061 11.0474 29.1941 11.1234 28.8241C11.1544 28.6761 11.2024 28.5341 11.2584 28.3941C11.3734 28.4471 11.4884 28.4961 11.5954 28.5431C12.0864 28.7581 12.5964 28.8711 13.1324 28.8541C13.6064 28.8381 14.0394 28.7611 14.4774 28.6351C14.6134 29.1591 14.8324 29.6691 15.1514 30.0911C15.1614 30.2521 15.1734 30.4141 15.1544 30.5861Z" fill="#D28000"/>
<path d="M37.3994 4.57404C37.1674 3.10304 36.4484 1.47304 34.9694 0.998039C34.5654 0.868039 34.0264 0.794039 33.6034 0.852039C32.4544 1.01204 31.7094 1.28104 30.8894 2.06304C30.6224 2.31804 30.0044 3.04004 29.8824 3.40504C29.8564 3.48504 29.9274 3.60604 30.0254 3.55704C30.7464 3.19604 31.7864 2.93504 32.6594 3.12804C32.4794 3.16704 32.3024 3.21804 32.1384 3.27004C31.6254 3.43504 30.9084 3.71004 30.5524 4.13304C30.5054 4.19104 30.5434 4.27804 30.6144 4.29304C30.7374 4.31604 30.8404 4.24404 30.9544 4.20804C31.3534 4.08104 31.7574 4.01304 32.1764 4.06704C32.3454 4.08904 32.5064 4.13004 32.6604 4.18304C32.2944 4.30104 31.9454 4.47404 31.6194 4.71604C31.2584 4.98804 30.9254 5.48904 30.6864 5.86804C30.0254 6.91404 29.8474 8.38604 30.7314 9.36904C31.3114 10.016 32.1714 10.365 33.0334 10.387C33.8964 10.411 34.8114 10.203 35.5144 9.68704C36.0944 9.26004 36.5884 8.70504 36.8854 8.04604C37.1114 7.55004 37.3074 6.97704 37.4014 6.43904C37.4664 6.05704 37.4994 5.64404 37.4774 5.25504C37.4594 5.03504 37.4364 4.80704 37.3994 4.57404Z" fill="url(#paint5_radial_525_209)"/>
<path opacity="0.5" d="M36.5364 7.89878C35.4094 8.58478 33.5034 8.76478 32.7014 7.46778C31.9044 6.17878 33.3074 4.93678 34.2824 4.20578C33.8944 4.00878 33.4484 4.01078 33.0244 3.92978C32.9604 3.91778 32.9464 3.84478 32.9694 3.79578C33.2144 3.26078 33.6934 2.96478 34.1304 2.60178C34.2884 2.47178 34.4264 2.40578 34.1404 2.31178C34.0414 2.27878 33.9434 2.24778 33.8384 2.23278C33.5794 2.19578 33.3144 2.18978 33.0514 2.21278C32.4934 2.26278 31.9074 2.35178 31.4044 2.61178C30.8834 2.87978 30.4064 3.22578 29.8904 3.50478C29.9134 3.55378 29.9644 3.58878 30.0244 3.55878C30.7454 3.19778 31.7854 2.93678 32.6584 3.12978C32.4784 3.16878 32.3014 3.21978 32.1374 3.27178C31.6244 3.43678 30.9074 3.71178 30.5514 4.13478C30.5044 4.19278 30.5424 4.27978 30.6134 4.29478C30.7364 4.31778 30.8394 4.24578 30.9534 4.20978C31.3524 4.08278 31.7564 4.01478 32.1754 4.06878C32.3444 4.09078 32.5054 4.13178 32.6594 4.18478C32.2934 4.30278 31.9444 4.47578 31.6184 4.71778C31.2574 4.98978 30.9244 5.49078 30.6854 5.86978C30.0244 6.91578 29.8464 8.38778 30.7304 9.37078C31.3104 10.0178 32.1704 10.3668 33.0324 10.3888C33.8954 10.4128 34.8104 10.2048 35.5134 9.68878C36.0934 9.26178 36.5874 8.70678 36.8844 8.04778C36.9754 7.84878 37.0574 7.63678 37.1344 7.42178C36.9644 7.59678 36.7684 7.75878 36.5364 7.89878Z" fill="#885504"/>
<path d="M22.3004 30.4998C21.9074 31.4418 20.9084 32.2168 20.0824 32.7698C19.6394 33.0638 19.2894 33.5278 18.7214 33.5588C18.1534 33.5898 17.7704 33.1698 17.3224 32.9028C16.6034 32.4708 15.8024 31.9198 14.9274 31.9138C15.1244 31.6168 15.2224 31.2438 15.3144 30.9108C15.3754 30.6938 15.3634 30.4998 15.3284 30.3078C15.4274 30.4128 15.5294 30.5158 15.6434 30.6038C16.0464 30.9198 16.5934 31.1248 17.0794 31.2638C17.6374 31.4208 18.1844 31.3238 18.7464 31.2688C19.3114 31.2118 19.8414 31.0338 20.3684 30.8328C20.8614 30.6458 21.2714 30.1698 21.6194 29.7908C21.6224 29.7878 21.6264 29.7838 21.6274 29.7808C22.0204 29.5198 22.3064 29.0508 22.5644 28.6328C22.5334 28.8018 22.5044 28.9708 22.4804 29.1438C22.4174 29.5808 22.4734 30.0858 22.3004 30.4998Z" fill="url(#paint6_linear_525_209)"/>
<path d="M21.6284 29.7779C21.6274 29.7809 21.6234 29.7839 21.6204 29.7879C21.2724 30.1669 20.8624 30.6429 20.3694 30.8299C19.8424 31.0309 19.3124 31.2089 18.7474 31.2659C18.5914 31.2799 18.4324 31.2989 18.2764 31.3149C17.9944 32.0189 17.8884 32.7759 18.0974 33.4079C18.2854 33.5059 18.4874 33.5689 18.7204 33.5559C19.2884 33.5259 19.6384 33.0619 20.0814 32.7669C20.9074 32.2149 21.9064 31.4389 22.2994 30.4969C22.4724 30.0839 22.4164 29.5789 22.4804 29.1399C22.5044 28.9669 22.5334 28.7979 22.5644 28.6289C22.3074 29.0479 22.0224 29.5169 21.6284 29.7779Z" fill="url(#paint7_linear_525_209)"/>
<path d="M9.84543 10.5615C9.69443 10.4195 9.37343 10.1785 9.29143 10.5125C9.26643 10.6175 9.30543 10.7235 9.33543 10.8255C9.34443 10.9065 9.36243 10.9865 9.40843 11.0455C9.47243 11.1345 9.60043 11.1475 9.70243 11.1305C9.97443 11.0795 10.0394 10.7405 9.84543 10.5615Z" fill="#7C4706"/>
<path d="M14.1354 8.96564C13.9444 8.87564 13.7564 8.83864 13.5514 8.89164C13.4784 8.91064 13.4334 8.95464 13.4054 9.00964C13.2184 9.13664 13.1194 9.44364 13.1244 9.67464C13.1324 9.87564 13.2314 10.0416 13.4164 10.1296C13.4814 10.1606 13.5624 10.1396 13.6224 10.1086C13.7414 10.0536 13.8804 10.0636 13.9894 9.98664C14.1494 9.87664 14.3544 9.67264 14.3894 9.47164C14.4224 9.28464 14.3124 9.04964 14.1354 8.96564Z" fill="#7C4706"/>
<path d="M15.8655 6.96586C15.8255 6.88086 15.7855 6.79186 15.7105 6.73086C15.6215 6.65586 15.5195 6.69786 15.4515 6.77286C15.4275 6.79886 15.4075 6.82986 15.3885 6.85986C15.3335 6.89086 15.2855 6.93086 15.2705 6.97686C15.2375 7.07986 15.2405 7.20586 15.3255 7.28186C15.3965 7.34486 15.5155 7.31386 15.6015 7.31886C15.6995 7.32586 15.8495 7.34186 15.9025 7.23186C15.9485 7.13786 15.9055 7.05086 15.8655 6.96586Z" fill="#7C4706"/>
<path d="M18.8044 5.97842C18.5674 5.92742 18.3784 6.08341 18.3724 6.32441C18.3714 6.35541 18.3744 6.38541 18.3794 6.41741C18.3824 6.58141 18.4364 6.75341 18.6054 6.81441C18.8434 6.90241 19.0884 6.70941 19.1074 6.46741C19.1264 6.24241 19.0494 6.02942 18.8044 5.97842Z" fill="#7C4706"/>
<path d="M19.4205 8.07359C19.3455 8.00059 19.2195 7.98959 19.1235 8.00759C19.0225 8.02559 18.9595 8.10159 18.8865 8.16159C18.7425 8.20559 18.6095 8.31359 18.5325 8.42359C18.4005 8.61459 18.5175 8.98059 18.7655 9.02259C18.8705 9.03959 19.0055 8.97559 19.1025 8.94659C19.2335 8.90959 19.3575 8.79159 19.4525 8.69959C19.6255 8.53059 19.5935 8.23559 19.4205 8.07359Z" fill="#7C4706"/>
<path d="M26.8545 7.03734C26.6685 6.75034 26.2025 6.49734 25.8655 6.48834C25.7335 6.48534 25.6015 6.59134 25.5185 6.72734C25.3915 6.80734 25.2975 6.94334 25.2455 7.12834C25.1885 7.31634 25.1265 7.63934 25.1595 7.83834C25.1925 8.02834 25.3285 8.10434 25.4625 8.22834C25.7525 8.48734 26.3345 8.31534 26.6085 8.12234C26.9545 7.87634 27.0855 7.39834 26.8545 7.03734Z" fill="#7C4706"/>
<path d="M28.3385 8.27101C28.2435 8.22901 28.1515 8.26801 28.0915 8.34801C28.0885 8.35301 28.0885 8.35601 28.0855 8.36001C28.0835 8.36001 28.0825 8.36001 28.0825 8.36001C28.0295 8.42401 28.0195 8.50601 28.0325 8.58601C28.0365 8.61701 28.0465 8.64601 28.0575 8.67301C28.0745 8.73901 28.1075 8.80901 28.1625 8.83801C28.2125 8.88501 28.2825 8.90101 28.3715 8.85001C28.4705 8.79401 28.5035 8.68801 28.5035 8.58101C28.5045 8.48301 28.4345 8.31501 28.3385 8.27101Z" fill="#7C4706"/>
<path d="M29.0144 11.2474C28.9514 11.1674 28.7674 11.0814 28.7054 11.1964C28.5924 11.2654 28.6444 11.4504 28.6694 11.5534C28.7064 11.7064 28.7954 11.9254 28.9464 11.9984C29.1014 12.0744 29.2154 11.9234 29.2104 11.7804C29.2024 11.5994 29.1284 11.3914 29.0144 11.2474Z" fill="#7C4706"/>
<path d="M31.8084 15.9103C31.7844 15.5963 31.6574 15.0453 31.2734 14.9683C30.5864 14.8313 30.4864 15.9813 30.5594 16.5133C30.5764 16.7203 30.6304 16.9233 30.7694 17.0703C30.9504 17.2613 31.2914 17.3193 31.4854 17.1023C31.7774 16.7703 31.8384 16.3383 31.8084 15.9103Z" fill="#7C4706"/>
<path d="M30.1154 20.1207C29.7434 19.9557 29.1664 20.4127 29.1154 20.7797C29.0564 21.2087 29.1094 21.7177 29.4864 21.9897C29.7614 22.1897 29.9274 22.0207 30.0274 21.7857C30.0294 21.7847 30.0314 21.7827 30.0334 21.7807C30.0764 21.7277 30.0724 21.6466 30.1134 21.5876C30.1864 21.4806 30.2804 21.3946 30.3454 21.2816C30.5244 20.9836 30.4674 20.2787 30.1154 20.1207Z" fill="#7C4706"/>
<path d="M32.3444 20.3803C32.2524 20.2583 32.0314 20.0923 31.8684 20.1063C31.6934 20.1223 31.6594 20.3443 31.6644 20.4773C31.6684 20.5453 31.7054 20.7063 31.7644 20.8733C31.7734 20.9963 31.7994 21.1213 31.8564 21.2203C31.9244 21.3343 32.0804 21.4973 32.2334 21.4233C32.4014 21.3413 32.4784 21.2303 32.4794 21.0343C32.4824 20.8303 32.4714 20.5513 32.3444 20.3803Z" fill="#7C4706"/>
<path d="M10.8274 27.8931C10.5284 28.3361 10.2664 28.7911 10.0864 29.3081C10.0604 29.3841 9.96744 29.4201 9.89444 29.3921C9.33044 29.1751 8.81644 29.2901 8.27544 29.5131C8.15944 29.5611 8.02644 29.4491 8.07644 29.3231C8.32344 28.7171 8.73444 28.2231 9.17744 27.7521C8.48044 27.9541 7.87544 28.3641 7.36244 28.8901C7.27144 28.9841 7.09644 28.8811 7.12144 28.7591C7.19844 28.3531 7.26844 27.9461 7.34144 27.5391C7.12444 28.1241 6.98144 28.7521 6.91944 29.3271C6.90944 29.4081 6.97744 29.4541 7.05144 29.4371C7.15344 29.4131 7.19744 29.3401 7.25844 29.2561C7.47144 28.9641 7.77044 28.8421 8.09344 28.7111C8.13444 28.6951 8.17544 28.6811 8.21644 28.6651C8.12244 28.8121 8.03244 28.9611 7.95544 29.1101C7.78044 29.4551 7.55644 29.8111 7.44744 30.1811C7.42044 30.2691 7.52844 30.3421 7.60544 30.3111C7.96244 30.1781 8.23744 30.0921 8.62744 30.1251C8.94544 30.1511 9.25744 30.2301 9.56444 30.3161C10.1894 30.4911 10.7274 30.7421 11.2804 31.0711C10.5984 30.4271 10.7504 28.9021 10.8274 27.8931Z" fill="#D2D2D2"/>
<path d="M38.7234 4.31753C38.6374 3.91153 38.5114 3.51853 38.3454 3.14453C38.9234 5.04353 38.5764 7.31953 37.4404 8.91353C36.1804 10.6785 33.9714 11.3905 31.8524 10.9925C30.8424 10.8025 29.8314 10.4455 28.8984 10.0035C30.4264 12.2565 31.2614 15.1515 31.0614 17.7115C31.9274 17.8775 32.6874 18.2615 32.8854 19.0125C32.9054 19.0845 32.8364 19.1765 32.7614 19.1815C32.4504 19.2005 32.1494 19.2075 31.8494 19.2185C33.1394 19.4915 34.3384 20.1585 34.9474 21.3015C34.9904 21.3825 34.9284 21.5015 34.8344 21.5085C32.4854 21.7095 30.1394 22.9985 28.5894 24.7585C28.5024 24.8565 28.2854 24.8145 28.3214 24.6555C28.3594 24.4875 28.4114 24.3315 28.4774 24.1845C26.7874 25.2605 25.2704 26.4765 24.4254 28.3935C24.3484 28.5705 24.0924 28.4675 24.1504 28.2865C24.5184 27.0975 24.8694 25.8045 24.7094 24.5465C24.5444 23.2725 23.9734 22.1935 23.2234 21.1675C23.1794 21.1075 23.1734 21.0045 23.2444 20.9585C23.9514 20.4965 24.7314 20.2155 25.4774 19.8315C26.2314 19.4425 26.7584 18.9395 27.1014 18.2315C25.5494 19.5005 22.7874 20.8985 21.2654 19.4455C21.9274 22.3245 23.2544 25.9685 20.9524 28.3675C20.0014 29.3575 18.5064 30.2055 17.0874 30.1155C15.7864 30.0325 15.3044 29.1605 14.5924 28.3405C14.5714 29.0925 14.5154 29.9305 14.1174 30.5165C13.7074 31.1235 12.6834 31.4355 11.9764 31.3745C11.7144 31.3525 11.5084 31.2645 11.3444 31.1325C11.3384 31.2785 11.3604 32.2265 12.7934 32.3985C14.7204 32.6275 14.3284 31.9165 14.7604 32.1205C16.5464 32.9665 16.8404 34.6915 18.5234 35.5945C20.1204 36.4515 22.2014 35.5795 23.5364 34.5945C24.1924 34.1095 24.7954 33.5285 25.2724 32.8685C25.7194 32.2485 25.8464 31.4835 26.2354 30.8655C28.1124 27.8765 31.1264 25.5875 33.7194 23.2455C34.4464 22.5925 35.3824 21.6585 36.4174 21.5855C36.9844 21.5455 35.9574 20.4345 35.8654 20.3175C35.6564 20.0535 35.4084 19.8685 35.1264 19.7135C35.1664 19.7075 35.2034 19.7005 35.2454 19.6955C35.7444 19.6295 36.2334 19.7575 36.7224 19.7165C36.7834 19.7125 36.8284 19.6465 36.8054 19.5895C36.5744 19.0215 35.5664 18.6565 35.0524 18.4505C34.6634 18.2945 34.2884 18.1635 33.8704 18.0995C33.7204 18.0765 33.5654 18.0715 33.4114 18.0715C33.4434 16.6405 33.1374 15.1445 32.7194 13.7965C32.4824 13.0325 32.1984 12.2265 31.7904 11.5345C31.7204 11.4175 31.6384 11.3035 31.5554 11.1925C31.9684 11.3275 32.3974 11.4145 32.8134 11.4555C33.3884 11.5125 33.8904 11.4505 34.4344 11.2615C35.0254 11.0555 35.6224 10.9015 36.1774 10.6035C36.6644 10.3445 37.0714 10.0285 37.4234 9.60653C38.7094 8.07853 39.1024 6.08953 38.7234 4.31753Z" fill="#D2D2D2"/>
<path d="M8.54544 12.0136C8.66844 11.5986 8.82744 11.1936 9.02744 10.8006C7.17344 11.9976 4.74144 12.5316 2.74744 11.7806C1.29744 11.2326 0.381438 9.77062 0.225438 8.25262C0.174438 7.74062 0.207438 7.24863 0.289438 6.76562C-0.161562 8.01663 -0.119562 9.38962 0.703438 10.5786C1.27344 11.3986 2.46244 12.3396 3.41844 12.6486C4.52944 13.0056 5.72244 12.9586 6.82944 12.6426C7.41944 12.4736 7.95244 12.2056 8.53444 12.0266C8.53844 12.0216 8.54144 12.0176 8.54544 12.0136Z" fill="#D2D2D2"/>
<path d="M16.1814 18.812C15.9584 18.865 15.7654 18.912 15.5534 18.81C15.0674 18.575 14.8674 17.673 14.7434 17.208C14.4384 16.062 14.1034 15.009 12.8634 14.58C12.2654 14.372 11.5904 14.341 11.0554 14.739C10.0074 15.524 9.63445 17.017 9.50545 18.256C9.38045 19.46 9.37545 20.844 9.93945 21.952C9.94545 21.964 9.94745 21.975 9.95045 21.989C10.0744 22.182 10.2234 22.354 10.4144 22.469C10.7264 22.657 11.2524 23.039 11.5774 22.584C11.6794 22.44 11.7684 22.291 11.8674 22.145C12.2994 21.503 12.8694 20.966 13.5254 20.556C14.8294 19.74 16.3084 19.273 17.6484 18.534C17.1544 18.531 16.6474 18.706 16.1814 18.812Z" fill="#D2D2D2"/>
<path d="M27.0294 15.7379C27.3844 17.8099 26.7294 19.6279 24.8504 19.9719C23.2944 20.2559 21.7414 18.7749 21.3864 16.7029C21.0314 14.6309 22.0064 12.7349 23.5664 12.4689C25.1234 12.2019 26.6754 13.6659 27.0294 15.7379Z" fill="url(#paint8_linear_525_209)"/>
<path d="M12.8554 21.4221C13.3904 20.8851 13.9324 20.3761 14.4974 19.8731C14.5934 19.3621 14.6334 18.8081 14.5944 18.2361C14.4484 16.0431 13.2844 14.3351 11.9974 14.4211C10.7134 14.5071 9.7884 16.3551 9.9354 18.5491C10.0714 20.5631 10.4244 22.0111 12.0724 22.3051C12.3004 21.9861 12.5764 21.7021 12.8554 21.4221Z" fill="url(#paint9_linear_525_209)"/>
<path d="M21.8454 10.7029C21.6124 10.4699 21.3794 10.0989 21.0164 10.1739C20.6534 10.2499 20.4684 10.3999 20.2344 10.6989C19.7904 11.2699 19.5834 11.9369 19.5234 12.6299C19.4574 12.9359 19.4444 13.2509 19.5124 13.5749C19.5314 13.6589 19.6214 13.6929 19.6864 13.6269C19.7914 13.5149 19.8424 13.3599 19.9304 13.2309C20.0484 13.0589 20.2434 12.9389 20.3774 12.7769C20.5584 12.5599 20.8514 12.4379 21.0804 12.2789C21.3324 12.1039 21.5884 11.9829 21.8804 11.8969C22.6134 11.6849 22.2154 11.0719 21.8454 10.7029Z" fill="#D28000"/>
<path d="M14.4364 14.3195C14.3514 14.0385 14.3054 13.7475 14.2214 13.4645C14.1264 13.1435 13.9514 12.8575 13.8204 12.5485C13.5864 12.0035 13.2944 11.5025 12.8254 11.1355C12.7984 11.1145 12.7714 11.1325 12.7604 11.1575C12.5524 11.0495 12.2324 11.1505 12.0624 11.3395C11.9524 11.4635 11.8864 11.5995 11.8564 11.7365C11.7054 12.0525 11.6024 12.3795 11.7194 12.7365C11.8314 13.0755 12.4924 13.1515 12.7604 13.2785C13.0364 13.4095 13.2844 13.6085 13.5574 13.7525C13.8834 13.9265 14.0284 14.1955 14.2934 14.4215C14.3644 14.4825 14.4594 14.4015 14.4364 14.3195Z" fill="#D28000"/>
<path d="M26.6444 15.669C27.1324 17.256 26.7574 18.959 25.8104 19.476C24.8644 19.993 23.7044 19.123 23.2184 17.537C22.7324 15.952 23.1064 14.248 24.0524 13.731C24.9994 13.215 26.1594 14.083 26.6444 15.669Z" fill="url(#paint10_linear_525_209)"/>
<path d="M26.1204 16.0196C26.4444 17.0736 26.1934 18.2056 25.5674 18.5446C24.9364 18.8886 24.1684 18.3136 23.8444 17.2596C23.5214 16.2046 23.7704 15.0726 24.3974 14.7306C25.0274 14.3906 25.7964 14.9656 26.1204 16.0196Z" fill="url(#paint11_radial_525_209)"/>
<path d="M25.9564 14.8718C26.2474 15.4488 26.2364 16.1588 25.9284 16.4518C25.6214 16.7498 25.1354 16.5218 24.8434 15.9458C24.5474 15.3688 24.5614 14.6608 24.8684 14.3658C25.1754 14.0668 25.6624 14.2958 25.9564 14.8718Z" fill="url(#paint12_linear_525_209)"/>
<path d="M12.4754 22.0042C12.6844 21.7422 12.9014 21.4852 13.1274 21.2372C13.5764 20.7432 14.0064 20.1832 14.5844 19.8452C14.6184 19.3062 14.5554 18.7232 14.3814 18.1542C13.8964 16.5682 12.7344 15.6992 11.7874 16.2152C10.8424 16.7322 10.4674 18.4382 10.9534 20.0222C11.2644 21.0322 11.8484 21.7492 12.4754 22.0042Z" fill="url(#paint13_linear_525_209)"/>
<path d="M13.3034 21.0324C13.3104 21.0284 13.3154 21.0254 13.3214 21.0214C13.4654 20.8584 13.6074 20.6934 13.7554 20.5354C14.0254 20.0194 14.0844 19.2464 13.8574 18.5084C13.5324 17.4524 12.7644 16.8784 12.1334 17.2194C11.5064 17.5624 11.2574 18.6944 11.5814 19.7474C11.9024 20.7994 12.6744 21.3754 13.3034 21.0324Z" fill="url(#paint14_radial_525_209)"/>
<path d="M13.6934 17.3601C13.9854 17.9361 13.9744 18.6471 13.6644 18.9411C13.3594 19.2371 12.8714 19.0111 12.5794 18.4351C12.2864 17.8581 12.2994 17.1491 12.6054 16.8541C12.9124 16.5551 13.3994 16.7841 13.6934 17.3601Z" fill="url(#paint15_linear_525_209)"/>
<path d="M11.9264 22.8892C12.3594 22.2442 12.7934 21.5642 13.3444 21.0092C13.6854 20.6642 14.0734 20.3882 14.4554 20.1042C14.4584 20.1022 14.4614 20.0992 14.4644 20.0972C14.6544 19.9562 14.8394 19.8092 15.0174 19.6552C15.1254 19.4752 15.2194 19.2902 15.2844 19.0922C15.2674 18.6512 14.9884 17.7312 14.9424 17.5662C14.6484 16.5262 14.0734 15.2582 13.1024 14.6852C13.0304 14.6352 12.9564 14.5862 12.8774 14.5412C11.0234 13.5132 9.79737 15.8602 9.98437 17.4162C10.1894 16.4812 10.4114 15.0402 11.4334 14.6352C12.1534 14.3502 12.8724 14.7402 13.3554 15.2672C13.9454 15.9062 14.1334 16.7712 14.2454 17.6062C14.3054 18.0472 14.7284 19.5992 14.3104 19.9032C13.7464 20.3142 13.0874 21.1362 12.3784 21.5362C11.9784 21.8252 11.5254 22.0122 11.0244 21.9882C10.7484 21.9742 10.4384 21.9252 10.1294 21.8472C10.3074 21.9872 10.5014 22.1162 10.7264 22.2392C11.0294 22.4042 11.4704 22.6092 11.8514 22.5602C11.7124 22.7562 11.5774 22.9562 11.4474 23.1552C11.0804 23.7152 10.7894 24.4172 10.6104 25.0592C10.5234 25.3692 10.4734 25.6662 10.4644 25.9872C10.4604 26.1562 10.4914 26.3142 10.5304 26.4722C10.5574 26.4532 10.5834 26.4372 10.6074 26.4192C10.5784 25.1672 11.2574 23.8832 11.9264 22.8892Z" fill="#563600"/>
<path d="M26.5163 13.7791C26.1703 12.8621 25.0323 12.1301 24.3553 11.9851C23.8423 11.8761 23.3883 11.9191 22.8953 12.0991C20.9293 12.8141 20.3063 15.6301 20.4693 17.4531C20.5413 18.2311 20.7033 19.1821 21.2173 19.8021C22.0793 20.8441 22.7213 22.0491 23.1733 23.3211C23.6473 24.6551 23.2633 26.2221 22.6863 27.4501C22.6263 27.5761 22.5653 27.7071 22.4993 27.8391C22.4783 27.9991 22.4553 28.1581 22.4253 28.3171C23.1903 27.6801 23.6713 26.8091 23.9753 25.8691C24.2673 24.6181 24.0053 23.1131 23.3673 22.0551C23.1833 21.7551 22.9853 21.4671 22.8113 21.1591C22.7123 20.9881 22.6173 20.8171 22.5193 20.6451C22.1523 19.9951 22.9133 20.1321 23.1163 20.1541C23.9543 20.2451 24.8453 20.2541 25.6493 19.9701C25.6883 19.9561 25.7233 19.9401 25.7603 19.9261C25.0653 20.0381 24.3653 20.0051 23.7913 19.7611C23.6963 19.7361 23.6023 19.7111 23.5103 19.6791C21.0763 18.8821 20.8983 14.4481 22.8713 13.1331C23.6563 12.6071 24.4393 12.5481 25.2823 12.9261C25.8013 13.1591 26.2733 13.9021 26.4703 13.9711C26.6273 14.0291 26.5603 13.8991 26.5163 13.7791Z" fill="#563600"/>
<path d="M10.9144 26.0206C10.9144 26.0206 9.77136 26.5516 10.1584 27.4176C10.5454 28.2836 11.7704 29.2166 13.8254 28.8926C15.8784 28.5686 17.8534 26.7776 17.2584 25.7186C16.2464 23.9236 10.9144 26.0206 10.9144 26.0206Z" fill="#2E1C00"/>
<path d="M11.9814 23.5469C12.3624 23.0429 12.7434 22.5369 13.1624 22.0639C13.3914 21.7719 13.6414 21.4919 13.9164 21.2309C14.0124 21.1389 14.1124 21.0529 14.2144 20.9689C14.5064 20.6909 14.8114 20.4289 15.1524 20.2119C15.5704 19.9429 16.5024 19.5599 16.8754 19.0859C14.3674 20.0829 12.5304 21.7879 11.4514 24.2469C11.6194 24.0109 11.8044 23.7819 11.9814 23.5469Z" fill="#E74315"/>
<path d="M10.4364 26.957C10.2094 27.762 11.0004 28.241 11.6734 28.436C11.7084 28.448 11.7534 28.408 11.7804 28.36C11.1614 28.15 10.6264 27.581 10.4364 26.957Z" fill="#FFF9C7"/>
<path d="M6.04933 3.36953C3.65333 2.84053 1.23633 4.66553 0.498335 6.86353C0.461335 6.97853 0.569335 6.94653 0.605335 6.87053C1.12133 5.78053 1.86133 4.92953 2.91633 4.33953C3.85633 3.81553 4.90533 3.74153 5.95033 3.62353C6.03833 3.61353 6.18033 3.39853 6.04933 3.36953Z" fill="#FABB69"/>
<defs>
<linearGradient id="paint0_linear_525_209" x1="104.418" y1="70.66" x2="94.2164" y2="39.784" gradientUnits="userSpaceOnUse">
<stop stop-color="white"/>
<stop offset="0.1129" stop-color="#FCF7EA"/>
<stop offset="0.3472" stop-color="#F6E1B2"/>
<stop offset="0.6792" stop-color="#ECBF5B"/>
<stop offset="1" stop-color="#E19C00"/>
</linearGradient>
<linearGradient id="paint1_linear_525_209" x1="24.1808" y1="35.5015" x2="89.187" y2="35.5015" gradientUnits="userSpaceOnUse">
<stop stop-color="white"/>
<stop offset="0.8358" stop-color="#EAEAEA"/>
<stop offset="1" stop-color="#E5E5E5"/>
</linearGradient>
<linearGradient id="paint2_linear_525_209" x1="24.1804" y1="29.3052" x2="40.6704" y2="29.3052" gradientUnits="userSpaceOnUse">
<stop stop-color="white"/>
<stop offset="0.8358" stop-color="#EAEAEA"/>
<stop offset="1" stop-color="#E5E5E5"/>
</linearGradient>
<linearGradient id="paint3_linear_525_209" x1="10.7499" y1="29.7913" x2="35.4434" y2="25.8836" gradientUnits="userSpaceOnUse">
<stop stop-color="white"/>
<stop offset="0.8358" stop-color="#EAEAEA"/>
<stop offset="1" stop-color="#E5E5E5"/>
</linearGradient>
<radialGradient id="paint4_radial_525_209" cx="0" cy="0" r="1" gradientUnits="userSpaceOnUse" gradientTransform="translate(2.50703 1.38916) rotate(-8.99228) scale(13.7589 13.7589)">
<stop offset="0.1732" stop-color="#F5AF5A"/>
<stop offset="0.8261" stop-color="#5E3D1C"/>
</radialGradient>
<radialGradient id="paint5_radial_525_209" cx="0" cy="0" r="1" gradientUnits="userSpaceOnUse" gradientTransform="translate(43.2899 3.05544) rotate(-8.99229) scale(17.9932 17.9932)">
<stop offset="0.1732" stop-color="#F5AF5A"/>
<stop offset="0.8261" stop-color="#5E3D1C"/>
</radialGradient>
<linearGradient id="paint6_linear_525_209" x1="14.93" y1="31.0843" x2="22.5601" y2="31.0995" gradientUnits="userSpaceOnUse">
<stop stop-color="#E75667"/>
<stop offset="1" stop-color="#420D00"/>
</linearGradient>
<linearGradient id="paint7_linear_525_209" x1="14.9299" y1="31.0824" x2="22.56" y2="31.0976" gradientUnits="userSpaceOnUse">
<stop offset="0.1146" stop-color="#E75667"/>
<stop offset="1" stop-color="#CA1A18"/>
</linearGradient>
<linearGradient id="paint8_linear_525_209" x1="21.3138" y1="16.2163" x2="27.1237" y2="16.2279" gradientUnits="userSpaceOnUse">
<stop stop-color="white"/>
<stop offset="0.8358" stop-color="#EAEAEA"/>
<stop offset="1" stop-color="#E5E5E5"/>
</linearGradient>
<linearGradient id="paint9_linear_525_209" x1="9.92013" y1="18.3564" x2="14.6097" y2="18.3658" gradientUnits="userSpaceOnUse">
<stop stop-color="white"/>
<stop offset="0.8358" stop-color="#EAEAEA"/>
<stop offset="1" stop-color="#E5E5E5"/>
</linearGradient>
<linearGradient id="paint10_linear_525_209" x1="23.2037" y1="17.4897" x2="26.868" y2="16.4622" gradientUnits="userSpaceOnUse">
<stop stop-color="#8C481C"/>
<stop offset="0.2863" stop-color="#603216"/>
<stop offset="0.7725" stop-color="#1B0E0E"/>
<stop offset="1" stop-color="#00000A"/>
</linearGradient>
<radialGradient id="paint11_radial_525_209" cx="0" cy="0" r="1" gradientUnits="userSpaceOnUse" gradientTransform="translate(25.3964 14.6731) rotate(-36.8167) scale(5.54394 4.59995)">
<stop offset="0.2679" stop-color="#215673"/>
<stop offset="0.4726" stop-color="#1F526F"/>
<stop offset="0.6939" stop-color="#194862"/>
<stop offset="0.9223" stop-color="#0F364C"/>
<stop offset="1" stop-color="#0B2E43"/>
</radialGradient>
<linearGradient id="paint12_linear_525_209" x1="26.6251" y1="14.4255" x2="24.4522" y2="16.1662" gradientUnits="userSpaceOnUse">
<stop stop-color="white"/>
<stop offset="0.8358" stop-color="#EAEAEA"/>
<stop offset="1" stop-color="#E5E5E5"/>
</linearGradient>
<linearGradient id="paint13_linear_525_209" x1="10.877" y1="19.7535" x2="14.5428" y2="18.7256" gradientUnits="userSpaceOnUse">
<stop stop-color="#8C481C"/>
<stop offset="0.2863" stop-color="#603216"/>
<stop offset="0.7725" stop-color="#1B0E0E"/>
<stop offset="1" stop-color="#00000A"/>
</linearGradient>
<radialGradient id="paint14_radial_525_209" cx="0" cy="0" r="1" gradientUnits="userSpaceOnUse" gradientTransform="translate(13.1323 17.1604) rotate(-36.8167) scale(5.54394 4.59995)">
<stop offset="0.2679" stop-color="#215673"/>
<stop offset="0.4726" stop-color="#1F526F"/>
<stop offset="0.6939" stop-color="#194862"/>
<stop offset="0.9223" stop-color="#0F364C"/>
<stop offset="1" stop-color="#0B2E43"/>
</radialGradient>
<linearGradient id="paint15_linear_525_209" x1="14.3624" y1="16.9136" x2="12.1875" y2="18.6558" gradientUnits="userSpaceOnUse">
<stop stop-color="white"/>
<stop offset="0.8358" stop-color="#EAEAEA"/>
<stop offset="1" stop-color="#E5E5E5"/>
</linearGradient>
</defs>
</svg>
