<svg width="189" height="139" viewBox="0 0 189 139" fill="none" xmlns="http://www.w3.org/2000/svg">
<path d="M133.928 120.817C132.443 121.109 132.276 125.434 132.271 127.123C132.334 127.12 132.393 127.121 132.456 127.116C134.13 126.93 135.853 126.686 137.476 126.359C136.851 123.941 135.546 120.5 133.928 120.817Z" fill="url(#paint0_radial_525_680)"/>
<path d="M129.633 119.934C127.897 119.985 127.3 124.263 127.112 126.417C128.288 126.923 129.771 127.188 131.636 127.149C131.654 125.199 131.533 119.883 129.633 119.934Z" fill="url(#paint1_radial_525_680)"/>
<path d="M143.683 118.313C146.321 116.432 145.618 108.168 142.172 91.8203C142.172 91.8203 132.724 95.2503 124.286 94.5033C124.286 94.5033 124.391 103.363 123.557 110.948C122.761 117.244 121.916 124.181 127.111 126.415C127.299 124.261 127.896 119.982 129.632 119.932C131.532 119.881 131.653 125.197 131.635 127.148C131.84 127.143 132.053 127.134 132.27 127.122C132.275 125.433 132.442 121.108 133.927 120.816C135.545 120.5 136.85 123.94 137.474 126.358C143.45 125.157 148.047 122.858 143.683 118.313Z" fill="url(#paint2_radial_525_680)"/>
<path opacity="0.5" d="M137.662 121.994C136.507 120.273 135.57 118.407 134.363 116.718C132.777 114.491 130.932 112.398 129.888 109.833C128.925 107.46 128.741 104.983 128.685 102.444C128.649 100.844 128.774 98.8783 130.531 98.2633C132.826 97.4603 135.324 97.4383 137.652 96.6893C139.408 96.1223 141.087 95.3783 142.741 94.5773C142.558 93.6843 142.37 92.7663 142.172 91.8203C142.172 91.8203 132.724 95.2503 124.286 94.5033C124.286 94.5033 124.391 103.363 123.557 110.948C122.761 117.244 121.916 124.181 127.111 126.415C127.299 124.261 127.896 119.982 129.632 119.932C131.532 119.881 131.653 125.197 131.635 127.148C131.84 127.143 132.053 127.134 132.27 127.122C132.275 125.433 132.442 121.108 133.927 120.816C135.545 120.5 136.85 123.94 137.474 126.358C138.906 126.072 140.256 125.719 141.424 125.291C139.807 124.658 138.619 123.417 137.662 121.994Z" fill="url(#paint3_radial_525_680)"/>
<g opacity="0.5">
<path d="M133.63 99.8708C131.883 100.372 129.139 100.853 127.472 99.9738C127.436 99.9538 127.391 100.071 127.42 100.094C129.024 101.278 131.782 100.96 133.541 100.343C133.695 100.289 133.805 99.8218 133.63 99.8708Z" fill="url(#paint4_radial_525_680)"/>
<path d="M133.174 103.094C132 103.55 130.858 103.69 129.612 103.452C129.557 103.44 129.512 103.584 129.564 103.6C130.808 103.971 131.961 103.945 133.162 103.428C133.27 103.384 133.337 103.03 133.174 103.094Z" fill="url(#paint5_radial_525_680)"/>
</g>
<path d="M185.988 67.1372C185.988 67.1372 185.695 68.8852 183.053 69.8272C179.907 71.1562 177.146 74.4422 178.723 75.3332C178.049 77.9762 179.119 80.1892 180.224 80.6542C179.541 79.4202 179.924 78.5252 179.924 78.5252C179.924 78.5252 180.358 82.1892 182.915 83.1622C182.569 80.5192 184.142 79.0692 185.374 78.0852C186.607 77.1032 187.37 75.8232 186.898 73.8222C187.881 75.3962 187.417 76.7612 187.417 76.7612C187.417 76.7612 190.816 73.8122 186.711 67.5172C186.073 66.5412 185.988 67.1372 185.988 67.1372Z" fill="url(#paint6_radial_525_680)"/>
<path d="M8.37708 62.0725L9.16208 61.1055C9.16208 61.1055 8.69408 61.4635 8.37708 62.0725Z" fill="#90A2B0"/>
<path d="M39.5371 22.7075C39.3531 21.8995 39.1121 21.8825 39.1121 21.8825C39.1121 21.8825 36.4791 23.6535 34.1081 22.7295C29.8571 21.0695 26.3621 19.7125 21.3621 22.9115C16.3631 26.1095 14.0281 34.2335 10.3981 39.6285C6.77013 45.0235 6.08714 45.0255 3.05914 47.0045C1.81814 47.8155 0.979141 48.5255 0.494141 49.3335C3.72414 48.9795 10.6501 47.4085 14.2531 39.8955C19.0001 30.0025 18.8231 27.2775 23.0821 26.9255C27.3421 26.5745 37.4481 31.8355 40.9261 43.0735C44.0551 53.1855 42.5211 63.9835 36.1131 72.5345C39.4451 71.1825 42.6671 68.8475 43.8751 64.1515C45.6461 57.2455 39.5371 22.7075 39.5371 22.7075Z" fill="url(#paint7_radial_525_680)"/>
<path d="M40.7791 42.0631C37.3001 30.8261 27.3421 26.5761 23.0831 26.9261C18.8241 27.2781 19.0011 30.0031 14.2541 39.8961C10.6511 47.4081 3.72611 48.9791 0.49511 49.3341C-0.20289 50.5011 -0.149879 51.8751 0.572121 54.0681C1.79612 57.7831 4.53211 60.4321 4.53211 60.4321L6.57812 58.9861C6.65312 59.2881 5.29112 60.8091 5.52012 61.2641C5.75012 61.7181 7.49711 63.1571 7.49711 63.1571L8.37812 62.0711C8.69412 61.4631 9.16311 61.1041 9.16311 61.1041L8.37812 62.0711C7.92412 62.9511 7.79611 64.3511 9.85711 65.9581C13.3541 68.6811 17.0001 70.7971 19.1221 68.8961C18.8971 70.2621 18.8971 70.2621 18.8971 70.2621C18.8971 70.2621 24.3911 74.8911 31.5461 73.9371C32.9591 73.5941 34.5501 73.1721 36.1131 72.5371C42.5211 63.9851 43.9081 52.1751 40.7791 42.0631Z" fill="url(#paint8_radial_525_680)"/>
<path opacity="0.5" d="M40.7791 42.0631C37.3001 30.8261 27.3421 26.5761 23.0831 26.9261C18.8241 27.2781 19.0011 30.0031 14.2541 39.8961C14.1851 40.0421 14.1121 40.1791 14.0411 40.3181C14.1561 40.1911 14.2731 40.0621 14.3901 39.9321C15.6601 38.5071 16.8901 37.0381 18.2291 35.6771C19.3751 34.5131 20.6041 33.2041 22.1331 32.5561C25.0951 31.2991 27.7341 32.7881 28.8291 35.7021C30.0181 38.8731 28.5261 42.3201 28.5971 45.5781C28.6561 48.2741 29.6891 50.5911 31.2061 52.7811C32.8211 55.1061 34.8781 57.4041 34.9011 60.4051C34.9401 64.9631 32.0481 69.7571 28.1791 72.0981C27.2631 72.6541 26.3001 73.1011 25.3081 73.4671C27.1331 73.9711 29.2531 74.2411 31.5451 73.9351C32.9581 73.5921 34.5491 73.1701 36.1121 72.5351C42.5211 63.9851 43.9081 52.1751 40.7791 42.0631Z" fill="url(#paint9_radial_525_680)"/>
<path d="M41.0212 61.6673C41.0212 61.6673 40.2162 61.8842 40.1102 63.2312C40.0052 64.5772 39.0912 65.0643 38.2852 65.4973C37.4792 65.9283 37.0492 65.8763 37.6422 67.1123C38.8792 66.6783 41.8972 67.3733 42.7682 71.6223C44.3222 68.7133 43.1742 60.7473 41.0212 61.6673Z" fill="url(#paint10_radial_525_680)"/>
<path d="M37.8582 67.1148C37.8582 67.1148 35.2302 71.4278 31.1452 74.1298C27.7042 76.1308 26.6842 76.9928 32.1752 77.2508C37.6662 77.5068 41.8052 74.1578 42.7682 71.6248C42.0072 67.6978 39.2022 66.8968 37.8582 67.1148Z" fill="url(#paint11_radial_525_680)"/>
<path d="M161.707 122.161C159.689 122.501 159.049 126.533 158.867 128.195C160.715 128.503 162.852 128.696 165.072 128.59C165.283 124.826 164.1 121.757 161.707 122.161Z" fill="url(#paint12_radial_525_680)"/>
<path d="M155.866 120.901C154.401 120.782 153.011 124.585 152.488 126.2C152.683 126.373 152.908 126.521 153.158 126.642C153.796 126.942 155.476 127.531 157.731 127.988C158.568 124.428 157.574 121.045 155.866 120.901Z" fill="url(#paint13_radial_525_680)"/>
<path d="M167.281 122.253C165.949 122.701 166.038 126.651 166.157 128.512C167.797 128.361 169.462 128.035 171.074 127.46C170.65 124.859 168.837 121.732 167.281 122.253Z" fill="url(#paint14_radial_525_680)"/>
<path d="M186.883 67.0229C186.601 65.2239 186.478 57.5519 178.963 50.3299C171.449 43.1049 163.679 36.0519 158.895 30.2689C154.11 24.4889 147.016 15.4729 133.567 20.7869C120.633 26.9519 77.9912 43.7519 77.9912 43.7519C77.9912 43.7519 62.5092 54.6929 68.4622 85.6909C68.4622 85.6909 70.8642 103.872 62.9622 120.532C59.8212 125.204 59.9472 125.455 62.9792 127.718C62.0692 128.424 61.0802 129.429 60.2532 130.51C60.8242 130.172 61.4712 129.918 62.1052 129.961C63.8462 130.077 64.9922 134.051 64.6382 136.412C64.6382 136.412 65.7682 131.453 68.1082 130.727C70.4432 130 71.5862 133.868 70.8162 136.523C70.8162 136.523 72.3642 131.016 74.4042 130.712C76.4422 130.405 76.7392 135.752 76.7392 135.752C82.4132 135.612 89.0892 133.707 82.6472 128.301C85.1642 125.899 86.6422 111.524 86.3722 104.338C86.1012 97.1529 85.8322 88.3289 85.8322 88.3289C85.8322 88.3289 94.7972 94.4859 99.7142 94.4749C100.989 101.405 101.009 109.096 99.1342 116.286C97.8892 121.962 96.8022 126.262 101.984 128.614C100.389 130.75 98.8912 133.501 99.4782 135.428C100.241 133.58 102.069 129.808 104.241 129.987C106.927 130.208 107.745 132.987 107.41 137.207C108.073 135.017 109.489 131.321 111.544 131.283C114.089 131.235 114.461 135.478 114.552 137.665C114.566 137.669 114.579 137.674 114.594 137.679C114.999 135.579 115.909 132.084 117.532 131.707C119.379 131.28 120.838 133.992 121.514 136.35C121.521 136.269 121.514 136.189 121.492 136.11C126.983 135.266 130.432 134.106 129.086 132.32C127.74 130.535 126.65 129.387 128.119 128.745C129.587 128.102 131.641 126.521 128.892 116.798C126.144 107.072 122.264 102.604 121.223 95.3639C130.597 95.9389 143.774 96.5329 152.604 83.8739C152.604 83.8739 153.919 86.7689 153.51 93.8409C153.101 100.913 152.523 108.411 151.598 113.27C150.755 117.788 150.669 117.874 153.74 119.314C151.223 122.588 151.164 125.015 152.49 126.202C153.013 124.587 154.403 120.784 155.868 120.903C157.577 121.048 158.57 124.43 157.733 127.99C158.098 128.064 158.476 128.135 158.87 128.199C159.052 126.537 159.692 122.505 161.71 122.165C164.102 121.761 165.286 124.829 165.075 128.594C165.432 128.575 165.796 128.548 166.16 128.516C166.041 126.656 165.952 122.706 167.284 122.257C168.84 121.736 170.652 124.862 171.077 127.464C172.461 126.973 173.802 126.3 175.054 125.399C178.199 122.58 178.281 120.706 177.336 117.642C178.95 115.676 179.032 114.91 177.747 111.42C176.461 107.93 172.261 94.2949 171.86 89.6679C171.464 85.1089 174.181 79.6489 174.326 69.4269C174.47 59.2019 168.148 51.2089 163.697 41.8479C174.452 51.1939 184.007 55.9429 185.569 67.8659C185.641 69.3099 187.162 68.8229 186.883 67.0229Z" fill="url(#paint15_radial_525_680)"/>
<path d="M186.883 67.0229C186.601 65.2239 186.478 57.5519 178.963 50.3299C171.449 43.1049 163.679 36.0519 158.895 30.2689C154.11 24.4889 147.016 15.4729 133.567 20.7869C120.633 26.9519 77.9912 43.7519 77.9912 43.7519C77.9912 43.7519 62.5092 54.6929 68.4622 85.6909C68.4622 85.6909 70.8642 103.872 62.9622 120.532C59.8212 125.204 59.9472 125.455 62.9792 127.718C62.0692 128.424 61.0802 129.429 60.2532 130.51C60.8242 130.172 61.4712 129.918 62.1052 129.961C63.8462 130.077 64.9922 134.051 64.6382 136.412C64.6382 136.412 65.7682 131.453 68.1082 130.727C70.4432 130 71.5862 133.868 70.8162 136.523C70.8162 136.523 72.3642 131.016 74.4042 130.712C76.4422 130.405 76.7392 135.752 76.7392 135.752C82.4132 135.612 89.0892 133.707 82.6472 128.301C85.1642 125.899 86.6422 111.524 86.3722 104.338C86.1012 97.1529 85.8322 88.3289 85.8322 88.3289C85.8322 88.3289 94.7972 94.4859 99.7142 94.4749C100.989 101.405 101.009 109.096 99.1342 116.286C97.8892 121.962 96.8022 126.262 101.984 128.614C100.389 130.75 98.8912 133.501 99.4782 135.428C100.241 133.58 102.069 129.808 104.241 129.987C106.927 130.208 107.745 132.987 107.41 137.207C108.073 135.017 109.489 131.321 111.544 131.283C114.089 131.235 114.461 135.478 114.552 137.665C114.566 137.669 114.579 137.674 114.594 137.679C114.999 135.579 115.909 132.084 117.532 131.707C119.379 131.28 120.838 133.992 121.514 136.35C121.521 136.269 121.514 136.189 121.492 136.11C126.983 135.266 130.432 134.106 129.086 132.32C127.74 130.535 126.65 129.387 128.119 128.745C129.587 128.102 131.641 126.521 128.892 116.798C126.144 107.072 122.264 102.604 121.223 95.3639C130.597 95.9389 143.774 96.5329 152.604 83.8739C152.604 83.8739 153.919 86.7689 153.51 93.8409C153.101 100.913 152.523 108.411 151.598 113.27C150.755 117.788 150.669 117.874 153.74 119.314C151.223 122.588 151.164 125.015 152.49 126.202C153.013 124.587 154.403 120.784 155.868 120.903C157.577 121.048 158.57 124.43 157.733 127.99C158.098 128.064 158.476 128.135 158.87 128.199C159.052 126.537 159.692 122.505 161.71 122.165C164.102 121.761 165.286 124.829 165.075 128.594C165.432 128.575 165.796 128.548 166.16 128.516C166.041 126.656 165.952 122.706 167.284 122.257C168.84 121.736 170.652 124.862 171.077 127.464C172.461 126.973 173.802 126.3 175.054 125.399C178.199 122.58 178.281 120.706 177.336 117.642C178.95 115.676 179.032 114.91 177.747 111.42C176.461 107.93 172.261 94.2949 171.86 89.6679C171.464 85.1089 174.181 79.6489 174.326 69.4269C174.47 59.2019 168.148 51.2089 163.697 41.8479C174.452 51.1939 184.007 55.9429 185.569 67.8659C185.641 69.3099 187.162 68.8229 186.883 67.0229Z" fill="url(#paint16_radial_525_680)"/>
<g opacity="0.5">
<path d="M74.3862 73.2272C77.7962 70.6562 77.7872 66.5982 78.8542 66.1702C83.7622 64.0222 82.2502 58.0452 86.3042 56.1132C90.3582 54.1822 91.8662 58.8772 96.1462 63.5652C100.429 68.2522 105.759 64.3972 113.434 58.1862C120.254 53.0442 123.018 47.6982 122.37 43.8552C126 43.6332 131.959 34.2212 135.142 25.8842C136.47 22.4102 138.505 20.3842 140.427 19.1992C138.342 19.3092 136.066 19.8002 133.568 20.7872C120.634 26.9522 77.9922 43.7522 77.9922 43.7522C77.9922 43.7522 62.5102 54.6932 68.4632 85.6912C68.4632 85.6912 69.4132 92.9002 68.1452 102.396C71.0642 98.8762 71.6062 94.0522 72.2852 87.1152C73.1172 78.5692 72.6822 74.9402 74.3862 73.2272Z" fill="url(#paint17_radial_525_680)"/>
</g>
<path d="M29.3672 91.1656C29.7292 90.5296 29.9332 89.9216 30.0122 89.3516C29.5922 88.5296 28.8322 88.2016 28.1692 88.3146C27.0772 88.4996 24.5282 87.8686 22.1662 88.1456C19.8012 88.4246 17.1702 91.5226 17.1702 91.5226C16.5772 92.3666 16.7112 92.8496 17.1652 93.2286C17.9262 93.5356 19.1282 93.7566 21.0162 93.7516C26.5152 93.7386 28.4912 92.7086 29.3672 91.1656Z" fill="url(#paint18_radial_525_680)"/>
<path d="M134.757 18.1868C134.619 14.7358 132.701 13.8458 128.866 13.9828C125.033 14.1188 121.324 12.7228 114.666 8.39382C108.012 4.06482 100.508 -0.757175 93.6862 0.0998246C86.8632 0.955825 82.4652 8.72482 78.1292 12.4418C73.7942 16.1578 65.8572 10.8098 59.9782 10.9518C54.1002 11.0928 44.4042 17.8908 39.4282 21.6068C34.4532 25.3248 35.2372 32.0968 34.8692 39.1258C34.5032 46.1568 36.4252 47.5568 42.6942 52.2708C39.5282 64.2918 40.8242 72.4678 44.1612 77.4438C47.4952 82.4198 50.2622 85.9888 50.0922 91.9908C49.9262 97.9938 42.8442 103.194 35.8362 101.118C28.8282 99.0438 29.9082 94.0398 30.2662 91.5818C30.4082 90.6178 30.2802 89.8828 30.0122 89.3518C29.9342 89.9218 29.7302 90.5298 29.3672 91.1658C28.4912 92.7088 26.5152 93.7388 21.0152 93.7518C19.1272 93.7568 17.9252 93.5358 17.1642 93.2288C17.9292 93.8708 19.6062 94.2228 20.3042 95.5178C20.9812 96.7778 21.7322 104.718 32.2232 109.676C42.7142 114.636 56.1272 112.431 64.0322 103.723C71.9322 95.0128 70.2382 80.8318 70.6042 73.9308C70.9712 67.0288 75.8242 64.7168 77.0992 64.4578C78.3782 64.1998 79.3992 64.3238 79.3952 61.7688C79.3902 60.0318 79.1312 58.4468 81.5532 56.1418C84.3582 53.3238 88.5662 49.8618 88.5662 49.8618C88.5662 49.8618 94.3462 61.3508 98.0562 62.6198C101.765 63.8888 107.378 60.6808 108.142 59.2718C108.631 58.3698 107.966 57.2128 107.424 56.4938C107.082 56.1258 106.857 55.8258 106.857 55.8258C106.857 55.8258 107.123 56.0908 107.424 56.4938C107.975 57.0888 108.835 57.8668 109.544 57.8658C110.693 57.8628 113.245 56.0678 116.307 52.7378C119.366 49.4078 120.762 45.5698 120.374 44.5498C119.989 43.5268 117.428 41.6168 117.428 41.6168C117.428 41.6168 121.013 44.2918 123.562 41.3468C126.112 38.3998 129.041 33.9208 128.908 32.3888C128.778 30.8538 125.067 29.0748 125.067 29.0748C125.067 29.0748 128.136 30.3458 129.8 30.4688C131.461 30.5928 132.986 26.3728 132.854 24.9668C132.723 23.5608 130.037 22.6728 130.037 22.6728L133.999 23.1748C133.999 23.1718 134.891 21.6368 134.757 18.1868Z" fill="url(#paint19_radial_525_680)"/>
<path d="M107.238 56.6675C106.888 56.2935 106.662 55.9925 106.654 55.9805L107.038 55.6445C107.05 55.6565 107.319 55.9275 107.629 56.3385L107.238 56.6675Z" fill="url(#paint20_radial_525_680)"/>
<path opacity="0.5" d="M69.0121 44.2693C69.0121 44.2693 72.1661 40.5983 76.8831 41.1443C76.3831 40.2013 74.0531 40.6503 74.0531 40.6503C74.0531 40.6503 77.7761 37.5683 75.2041 30.7363C72.6321 23.9063 65.9841 23.7313 63.5671 27.7623C61.1491 31.7943 61.6201 41.3133 69.1621 42.3813C68.6531 43.1503 69.0121 44.2693 69.0121 44.2693Z" fill="url(#paint21_radial_525_680)"/>
<path opacity="0.5" d="M45.4882 47.8654C45.4882 47.8654 40.2682 42.7804 43.2162 36.2524C44.9622 33.4534 48.3022 32.8984 50.9412 36.3994C52.9182 38.8054 52.7692 42.3694 52.7692 42.3694C52.7692 42.3694 49.3122 43.2524 45.4882 47.8654Z" fill="url(#paint22_radial_525_680)"/>
<path d="M74.925 32.5133C75.926 36.7993 74.143 40.8853 70.934 41.6383C67.725 42.3933 64.307 39.5313 63.3 35.2463C62.295 30.9583 64.078 26.8703 67.287 26.1163C70.495 25.3633 73.916 28.2263 74.925 32.5133Z" fill="url(#paint23_linear_525_680)"/>
<path d="M73.7032 32.2689C74.7402 35.3209 74.0782 38.7589 72.2282 39.9569C70.3712 41.1509 68.0292 39.6419 66.9912 36.5879C65.9532 33.5399 66.6152 30.0969 68.4672 28.8999C70.3202 27.7089 72.6662 29.2159 73.7032 32.2689Z" fill="url(#paint24_radial_525_680)"/>
<path d="M72.6792 33.0597C73.3682 35.0877 72.9292 37.3727 71.7002 38.1637C70.4702 38.9577 68.9122 37.9587 68.2212 35.9327C67.5332 33.9047 67.9712 31.6197 69.2032 30.8257C70.4302 30.0347 71.9872 31.0337 72.6792 33.0597Z" fill="url(#paint25_radial_525_680)"/>
<path d="M72.3012 30.8164C72.9082 31.9014 72.9162 33.3114 72.3172 33.9494C71.7242 34.5964 70.7472 34.2334 70.1382 33.1464C69.5322 32.0544 69.5212 30.6544 70.1202 30.0114C70.7162 29.3654 71.6932 29.7294 72.3012 30.8164Z" fill="url(#paint26_linear_525_680)"/>
<path d="M59.2632 26.4888C59.2632 26.4888 64.4552 18.2448 70.3582 19.8088C66.7122 14.9468 62.1162 14.7528 59.2632 26.4888Z" fill="#48555E"/>
<path d="M49.9321 31.5491C49.9321 31.5491 45.1291 27.7931 41.8821 32.5271C42.9541 26.7751 46.4041 26.4471 49.9321 31.5491Z" fill="#48555E"/>
<path d="M107.238 56.6636C106.888 56.2896 106.662 55.9886 106.654 55.9766L107.038 55.6406C107.05 55.6526 107.319 55.9236 107.629 56.3346L107.238 56.6636Z" fill="url(#paint27_radial_525_680)"/>
<path d="M133.551 15.0078C122.966 20.1358 107.874 10.6628 102.779 7.88783C97.4631 4.99283 94.3111 9.17283 88.8871 15.2558C82.0831 25.5148 83.2371 32.0878 88.9401 36.8798C94.6411 41.6708 92.1201 44.9658 88.5671 49.8598C88.5671 49.8598 94.3472 61.3488 98.0572 62.6178C101.766 63.8868 107.379 60.6788 108.143 59.2698C108.632 58.3678 107.967 57.2108 107.425 56.4918C107.083 56.1238 106.858 55.8238 106.858 55.8238C106.858 55.8238 107.124 56.0888 107.425 56.4918C107.976 57.0868 108.836 57.8648 109.545 57.8638C110.694 57.8608 113.246 56.0658 116.308 52.7358C119.367 49.4058 120.763 45.5678 120.375 44.5478C119.99 43.5248 117.429 41.6148 117.429 41.6148C117.429 41.6148 121.014 44.2898 123.563 41.3448C126.113 38.3978 129.042 33.9188 128.909 32.3868C128.779 30.8518 125.068 29.0728 125.068 29.0728C125.068 29.0728 128.137 30.3438 129.801 30.4668C131.462 30.5908 132.987 26.3708 132.855 24.9648C132.724 23.5588 130.038 22.6708 130.038 22.6708L134 23.1728C134 23.1728 134.892 21.6378 134.758 18.1878C134.697 16.6838 134.3 15.6668 133.551 15.0078Z" fill="url(#paint28_radial_525_680)"/>
<path opacity="0.5" d="M94.7871 59.8227C94.4331 59.2027 94.1542 58.5147 93.9762 57.7427C93.5832 56.0267 93.6861 54.2287 94.0721 52.5167C94.6011 50.1807 95.5371 48.4477 97.1421 46.6747C98.2621 45.4417 99.6131 44.1037 99.9251 42.3997C100.234 40.7207 99.4191 39.1087 98.4571 37.7877C97.5741 36.5767 96.5201 35.4727 95.7241 34.2017C95.0171 33.0797 94.6701 31.7567 94.5291 30.4407C93.9251 24.9177 97.2951 20.5697 102.136 18.2767C104.567 17.1257 107.195 16.4717 109.845 17.2287C112.555 18.0027 114.961 19.5607 117.55 20.6437C121.72 22.3907 126.636 22.0447 130.864 20.6217C132.192 20.1737 133.543 19.5777 134.77 18.8207C134.768 18.6177 134.763 18.4067 134.757 18.1897C134.696 16.6877 134.3 15.6707 133.551 15.0117C122.966 20.1397 107.874 10.6667 102.779 7.89174C97.4631 4.99674 94.3111 9.17674 88.8871 15.2597C82.0831 25.5187 83.2371 32.0917 88.9401 36.8837C94.6411 41.6747 92.1201 44.9697 88.5671 49.8637C88.5671 49.8617 91.6691 56.0257 94.7871 59.8227Z" fill="url(#paint29_radial_525_680)"/>
<path d="M69.0211 64.9229C69.0211 64.9229 66.3171 70.3029 62.4601 73.3319C60.2321 74.7869 62.7691 75.3829 66.8101 74.5889C70.8541 73.7949 75.7961 69.9189 76.8091 64.4829C75.3551 61.8889 72.3351 62.0779 70.8301 63.2889C69.3231 64.4999 69.0211 64.9229 69.0211 64.9229Z" fill="url(#paint30_radial_525_680)"/>
<path d="M70.3241 55.0234C70.3421 55.6544 70.3241 56.2864 70.2781 56.9144C70.2321 57.5454 70.1621 58.1744 70.0621 58.7974C70.0121 59.1104 69.9571 59.4224 69.8901 59.7324C69.8201 60.0434 69.7491 60.3534 69.6621 60.6614C69.5761 60.9684 69.4661 61.2724 69.3551 61.5744L69.1551 62.0224L68.9061 62.4554L68.8911 62.4754L68.8691 62.5004C68.6521 62.7034 68.4361 62.9094 68.2681 63.1434C68.1741 63.2564 68.1101 63.3824 68.0431 63.5064C67.9851 63.6334 67.9351 63.7634 67.9171 63.8984C67.9181 63.9644 67.8981 64.0334 67.9141 64.0974C67.9191 64.1634 67.9311 64.2284 67.9571 64.2904C67.9941 64.4174 68.0801 64.5304 68.1891 64.6244C68.2931 64.7204 68.4261 64.7904 68.5691 64.8374C68.7111 64.8874 68.8641 64.9154 69.0181 64.9264C68.8641 64.9454 68.7031 64.9604 68.5461 64.9314C68.3881 64.9044 68.2271 64.8544 68.0851 64.7644C67.9421 64.6754 67.8121 64.5524 67.7311 64.3924C67.6841 64.3134 67.6591 64.2294 67.6381 64.1404C67.6091 64.0534 67.6211 63.9664 67.6111 63.8764C67.6171 63.7004 67.6521 63.5304 67.7111 63.3694C67.7761 63.2144 67.8471 63.0584 67.9391 62.9194C68.0201 62.7764 68.1241 62.6494 68.2241 62.5204C68.3281 62.3944 68.4441 62.2834 68.5561 62.1634L68.5191 62.2074L68.7201 61.8134L68.8931 61.3964C68.9941 61.1074 69.0921 60.8204 69.1681 60.5214C69.3431 59.9294 69.4781 59.3234 69.6071 58.7144C69.7341 58.1034 69.8551 57.4894 69.9721 56.8744L70.3241 55.0234Z" fill="url(#paint31_radial_525_680)"/>
<path d="M69.4191 13.0664C69.4191 13.0664 69.6631 13.1314 70.0861 13.2624C70.5051 13.3984 71.1111 13.5774 71.8231 13.8354C72.5321 14.0934 73.3651 14.3894 74.2421 14.7424C75.1211 15.0944 76.0451 15.4984 76.9631 15.9224C77.8771 16.3564 78.7841 16.8024 79.6081 17.2724C80.0251 17.4984 80.4191 17.7354 80.7841 17.9724C81.1551 18.2004 81.5001 18.4274 81.8091 18.6504C81.9621 18.7604 82.1111 18.8654 82.2541 18.9644C82.3881 19.0764 82.5131 19.1824 82.6341 19.2804C82.8671 19.4824 83.0841 19.6414 83.2341 19.8094C83.5361 20.1304 83.7131 20.3134 83.7131 20.3134C83.7131 20.3134 83.5141 20.1574 83.1671 19.8844C83.0051 19.7384 82.7711 19.6034 82.5211 19.4324C82.2691 19.2584 81.9751 19.0814 81.6501 18.8914C81.3341 18.6924 80.9791 18.4934 80.5971 18.2924C80.2211 18.0854 79.8141 17.8844 79.3981 17.6684C78.9831 17.4464 78.5421 17.2474 78.1001 17.0254C77.6591 16.8024 77.2011 16.5984 76.7471 16.3834C75.8421 15.9534 74.925 15.5454 74.067 15.1544C73.206 14.7694 72.4051 14.4094 71.7171 14.1004C71.0281 13.7924 70.4541 13.5344 70.0521 13.3534C69.6501 13.1714 69.4191 13.0664 69.4191 13.0664Z" fill="url(#paint32_radial_525_680)"/>
<g opacity="0.5">
<path d="M94.838 70.9727C94.838 70.9727 94.825 71.3537 94.875 72.0197C94.899 72.3527 94.926 72.7537 94.994 73.2147C95.049 73.6757 95.119 74.1937 95.219 74.7547C95.308 75.3197 95.404 75.9297 95.549 76.5677C95.692 77.2067 95.808 77.8857 95.987 78.5757C96.155 79.2697 96.329 79.9857 96.504 80.7147C96.71 81.4357 96.918 82.1667 97.128 82.8997C97.226 83.2697 97.325 83.6407 97.427 84.0097C97.519 84.3787 97.609 84.7467 97.698 85.1107C97.881 85.8407 98.058 86.5567 98.229 87.2527C98.576 88.6407 98.859 89.9477 99.122 91.0617C99.252 91.6217 99.368 92.1327 99.455 92.5897C99.536 93.0497 99.608 93.4507 99.664 93.7797C99.775 94.4387 99.838 94.8157 99.838 94.8157C99.838 94.8157 99.739 94.4457 99.568 93.7987C99.485 93.4767 99.387 93.0847 99.271 92.6337C99.143 92.1867 98.999 91.6817 98.842 91.1327C98.538 90.0277 98.159 88.7437 97.8 87.3597C97.617 86.6677 97.429 85.9527 97.237 85.2267C97.139 84.8627 97.045 84.4957 96.946 84.1297C96.844 83.7647 96.739 83.4007 96.635 83.0367C96.438 82.2977 96.238 81.5577 96.042 80.8307C95.875 80.0947 95.713 79.3717 95.555 78.6717C95.379 77.9737 95.302 77.2807 95.185 76.6327C95.067 75.9867 94.997 75.3667 94.934 74.7937C94.905 74.5077 94.864 74.2357 94.846 73.9737C94.831 73.7127 94.821 73.4637 94.805 73.2297C94.775 72.7647 94.777 72.3587 94.779 72.0217C94.771 71.6867 94.802 71.4237 94.81 71.2457C94.823 71.0667 94.838 70.9727 94.838 70.9727Z" fill="url(#paint33_radial_525_680)"/>
<path d="M91.608 74.1328C91.608 74.1328 91.651 74.2188 91.738 74.3548C91.815 74.4968 91.949 74.6828 92.093 74.9128C92.163 75.0258 92.265 75.1368 92.351 75.2648C92.443 75.3898 92.53 75.5228 92.642 75.6478C92.751 75.7758 92.865 75.9028 92.975 76.0408C93.075 76.1848 93.22 76.2928 93.339 76.4218C93.463 76.5498 93.588 76.6788 93.708 76.8048C93.841 76.9188 93.973 77.0288 94.101 77.1378C94.228 77.2438 94.349 77.3568 94.462 77.4608C94.575 77.5698 94.705 77.6368 94.812 77.7218C95.252 78.0388 95.537 78.2978 95.537 78.2978C95.537 78.2978 95.18 78.1958 94.659 77.9738C94.533 77.9118 94.379 77.8718 94.25 77.7758C94.112 77.6868 93.967 77.5958 93.824 77.4918C93.679 77.3898 93.524 77.2928 93.378 77.1738C93.243 77.0428 93.108 76.9088 92.975 76.7778C92.847 76.6338 92.698 76.5138 92.596 76.3548C92.483 76.2078 92.38 76.0518 92.279 75.9078C92.168 75.7688 92.1 75.6058 92.026 75.4608C91.952 75.3148 91.88 75.1798 91.834 75.0458C91.784 74.9118 91.747 74.7878 91.711 74.6778C91.673 74.5708 91.663 74.4648 91.644 74.3858C91.609 74.2268 91.608 74.1328 91.608 74.1328Z" fill="url(#paint34_radial_525_680)"/>
<path d="M77.6431 77.6602C77.6431 77.6602 78.1221 78.3742 78.8381 79.4462C79.1951 79.9832 79.6251 80.5962 80.0871 81.2532C80.3151 81.5852 80.5611 81.9162 80.8041 82.2602C81.0441 82.6072 81.3071 82.9432 81.5591 83.2882C82.0671 83.9762 82.6041 84.6392 83.1081 85.2592C83.3661 85.5632 83.6171 85.8572 83.8541 86.1352C84.1031 86.4062 84.3371 86.6612 84.5531 86.8982C84.7821 87.1182 84.9881 87.3272 85.1711 87.5162C85.3501 87.7082 85.5281 87.8482 85.6661 87.9742C85.9441 88.2302 86.1031 88.3742 86.1031 88.3742C86.1031 88.3742 85.9201 88.2622 85.6041 88.0532C85.4501 87.9462 85.2501 87.8282 85.0471 87.6592C84.8401 87.4972 84.6031 87.3162 84.3541 87.1042C84.1171 86.8832 83.8581 86.6462 83.5841 86.3932C83.3191 86.1312 83.0451 85.8502 82.7671 85.5532C82.5001 85.2482 82.2201 84.9362 81.9491 84.6082C81.6861 84.2722 81.4101 83.9382 81.1511 83.5922C80.6371 82.8942 80.1411 82.1892 79.7151 81.5012C79.2751 80.8202 78.9151 80.1562 78.5951 79.5942C77.9781 78.4582 77.6431 77.6602 77.6431 77.6602Z" fill="url(#paint35_radial_525_680)"/>
<path d="M118.242 61.0352C118.242 61.0352 118.576 61.4852 119.069 62.3282C119.557 63.1732 120.232 64.3992 120.852 65.9602C121.161 66.7402 121.473 67.5982 121.733 68.5252C121.871 68.9882 122 69.4662 122.103 69.9622C122.158 70.2092 122.221 70.4602 122.263 70.7142C122.303 70.9702 122.341 71.2292 122.382 71.4902C122.545 72.5312 122.607 73.6252 122.599 74.7342C122.6 75.2892 122.528 75.8462 122.496 76.4092C122.433 76.9602 122.369 77.5142 122.308 78.0672C122.169 79.1712 122.035 80.2752 121.903 81.3612C121.763 82.4482 121.671 83.5212 121.559 84.5572C121.483 85.5952 121.371 86.5972 121.315 87.5502C121.262 88.5022 121.196 89.4032 121.2 90.2352C121.192 90.6512 121.184 91.0512 121.179 91.4302C121.179 91.8082 121.194 92.1692 121.2 92.5082C121.216 93.1862 121.224 93.7762 121.276 94.2602C121.35 95.2322 121.393 95.7882 121.393 95.7882C121.393 95.7882 121.316 95.2362 121.178 94.2692C121.1 93.7882 121.061 93.1962 121.011 92.5192C120.985 92.1782 120.95 91.8182 120.93 91.4362C120.924 91.0562 120.919 90.6532 120.912 90.2332C120.883 89.3972 120.92 88.4892 120.942 87.5302C120.967 86.5702 121.041 85.5602 121.117 84.5172C121.22 83.4782 121.304 82.3992 121.427 81.3082C121.551 80.2182 121.676 79.1112 121.801 78.0032C121.868 77.4512 121.938 76.8992 122.005 76.3482C122.043 75.8052 122.12 75.2632 122.124 74.7222C122.142 73.6402 122.093 72.5732 121.946 71.5492C121.908 71.2932 121.872 71.0382 121.838 70.7882C121.788 70.5392 121.742 70.2932 121.696 70.0482C121.61 69.5562 121.496 69.0802 121.376 68.6212C121.15 67.6992 120.867 66.8432 120.584 66.0612C120.301 65.2812 120.01 64.5742 119.739 63.9542C119.467 63.3352 119.205 62.8052 118.983 62.3732C118.755 61.9422 118.577 61.6052 118.447 61.3792C118.315 61.1562 118.242 61.0352 118.242 61.0352Z" fill="url(#paint36_radial_525_680)"/>
<path d="M122.08 61.4414C122.08 61.4414 122.172 61.6144 122.301 61.9334C122.425 62.2534 122.612 62.7104 122.771 63.2794C122.945 63.8444 123.095 64.5174 123.22 65.2464C123.266 65.6144 123.341 65.9904 123.363 66.3794C123.4 66.7644 123.429 67.1594 123.439 67.5554C123.455 67.9494 123.441 68.3444 123.427 68.7334C123.428 69.1224 123.372 69.5034 123.337 69.8714C123.31 70.2414 123.233 70.5924 123.177 70.9264C123.124 71.2614 123.049 71.5734 122.969 71.8584C122.892 72.1444 122.823 72.4044 122.748 72.6334C122.665 72.8584 122.594 73.0554 122.533 73.2164C122.414 73.5374 122.339 73.7174 122.339 73.7174C122.339 73.7174 122.37 73.5224 122.439 73.1874C122.474 73.0214 122.513 72.8184 122.562 72.5854C122.603 72.3524 122.631 72.0854 122.679 71.7994C122.729 71.5124 122.77 71.2014 122.799 70.8704C122.831 70.5404 122.874 70.1924 122.888 69.8314C122.931 69.1104 122.958 68.3384 122.927 67.5684C122.92 66.7974 122.84 66.0294 122.773 65.3094C122.689 64.5904 122.594 63.9184 122.487 63.3474C122.385 62.7724 122.287 62.2964 122.208 61.9644C122.127 61.6324 122.08 61.4414 122.08 61.4414Z" fill="url(#paint37_radial_525_680)"/>
<path d="M152.733 83.9231C152.733 83.9231 152.851 83.6831 153.062 83.2651C153.279 82.8501 153.553 82.2421 153.896 81.5191C154.059 81.1521 154.247 80.7641 154.421 80.3401C154.604 79.9191 154.785 79.4721 154.973 79.0091C155.17 78.5521 155.334 78.0641 155.526 77.5771C155.716 77.0881 155.872 76.5811 156.05 76.0801C156.201 75.5731 156.367 75.0691 156.505 74.5671C156.624 74.0581 156.786 73.5681 156.88 73.0801C156.967 72.5941 157.104 72.1291 157.161 71.6781C157.224 71.2271 157.308 70.8011 157.345 70.4061C157.37 70.0091 157.406 69.6451 157.437 69.3221C157.469 68.9991 157.449 68.7171 157.457 68.4831C157.466 68.0131 157.47 67.7461 157.47 67.7461C157.47 67.7461 157.502 68.0131 157.558 68.4771C157.575 68.7121 157.624 68.9961 157.629 69.3241C157.633 69.6511 157.639 70.0211 157.633 70.4261C157.62 70.8321 157.567 71.2671 157.533 71.7281C157.5 72.1931 157.402 72.6741 157.322 73.1741C157.238 73.6721 157.103 74.1781 156.983 74.6961C156.845 75.2091 156.683 75.7251 156.535 76.2411C156.349 76.7471 156.183 77.2601 155.988 77.7521C155.791 78.2451 155.595 78.7281 155.384 79.1861C155.188 79.6501 154.969 80.0861 154.758 80.4991C154.554 80.9141 154.34 81.2941 154.154 81.6501C153.37 83.0571 152.733 83.9231 152.733 83.9231Z" fill="url(#paint38_radial_525_680)"/>
</g>
<path opacity="0.5" d="M178.724 75.3334C178.724 75.3334 178.698 75.1084 178.779 74.7894C178.794 74.7094 178.823 74.6254 178.856 74.5394C178.889 74.4524 178.916 74.3554 178.966 74.2674C179.062 74.0894 179.162 73.8914 179.303 73.7264C179.374 73.6434 179.443 73.5614 179.514 73.4804C179.579 73.3944 179.675 73.3394 179.75 73.2694C179.911 73.1454 180.054 73.0234 180.212 72.9624C180.51 72.8204 180.719 72.7734 180.719 72.7734C180.719 72.7734 180.598 72.9684 180.396 73.1934C180.287 73.2974 180.191 73.4524 180.068 73.5904C179.942 73.7254 179.826 73.8834 179.708 74.0394C179.571 74.1814 179.475 74.3554 179.35 74.4964C179.239 74.6484 179.134 74.7894 179.045 74.9104C178.862 75.1604 178.724 75.3334 178.724 75.3334Z" fill="url(#paint39_radial_525_680)"/>
<path d="M68.1071 130.73C65.7671 131.456 64.6371 136.415 64.6371 136.415C65.6501 137.924 69.9331 137.284 70.8151 136.526C71.5841 133.87 70.4421 130.003 68.1071 130.73Z" fill="url(#paint40_radial_525_680)"/>
<path d="M62.1041 129.962C61.4701 129.919 60.8241 130.173 60.2521 130.511C58.5641 132.722 57.5621 135.246 59.3411 136.173C61.9921 137.555 64.6371 136.413 64.6371 136.413C64.9911 134.052 63.8451 130.078 62.1041 129.962Z" fill="url(#paint41_radial_525_680)"/>
<path d="M74.4032 130.712C72.3632 131.016 70.8152 136.523 70.8152 136.523C73.0872 138.158 76.2352 136.762 76.7382 135.753C76.7382 135.753 76.4412 130.406 74.4032 130.712Z" fill="url(#paint42_radial_525_680)"/>
<path d="M117.529 131.709C115.907 132.086 114.997 135.581 114.591 137.681C117.755 138.831 121.384 137.56 121.511 136.352C120.834 133.995 119.375 131.283 117.529 131.709Z" fill="url(#paint43_radial_525_680)"/>
<path d="M104.238 129.991C102.066 129.812 100.238 133.585 99.4751 135.432C99.7321 136.277 100.39 136.965 101.617 137.37C105.264 138.577 106.859 137.747 107.367 137.342C107.382 137.3 107.394 137.254 107.407 137.21C107.742 132.991 106.925 130.211 104.238 129.991Z" fill="url(#paint44_radial_525_680)"/>
<path d="M111.541 131.286C109.486 131.324 108.07 135.019 107.407 137.21C107.404 137.245 107.4 137.281 107.399 137.317C107.437 137.286 107.47 137.254 107.495 137.231C108.074 138.762 112.998 139.325 114.524 137.661C114.533 137.663 114.541 137.665 114.549 137.668C114.458 135.481 114.086 131.238 111.541 131.286Z" fill="url(#paint45_radial_525_680)"/>
<g opacity="0.5">
<path d="M74.1091 105.917C73.2301 104.909 70.9171 105.23 69.9211 105.772C69.8781 105.793 69.7931 105.978 69.8761 105.992C70.4731 106.09 71.1571 105.9 71.7751 105.925C72.5501 105.956 73.1921 106.209 73.9261 106.352C74.0971 106.385 74.2041 106.026 74.1091 105.917Z" fill="url(#paint46_radial_525_680)"/>
<path d="M73.5411 109.827C72.9961 109.791 72.4531 109.945 71.9071 109.966C71.2991 109.987 70.7501 109.795 70.1611 109.711C70.0621 109.698 69.9751 109.946 70.0701 109.973C70.6581 110.137 71.1621 110.385 71.7831 110.435C72.3281 110.477 72.9421 110.372 73.4651 110.226C73.5881 110.192 73.7211 109.836 73.5411 109.827Z" fill="url(#paint47_radial_525_680)"/>
<path d="M74.6831 112.648C72.4161 113.058 69.7201 112.125 67.7831 110.976C67.7341 110.947 67.6701 111.105 67.7151 111.14C69.5461 112.538 72.3211 113.663 74.6371 112.89C74.7081 112.866 74.7831 112.63 74.6831 112.648Z" fill="url(#paint48_radial_525_680)"/>
</g>
<g opacity="0.5">
<path d="M112.508 108.099C111.612 108.099 110.712 108.269 109.826 108.048C109.752 108.03 109.686 108.222 109.757 108.253C110.608 108.619 111.551 108.641 112.442 108.444C112.554 108.419 112.659 108.098 112.508 108.099Z" fill="url(#paint49_radial_525_680)"/>
<path d="M113.662 109.635C111.444 110.2 108.649 110.466 106.433 109.752C106.382 109.734 106.342 109.859 106.387 109.886C107.353 110.5 108.537 110.464 109.646 110.513C111.024 110.572 112.349 110.505 113.625 109.956C113.709 109.921 113.787 109.603 113.662 109.635Z" fill="url(#paint50_radial_525_680)"/>
<path d="M118.437 111.273C114.287 113.566 108.562 113.817 104.327 111.548C104.288 111.528 104.246 111.646 104.276 111.668C108.147 114.45 114.491 114.374 118.418 111.758C118.55 111.668 118.659 111.148 118.437 111.273Z" fill="url(#paint51_radial_525_680)"/>
</g>
<g opacity="0.5">
<path d="M165.82 96.4282C163.545 96.9792 161.041 97.2452 158.855 96.1162C158.741 96.0562 158.615 96.4072 158.732 96.4792C160.76 97.7092 163.691 97.9302 165.774 96.8052C165.862 96.7592 165.978 96.3892 165.82 96.4282Z" fill="url(#paint52_radial_525_680)"/>
<path d="M164.124 99.7436C162.649 100.033 161.145 100.178 159.773 99.4366C159.715 99.4086 159.645 99.5876 159.695 99.6236C161.015 100.522 162.537 100.54 164.047 100.156C164.184 100.121 164.286 99.7116 164.124 99.7436Z" fill="url(#paint53_radial_525_680)"/>
</g>
<path opacity="0.5" d="M21.4081 90.3677C21.4081 90.3677 20.1401 90.5187 19.6451 91.0437C19.1491 91.5647 19.6731 92.5827 21.5611 91.6597C23.4501 90.7347 22.1071 90.2917 21.4081 90.3677Z" fill="url(#paint54_radial_525_680)"/>
<path opacity="0.5" d="M25.7251 90.0128C25.7251 90.0128 24.0651 90.6348 24.2161 91.3578C24.3661 92.0828 25.7071 91.5468 26.3651 90.9698C27.0251 90.3928 27.0861 89.7528 25.7251 90.0128Z" fill="url(#paint55_radial_525_680)"/>
<mask id="mask0_525_680" style="mask-type:luminance" maskUnits="userSpaceOnUse" x="42" y="33" width="11" height="15">
<path d="M45.6921 47.7674C45.6921 47.7674 48.3071 43.4304 52.7681 42.3704C51.6991 34.2354 47.8221 32.4074 44.7421 33.7914C41.6581 35.1764 40.4961 43.1874 45.6921 47.7674Z" fill="white"/>
</mask>
<g mask="url(#mask0_525_680)">
<path d="M51.8881 40.432C52.6291 44.1 51.3121 47.462 48.9411 47.944C46.5671 48.426 44.0411 45.842 43.2951 42.176C42.5541 38.506 43.8711 35.142 46.2441 34.659C48.6161 34.179 51.1451 36.762 51.8881 40.432Z" fill="url(#paint56_linear_525_680)"/>
</g>
<mask id="mask1_525_680" style="mask-type:luminance" maskUnits="userSpaceOnUse" x="42" y="33" width="11" height="15">
<path d="M45.6921 47.7674C45.6921 47.7674 48.3071 43.4304 52.7681 42.3704C51.6991 34.2354 47.8221 32.4074 44.7421 33.7914C41.6581 35.1764 40.4961 43.1874 45.6921 47.7674Z" fill="white"/>
</mask>
<g mask="url(#mask1_525_680)">
<path d="M51.2971 39.1797C52.4841 41.7927 52.1931 44.8997 50.6571 46.1217C49.1171 47.3407 46.9071 46.2067 45.7231 43.5897C44.5401 40.9807 44.8271 37.8687 46.3651 36.6487C47.9041 35.4327 50.1121 36.5647 51.2971 39.1797Z" fill="url(#paint57_radial_525_680)"/>
<path d="M50.4581 39.9694C51.2461 41.7054 51.0541 43.7684 50.0331 44.5764C49.0111 45.3884 47.5441 44.6374 46.7581 42.9014C45.9691 41.1654 46.1611 39.0994 47.1831 38.2894C48.2031 37.4824 49.6701 38.2314 50.4581 39.9694Z" fill="url(#paint58_radial_525_680)"/>
<path d="M49.9292 38.0121C50.5592 38.9231 50.6922 40.1691 50.2172 40.7861C49.7452 41.4111 48.8492 41.1761 48.2132 40.2641C47.5802 39.3511 47.4521 38.1091 47.9261 37.4901C48.3961 36.8651 49.2952 37.1021 49.9292 38.0121Z" fill="url(#paint59_linear_525_680)"/>
</g>
<path d="M67.4201 45.6398C63.5921 41.9888 57.0251 39.5948 50.9461 42.8938C46.8791 45.1018 44.6691 48.2948 42.5321 52.0678C42.4881 52.1428 42.5321 52.3228 42.6111 52.1968C43.6441 50.5558 44.6071 49.4768 45.8981 47.9768C47.4241 46.2018 48.8561 44.6948 50.9201 43.5678C56.8571 40.3318 63.4441 43.7678 67.8161 46.2618C68.0261 46.3818 67.5681 45.7818 67.4201 45.6398Z" fill="url(#paint60_radial_525_680)"/>
<path d="M54.2332 51.8159C49.9372 50.2499 44.3842 52.0139 41.7832 55.8559C41.6922 55.9889 41.7122 56.3789 41.8992 56.1379C43.1502 54.5399 44.8872 53.6029 46.7092 52.8079C49.2882 51.6779 51.3602 51.9169 54.0292 52.4179C54.2532 52.4579 54.4492 51.8929 54.2332 51.8159Z" fill="url(#paint61_radial_525_680)"/>
<path d="M51.9752 56.7843C48.2662 56.2363 44.8712 57.4633 42.3082 60.1673C42.2292 60.2533 42.1832 60.6333 42.3542 60.4773C45.1882 57.8903 48.0962 57.0713 51.8722 57.1713C51.9942 57.1763 52.1012 56.8043 51.9752 56.7843Z" fill="url(#paint62_radial_525_680)"/>
<path d="M49.9041 60.9109C47.6411 61.2079 45.2541 61.7679 43.5451 63.3839C43.5051 63.4209 43.4891 63.5799 43.5631 63.5159C45.2611 62.0079 47.6491 61.5009 49.8411 61.2309C49.9571 61.2159 50.0311 60.8929 49.9041 60.9109Z" fill="url(#paint63_radial_525_680)"/>
<path d="M55.1401 71.0866C53.4981 70.4216 51.0451 71.1526 49.4821 71.8156C47.7471 72.5486 46.1711 73.5566 45.0181 75.0616C44.9721 75.1166 44.9701 75.3526 45.0661 75.2476C47.5841 72.4176 51.3721 71.3976 55.0351 71.4866C55.1621 71.4876 55.2701 71.1396 55.1401 71.0866Z" fill="url(#paint64_radial_525_680)"/>
<path d="M52.0471 75.0163C50.9941 75.1373 50.0621 75.6093 49.3751 76.4213C49.3471 76.4553 49.3341 76.5973 49.4071 76.5383C50.1741 75.9123 51.0411 75.6113 51.9821 75.3613C52.0911 75.3303 52.1931 74.9983 52.0471 75.0163Z" fill="url(#paint65_radial_525_680)"/>
<path d="M53.7021 83.3514C52.4451 82.9494 51.2631 83.6114 50.3621 84.4284C50.3201 84.4654 50.2751 84.6894 50.3701 84.6304C50.8491 84.3304 51.3451 84.0844 51.8951 83.9514C52.4521 83.8144 53.0321 83.8574 53.5911 83.7624C53.7121 83.7424 53.8491 83.3994 53.7021 83.3514Z" fill="url(#paint66_radial_525_680)"/>
<path d="M58.5951 90.1174C55.8741 88.9914 52.6401 88.9804 50.2411 90.8954C50.1671 90.9544 50.1161 91.2984 50.2581 91.2084C52.7381 89.6244 55.7331 89.7534 58.4131 90.6494C58.6041 90.7124 58.7831 90.1934 58.5951 90.1174Z" fill="url(#paint67_radial_525_680)"/>
<path d="M54.3012 94.3405C53.7862 94.0055 53.2902 93.7165 52.6742 93.6225C52.1362 93.5425 51.6112 93.7605 51.1202 93.9435C51.0622 93.9655 50.9992 94.1545 51.0832 94.1375C51.6372 94.0375 52.1492 93.9825 52.7082 94.1195C53.2162 94.2435 53.6912 94.5365 54.1632 94.7495C54.3052 94.8135 54.4292 94.4235 54.3012 94.3405Z" fill="url(#paint68_radial_525_680)"/>
<path d="M52.5742 100.773C51.5532 99.3502 50.0982 98.4842 48.3242 98.5862C48.2452 98.5892 48.1722 98.8252 48.2572 98.8352C49.9452 99.0232 51.2522 99.9852 52.3452 101.229C52.4802 101.386 52.6702 100.908 52.5742 100.773Z" fill="url(#paint69_radial_525_680)"/>
<path d="M46.4622 100.872C46.3632 100.782 46.2382 101.083 46.3162 101.163C46.5952 101.457 46.8792 101.743 47.1432 102.052C47.4252 102.379 47.6202 102.752 47.8382 103.117C47.9252 103.26 48.0332 102.978 48.0242 102.902C47.8822 102.016 47.0832 101.443 46.4622 100.872Z" fill="url(#paint70_radial_525_680)"/>
<path d="M41.1101 105.943C40.8801 105.169 40.6631 104.413 40.7391 103.598C40.7581 103.403 40.5721 103.555 40.5541 103.666C40.4131 104.578 40.5541 105.466 40.8301 106.34C40.9001 106.568 41.1581 106.104 41.1101 105.943Z" fill="url(#paint71_radial_525_680)"/>
<path d="M37.9661 103.408C37.9121 104.401 37.4201 105.059 36.7881 105.777C36.7271 105.844 36.5911 106.271 36.8081 106.169C37.7911 105.706 38.2161 104.27 38.2081 103.267C38.2071 102.986 37.9741 103.257 37.9661 103.408Z" fill="url(#paint72_radial_525_680)"/>
<path d="M33.0701 101.677C32.6081 102.081 32.1041 102.425 31.5741 102.73C31.1551 102.97 30.4751 103.417 29.9701 103.366C29.8341 103.351 29.7171 103.704 29.8471 103.729C30.3471 103.828 30.9161 103.503 31.3691 103.311C32.0481 103.022 32.6241 102.616 33.1291 102.082C33.2361 101.971 33.3001 101.475 33.0701 101.677Z" fill="url(#paint73_radial_525_680)"/>
<path d="M30.6731 99.8996C30.1471 100.208 29.6651 100.767 29.0371 100.848C28.9351 100.86 28.8531 101.147 28.9791 101.144C29.6361 101.138 30.2511 100.598 30.6831 100.152C30.7291 100.107 30.7991 99.8236 30.6731 99.8996Z" fill="url(#paint74_radial_525_680)"/>
<g opacity="0.5">
<path d="M177.744 111.416C176.458 107.926 172.258 94.2911 171.857 89.6641C171.461 85.1051 174.178 79.6451 174.323 69.4231C174.467 59.2171 168.17 51.2331 163.717 41.8951C161.45 39.2751 159.507 36.9531 159.507 36.9531C162.583 42.6161 169.121 52.7491 171.703 63.9901C174.286 75.2311 170.745 90.5751 162.996 92.4691C156.341 94.0931 155.657 87.0321 158.025 80.2111C160.395 73.3921 160.042 69.1301 157.649 65.2181C157.33 74.5911 150.037 87.8981 136.915 87.5881C123.792 87.2791 124.791 76.7131 124.937 67.1701C125.045 60.3451 120.999 58.3191 120.999 58.3191C120.999 58.3191 122.37 62.2331 122.375 64.2771C122.379 66.3231 121.178 62.0661 117.595 60.1991C120.334 65.4751 120.012 72.8021 119.179 81.1551C118.346 89.5061 119.02 103.605 110.07 102.218C101.121 100.834 97.9251 80.4891 95.9091 67.9541C93.9301 70.4421 95.3061 76.0251 94.1881 75.6551C93.0701 75.2871 90.7021 71.4421 90.7021 71.4421C90.7021 71.4421 89.4641 72.9351 92.9501 77.5211C96.4371 82.1061 97.9031 91.0001 91.7621 88.4591C85.6211 85.9181 79.9831 79.2851 76.6501 75.2041C75.6421 81.0841 80.2291 86.7241 81.0411 93.6821C82.4671 105.935 70.9591 105.633 68.1431 102.394C67.8251 106.464 66.5961 111.322 65.0001 115.573C65.5911 114.811 66.2291 114.106 67.0831 113.636C68.8451 112.663 71.4091 112.882 73.2551 113.508C75.4071 114.237 76.4331 115.748 77.1571 117.846C77.6711 119.333 78.4281 121.511 77.9061 123.096C76.5151 127.312 70.3951 128.07 66.7241 126.895C64.5531 126.201 62.6961 124.952 61.1911 123.355C60.0841 125.456 60.7241 126.033 62.9771 127.715C62.0671 128.421 61.0781 129.426 60.2511 130.507C60.8221 130.169 61.4691 129.915 62.1031 129.958C63.8441 130.074 64.9901 134.048 64.6361 136.409C64.6361 136.409 65.7661 131.45 68.1061 130.724C70.4411 129.997 71.5841 133.865 70.8141 136.52C70.8141 136.52 72.3621 131.013 74.4021 130.709C76.4401 130.402 76.7371 135.749 76.7371 135.749C82.4111 135.609 89.0871 133.704 82.6451 128.298C85.1621 125.896 86.6401 111.521 86.3701 104.335C86.0991 97.1501 85.8301 88.3261 85.8301 88.3261C85.8301 88.3261 94.7951 94.4831 99.7121 94.4721C100.987 101.402 101.007 109.093 99.1321 116.283C98.9531 117.09 98.7821 117.868 98.6291 118.618C98.9881 117.999 99.3371 117.374 99.7161 116.796C101.09 114.712 102.771 113.57 105.366 114.02C107.05 114.31 108.561 115.214 110.237 115.541C112.316 115.944 114.422 115.959 116.525 115.742C118.69 115.517 121.295 114.657 122.558 117.01C123.874 119.461 123.799 122.177 122.495 124.597C121.323 126.775 118.741 127.865 116.464 128.419C113.47 129.151 110.34 129.552 107.261 129.258C104.517 128.997 101.954 128.237 99.6351 127.028C100.211 127.628 100.977 128.155 101.981 128.611C100.386 130.747 98.8881 133.498 99.4751 135.425C100.238 133.577 102.066 129.805 104.238 129.984C106.924 130.205 107.742 132.984 107.407 137.204C108.07 135.014 109.486 131.318 111.541 131.28C114.086 131.232 114.458 135.475 114.549 137.662C114.563 137.666 114.576 137.671 114.591 137.676C114.996 135.576 115.906 132.081 117.529 131.704C119.376 131.277 120.835 133.989 121.511 136.347C121.518 136.266 121.511 136.186 121.489 136.107C126.98 135.263 130.429 134.103 129.083 132.317C127.737 130.532 126.647 129.384 128.116 128.742C129.584 128.099 131.638 126.518 128.889 116.795C126.141 107.069 122.261 102.601 121.22 95.3611C130.594 95.9361 143.771 96.5301 152.601 83.8711C152.601 83.8711 153.916 86.7661 153.507 93.8381C153.24 98.4691 152.897 103.279 152.433 107.413C153.037 105.735 153.59 104.024 154.85 102.758C157.954 99.6351 165.112 99.8621 167.752 103.539C170.199 106.945 171.675 113.277 168.841 116.879C166.083 120.387 161.32 120.565 157.32 119.4C155.265 118.8 153.024 117.84 151.095 116.499C151.042 117.983 151.681 118.348 153.737 119.311C151.22 122.585 151.161 125.012 152.487 126.199C153.01 124.584 154.4 120.781 155.865 120.9C157.574 121.045 158.567 124.427 157.73 127.987C158.095 128.061 158.473 128.132 158.867 128.196C159.049 126.534 159.689 122.502 161.707 122.162C164.099 121.758 165.283 124.826 165.072 128.591C165.429 128.572 165.793 128.545 166.157 128.513C166.038 126.653 165.949 122.703 167.281 122.254C168.837 121.733 170.649 124.859 171.074 127.461C172.458 126.97 173.799 126.297 175.051 125.396C178.196 122.577 178.278 120.703 177.333 117.639C178.948 115.672 179.03 114.906 177.744 111.416Z" fill="url(#paint75_radial_525_680)"/>
</g>
<path d="M50.7031 84.0534C49.6981 80.9744 47.2331 78.1334 45.5361 75.4004C43.4691 72.0674 41.9441 68.1614 42.0321 64.2274C42.1131 60.5774 42.4961 57.2644 43.1951 53.6774C43.2321 53.4844 43.0521 53.5144 43.0141 53.6714C41.5671 59.6084 40.6261 65.3904 42.6291 71.2954C43.7711 74.6584 45.6531 77.8274 47.6401 80.7664C50.1871 84.5414 50.8961 88.2304 51.5831 92.6574C51.6651 93.1854 52.1391 92.4674 52.1281 92.2084C51.9991 89.4204 51.5731 86.7094 50.7031 84.0534Z" fill="url(#paint76_radial_525_680)"/>
<path d="M50.7421 94.7557C50.7291 94.5137 50.5411 94.7557 50.5371 94.8827C50.3791 99.0477 45.6161 101.152 42.0661 101.692C41.7561 101.738 41.5451 102.633 41.9241 102.603C45.9331 102.27 50.9431 99.2197 50.7421 94.7557Z" fill="url(#paint77_radial_525_680)"/>
<path d="M42.2381 50.0177C41.0221 48.9147 39.6661 48.0277 38.5531 46.8067C37.4521 45.5997 36.6471 43.3097 36.3211 41.7477C35.5891 38.2797 36.7711 34.6777 36.1741 31.1877C36.1371 30.9687 35.9461 31.2917 35.9621 31.4057C36.4831 35.5177 34.9861 39.6497 36.1171 43.7387C36.9841 46.8717 39.0481 49.3787 41.8921 50.9207C42.1791 51.0767 42.4451 50.2057 42.2381 50.0177Z" fill="url(#paint78_radial_525_680)"/>
<path d="M109.516 99.3449C106.699 98.0779 105.271 95.9449 103.941 93.2159C102.537 90.3419 101.262 87.1029 100.362 84.0409C99.5112 81.1429 98.6862 78.3129 98.1962 75.3309C97.8172 73.0219 97.5372 70.7749 96.8092 68.5409C96.7292 68.2939 96.4422 68.7849 96.4892 68.9449C97.3052 71.7999 97.4802 74.7299 97.9082 77.6589C98.3492 80.6989 99.2422 83.8109 100.3 86.6889C101.996 91.2989 103.754 98.9579 109.163 100.502C109.582 100.622 109.911 99.5219 109.516 99.3449Z" fill="url(#paint79_radial_525_680)"/>
<path d="M103.742 126.95C100.766 125.635 99.1121 123.777 99.5701 120.246C99.7711 118.703 100.998 117.379 101.019 115.841C101.021 115.632 100.835 115.801 100.824 115.921C100.746 116.864 99.9841 117.76 99.6091 118.617C99.0501 119.886 98.8431 121.298 98.9161 122.671C99.0451 125.147 100.891 127.715 103.465 127.855C103.8 127.872 104.07 127.093 103.742 126.95Z" fill="url(#paint80_radial_525_680)"/>
<path d="M114.353 98.9947C113.401 99.3807 112.391 100.336 111.305 99.9847C111.091 99.9157 110.929 100.478 111.125 100.582C112.241 101.165 113.301 100.272 114.283 99.8217C114.52 99.7127 114.629 98.8827 114.353 98.9947Z" fill="url(#paint81_radial_525_680)"/>
<path d="M142.658 86.2573C137.929 87.1113 133.275 86.3293 129.577 82.9123C125.975 79.5863 126.434 72.0333 126.358 67.5893C126.35 67.2633 126.081 67.5843 126.079 67.7643C126.029 72.2263 125.538 78.6783 128.176 82.6003C131.351 87.3213 137.447 87.9723 142.546 86.5143C142.85 86.4273 143.042 86.1903 142.658 86.2573Z" fill="url(#paint82_radial_525_680)"/>
<defs>
<radialGradient id="paint0_radial_525_680" cx="0" cy="0" r="1" gradientUnits="userSpaceOnUse" gradientTransform="translate(131.979 118.368) rotate(-0.137509) scale(10.3943 10.3942)">
<stop offset="0.1147" stop-color="white"/>
<stop offset="0.8821" stop-color="#D4BBAB"/>
</radialGradient>
<radialGradient id="paint1_radial_525_680" cx="0" cy="0" r="1" gradientUnits="userSpaceOnUse" gradientTransform="translate(131.978 118.368) rotate(-0.13751) scale(10.3981 10.3981)">
<stop offset="0.1147" stop-color="white"/>
<stop offset="0.8821" stop-color="#D4BBAB"/>
</radialGradient>
<radialGradient id="paint2_radial_525_680" cx="0" cy="0" r="1" gradientUnits="userSpaceOnUse" gradientTransform="translate(141.05 133.319) rotate(-0.13751) scale(46.3299 46.3298)">
<stop offset="0.1763" stop-color="#90A2B0"/>
<stop offset="1" stop-color="#4A5760"/>
</radialGradient>
<radialGradient id="paint3_radial_525_680" cx="0" cy="0" r="1" gradientUnits="userSpaceOnUse" gradientTransform="translate(141.051 133.32) rotate(-0.13751) scale(46.3315 46.3315)">
<stop offset="0.1763" stop-color="#90A2B0"/>
<stop offset="1" stop-color="#4A5760"/>
</radialGradient>
<radialGradient id="paint4_radial_525_680" cx="0" cy="0" r="1" gradientUnits="userSpaceOnUse" gradientTransform="translate(97.2783 47.2617) rotate(-0.13751) scale(83.312 83.312)">
<stop offset="0.1763" stop-color="#90A2B0"/>
<stop offset="1" stop-color="#6F7F8C"/>
</radialGradient>
<radialGradient id="paint5_radial_525_680" cx="0" cy="0" r="1" gradientUnits="userSpaceOnUse" gradientTransform="translate(97.2839 47.2436) rotate(-0.13751) scale(83.3277 83.3278)">
<stop offset="0.1763" stop-color="#90A2B0"/>
<stop offset="1" stop-color="#6F7F8C"/>
</radialGradient>
<radialGradient id="paint6_radial_525_680" cx="0" cy="0" r="1" gradientUnits="userSpaceOnUse" gradientTransform="translate(190.003 86.0175) rotate(-0.13751) scale(17.8747 17.8747)">
<stop offset="0.1763" stop-color="#90A2B0"/>
<stop offset="1" stop-color="#4A5760"/>
</radialGradient>
<radialGradient id="paint7_radial_525_680" cx="0" cy="0" r="1" gradientUnits="userSpaceOnUse" gradientTransform="translate(10.912 53.1254) rotate(-0.13751) scale(48.8763)">
<stop offset="0.1763" stop-color="#90A2B0"/>
<stop offset="1" stop-color="#4A5760"/>
</radialGradient>
<radialGradient id="paint8_radial_525_680" cx="0" cy="0" r="1" gradientUnits="userSpaceOnUse" gradientTransform="translate(8.01812 55.2974) rotate(-0.13751) scale(52.632 52.6319)">
<stop offset="0.1217" stop-color="#EE918F"/>
<stop offset="0.8562" stop-color="#D16E70"/>
</radialGradient>
<radialGradient id="paint9_radial_525_680" cx="0" cy="0" r="1" gradientUnits="userSpaceOnUse" gradientTransform="translate(8.01944 55.2972) rotate(-0.13751) scale(52.6304 52.6304)">
<stop offset="0.1217" stop-color="#EE918F"/>
<stop offset="0.8562" stop-color="#D16E70"/>
</radialGradient>
<radialGradient id="paint10_radial_525_680" cx="0" cy="0" r="1" gradientUnits="userSpaceOnUse" gradientTransform="translate(25.1232 64.3388) rotate(-0.13751) scale(9.32883 9.32883)">
<stop offset="0.1763" stop-color="#90A2B0"/>
<stop offset="1" stop-color="#6F7F8C"/>
</radialGradient>
<radialGradient id="paint11_radial_525_680" cx="0" cy="0" r="1" gradientUnits="userSpaceOnUse" gradientTransform="translate(28.6182 69.8837) rotate(-0.13751) scale(17.1184 17.1184)">
<stop offset="0.1147" stop-color="white"/>
<stop offset="0.8821" stop-color="#D4BBAB"/>
</radialGradient>
<radialGradient id="paint12_radial_525_680" cx="0" cy="0" r="1" gradientUnits="userSpaceOnUse" gradientTransform="translate(159.145 121.018) rotate(-0.13751) scale(11.1423 11.1423)">
<stop offset="0.1147" stop-color="white"/>
<stop offset="0.8821" stop-color="#D4BBAB"/>
</radialGradient>
<radialGradient id="paint13_radial_525_680" cx="0" cy="0" r="1" gradientUnits="userSpaceOnUse" gradientTransform="translate(159.143 121.017) rotate(-0.13751) scale(11.1449 11.1449)">
<stop offset="0.1147" stop-color="white"/>
<stop offset="0.8821" stop-color="#D4BBAB"/>
</radialGradient>
<radialGradient id="paint14_radial_525_680" cx="0" cy="0" r="1" gradientUnits="userSpaceOnUse" gradientTransform="translate(159.146 121.017) rotate(-0.13751) scale(11.1414 11.1414)">
<stop offset="0.1147" stop-color="white"/>
<stop offset="0.8821" stop-color="#D4BBAB"/>
</radialGradient>
<radialGradient id="paint15_radial_525_680" cx="0" cy="0" r="1" gradientUnits="userSpaceOnUse" gradientTransform="translate(141.889 101.377) rotate(-0.13751) scale(89.6462 89.6462)">
<stop offset="0.1763" stop-color="#90A2B0"/>
<stop offset="1" stop-color="#6F7F8C"/>
</radialGradient>
<radialGradient id="paint16_radial_525_680" cx="0" cy="0" r="1" gradientUnits="userSpaceOnUse" gradientTransform="translate(141.889 101.377) rotate(-0.13751) scale(89.6462 89.6462)">
<stop offset="0.1763" stop-color="#90A2B0"/>
<stop offset="1" stop-color="#6F7F8C"/>
</radialGradient>
<radialGradient id="paint17_radial_525_680" cx="0" cy="0" r="1" gradientUnits="userSpaceOnUse" gradientTransform="translate(141.892 101.375) rotate(-0.13751) scale(89.6333 89.6334)">
<stop offset="0.1763" stop-color="#90A2B0"/>
<stop offset="1" stop-color="#6F7F8C"/>
</radialGradient>
<radialGradient id="paint18_radial_525_680" cx="0" cy="0" r="1" gradientUnits="userSpaceOnUse" gradientTransform="translate(20.4191 74.8298) rotate(-0.13751) scale(28.4639 28.4639)">
<stop offset="0.1217" stop-color="#EE918F"/>
<stop offset="0.8562" stop-color="#D16E70"/>
</radialGradient>
<radialGradient id="paint19_radial_525_680" cx="0" cy="0" r="1" gradientUnits="userSpaceOnUse" gradientTransform="translate(62.4701 23.6125) rotate(-0.13751) scale(104.127 104.127)">
<stop offset="0.1763" stop-color="#90A2B0"/>
<stop offset="1" stop-color="#6F7F8C"/>
</radialGradient>
<radialGradient id="paint20_radial_525_680" cx="0" cy="0" r="1" gradientUnits="userSpaceOnUse" gradientTransform="translate(75.8442 56.1267) rotate(-0.137509) scale(57.7259 57.7257)">
<stop offset="0.262" stop-color="#0BB6FF"/>
<stop offset="1" stop-color="#00496E"/>
</radialGradient>
<radialGradient id="paint21_radial_525_680" cx="0" cy="0" r="1" gradientUnits="userSpaceOnUse" gradientTransform="translate(69.5693 34.6774) rotate(-0.13751) scale(8.52173 8.52172)">
<stop offset="0.1763" stop-color="#90A2B0"/>
<stop offset="1" stop-color="#6F7F8C"/>
</radialGradient>
<radialGradient id="paint22_radial_525_680" cx="0" cy="0" r="1" gradientUnits="userSpaceOnUse" gradientTransform="translate(47.5411 40.9096) rotate(-0.137509) scale(6.14912 6.14912)">
<stop offset="0.1763" stop-color="#90A2B0"/>
<stop offset="1" stop-color="#6F7F8C"/>
</radialGradient>
<linearGradient id="paint23_linear_525_680" x1="63.5018" y1="36.0486" x2="74.7276" y2="31.7227" gradientUnits="userSpaceOnUse">
<stop stop-color="white"/>
<stop offset="0.783" stop-color="#EAEAEA"/>
<stop offset="1" stop-color="#E3E3E3"/>
</linearGradient>
<radialGradient id="paint24_radial_525_680" cx="0" cy="0" r="1" gradientUnits="userSpaceOnUse" gradientTransform="translate(67.9444 27.4896) rotate(-31.6902) scale(13.6337 11.3186)">
<stop offset="0.262" stop-color="#0BB6FF"/>
<stop offset="1" stop-color="#00496E"/>
</radialGradient>
<radialGradient id="paint25_radial_525_680" cx="0" cy="0" r="1" gradientUnits="userSpaceOnUse" gradientTransform="translate(71.1808 30.5292) rotate(-40.4831) scale(11.3781 8.82454)">
<stop offset="0.2679" stop-color="#225673"/>
<stop offset="0.4703" stop-color="#20526F"/>
<stop offset="0.6893" stop-color="#1A4862"/>
<stop offset="0.9152" stop-color="#11364C"/>
<stop offset="1" stop-color="#0C2E42"/>
</radialGradient>
<linearGradient id="paint26_linear_525_680" x1="73.6246" y1="29.8188" x2="69.3615" y2="33.6492" gradientUnits="userSpaceOnUse">
<stop stop-color="white"/>
<stop offset="0.783" stop-color="#EAEAEA"/>
<stop offset="1" stop-color="#E3E3E3"/>
</linearGradient>
<radialGradient id="paint27_radial_525_680" cx="0" cy="0" r="1" gradientUnits="userSpaceOnUse" gradientTransform="translate(75.8442 56.1228) rotate(-0.137509) scale(57.7259 57.7257)">
<stop offset="0.262" stop-color="#0BB6FF"/>
<stop offset="1" stop-color="#00496E"/>
</radialGradient>
<radialGradient id="paint28_radial_525_680" cx="0" cy="0" r="1" gradientUnits="userSpaceOnUse" gradientTransform="translate(133.03 43.8695) rotate(-0.13751) scale(69.6918 69.6918)">
<stop offset="0.1217" stop-color="#EE918F"/>
<stop offset="0.8562" stop-color="#D16E70"/>
</radialGradient>
<radialGradient id="paint29_radial_525_680" cx="0" cy="0" r="1" gradientUnits="userSpaceOnUse" gradientTransform="translate(133.029 43.8716) rotate(-0.13751) scale(69.6915 69.6915)">
<stop offset="0.1217" stop-color="#EE918F"/>
<stop offset="0.8562" stop-color="#D16E70"/>
</radialGradient>
<radialGradient id="paint30_radial_525_680" cx="0" cy="0" r="1" gradientUnits="userSpaceOnUse" gradientTransform="translate(63.7162 67.4242) rotate(-0.13751) scale(14.0237 14.0237)">
<stop offset="0.1147" stop-color="white"/>
<stop offset="0.8821" stop-color="#D4BBAB"/>
</radialGradient>
<radialGradient id="paint31_radial_525_680" cx="0" cy="0" r="1" gradientUnits="userSpaceOnUse" gradientTransform="translate(69.0449 60.0956) rotate(-0.137509) scale(3.76153 3.76151)">
<stop offset="0.1763" stop-color="#90A2B0"/>
<stop offset="1" stop-color="#6F7F8C"/>
</radialGradient>
<radialGradient id="paint32_radial_525_680" cx="0" cy="0" r="1" gradientUnits="userSpaceOnUse" gradientTransform="translate(76.614 16.6584) rotate(-0.13751) scale(5.81932 5.81932)">
<stop offset="0.1763" stop-color="#90A2B0"/>
<stop offset="1" stop-color="#6F7F8C"/>
</radialGradient>
<radialGradient id="paint33_radial_525_680" cx="0" cy="0" r="1" gradientUnits="userSpaceOnUse" gradientTransform="translate(97.3233 82.8941) rotate(-0.137509) scale(8.68206 8.68203)">
<stop offset="0.1763" stop-color="#90A2B0"/>
<stop offset="1" stop-color="#6F7F8C"/>
</radialGradient>
<radialGradient id="paint34_radial_525_680" cx="0" cy="0" r="1" gradientUnits="userSpaceOnUse" gradientTransform="translate(93.5029 76.2987) rotate(-0.13751) scale(2.1872 2.1872)">
<stop offset="0.1763" stop-color="#90A2B0"/>
<stop offset="1" stop-color="#6F7F8C"/>
</radialGradient>
<radialGradient id="paint35_radial_525_680" cx="0" cy="0" r="1" gradientUnits="userSpaceOnUse" gradientTransform="translate(81.834 83.0616) rotate(-0.13751) scale(4.99941 4.99942)">
<stop offset="0.1763" stop-color="#90A2B0"/>
<stop offset="1" stop-color="#6F7F8C"/>
</radialGradient>
<radialGradient id="paint36_radial_525_680" cx="0" cy="0" r="1" gradientUnits="userSpaceOnUse" gradientTransform="translate(120.356 78.3567) rotate(-0.13751) scale(12.4578 12.4578)">
<stop offset="0.1763" stop-color="#90A2B0"/>
<stop offset="1" stop-color="#6F7F8C"/>
</radialGradient>
<radialGradient id="paint37_radial_525_680" cx="0" cy="0" r="1" gradientUnits="userSpaceOnUse" gradientTransform="translate(122.655 67.578) rotate(-0.137509) scale(4.43245 4.43241)">
<stop offset="0.1763" stop-color="#90A2B0"/>
<stop offset="1" stop-color="#6F7F8C"/>
</radialGradient>
<radialGradient id="paint38_radial_525_680" cx="0" cy="0" r="1" gradientUnits="userSpaceOnUse" gradientTransform="translate(155.155 75.8902) rotate(-0.13751) scale(6.07071 6.07072)">
<stop offset="0.1763" stop-color="#90A2B0"/>
<stop offset="1" stop-color="#6F7F8C"/>
</radialGradient>
<radialGradient id="paint39_radial_525_680" cx="0" cy="0" r="1" gradientUnits="userSpaceOnUse" gradientTransform="translate(180.033 64.2588) rotate(-0.13751) scale(5.69421 5.69421)">
<stop offset="0.1763" stop-color="#90A2B0"/>
<stop offset="1" stop-color="#4A5760"/>
</radialGradient>
<radialGradient id="paint40_radial_525_680" cx="0" cy="0" r="1" gradientUnits="userSpaceOnUse" gradientTransform="translate(65.6781 129.884) rotate(-0.137509) scale(16.3835 16.3834)">
<stop offset="0.1147" stop-color="white"/>
<stop offset="0.8821" stop-color="#D4BBAB"/>
</radialGradient>
<radialGradient id="paint41_radial_525_680" cx="0" cy="0" r="1" gradientUnits="userSpaceOnUse" gradientTransform="translate(65.6787 129.881) rotate(-0.13751) scale(16.3875 16.3875)">
<stop offset="0.1147" stop-color="white"/>
<stop offset="0.8821" stop-color="#D4BBAB"/>
</radialGradient>
<radialGradient id="paint42_radial_525_680" cx="0" cy="0" r="1" gradientUnits="userSpaceOnUse" gradientTransform="translate(65.6788 129.881) rotate(-0.137509) scale(16.3854 16.3853)">
<stop offset="0.1147" stop-color="white"/>
<stop offset="0.8821" stop-color="#D4BBAB"/>
</radialGradient>
<radialGradient id="paint43_radial_525_680" cx="0" cy="0" r="1" gradientUnits="userSpaceOnUse" gradientTransform="translate(109.55 124.393) rotate(-0.13751) scale(23.684 23.6841)">
<stop offset="0.1147" stop-color="white"/>
<stop offset="0.8821" stop-color="#D4BBAB"/>
</radialGradient>
<radialGradient id="paint44_radial_525_680" cx="0" cy="0" r="1" gradientUnits="userSpaceOnUse" gradientTransform="translate(109.553 124.394) rotate(-0.137509) scale(23.6784 23.6784)">
<stop offset="0.1147" stop-color="white"/>
<stop offset="0.8821" stop-color="#D4BBAB"/>
</radialGradient>
<radialGradient id="paint45_radial_525_680" cx="0" cy="0" r="1" gradientUnits="userSpaceOnUse" gradientTransform="translate(109.554 124.394) rotate(-0.137509) scale(23.6783 23.6783)">
<stop offset="0.1147" stop-color="white"/>
<stop offset="0.8821" stop-color="#D4BBAB"/>
</radialGradient>
<radialGradient id="paint46_radial_525_680" cx="0" cy="0" r="1" gradientUnits="userSpaceOnUse" gradientTransform="translate(97.2792 47.316) rotate(-0.137509) scale(83.2401 83.24)">
<stop offset="0.1763" stop-color="#90A2B0"/>
<stop offset="1" stop-color="#6F7F8C"/>
</radialGradient>
<radialGradient id="paint47_radial_525_680" cx="0" cy="0" r="1" gradientUnits="userSpaceOnUse" gradientTransform="translate(97.2835 47.1648) rotate(-0.137509) scale(83.4212 83.421)">
<stop offset="0.1763" stop-color="#90A2B0"/>
<stop offset="1" stop-color="#6F7F8C"/>
</radialGradient>
<radialGradient id="paint48_radial_525_680" cx="0" cy="0" r="1" gradientUnits="userSpaceOnUse" gradientTransform="translate(97.2882 47.2841) rotate(-0.137509) scale(83.2825 83.2824)">
<stop offset="0.1763" stop-color="#90A2B0"/>
<stop offset="1" stop-color="#6F7F8C"/>
</radialGradient>
<radialGradient id="paint49_radial_525_680" cx="0" cy="0" r="1" gradientUnits="userSpaceOnUse" gradientTransform="translate(97.2881 47.2983) rotate(-0.13751) scale(83.2652 83.2655)">
<stop offset="0.1763" stop-color="#90A2B0"/>
<stop offset="1" stop-color="#6F7F8C"/>
</radialGradient>
<radialGradient id="paint50_radial_525_680" cx="0" cy="0" r="1" gradientUnits="userSpaceOnUse" gradientTransform="translate(97.2832 47.2841) rotate(-0.137509) scale(83.2857 83.2856)">
<stop offset="0.1763" stop-color="#90A2B0"/>
<stop offset="1" stop-color="#6F7F8C"/>
</radialGradient>
<radialGradient id="paint51_radial_525_680" cx="0" cy="0" r="1" gradientUnits="userSpaceOnUse" gradientTransform="translate(97.2851 47.3404) rotate(-0.137509) scale(83.2166 83.2165)">
<stop offset="0.1763" stop-color="#90A2B0"/>
<stop offset="1" stop-color="#6F7F8C"/>
</radialGradient>
<radialGradient id="paint52_radial_525_680" cx="0" cy="0" r="1" gradientUnits="userSpaceOnUse" gradientTransform="translate(97.2759 47.3043) rotate(-0.13751) scale(83.2724 83.2724)">
<stop offset="0.1763" stop-color="#90A2B0"/>
<stop offset="1" stop-color="#6F7F8C"/>
</radialGradient>
<radialGradient id="paint53_radial_525_680" cx="0" cy="0" r="1" gradientUnits="userSpaceOnUse" gradientTransform="translate(97.3033 47.2596) rotate(-0.13751) scale(83.2763 83.2768)">
<stop offset="0.1763" stop-color="#90A2B0"/>
<stop offset="1" stop-color="#6F7F8C"/>
</radialGradient>
<radialGradient id="paint54_radial_525_680" cx="0" cy="0" r="1" gradientUnits="userSpaceOnUse" gradientTransform="translate(30.0191 78.7237) rotate(-0.13751) scale(18.1358 18.1358)">
<stop offset="0.1217" stop-color="#EC807E"/>
<stop offset="0.8562" stop-color="#CA585B"/>
</radialGradient>
<radialGradient id="paint55_radial_525_680" cx="0" cy="0" r="1" gradientUnits="userSpaceOnUse" gradientTransform="translate(30.0145 78.7245) rotate(-0.137509) scale(18.1377 18.1376)">
<stop offset="0.1217" stop-color="#EC807E"/>
<stop offset="0.8562" stop-color="#CA585B"/>
</radialGradient>
<linearGradient id="paint56_linear_525_680" x1="43.4452" y1="42.8648" x2="51.8537" y2="40.0908" gradientUnits="userSpaceOnUse">
<stop stop-color="white"/>
<stop offset="0.783" stop-color="#EAEAEA"/>
<stop offset="1" stop-color="#E3E3E3"/>
</linearGradient>
<radialGradient id="paint57_radial_525_680" cx="0" cy="0" r="1" gradientUnits="userSpaceOnUse" gradientTransform="translate(45.7791 35.4448) rotate(-37.284) scale(12.1408 10.079)">
<stop offset="0.262" stop-color="#0BB6FF"/>
<stop offset="1" stop-color="#00496E"/>
</radialGradient>
<radialGradient id="paint58_radial_525_680" cx="0" cy="0" r="1" gradientUnits="userSpaceOnUse" gradientTransform="translate(48.9102 37.8554) rotate(-46.0812) scale(10.1328 7.85894)">
<stop offset="0.2679" stop-color="#225673"/>
<stop offset="0.4703" stop-color="#20526F"/>
<stop offset="0.6893" stop-color="#1A4862"/>
<stop offset="0.9152" stop-color="#11364C"/>
<stop offset="1" stop-color="#0C2E42"/>
</radialGradient>
<linearGradient id="paint59_linear_525_680" x1="51.0158" y1="37.0144" x2="47.5702" y2="40.7786" gradientUnits="userSpaceOnUse">
<stop stop-color="white"/>
<stop offset="0.783" stop-color="#EAEAEA"/>
<stop offset="1" stop-color="#E3E3E3"/>
</linearGradient>
<radialGradient id="paint60_radial_525_680" cx="0" cy="0" r="1" gradientUnits="userSpaceOnUse" gradientTransform="translate(14.7259 44.941) rotate(-0.13751) scale(79.9537 79.9536)">
<stop offset="0.1763" stop-color="#90A2B0"/>
<stop offset="1" stop-color="#6F7F8C"/>
</radialGradient>
<radialGradient id="paint61_radial_525_680" cx="0" cy="0" r="1" gradientUnits="userSpaceOnUse" gradientTransform="translate(14.7272 44.9393) rotate(-0.13751) scale(79.9519 79.952)">
<stop offset="0.1763" stop-color="#90A2B0"/>
<stop offset="1" stop-color="#6F7F8C"/>
</radialGradient>
<radialGradient id="paint62_radial_525_680" cx="0" cy="0" r="1" gradientUnits="userSpaceOnUse" gradientTransform="translate(14.7264 44.9401) rotate(-0.13751) scale(79.9543 79.9542)">
<stop offset="0.1763" stop-color="#90A2B0"/>
<stop offset="1" stop-color="#6F7F8C"/>
</radialGradient>
<radialGradient id="paint63_radial_525_680" cx="0" cy="0" r="1" gradientUnits="userSpaceOnUse" gradientTransform="translate(14.7201 44.9428) rotate(-0.13751) scale(79.9626 79.9627)">
<stop offset="0.1763" stop-color="#90A2B0"/>
<stop offset="1" stop-color="#6F7F8C"/>
</radialGradient>
<radialGradient id="paint64_radial_525_680" cx="0" cy="0" r="1" gradientUnits="userSpaceOnUse" gradientTransform="translate(14.7252 44.9391) rotate(-0.137509) scale(79.9574 79.9573)">
<stop offset="0.1763" stop-color="#90A2B0"/>
<stop offset="1" stop-color="#6F7F8C"/>
</radialGradient>
<radialGradient id="paint65_radial_525_680" cx="0" cy="0" r="1" gradientUnits="userSpaceOnUse" gradientTransform="translate(14.7207 44.9416) rotate(-0.13751) scale(79.958 79.9584)">
<stop offset="0.1763" stop-color="#90A2B0"/>
<stop offset="1" stop-color="#6F7F8C"/>
</radialGradient>
<radialGradient id="paint66_radial_525_680" cx="0" cy="0" r="1" gradientUnits="userSpaceOnUse" gradientTransform="translate(14.7182 44.9409) rotate(-0.13751) scale(79.962 79.962)">
<stop offset="0.1763" stop-color="#90A2B0"/>
<stop offset="1" stop-color="#6F7F8C"/>
</radialGradient>
<radialGradient id="paint67_radial_525_680" cx="0" cy="0" r="1" gradientUnits="userSpaceOnUse" gradientTransform="translate(14.7247 44.9477) rotate(-0.13751) scale(79.9505 79.9506)">
<stop offset="0.1763" stop-color="#90A2B0"/>
<stop offset="1" stop-color="#6F7F8C"/>
</radialGradient>
<radialGradient id="paint68_radial_525_680" cx="0" cy="0" r="1" gradientUnits="userSpaceOnUse" gradientTransform="translate(14.7312 44.9265) rotate(-0.137511) scale(79.9644 79.9651)">
<stop offset="0.1763" stop-color="#90A2B0"/>
<stop offset="1" stop-color="#6F7F8C"/>
</radialGradient>
<radialGradient id="paint69_radial_525_680" cx="0" cy="0" r="1" gradientUnits="userSpaceOnUse" gradientTransform="translate(14.7238 44.9735) rotate(-0.137509) scale(79.9213 79.921)">
<stop offset="0.1763" stop-color="#90A2B0"/>
<stop offset="1" stop-color="#6F7F8C"/>
</radialGradient>
<radialGradient id="paint70_radial_525_680" cx="0" cy="0" r="1" gradientUnits="userSpaceOnUse" gradientTransform="translate(14.6957 44.9596) rotate(-0.13751) scale(79.9525 79.953)">
<stop offset="0.1763" stop-color="#90A2B0"/>
<stop offset="1" stop-color="#6F7F8C"/>
</radialGradient>
<radialGradient id="paint71_radial_525_680" cx="0" cy="0" r="1" gradientUnits="userSpaceOnUse" gradientTransform="translate(14.7336 44.9382) rotate(-0.13751) scale(79.9531 79.953)">
<stop offset="0.1763" stop-color="#90A2B0"/>
<stop offset="1" stop-color="#6F7F8C"/>
</radialGradient>
<radialGradient id="paint72_radial_525_680" cx="0" cy="0" r="1" gradientUnits="userSpaceOnUse" gradientTransform="translate(14.7258 44.9668) rotate(-0.137509) scale(79.922 79.9214)">
<stop offset="0.1763" stop-color="#90A2B0"/>
<stop offset="1" stop-color="#6F7F8C"/>
</radialGradient>
<radialGradient id="paint73_radial_525_680" cx="0" cy="0" r="1" gradientUnits="userSpaceOnUse" gradientTransform="translate(14.7174 44.9386) rotate(-0.13751) scale(79.9588 79.9588)">
<stop offset="0.1763" stop-color="#90A2B0"/>
<stop offset="1" stop-color="#6F7F8C"/>
</radialGradient>
<radialGradient id="paint74_radial_525_680" cx="0" cy="0" r="1" gradientUnits="userSpaceOnUse" gradientTransform="translate(14.7247 45.0111) rotate(-0.13751) scale(79.8615 79.8617)">
<stop offset="0.1763" stop-color="#90A2B0"/>
<stop offset="1" stop-color="#6F7F8C"/>
</radialGradient>
<radialGradient id="paint75_radial_525_680" cx="0" cy="0" r="1" gradientUnits="userSpaceOnUse" gradientTransform="translate(93.7447 63.4948) rotate(-0.13751) scale(118.543 118.543)">
<stop offset="0.1763" stop-color="#90A2B0"/>
<stop offset="1" stop-color="#6F7F8C"/>
</radialGradient>
<radialGradient id="paint76_radial_525_680" cx="0" cy="0" r="1" gradientUnits="userSpaceOnUse" gradientTransform="translate(46.7943 73.1955) rotate(-0.13751) scale(14.3973 14.3973)">
<stop offset="0.1763" stop-color="#90A2B0"/>
<stop offset="1" stop-color="#6F7F8C"/>
</radialGradient>
<radialGradient id="paint77_radial_525_680" cx="0" cy="0" r="1" gradientUnits="userSpaceOnUse" gradientTransform="translate(46.2349 98.6284) rotate(-0.137509) scale(4.25272 4.25271)">
<stop offset="0.1763" stop-color="#90A2B0"/>
<stop offset="1" stop-color="#6F7F8C"/>
</radialGradient>
<radialGradient id="paint78_radial_525_680" cx="0" cy="0" r="1" gradientUnits="userSpaceOnUse" gradientTransform="translate(38.9866 41.027) rotate(-0.13751) scale(7.39272 7.39272)">
<stop offset="0.1763" stop-color="#90A2B0"/>
<stop offset="1" stop-color="#6F7F8C"/>
</radialGradient>
<radialGradient id="paint79_radial_525_680" cx="0" cy="0" r="1" gradientUnits="userSpaceOnUse" gradientTransform="translate(103.089 84.4918) rotate(-0.13751) scale(12.2523 12.2523)">
<stop offset="0.1763" stop-color="#90A2B0"/>
<stop offset="1" stop-color="#6F7F8C"/>
</radialGradient>
<radialGradient id="paint80_radial_525_680" cx="0" cy="0" r="1" gradientUnits="userSpaceOnUse" gradientTransform="translate(101.39 121.8) rotate(-0.13751) scale(4.6318 4.63181)">
<stop offset="0.1763" stop-color="#90A2B0"/>
<stop offset="1" stop-color="#6F7F8C"/>
</radialGradient>
<radialGradient id="paint81_radial_525_680" cx="0" cy="0" r="1" gradientUnits="userSpaceOnUse" gradientTransform="translate(112.777 99.8794) rotate(-0.13751) scale(1.3829 1.38291)">
<stop offset="0.1763" stop-color="#90A2B0"/>
<stop offset="1" stop-color="#6F7F8C"/>
</radialGradient>
<radialGradient id="paint82_radial_525_680" cx="0" cy="0" r="1" gradientUnits="userSpaceOnUse" gradientTransform="translate(134.437 77.3216) rotate(-0.13751) scale(9.18222 9.18223)">
<stop offset="0.1763" stop-color="#90A2B0"/>
<stop offset="1" stop-color="#6F7F8C"/>
</radialGradient>
</defs>
</svg>
