<svg width="84" height="122" viewBox="0 0 84 122" fill="none" xmlns="http://www.w3.org/2000/svg">
<path d="M27.0047 30.3532C27.0047 30.3532 25.1557 24.5802 12.6497 25.2632C12.4217 30.1292 13.9437 35.0502 18.8177 35.1122C21.9437 35.1612 24.2717 34.5392 24.2717 34.5392C24.2717 34.5392 25.1207 32.0002 27.0047 30.3532Z" fill="url(#paint0_radial_525_381)"/>
<path d="M13.5706 26.4414C13.5706 26.4414 17.7996 26.9254 20.7176 27.9224C23.6356 28.9184 24.4466 30.3534 24.5406 31.1644C23.8306 30.4294 21.9146 30.4074 21.9146 30.4074C21.9146 30.4074 23.2616 31.1764 23.5086 31.7464C22.6246 31.6134 21.8826 31.4624 21.8826 31.4624C21.8826 31.4624 22.8856 31.9334 23.2136 32.5364C22.4226 32.2424 21.9406 32.4384 21.9406 32.4384C21.9406 32.4384 23.2956 33.0684 23.3096 33.8204C23.3236 34.5714 19.2166 35.4284 15.9186 33.2454C13.5616 31.4034 13.5706 26.4414 13.5706 26.4414Z" fill="url(#paint1_radial_525_381)"/>
<path d="M41.4676 27.7989C41.4676 27.7989 41.8856 26.1069 42.2096 25.2889C42.5326 24.4729 43.0576 24.2239 45.2176 23.6929C47.3816 23.1639 47.2286 22.5979 47.0356 21.8449C46.8466 21.0929 44.1816 21.5019 42.8016 22.1199C44.3146 18.2639 48.2826 15.2819 50.6096 17.6389C52.9116 19.6199 55.2756 21.3269 59.0486 20.1459C60.3266 19.6089 60.6166 19.2069 60.5636 18.5799C60.5076 17.9519 59.9636 18.1289 59.2056 18.3859C58.4466 18.6409 56.0106 19.1019 53.9286 17.4679C52.0176 15.9629 51.6456 15.1389 51.6456 15.1389C51.6456 15.1389 55.2246 13.9409 59.2136 14.2039C63.2016 14.4669 67.2946 15.1099 69.1056 11.7909C71.1886 12.5729 72.2066 11.5039 72.7536 9.90786C73.3036 8.27086 72.4676 7.51587 71.8176 7.22987C71.1666 6.94387 70.9686 7.44086 70.7716 8.04686C70.3716 9.27586 70.0526 9.71786 69.5006 9.89586C70.2496 6.93486 70.4226 4.56686 69.1636 3.95586C67.8576 3.42486 67.6346 4.45487 67.5746 6.28687C67.5156 8.11787 67.1956 11.6439 62.5296 11.5539C58.3516 11.6979 57.5516 11.8209 57.5516 11.8209C57.5516 11.8209 58.7996 9.04987 58.2776 7.77387C57.9106 6.87787 56.9316 7.19986 56.7126 8.14586C56.4946 9.09186 56.2976 11.9169 53.0456 12.6559C49.9586 13.4429 48.9606 14.1389 48.6446 13.8289C48.3276 13.5179 48.2506 11.8889 49.2266 10.8579C49.9326 10.1469 50.2636 9.58786 49.3106 9.31986C48.2026 9.00786 46.9326 10.1059 45.8816 11.7569C44.8316 13.4079 45.4846 15.1529 45.4846 15.1529C45.4846 15.1529 39.5086 16.9229 39.8246 27.2799C39.8226 27.2799 40.5316 27.7289 41.4676 27.7989Z" fill="url(#paint2_radial_525_381)"/>
<g opacity="0.5">
<path d="M47.0226 21.8203C46.9126 21.9183 46.7936 22.0073 46.6586 22.0873C45.6766 22.6773 44.4126 22.5703 43.3846 23.0743C42.4976 23.5073 42.0716 24.1453 41.5376 24.9313C41.3756 25.1703 41.0546 25.6193 40.7086 25.5823C40.3816 25.5463 40.0826 25.2853 39.8656 24.9753C39.8166 25.6953 39.7986 26.4573 39.8236 27.2813C39.8236 27.2813 40.5326 27.7293 41.4686 27.8003C41.4686 27.8003 41.8866 26.1083 42.2106 25.2903C42.5336 24.4743 43.0586 24.2253 45.2186 23.6943C47.3826 23.1653 47.2296 22.5993 47.0366 21.8463C47.0346 21.8383 47.0276 21.8303 47.0226 21.8203Z" fill="url(#paint3_radial_525_381)"/>
<path d="M60.5366 18.44C59.5416 18.831 58.5166 19.11 57.4426 19.134C56.1416 19.164 54.7116 19.014 53.6006 18.271C52.6056 17.606 51.8606 16.646 50.8806 15.969C49.8486 15.257 48.7536 15.024 47.5736 15.542C46.4156 16.052 45.4356 16.923 44.6396 17.896C43.8786 18.826 43.1946 19.859 42.7586 20.984C42.6476 21.27 42.5426 21.56 42.4746 21.86C42.3716 22.324 42.7376 21.901 42.9716 21.715C44.5926 18.06 48.3626 15.366 50.6076 17.639C52.9096 19.62 55.2736 21.327 59.0466 20.146C60.3246 19.609 60.6146 19.207 60.5616 18.58C60.5596 18.528 60.5486 18.482 60.5366 18.44Z" fill="url(#paint4_radial_525_381)"/>
<path d="M72.6866 7.98047C72.6176 8.25547 72.5357 8.52646 72.4337 8.79546C71.9707 10.0315 70.1597 12.2365 69.0707 10.4695C66.0577 16.9065 56.9797 11.7585 51.8427 14.3935C51.9927 14.5925 52.1617 14.7705 52.3427 14.9375C53.5727 14.6085 56.2817 14.0125 59.2137 14.2055C63.2017 14.4685 67.2947 15.1115 69.1057 11.7925C71.1887 12.5745 72.2067 11.5055 72.7537 9.90946C73.0457 9.03446 72.9426 8.41547 72.6866 7.98047Z" fill="url(#paint5_radial_525_381)"/>
</g>
<path d="M29.4107 27.6938C29.4107 27.6938 29.0947 26.2438 28.8397 24.8388C28.5837 23.4348 28.2687 23.0838 26.1907 22.4688C24.1117 21.8538 23.8087 21.2808 24.2447 20.4708C24.6787 19.6608 26.6737 19.7718 28.4877 21.1518C27.2107 18.0788 24.8347 14.8318 23.0967 15.0698C21.3617 15.3078 17.6537 18.9938 14.2697 17.8618C10.8847 16.7298 11.1287 16.3538 11.3347 15.6418C11.5407 14.9298 12.2337 15.4688 13.1597 15.7978C14.0877 16.1278 17.6127 16.7118 20.3607 13.2508C17.0417 11.9548 14.0577 11.6228 9.62667 11.3218C6.36267 11.0298 4.42967 9.81078 3.52967 7.98078C1.59867 8.70978 0.516674 7.01979 0.104674 5.56779C-0.360326 3.92979 0.845674 3.21779 1.46767 3.02879C2.08967 2.84079 2.00067 3.44778 2.27867 4.46378C2.55567 5.48078 3.36067 6.02579 3.36067 6.02579C3.36067 6.02579 2.68367 3.15278 3.34467 1.24478C4.00767 -0.666218 6.09867 -0.271213 5.71067 1.70879C5.32167 3.68779 5.41867 6.97379 7.86667 7.94279C10.3147 8.91179 15.0267 9.17278 15.0267 9.17278C15.0267 9.17278 14.4407 7.69478 14.6287 6.31478C14.8157 4.93578 15.0607 4.50479 15.9887 4.83279C16.5837 5.14479 15.7087 8.97279 18.3677 10.0808C21.1397 11.2338 22.4967 11.8108 23.1437 12.1798C23.7897 12.5498 24.8697 11.1078 22.9707 8.27779C22.6067 7.81379 24.5547 6.75479 25.9257 9.10979C27.2957 11.4648 27.2207 12.8508 26.6667 13.8198C29.0147 15.5628 31.8407 18.2768 30.9507 26.8168L29.4107 27.6938Z" fill="url(#paint6_radial_525_381)"/>
<path opacity="0.5" d="M19.5036 12.7403C18.3426 12.0883 17.1296 11.4503 15.7816 11.2913C14.1376 11.0953 12.4726 11.2503 10.8266 11.0693C9.27461 10.8993 7.63761 10.5453 6.42461 9.49431C5.91761 9.05531 5.43661 8.54731 4.87761 8.16831C4.35461 7.81231 3.80061 7.69731 3.20061 7.53031C1.95861 7.18431 0.991613 6.47331 0.651613 5.19331C0.509613 4.67231 0.504614 4.11931 0.550614 3.57031C0.132614 3.97431 -0.168387 4.61331 0.104613 5.56931C0.516613 7.02131 1.59861 8.71032 3.52961 7.98232C4.42861 9.81232 6.36261 11.0313 9.62661 11.3233C13.9706 11.6183 16.9236 11.9443 20.1636 13.1773C20.1396 12.9663 19.6006 12.7953 19.5036 12.7403Z" fill="url(#paint7_radial_525_381)"/>
<path opacity="0.5" d="M28.2126 20.524C28.2656 20.585 28.3176 20.644 28.3706 20.706C28.3926 20.601 28.4176 20.487 28.4216 20.332C28.4376 19.813 28.3296 19.298 28.1506 18.812C27.8076 17.868 27.3196 16.95 26.6816 16.167C25.9546 15.271 24.9146 14.585 23.7226 14.531C22.3406 14.47 21.0526 15.189 19.9076 15.891C17.6126 17.294 13.5136 17.816 11.2446 15.968C11.1456 16.495 11.4406 16.913 14.2686 17.86C17.6526 18.992 21.3606 15.306 23.0956 15.068C24.7166 14.849 26.8916 17.653 28.2126 20.524Z" fill="url(#paint8_radial_525_381)"/>
<path opacity="0.5" d="M30.7287 19.8984C30.8137 21.1824 30.8177 22.4854 30.6867 23.7614C30.6317 24.2834 30.4797 25.1504 29.7787 25.0514C29.1277 24.9574 29.1757 23.2244 28.6057 22.8124C27.8767 22.2844 26.9757 22.0244 26.1487 21.6944C25.5707 21.4634 24.5257 21.1454 24.2277 20.5024C23.8207 21.2964 24.1397 21.8614 26.1907 22.4694C28.2687 23.0844 28.5837 23.4354 28.8397 24.8394C29.0947 26.2434 29.4107 27.6944 29.4107 27.6944L30.9537 26.8194C31.2567 23.8944 31.1267 21.6514 30.7287 19.8984Z" fill="url(#paint9_radial_525_381)"/>
<path d="M56.3886 105.313C56.3886 105.313 54.0036 107.796 53.5256 109.77C53.2646 110.586 54.9246 110.617 55.3956 110.459C55.2986 111.099 55.5716 111.176 57.0196 111.133C58.4686 111.091 60.4056 110.028 60.4796 106.462C58.0916 105.099 56.3886 105.313 56.3886 105.313Z" fill="url(#paint10_radial_525_381)"/>
<path d="M55.3956 110.461C55.3956 110.461 55.4026 110.227 55.4956 109.895C55.5356 109.727 55.6086 109.54 55.6836 109.338C55.7756 109.143 55.8686 108.933 55.9906 108.738C56.0536 108.642 56.1176 108.544 56.1786 108.45C56.2376 108.351 56.3116 108.268 56.3826 108.187C56.4506 108.104 56.5256 108.028 56.5916 107.955C56.6556 107.881 56.7206 107.813 56.7926 107.764C57.0636 107.544 57.2586 107.426 57.2586 107.426C57.2586 107.426 57.1386 107.628 56.9336 107.892C56.8296 108.021 56.7406 108.195 56.6186 108.361C56.4966 108.527 56.3956 108.724 56.2776 108.91C56.1566 109.094 56.0606 109.293 55.9476 109.467C55.8556 109.653 55.7506 109.818 55.6746 109.967C55.5056 110.262 55.3956 110.461 55.3956 110.461Z" fill="url(#paint11_radial_525_381)"/>
<path d="M66.7346 77.8086C66.7346 77.8086 64.3506 84.1756 64.9476 86.8106C65.4916 89.2066 65.5626 89.4646 64.8016 90.2246C64.0406 90.9856 63.3816 92.2176 63.4406 94.9666C63.5006 97.7166 63.9766 105.139 60.3046 107.344C60.3046 107.344 58.0856 107.729 57.5036 106.047C56.7396 106.85 56.7276 107.103 56.7276 107.103C56.7276 107.103 56.3026 106.362 56.6836 105.582C55.7216 106.162 55.4036 106.565 55.4036 106.565C55.4036 106.565 55.6606 104.974 56.7996 103.515C57.9356 102.058 58.8256 100.333 59.0886 97.0946C59.3506 93.8566 61.7596 78.9786 61.7596 78.9786L66.7346 77.8086Z" fill="url(#paint12_radial_525_381)"/>
<path opacity="0.5" d="M62.7056 94.2866C62.4566 92.7976 62.4816 91.3456 62.7166 89.8566C62.9526 88.3556 63.2456 86.8616 63.5266 85.3676C63.6896 84.5026 63.8606 83.6206 64.1926 82.7996C64.5716 81.8566 65.1416 81.1116 65.8506 80.4946C66.3026 78.9656 66.7346 77.8086 66.7346 77.8086L61.7576 78.9786C61.7576 78.9786 59.3486 93.8566 59.0866 97.0946C58.8236 100.333 57.9336 102.058 56.7976 103.515C55.6586 104.974 55.4016 106.565 55.4016 106.565C55.4016 106.565 55.7196 106.162 56.6816 105.582C56.3006 106.362 56.7256 107.103 56.7256 107.103C56.7256 107.103 56.7386 106.85 57.5016 106.047C58.0836 107.729 60.3026 107.344 60.3026 107.344C63.2476 105.574 63.5246 100.452 63.4876 97.0736C63.0186 96.2476 62.8586 95.1996 62.7056 94.2866Z" fill="url(#paint13_radial_525_381)"/>
<path d="M77.5797 108.516C77.5797 108.516 75.4667 110.539 75.6137 113.411C75.6957 113.943 78.1787 113.748 78.1787 113.748C78.1787 113.748 78.2707 114.912 80.8437 113.839C83.4327 112.759 83.7517 112.499 83.7217 112.079C83.6877 111.662 83.1987 109.466 82.7667 108.72C82.3357 107.972 80.0427 106.232 77.5797 108.516Z" fill="url(#paint14_radial_525_381)"/>
<path d="M59.6486 114.662C59.6486 114.662 57.3146 117.567 57.5836 120.752C58.6976 121.202 60.6796 120.589 60.6796 120.589C60.6796 120.589 60.7856 121.15 61.6536 121.061C62.5206 120.969 65.5706 120.845 66.7736 117.202C66.3456 114.889 65.1426 114.021 65.1426 114.021C65.1426 114.021 61.6266 111.917 59.6486 114.662Z" fill="url(#paint15_radial_525_381)"/>
<path d="M32.3867 112.909C32.3867 112.909 29.2427 115.46 29.1077 117.426C29.1057 117.954 30.7357 118.156 30.7357 118.156C30.7357 118.156 30.4667 118.948 31.7167 118.988C32.9657 119.03 37.8687 118.814 38.0757 117.367C38.2807 115.919 37.0347 113.556 37.0347 113.556C37.0347 113.556 34.6077 111.727 32.3867 112.909Z" fill="url(#paint16_radial_525_381)"/>
<path d="M72.4306 52.2908C72.4306 52.2908 72.2116 50.1918 72.6606 49.4738C72.8096 50.1518 73.1306 50.4308 73.1306 50.4308C73.1306 50.4308 72.9866 48.2998 75.8076 48.4928C78.6266 48.6858 79.4656 49.6628 79.4656 49.6628C79.4656 49.6628 78.1106 49.9238 77.3796 50.3298C78.4056 49.9758 79.3946 50.2918 79.3946 50.2918C79.3946 50.2918 78.7036 52.6748 76.7816 53.0898C77.1336 53.4828 77.6256 53.3228 77.6256 53.3228C77.6256 53.3228 76.7616 54.1308 75.0286 53.8108C73.2946 53.4918 72.4306 52.2908 72.4306 52.2908Z" fill="url(#paint17_radial_525_381)"/>
<path opacity="0.5" d="M76.3276 53.296C75.7686 52.994 75.2786 52.644 75.5176 52.095C75.0966 52.135 74.7216 52.207 74.2996 52.1C74.2396 52.085 74.3096 51.942 74.3236 51.919C74.4286 51.743 74.5286 51.565 74.6296 51.388C74.2806 51.397 73.9906 51.497 73.6796 51.675C73.6236 51.705 73.5836 51.691 73.5916 51.62C73.6286 51.264 73.7336 50.999 73.8926 50.715C73.5666 50.839 73.3226 51.055 73.0966 51.338C73.0756 51.364 73.0146 51.435 72.9726 51.406C72.6466 51.181 72.4756 50.859 72.4056 50.5C72.3346 51.341 72.4306 52.291 72.4306 52.291C72.4306 52.291 73.2946 53.492 75.0286 53.812C76.0976 54.009 76.8356 53.776 77.2446 53.57C76.9436 53.547 76.6396 53.464 76.3276 53.296Z" fill="url(#paint18_radial_525_381)"/>
<path d="M37.7117 71.3516L37.6727 71.4326C36.9817 73.5426 36.7197 76.7016 36.7607 83.0996C36.8047 89.8576 35.4137 93.8956 34.8227 95.0296C34.2327 96.1636 34.3697 96.6716 34.6017 97.4916C34.8357 98.3106 34.5407 98.5986 33.7857 101.226C32.5787 104.941 32.1647 109.376 32.2067 110.658C32.2487 111.94 32.3997 112.625 31.6437 113.374C32.2417 113.444 33.1727 112.931 33.1727 112.931C33.1727 112.931 33.1587 113.195 32.6887 113.544C33.2537 113.501 34.2107 113.214 34.2107 113.214C34.2107 113.214 34.4527 114.282 34.5727 114.139C34.6937 113.995 35.1537 113.155 35.1537 113.155C35.1537 113.155 36.6047 114.138 37.6617 114.085C36.7307 112.527 36.9747 109.492 37.5647 107.646C38.1577 105.797 38.2677 103.809 38.1337 102.146C38.0007 100.482 38.2117 98.6886 38.5967 97.8816C39.2557 96.8266 39.3227 96.9816 39.3457 95.8536C39.3707 94.7276 39.6137 93.7615 41.3297 89.9445C43.9567 83.9565 44.1497 80.8076 44.1497 80.8076C36.1757 75.5876 37.5117 71.8086 37.7117 71.3516Z" fill="url(#paint19_radial_525_381)"/>
<path opacity="0.5" d="M44.1506 80.8034C36.9276 76.0774 37.3416 72.5314 37.6336 71.5664C37.4166 72.2574 37.2436 73.0614 37.1116 74.0494C37.5626 75.5104 38.4336 76.7394 39.4026 77.9914C40.6656 79.6264 41.6776 81.2824 41.6616 83.4194C41.6446 85.5484 40.9106 87.5624 40.2306 89.5544C39.5466 91.5664 38.7996 93.5494 38.3426 95.6264C38.1376 96.5624 37.8986 98.0904 37.0366 98.6934C36.1046 99.3464 35.2056 98.3624 34.7876 97.5814C34.6716 97.3644 34.5586 97.1304 34.4506 96.8884C34.4856 97.0784 34.5406 97.2724 34.6006 97.4894C34.8346 98.3084 34.5396 98.5964 33.7846 101.223C33.6286 101.702 33.4866 102.193 33.3556 102.688C33.7876 102.04 34.5076 100.988 35.3436 101.002C36.6426 101.023 36.8726 103.341 36.9156 104.227C37.0396 106.819 36.2296 109.352 36.4386 111.945C36.4446 112.011 36.3426 112.244 36.2466 112.191C35.7366 111.919 35.3736 111.548 35.0396 111.093C34.8646 111.414 34.6286 111.639 34.3996 111.976C34.3816 112.003 34.2376 112.164 34.2306 112.042C34.2146 111.747 34.1046 111.478 34.0786 111.19C34.0746 111.138 33.5636 111.448 33.5196 111.467C33.1196 111.655 32.6896 111.801 32.2446 111.838C32.2366 112.438 32.1236 112.891 31.6406 113.369C32.2386 113.439 33.1696 112.926 33.1696 112.926C33.1696 112.926 33.1556 113.19 32.6856 113.539C33.2506 113.496 34.2076 113.209 34.2076 113.209C34.2076 113.209 34.4496 114.277 34.5696 114.134C34.6906 113.99 35.1506 113.15 35.1506 113.15C35.1506 113.15 36.6016 114.133 37.6586 114.08C36.7276 112.522 36.9716 109.487 37.5616 107.641C38.1546 105.792 38.2646 103.804 38.1306 102.141C37.9976 100.477 38.2086 98.6844 38.5936 97.8774C39.2526 96.8224 39.3196 96.9774 39.3426 95.8494C39.3676 94.7234 39.6106 93.7574 41.3266 89.9404C43.9566 83.9514 44.1506 80.8034 44.1506 80.8034Z" fill="url(#paint20_radial_525_381)"/>
<path d="M37.8627 71.4225L37.5607 71.2815L37.5857 71.2305L37.8847 71.3745L37.8627 71.4225Z" fill="url(#paint21_radial_525_381)"/>
<path d="M82.4476 100.68C81.8356 97.4372 80.4236 93.0082 80.5636 92.0072C80.7046 91.0042 81.3426 90.1142 80.9286 88.9412C80.5166 87.7682 80.0416 88.2472 79.4676 85.9632C77.6646 79.3592 78.6536 76.5782 80.4866 72.0662C81.9226 68.5322 82.5636 64.6752 80.4266 60.1092C78.2876 55.5422 73.5976 51.9052 71.1376 51.1432C68.6776 50.3812 65.7006 52.1762 62.8226 54.4372C59.9456 56.6952 56.9736 56.1562 53.4356 53.7912C48.1126 49.7852 46.6816 39.4492 46.6816 39.4492L44.5736 41.5912C46.0116 53.8262 49.3396 55.9122 52.7436 58.0212C57.0566 60.4282 57.4326 62.6722 57.4326 62.6722C57.4326 62.6722 57.2296 62.3282 55.5176 62.1212C58.1176 63.3782 58.9126 67.0922 58.9126 67.0922C58.9126 67.0922 58.6206 66.3522 57.2576 65.8882C61.2476 69.1112 60.1946 73.0552 58.4286 75.8482C56.6616 78.6422 53.2866 81.3462 53.2866 81.3462C54.6476 85.8692 57.3876 94.6382 56.9416 95.6702C56.4946 96.7002 56.3396 98.5272 57.4976 99.7032C58.1026 101.795 58.2386 108.641 58.4266 111.278C58.6146 113.916 59.0526 115.774 59.0526 115.774L60.5876 114.225L60.2746 115.65C60.2746 115.65 61.3646 115.5 61.7556 114.587C62.1806 115.332 63.1306 115.405 63.1306 115.405L63.1346 114.557C63.1346 114.557 64.3466 115.065 65.8746 114.566C64.1236 111.55 62.7296 102.901 62.0026 98.8482C62.3986 97.8492 61.9946 96.5352 61.7826 92.9862C61.5596 85.9702 63.6136 79.5542 63.6136 79.5542C66.5826 78.7662 70.9056 76.3992 70.9056 76.3992C70.9056 76.3992 73.0356 83.1052 73.9346 84.9342C74.8356 86.7622 76.0196 87.4952 75.7196 89.8702C75.3476 91.5732 76.0836 92.3372 76.0836 92.3372C76.0836 92.3372 77.1036 94.0052 77.3736 96.1332C77.5806 99.4252 77.5216 105.245 76.5076 109.276C77.5126 109.208 78.3826 108.546 78.3826 108.546L77.8256 109.558C77.8256 109.558 78.8696 109.533 80.0136 108.47C80.3186 108.988 81.0826 109.488 81.0826 109.488L81.0936 108.528C81.0936 108.528 82.1306 109.379 83.2136 109.397C83.5326 106.703 83.0616 103.925 82.4476 100.68Z" fill="url(#paint22_radial_525_381)"/>
<path d="M58.4286 75.8468C60.1956 73.0538 61.2476 69.1098 57.2576 65.8868C58.6206 66.3508 58.9126 67.0908 58.9126 67.0908C58.9126 67.0908 58.1176 63.3768 55.5176 62.1198C57.2296 62.3268 57.4326 62.6708 57.4326 62.6708C57.4326 62.6708 57.0566 60.4268 52.7436 58.0198C49.3396 55.9118 46.0116 53.8258 44.5736 41.5898L37.7576 48.5168C37.7576 48.5168 38.2756 51.2138 39.1966 54.6578C40.1176 58.0998 40.1906 59.8138 38.0566 63.4668C35.9206 67.1168 36.6586 68.6798 36.6586 68.6798C36.6586 68.6798 36.7396 68.3348 37.7056 66.9318C36.2956 69.5458 36.8426 72.2048 36.8426 72.2048C36.8426 72.2048 37.0356 72.1848 37.7926 71.0858C37.7516 71.1988 37.7116 71.3148 37.6716 71.4328L37.7106 71.3518C37.7256 71.3198 37.7316 71.3048 37.7316 71.3048L37.7106 71.3518C37.5106 71.8088 36.1746 75.5878 44.1486 80.8058C48.6626 83.4728 50.9846 82.7208 53.2856 81.3458C53.2866 81.3448 56.6616 78.6408 58.4286 75.8468Z" fill="url(#paint23_radial_525_381)"/>
<path d="M58.8606 57.8313C58.8606 57.8313 60.7346 57.5933 61.3846 58.1983C62.0356 58.8043 59.9786 59.6013 58.6496 59.2623C57.3186 58.9233 57.7836 58.0763 58.8606 57.8313Z" fill="url(#paint24_radial_525_381)"/>
<path d="M52.4666 55.4885C52.4666 55.4885 53.8986 55.6305 53.9586 56.0295C54.0196 56.4285 52.8546 56.4075 52.2016 56.0995C51.5536 55.7925 51.9036 55.4785 52.4666 55.4885Z" fill="url(#paint25_radial_525_381)"/>
<path d="M64.9667 56.0117C64.9667 56.0117 63.9067 56.3487 64.1307 56.8207C64.3557 57.2917 65.2597 56.8307 65.5597 56.3977C65.8087 56.0397 65.4217 55.8307 64.9667 56.0117Z" fill="url(#paint26_radial_525_381)"/>
<path d="M64.2226 60.3671C64.2226 60.3671 62.8616 60.9501 62.8336 61.4041C62.8096 61.8571 63.8916 62.2691 64.8976 61.7231C65.9066 61.1771 66.0696 59.6621 64.2226 60.3671Z" fill="url(#paint27_radial_525_381)"/>
<path d="M68.8006 56.4333C68.8006 56.4333 67.6306 56.8683 67.4276 57.5043C67.2276 58.1393 68.4906 58.2933 69.4626 57.6583C70.4366 57.0243 70.2486 55.9083 68.8006 56.4333Z" fill="url(#paint28_radial_525_381)"/>
<path d="M65.6197 65.4597C65.6197 65.4597 64.3817 66.2527 64.4127 66.6707C64.4437 67.0907 65.6737 66.9637 66.3037 66.1917C66.9297 65.4207 66.5657 64.9567 65.6197 65.4597Z" fill="url(#paint29_radial_525_381)"/>
<path d="M70.4547 60.7312C70.4547 60.7312 69.6657 61.1672 69.4537 61.7942C69.2437 62.4222 69.9187 62.7282 70.5317 61.8712C71.2047 60.9332 71.0337 60.5162 70.4547 60.7312Z" fill="url(#paint30_radial_525_381)"/>
<path d="M74.4697 56.4976C74.4697 56.4976 73.5667 57.3656 73.7227 58.3126C73.8787 59.2596 75.0797 58.2626 75.2477 57.4796C75.4157 56.6966 75.2157 55.7896 74.4697 56.4976Z" fill="url(#paint31_radial_525_381)"/>
<path d="M72.6837 62.7625C72.6837 62.7625 73.0997 62.4125 73.7727 62.5395C74.4457 62.6665 74.4257 63.2425 73.5417 63.2325C72.6577 63.2215 72.4707 62.9035 72.6837 62.7625Z" fill="url(#paint32_radial_525_381)"/>
<path d="M73.1446 54.1027C73.1736 54.2047 73.0476 54.3317 72.8626 54.3847C72.6766 54.4377 72.5026 54.3967 72.4716 54.2937C72.4426 54.1897 72.5706 54.0647 72.7556 54.0117C72.9396 53.9587 73.1136 53.9987 73.1446 54.1027Z" fill="url(#paint33_radial_525_381)"/>
<path d="M60.9576 64.3125C60.9576 64.3125 61.1006 64.5255 61.3526 64.8965C61.5916 65.2745 61.9446 65.8075 62.3476 66.4625C62.5416 66.7925 62.7536 67.1505 62.9776 67.5305C63.1946 67.9135 63.4506 68.3015 63.6596 68.7375C63.8736 69.1695 64.0956 69.6165 64.3206 70.0685C64.3756 70.1865 64.4336 70.2895 64.4886 70.4195L64.6256 70.7745L64.7606 71.1325C64.8026 71.2545 64.8346 71.3835 64.8706 71.5105L64.9716 71.8925L65.0346 72.2785C65.0556 72.4085 65.0806 72.5365 65.0916 72.6655L65.1126 73.0525C65.1396 73.5695 65.0816 74.0755 65.0076 74.5565C64.9666 74.7945 64.9126 75.0275 64.8616 75.2545C64.7996 75.4795 64.7386 75.6975 64.6796 75.9115C64.5596 76.3335 64.4476 76.7325 64.3436 77.1015C64.1386 77.8405 63.9476 78.4515 63.8226 78.8815C63.6926 79.3095 63.6166 79.5545 63.6166 79.5545C63.6166 79.5545 63.6706 79.3035 63.7596 78.8665C63.8586 78.4285 63.9856 77.8025 64.1616 77.0545C64.2506 76.6805 64.3426 76.2755 64.4426 75.8465C64.5476 75.4215 64.6426 74.9725 64.7206 74.5075C64.7856 74.0415 64.8336 73.5565 64.7996 73.0665L64.7776 72.6975C64.7646 72.5755 64.7366 72.4545 64.7176 72.3315L64.6526 71.9635L64.5516 71.6075C64.5196 71.4865 64.4896 71.3675 64.4546 71.2475L64.3226 70.8885L64.1926 70.5315C64.1496 70.4265 64.0866 70.3075 64.0366 70.1945C63.8196 69.7445 63.6066 69.2995 63.4016 68.8715C63.1966 68.4405 62.9636 68.0395 62.7646 67.6485C62.5596 67.2605 62.3666 66.8935 62.1866 66.5555C61.8086 65.8895 61.5126 65.3215 61.2956 64.9305C61.0816 64.5375 60.9576 64.3125 60.9576 64.3125Z" fill="url(#paint34_radial_525_381)"/>
<path d="M75.6627 59.7734C75.7447 60.0664 75.8337 60.3544 75.9367 60.6364C75.9907 60.7754 76.0327 60.9204 76.1027 61.0534L76.2907 61.4624L76.3877 61.6664C76.4197 61.7344 76.4397 61.8114 76.4657 61.8854C76.5207 62.0334 76.5447 62.1834 76.5817 62.3324C76.6427 62.6334 76.6767 62.9354 76.6917 63.2424L76.7117 63.5964L76.5137 63.2954C76.3627 63.0644 76.2087 62.8264 76.0357 62.6094C75.9497 62.5034 75.8737 62.3814 75.7797 62.2864L75.5027 61.9884L75.7077 61.8664L75.9577 62.8874C76.0487 63.2264 76.0837 63.5754 76.1477 63.9214L76.2347 64.4394L76.2877 64.9624C76.3187 65.3124 76.3747 65.6594 76.3757 66.0114C76.3887 66.3614 76.4107 66.7124 76.4107 67.0634L76.3717 68.1174C76.3467 68.4674 76.2987 68.8144 76.2627 69.1644C76.2347 69.5154 76.1457 69.8574 76.0887 70.2044C76.0377 70.5534 75.9367 70.8904 75.8487 71.2304C75.8017 71.4034 75.7657 71.5644 75.7077 71.7464L75.5257 72.2364L75.2737 72.7174C75.1837 72.8714 75.0817 73.0164 74.9837 73.1654C74.7777 73.4534 74.5567 73.7294 74.3137 73.9824C74.0717 74.2404 73.8167 74.4844 73.5507 74.7114C73.2847 74.9424 73.0007 75.1514 72.7147 75.3514C72.1407 75.7494 71.5387 76.1114 70.9047 76.4004C71.5127 76.0614 72.0937 75.6764 72.6397 75.2504C72.9127 75.0374 73.1747 74.8124 73.4297 74.5784C73.6867 74.3484 73.9297 74.1014 74.1537 73.8434C74.3827 73.5864 74.5897 73.3124 74.7807 73.0284C74.8667 72.8824 74.9627 72.7394 75.0427 72.5904L75.2597 72.1394L75.4377 71.6484C75.4837 71.5004 75.5217 71.3194 75.5667 71.1564C75.6487 70.8224 75.7437 70.4894 75.7917 70.1484C75.8407 69.8064 75.9247 69.4714 75.9497 69.1264C75.9807 68.7834 76.0237 68.4404 76.0457 68.0964L76.0817 67.0634C76.0847 66.7184 76.0687 66.3724 76.0607 66.0284C76.0637 65.6834 76.0117 65.3394 75.9857 64.9964L75.9397 64.4794L75.8577 63.9684C75.7967 63.6274 75.7647 63.2824 75.6797 62.9474L75.4647 61.9314L75.3657 61.4614L75.6697 61.8084L75.9587 62.1374C76.0567 62.2464 76.1287 62.3684 76.2147 62.4834C76.3847 62.7144 76.5297 62.9564 76.6797 63.1994L76.4997 63.2504C76.4917 62.9574 76.4667 62.6564 76.4237 62.3634C76.3977 62.2184 76.3757 62.0684 76.3347 61.9314C76.3137 61.8614 76.3027 61.7894 76.2727 61.7204L76.1887 61.5094L76.0187 61.0894C75.9557 60.9494 75.9207 60.8014 75.8757 60.6564C75.7877 60.3664 75.7247 60.0694 75.6627 59.7734Z" fill="url(#paint35_radial_525_381)"/>
<path d="M32.0956 25.7254C32.0956 25.7254 29.6806 26.4564 28.6596 27.9634C28.3936 27.4694 28.1046 27.4114 28.1046 27.4114L28.0376 28.2624C28.0376 28.2624 27.4036 28.0174 27.1456 28.1704C27.7946 28.5204 27.9826 28.7384 27.1226 29.6914C26.2656 30.6454 23.7206 33.1724 23.4766 36.0784C24.0136 35.4004 24.4776 35.3014 24.4776 35.3014C24.4776 35.3014 23.4536 36.4534 24.1166 38.0734C24.7766 39.6944 26.8616 44.2294 26.3636 46.4544C24.9916 48.6304 23.7956 51.3994 24.9216 52.1714C25.6876 52.6304 25.9166 53.7694 25.9776 54.1894C26.0376 54.6104 27.5796 54.6124 27.5796 54.6124C27.5796 54.6124 28.8306 57.4484 32.5176 57.1714C35.3546 56.7864 37.1346 53.7654 37.3706 52.5264C37.6046 51.2894 37.4646 49.3214 38.9576 47.9454C40.4526 46.5674 43.0666 44.5454 44.6426 43.1714C46.2206 41.8004 46.9916 40.6744 47.2526 39.6894C47.5436 40.4974 47.9726 38.7694 47.4996 35.2414C49.4446 36.2654 53.7346 37.0884 56.7356 34.8764C59.7336 32.6654 60.8426 27.0144 61.0436 25.6094C59.4796 25.9814 58.5186 26.0104 56.1156 25.7534C53.7106 25.4954 46.3946 26.5914 45.3646 30.1204C44.2876 28.4754 41.2186 27.4304 41.2186 27.4304C41.2186 27.4304 41.2426 27.0384 41.3726 26.7974C41.5016 26.5544 40.6326 26.6394 40.2746 27.1014C40.0866 26.3114 39.7956 26.1784 39.7956 26.1784L39.7066 26.8704C39.7066 26.8704 36.8786 25.2024 32.0596 26.4084C31.8866 26.0074 32.0956 25.7254 32.0956 25.7254Z" fill="url(#paint36_radial_525_381)"/>
<path opacity="0.5" d="M26.3317 43.0997C26.3317 43.0997 27.5677 43.2777 28.0537 43.9487C28.1037 43.5837 28.3077 43.5557 28.3077 43.5557C28.3077 43.5557 29.6167 43.3207 30.2987 41.0227C31.0317 38.5527 31.3047 35.3047 28.2217 35.0117C26.4427 35.0057 25.9207 36.1127 25.9207 36.1127C25.9207 36.1127 26.5497 36.0507 26.7857 36.5597C27.0227 37.0687 24.8497 39.3687 26.8947 42.8867C26.5537 42.9887 26.3317 43.0997 26.3317 43.0997Z" fill="url(#paint37_radial_525_381)"/>
<path opacity="0.5" d="M37.7786 45.1585C37.7786 45.1585 39.4956 43.1075 41.8806 43.6355C41.5856 43.0625 40.4916 43.3295 40.4916 43.3295C40.4916 43.3295 42.7476 41.1305 41.6196 37.3985C41.4826 36.8495 42.4966 36.6135 42.4966 36.6135C42.4966 36.6135 41.5966 34.8115 39.2546 34.9315C36.9116 35.0525 35.1856 37.6265 35.5306 40.4395C35.8746 43.2525 38.2066 44.0815 38.2066 44.0815C38.2066 44.0815 37.7226 44.8595 37.7786 45.1585Z" fill="url(#paint38_radial_525_381)"/>
<path d="M26.9056 37.3155C26.9056 37.3155 25.8006 40.0595 26.8406 42.3395C27.4646 43.5125 29.1486 44.1605 29.9116 41.3455C30.6756 38.5305 30.7276 36.1515 29.1886 35.7755C27.6486 35.3995 26.9056 37.3155 26.9056 37.3155Z" fill="url(#paint39_linear_525_381)"/>
<path d="M41.6997 39.7105C41.5757 41.9765 40.1767 43.7405 38.5767 43.6525C36.9767 43.5625 35.7827 41.6555 35.9077 39.3895C36.0347 37.1245 37.4327 35.3595 39.0297 35.4485C40.6307 35.5365 41.8247 37.4455 41.6997 39.7105Z" fill="url(#paint40_linear_525_381)"/>
<path d="M30.3667 38.9533C30.3977 40.3373 29.7217 41.6403 28.8617 41.8653C27.9997 42.0923 27.2767 41.1523 27.2477 39.7693C27.2177 38.3883 27.8917 37.0833 28.7537 36.8573C29.6157 36.6333 30.3377 37.5713 30.3667 38.9533Z" fill="url(#paint41_radial_525_381)"/>
<path d="M29.8747 39.1326C29.8957 40.0516 29.4467 40.9155 28.8757 41.0655C28.3027 41.2155 27.8227 40.5925 27.8027 39.6755C27.7837 38.7565 28.2317 37.8916 28.8047 37.7406C29.3757 37.5926 29.8557 38.2136 29.8747 39.1326Z" fill="url(#paint42_radial_525_381)"/>
<path d="M30.0027 38.1684C30.1057 38.6944 29.9377 39.2664 29.6267 39.4414C29.3197 39.6204 28.9857 39.3384 28.8837 38.8114C28.7807 38.2854 28.9467 37.7154 29.2567 37.5384C29.5667 37.3584 29.9007 37.6434 30.0027 38.1684Z" fill="url(#paint43_linear_525_381)"/>
<path d="M40.6986 39.1841C40.7786 40.7331 40.0666 42.2161 39.1096 42.5001C38.1496 42.7811 37.3096 41.7561 37.2276 40.2051C37.1456 38.6601 37.8566 37.1741 38.8166 36.8901C39.7756 36.6091 40.6166 37.6361 40.6986 39.1841Z" fill="url(#paint44_radial_525_381)"/>
<path d="M40.1536 39.4016C40.2076 40.4306 39.7336 41.4156 39.0986 41.6016C38.4626 41.7896 37.9026 41.1096 37.8496 40.0806C37.7936 39.0526 38.2676 38.0676 38.9046 37.8786C39.5416 37.6916 40.0996 38.3726 40.1536 39.4016Z" fill="url(#paint45_radial_525_381)"/>
<path d="M40.2616 38.3169C40.3946 38.9039 40.2266 39.5499 39.8876 39.7579C39.5466 39.9689 39.1616 39.6639 39.0296 39.0779C38.8966 38.4899 39.0646 37.8459 39.4056 37.6369C39.7446 37.4259 40.1286 37.7339 40.2616 38.3169Z" fill="url(#paint46_linear_525_381)"/>
<path d="M27.2886 33.2326C27.2886 33.2326 29.3806 32.8756 30.6366 34.2926C30.4216 32.3906 29.4166 30.2076 27.2886 33.2326Z" fill="url(#paint47_radial_525_381)"/>
<path d="M36.5727 34.9092C36.5727 34.9092 39.4107 32.2091 42.0157 34.1041C40.7597 31.5751 39.2737 31.6461 37.8837 33.1801C36.5517 34.6511 36.5727 34.9092 36.5727 34.9092Z" fill="url(#paint48_radial_525_381)"/>
<path d="M27.1566 52.8138C27.1566 52.8138 29.1156 53.2358 30.0966 50.9328C30.5636 49.6448 28.8606 49.1759 27.1896 49.2309C25.5186 49.2829 24.2376 50.5678 24.5206 51.4798C24.8046 52.3928 26.3036 52.8088 27.1566 52.8138Z" fill="url(#paint49_radial_525_381)"/>
<path d="M28.5307 50.6C28.5307 50.6 28.1507 50.694 27.8557 51.294C27.5637 51.892 27.8237 52.093 28.4147 51.573C29.0077 51.055 29.2537 50.359 28.5307 50.6Z" fill="black"/>
<path d="M25.8747 51.3163C25.8747 51.3163 26.5117 51.8933 26.4727 52.0173C26.4357 52.1403 25.7697 51.9053 25.3397 51.5993C24.9057 51.2943 25.1967 50.7693 25.8747 51.3163Z" fill="black"/>
<path d="M28.2376 52.7707C28.2376 52.7707 28.3176 54.3327 30.6296 54.2667C32.9396 54.1997 35.1626 53.2106 35.7616 49.4076C35.0906 48.9796 34.9266 48.3976 35.4146 48.6656C35.9806 48.9756 36.3116 49.0207 36.7046 48.9597C37.0986 48.8987 36.9026 49.4157 36.2076 49.4047C35.9286 50.9467 34.6736 55.5187 32.2456 56.1907C30.3866 56.6437 27.5786 54.6116 27.5786 54.6116C27.5786 54.6116 28.7946 54.2477 28.4066 53.7257C28.0186 53.2037 28.2376 52.7707 28.2376 52.7707Z" fill="url(#paint50_radial_525_381)"/>
<path d="M35.3166 51.544C34.8726 52.409 34.5136 53.278 33.7926 53.953C33.1536 54.554 32.1916 55.014 31.3066 55.034C30.7456 55.047 30.3206 54.889 29.7906 54.735C29.1306 54.543 28.6156 54.636 28.1626 54.994C29.0836 55.557 30.9066 56.516 32.2456 56.191C34.3646 55.605 35.5896 52.045 36.0536 50.125C35.6966 50.492 35.5486 51.094 35.3166 51.544Z" fill="url(#paint51_linear_525_381)"/>
<path d="M30.1246 55.3507C31.5016 55.5667 32.4666 55.2017 33.5776 54.2347C34.5576 53.3807 35.5346 52.1577 35.4706 50.6797C34.6166 53.4377 32.6576 54.2087 30.6286 54.2677C29.6976 54.2927 29.1356 54.0567 28.7876 53.7637C28.9826 54.3347 29.3966 55.2367 30.1246 55.3507Z" fill="url(#paint52_linear_525_381)"/>
<path d="M47.8556 30.8149C47.8556 30.8149 48.4466 29.1779 51.6596 28.4119C54.8696 27.6429 58.4086 27.5059 59.6566 26.5469C59.1996 28.2729 58.0256 31.4039 56.7926 33.0869C55.5606 34.7719 51.1956 36.2529 48.4136 33.8179C49.1726 32.6659 50.1476 31.6079 50.6846 31.4699C49.4736 31.2359 48.7556 31.6419 48.7556 31.6419C48.7556 31.6419 49.8336 30.7559 50.5016 30.7659C49.5216 30.3499 48.3996 30.5369 47.8556 30.8149Z" fill="url(#paint53_radial_525_381)"/>
<path d="M37.6606 50.3714C37.6606 50.3714 37.6296 50.1284 37.6596 49.7694C37.6816 49.4094 37.7656 48.9324 37.9056 48.4734C37.9446 48.3584 37.9856 48.2434 38.0226 48.1314C38.0576 48.0184 38.1076 47.9124 38.1556 47.8094C38.2556 47.6074 38.3396 47.4134 38.4406 47.2624C38.6386 46.9564 38.7936 46.7734 38.7936 46.7734C38.7936 46.7734 38.7366 47.0134 38.6156 47.3434C38.5526 47.5074 38.5046 47.7094 38.4276 47.9154C38.3906 48.0184 38.3596 48.1264 38.3266 48.2354C38.2936 48.3454 38.2586 48.4584 38.2226 48.5704C38.1476 48.7904 38.0926 49.0174 38.0206 49.2264C37.9636 49.4374 37.8946 49.6334 37.8446 49.8024C37.7416 50.1434 37.6606 50.3714 37.6606 50.3714Z" fill="url(#paint54_radial_525_381)"/>
<path d="M30.7357 118.154C30.7357 118.154 30.7037 117.864 30.7697 117.435C30.7807 117.326 30.8097 117.212 30.8377 117.093C30.8687 116.972 30.8907 116.841 30.9347 116.714C30.9827 116.585 31.0257 116.452 31.0787 116.32C31.1277 116.185 31.1867 116.053 31.2567 115.925C31.3267 115.798 31.3957 115.67 31.4657 115.545C31.5257 115.415 31.6277 115.313 31.7027 115.201C31.7837 115.091 31.8647 114.988 31.9437 114.892C32.0147 114.789 32.1027 114.71 32.1847 114.638C32.5047 114.345 32.7337 114.176 32.7337 114.176C32.7337 114.176 32.5807 114.427 32.3307 114.763C32.2667 114.844 32.1987 114.934 32.1417 115.04C32.0807 115.144 32.0187 115.253 31.9487 115.362C31.8817 115.473 31.8007 115.58 31.7437 115.705C31.6837 115.825 31.6187 115.95 31.5557 116.073C31.4867 116.193 31.4257 116.317 31.3757 116.443C31.3237 116.569 31.2657 116.69 31.2127 116.809C31.1617 116.93 31.1217 117.048 31.0757 117.161C31.0347 117.273 30.9877 117.377 30.9577 117.477C30.8907 117.676 30.8297 117.844 30.7957 117.962C30.7517 118.084 30.7357 118.154 30.7357 118.154Z" fill="url(#paint55_radial_525_381)"/>
<path d="M60.6787 120.59C60.6787 120.59 60.5697 120.311 60.5117 119.867C60.4917 119.756 60.4856 119.636 60.4776 119.509C60.4726 119.381 60.4566 119.246 60.4616 119.108C60.4686 118.967 60.4697 118.822 60.4817 118.677C60.4887 118.53 60.5066 118.381 60.5336 118.234C60.5596 118.088 60.5877 117.942 60.6127 117.796C60.6327 117.65 60.6957 117.517 60.7317 117.38C60.7727 117.248 60.8197 117.121 60.8607 117C60.8977 116.877 60.9536 116.77 61.0076 116.671C61.2136 116.275 61.3757 116.027 61.3757 116.027C61.3757 116.027 61.3136 116.323 61.1856 116.737C61.1536 116.84 61.1187 116.952 61.0977 117.075C61.0727 117.198 61.0467 117.325 61.0157 117.456C60.9877 117.588 60.9447 117.721 60.9277 117.861C60.9067 118.001 60.8847 118.142 60.8627 118.283C60.8337 118.425 60.8097 118.566 60.8027 118.707C60.7897 118.848 60.7696 118.984 60.7536 119.121C60.7396 119.254 60.7356 119.384 60.7256 119.509C60.7196 119.633 60.7047 119.751 60.7047 119.859C60.6957 120.076 60.6836 120.259 60.6836 120.387C60.6796 120.517 60.6787 120.59 60.6787 120.59Z" fill="url(#paint56_radial_525_381)"/>
<path d="M78.9046 110.199C78.9046 110.199 78.8376 110.421 78.7326 110.753C78.6326 111.083 78.4996 111.515 78.4046 111.953C78.3806 112.062 78.3516 112.171 78.3376 112.28C78.3186 112.387 78.2936 112.494 78.2796 112.598C78.2666 112.7 78.2486 112.801 78.2406 112.898C78.2306 112.994 78.2166 113.086 78.2146 113.169C78.2096 113.254 78.2016 113.332 78.1966 113.402C78.1916 113.472 78.1916 113.533 78.1906 113.584C78.1836 113.688 78.1796 113.746 78.1796 113.746C78.1796 113.746 78.1586 113.69 78.1236 113.594C78.0876 113.497 78.0486 113.353 78.0206 113.177C78.0016 113.089 77.9976 112.992 77.9916 112.891C77.9816 112.787 77.9816 112.68 77.9876 112.57C77.9916 112.346 78.0316 112.11 78.0806 111.879C78.1346 111.648 78.2046 111.421 78.2906 111.218C78.3746 111.012 78.4676 110.828 78.5596 110.676C78.7366 110.37 78.9046 110.199 78.9046 110.199Z" fill="url(#paint57_radial_525_381)"/>
<path d="M27.0236 37.0656C27.0236 37.0656 27.1216 35.9286 26.3396 35.9686C27.5036 35.0316 29.5176 35.0216 30.1286 36.5276C29.4276 35.6296 28.0966 35.2346 27.0236 37.0656Z" fill="black"/>
<path d="M37.8997 35.6722C37.8997 35.6722 40.0287 34.4192 41.3867 37.4692C41.5197 36.5872 42.2147 36.4312 42.2147 36.4312C42.2147 36.4312 40.0847 34.3732 37.8997 35.6722Z" fill="black"/>
<path d="M29.0916 42.8878C27.6956 43.8378 26.7497 45.2168 26.0177 46.7208C25.9547 46.8498 26.0486 46.9788 26.1436 46.8258C27.0046 45.4408 27.7987 44.0678 29.0977 43.0318C29.1397 42.9968 29.1796 42.8278 29.0916 42.8878Z" fill="url(#paint58_radial_525_381)"/>
<path d="M35.5286 99.909C35.2486 99.131 34.8356 98.309 34.7416 97.482C34.7306 97.398 34.6476 97.497 34.6466 97.538C34.5856 98.367 35.0466 99.338 35.3756 100.079C35.4246 100.191 35.5566 99.983 35.5286 99.909Z" fill="url(#paint59_radial_525_381)"/>
<path d="M38.3736 98.1323C37.9696 98.7983 37.6026 99.4193 37.5546 100.22C37.5406 100.432 37.7266 100.243 37.7466 100.138C37.8136 99.8183 37.8716 99.5003 37.9736 99.1893C38.0876 98.8363 38.2866 98.5253 38.4436 98.1913C38.4766 98.1193 38.4246 98.0473 38.3736 98.1323Z" fill="url(#paint60_radial_525_381)"/>
<path d="M77.7926 93.8167C77.0216 93.4427 76.5446 92.7807 76.0846 92.0807C76.0546 92.0347 75.9856 92.1547 76.0096 92.1957C76.4226 92.9347 76.8786 93.6887 77.7096 93.9907C77.7756 94.0157 77.8556 93.8467 77.7926 93.8167Z" fill="url(#paint61_radial_525_381)"/>
<path d="M58.7786 100.614C58.3286 100.29 57.8926 99.9465 57.4976 99.5525C57.4666 99.5245 57.4256 99.6095 57.4426 99.6345C57.7686 100.043 58.1796 100.612 58.7026 100.779C58.7666 100.8 58.8336 100.654 58.7786 100.614Z" fill="url(#paint62_radial_525_381)"/>
<path d="M62.0426 98.6232C61.9926 98.8462 61.8806 99.0632 61.8176 99.2832C61.7426 99.5482 61.6326 99.7952 61.5046 100.035C61.4376 100.158 61.5246 100.264 61.6216 100.134C61.7906 99.9052 61.8856 99.6412 61.9546 99.3672C62.0196 99.1162 62.1106 98.8432 62.1336 98.5852C62.1416 98.4842 62.0536 98.5732 62.0426 98.6232Z" fill="url(#paint63_radial_525_381)"/>
<path opacity="0.5" d="M27.9346 32.6529C27.9346 32.6529 29.1836 31.771 30.2496 33.281C29.9776 31.866 29.0606 31.2659 27.9346 32.6529Z" fill="url(#paint64_radial_525_381)"/>
<path opacity="0.5" d="M37.7926 33.6697C37.7926 33.6697 39.5956 31.8187 41.3566 33.4157C40.4926 31.8687 39.0356 31.9887 37.7926 33.6697Z" fill="url(#paint65_radial_525_381)"/>
<path d="M28.2827 49.5869C26.8987 49.2239 25.5807 49.5439 24.7537 50.7199C24.7467 50.7299 24.7427 50.7739 24.7637 50.7549C25.1787 50.4029 25.4577 50.0609 25.9887 49.8479C26.7217 49.5539 27.4717 49.7919 28.2147 49.8239C28.2967 49.8269 28.3727 49.6099 28.2827 49.5869Z" fill="url(#paint66_linear_525_381)"/>
<path d="M29.0976 49.8077C28.9646 49.7337 28.8326 49.6977 28.6806 49.6837C28.6386 49.6797 28.6036 49.7887 28.6486 49.8017C28.7846 49.8457 28.9076 49.9137 29.0286 49.9917C29.0876 50.0307 29.1736 49.8487 29.0976 49.8077Z" fill="url(#paint67_linear_525_381)"/>
<path d="M29.4127 43.1968C27.4257 44.3858 25.9647 46.8098 25.1677 48.9238C25.1137 49.0638 25.2447 49.1958 25.3247 49.0298C26.3377 46.9098 27.4887 44.6808 29.4157 43.2388C29.4267 43.2308 29.4327 43.1868 29.4127 43.1968Z" fill="url(#paint68_radial_525_381)"/>
<path d="M24.9897 49.4962C24.8577 49.4892 24.7627 49.8242 24.9217 49.8322C25.0537 49.8402 25.1487 49.5052 24.9897 49.4962Z" fill="url(#paint69_radial_525_381)"/>
<path d="M51.0576 56.9381C51.1106 56.9671 51.1586 57.0001 51.2116 57.0301C50.8676 56.7891 50.5246 56.5321 50.1906 56.2461C50.2496 56.4061 50.5086 56.6291 51.0576 56.9381Z" fill="url(#paint70_radial_525_381)"/>
<path d="M57.2576 65.8895C58.6206 66.3535 58.9126 67.0935 58.9126 67.0935C58.9126 67.0935 58.1176 63.3795 55.5176 62.1225C57.2296 62.3295 57.4326 62.6735 57.4326 62.6735C57.4326 62.6735 57.0566 60.4295 52.7436 58.0225C52.6526 57.9675 52.5626 57.9125 52.4736 57.8555C54.9456 59.6425 56.5436 61.8295 56.5436 61.8295C56.5436 61.8295 54.9596 61.3525 53.8946 62.0735C57.2336 63.4295 57.8326 65.8525 57.8326 65.8525C57.8326 65.8525 57.3576 65.6305 56.4216 65.7745C61.0736 69.0075 57.7986 73.5095 57.7986 73.5095C57.7986 73.5095 57.2586 70.9445 56.4406 71.5805C56.8986 75.6555 54.6366 77.7265 55.0126 76.2335C55.3886 74.7415 55.1036 73.7025 55.1036 73.7025C53.3756 79.3625 51.3696 81.2535 48.2956 80.3505C45.2226 79.4485 44.2656 78.2245 42.3106 75.6775C42.4376 76.9045 44.5126 79.9455 42.5176 78.0785C37.7036 74.2985 38.0096 71.3895 39.2426 68.5295C38.8266 68.9945 37.7926 71.0865 37.5896 70.1935C37.2026 68.3675 38.7976 65.1385 38.7976 65.1385C38.7976 65.1385 37.3416 66.7165 37.1996 66.6595C37.1446 66.0995 37.2606 65.3635 37.4326 64.6385C36.0856 67.4515 36.6586 68.6795 36.6586 68.6795C36.6586 68.6795 36.7396 68.3345 37.7056 66.9315C36.2956 69.5455 36.8426 72.2045 36.8426 72.2045C36.8426 72.2045 37.0356 72.1845 37.7926 71.0855C37.7516 71.1985 37.7116 71.3145 37.6716 71.4325L37.7106 71.3515C37.7256 71.3195 37.7316 71.3045 37.7316 71.3045L37.7106 71.3515C37.5106 71.8085 36.1746 75.5875 44.1486 80.8055C48.6626 83.4725 50.9846 82.7205 53.2856 81.3455C53.2856 81.3455 56.6606 78.6415 58.4276 75.8475C60.1946 73.0565 61.2476 69.1115 57.2576 65.8895Z" fill="url(#paint71_radial_525_381)"/>
<path d="M40.7067 59.3773C40.6427 56.2463 39.8527 53.1583 38.7297 50.2453C38.7067 50.1823 38.6417 50.2953 38.6537 50.3373C39.4937 53.1213 40.2187 56.1192 40.0777 59.0442C39.9877 60.9362 39.6967 61.9643 38.5127 63.3833C37.9067 64.1063 37.3647 64.7823 36.9867 65.6513C36.8497 65.9673 37.0667 66.4173 37.3837 66.0543C39.1277 64.0563 40.7657 62.1523 40.7067 59.3773Z" fill="url(#paint72_radial_525_381)"/>
<path d="M38.9417 65.8938C38.6427 66.4418 38.3197 66.9738 38.0397 67.5318C37.8777 67.8538 37.8817 68.2938 37.8117 68.6448C37.6677 69.3858 37.4787 70.3378 37.8187 71.0378C37.9907 71.3918 38.2967 70.7698 38.2717 70.5848C38.0557 69.0008 38.5297 67.4538 39.1007 66.0008C39.1567 65.8558 39.0287 65.7298 38.9417 65.8938Z" fill="url(#paint73_radial_525_381)"/>
<path d="M42.0937 76.3746C41.1337 75.7436 40.4467 75.2016 39.9207 74.1516C39.4437 73.2006 39.2947 72.1196 39.0607 71.0996C39.0157 70.9146 38.8437 71.1516 38.8597 71.2616C39.1627 73.3066 39.4837 76.2516 41.8597 76.9946C42.1267 77.0796 42.3107 76.5176 42.0937 76.3746Z" fill="url(#paint74_radial_525_381)"/>
<path d="M76.2396 61.6094C76.2536 61.6404 76.2516 61.6404 76.2396 61.6094Z" fill="url(#paint75_radial_525_381)"/>
<path opacity="0.5" d="M60.5816 114.215C60.7006 113.807 60.9416 112.807 60.1616 113.06C59.6456 113.225 59.1826 113.552 58.7516 113.871C58.7376 113.881 58.7266 113.892 58.7136 113.901C58.8866 115.064 59.0526 115.774 59.0526 115.774L60.5786 114.236C60.5796 114.228 60.5796 114.224 60.5816 114.215Z" fill="url(#paint76_radial_525_381)"/>
<path opacity="0.5" d="M82.4477 100.681C81.8357 97.4381 80.4237 93.0091 80.5637 92.0081C80.7047 91.0051 81.3427 90.1151 80.9287 88.9421C80.5167 87.7691 80.0417 88.2481 79.4677 85.9641C78.2587 81.5351 78.3037 78.8251 79.0207 76.1601C78.0977 78.1341 78.1367 79.9521 78.2187 82.0401C78.3587 85.5501 79.6287 88.2051 79.8937 89.4731C80.1577 90.7361 79.9967 93.6471 78.5317 92.9811C77.0677 92.3171 76.3777 91.1951 76.6497 89.2921C76.9227 87.3901 76.4327 85.6951 74.6957 82.4301C72.9577 79.1651 72.7777 77.9041 74.9757 74.8281C76.3597 72.8951 77.2687 71.6191 77.5067 68.2971C77.5947 64.9071 78.1317 62.0481 75.4577 59.1211C75.4597 59.8821 76.1417 61.4011 76.2387 61.6121C76.2287 61.5911 76.2137 61.5611 76.1897 61.5081C75.8687 60.8361 75.0997 60.5461 75.3667 61.4601C75.9357 63.9481 75.1207 67.9431 73.9207 69.7171C72.7187 71.4881 67.3807 71.9691 66.3897 70.6481C66.5007 71.6341 66.5137 72.8601 65.8317 71.1471C64.9337 68.9331 62.3467 66.4631 62.3467 66.4631C64.5567 71.2601 64.1497 71.5591 62.8387 77.1581C61.5287 82.7561 60.1927 88.7981 60.6067 93.3801C61.0187 97.9621 60.6757 100.167 59.3877 99.3171C58.1017 98.4681 57.8297 97.3401 58.2057 94.5811C58.5777 91.8221 57.3407 88.0851 55.8977 84.0011C54.8617 81.0611 54.7297 80.4781 55.5017 79.3431C54.2977 80.5341 53.2847 81.3471 53.2847 81.3471C54.6457 85.8701 57.3857 94.6391 56.9397 95.6711C56.4927 96.7011 56.3377 98.5281 57.4957 99.7041C57.7007 100.416 57.8537 101.679 57.9707 103.139C58.4377 101.981 59.4757 100.427 60.5757 101.441C61.2157 102.03 61.5917 102.893 61.9097 103.687C62.3627 104.824 62.7197 106.001 63.0287 107.185C63.5577 109.21 64.0477 111.292 64.2697 113.378C64.2757 113.444 64.1727 113.676 64.0767 113.624C63.5077 113.311 62.9277 113.08 62.3067 112.919C62.4267 113.331 62.5107 113.753 62.6607 114.155C62.6927 114.236 62.5407 114.507 62.4637 114.409C62.1117 113.962 61.6517 113.726 61.1537 113.491C61.0227 113.72 60.8797 113.939 60.7627 114.176C60.7277 114.245 60.5897 114.359 60.5747 114.29L60.2747 115.651C60.2747 115.651 61.3647 115.501 61.7557 114.588C62.1807 115.333 63.1307 115.406 63.1307 115.406L63.1347 114.558C63.1347 114.558 64.3467 115.066 65.8747 114.567C64.1237 111.551 62.7297 102.902 62.0027 98.8491C62.3987 97.8501 61.9947 96.5361 61.7827 92.9871C61.5597 85.9711 63.6137 79.5551 63.6137 79.5551C66.5827 78.7671 70.9057 76.4001 70.9057 76.4001C70.9057 76.4001 73.0357 83.1061 73.9347 84.9351C74.8357 86.7631 76.0197 87.4961 75.7197 89.8711C75.3477 91.5741 76.0837 92.3381 76.0837 92.3381C76.0837 92.3381 77.1037 94.0061 77.3737 96.1341C77.3927 96.4141 77.4067 96.7181 77.4207 97.0331C77.4617 96.6041 77.5327 96.1831 77.6747 95.7841C78.0547 94.7081 78.6327 94.0961 79.4817 95.3371C80.7147 97.1431 80.9307 99.2551 81.2557 101.398C81.5717 103.476 82.3937 105.724 81.7007 107.737C81.6887 107.766 81.5497 108.007 81.5027 107.903C81.2827 107.416 81.0307 106.952 80.7467 106.5C80.3937 107.058 80.0717 107.634 79.5997 108.103C79.5717 108.131 79.4867 108.181 79.4847 108.103C79.4667 107.653 79.2887 107.287 79.1777 106.863C79.1307 106.674 78.6167 107.227 78.5547 107.283C78.1897 107.6 77.7847 107.89 77.3597 108.116C77.1437 108.231 76.9257 108.326 76.7057 108.412C76.6437 108.708 76.5787 108.999 76.5087 109.279C77.5137 109.211 78.3837 108.549 78.3837 108.549L77.8267 109.561C77.8267 109.561 78.8707 109.536 80.0147 108.473C80.3197 108.991 81.0837 109.491 81.0837 109.491L81.0947 108.531C81.0947 108.531 82.1317 109.382 83.2147 109.4C83.5327 106.704 83.0617 103.926 82.4477 100.681Z" fill="url(#paint77_radial_525_381)"/>
<g opacity="0.5">
<path d="M47.3726 38.6935C47.3726 38.6935 47.3436 38.0355 46.8796 38.0745C46.5386 40.6845 45.7206 41.2315 42.8206 43.7025C40.3746 45.7865 39.0646 47.3755 39.0646 47.3755C39.0646 47.3755 39.1706 46.6585 39.4996 45.4925C38.4616 46.4225 37.7806 46.8445 36.8926 52.1875C36.1056 56.1585 32.8036 56.9505 30.6676 57.0325C31.2016 57.1645 31.8136 57.2245 32.5176 57.1735C35.3546 56.7885 37.1346 53.7675 37.3706 52.5285C37.6046 51.2915 37.4646 49.3235 38.9576 47.9475C40.4526 46.5695 43.0666 44.5475 44.6426 43.1735C46.2206 41.8025 46.9916 40.6765 47.2526 39.6915C47.5436 40.4995 47.9726 38.7715 47.4996 35.2435C47.6206 35.3065 47.7526 35.3705 47.8896 35.4315C47.6556 35.0525 47.4196 34.6245 47.1646 34.1445C47.5396 35.6785 47.3726 38.6935 47.3726 38.6935Z" fill="url(#paint78_radial_525_381)"/>
</g>
<path d="M72.2246 51.9171C68.6886 49.7201 65.5256 52.9941 62.6996 54.7301C62.6606 54.7551 62.6376 54.8871 62.6966 54.8551C63.7576 54.2551 64.7896 53.5521 65.8116 52.8871C67.9516 51.4971 69.7196 51.3951 72.0366 52.4131C72.2346 52.5011 72.4006 52.0261 72.2246 51.9171Z" fill="url(#paint79_radial_525_381)"/>
<path d="M73.8037 53.0876C73.6487 52.6156 73.1857 52.2996 72.6887 52.3906C72.5787 52.4106 72.4257 52.7306 72.5827 52.7546C73.0707 52.8326 73.1627 53.3196 73.5467 53.5386C73.7447 53.6536 73.8407 53.1996 73.8037 53.0876Z" fill="url(#paint80_radial_525_381)"/>
<defs>
<radialGradient id="paint0_radial_525_381" cx="0" cy="0" r="1" gradientUnits="userSpaceOnUse" gradientTransform="translate(16.738 27.0986) rotate(3.16998) scale(10.3312 10.3312)">
<stop offset="0.0573" stop-color="#BF6C40"/>
<stop offset="0.7702" stop-color="#A55031"/>
</radialGradient>
<radialGradient id="paint1_radial_525_381" cx="0" cy="0" r="1" gradientUnits="userSpaceOnUse" gradientTransform="translate(15.7811 39.3904) rotate(3.16998) scale(10.6944 10.6944)">
<stop offset="0.1232" stop-color="#A55031"/>
<stop offset="1" stop-color="#592500"/>
</radialGradient>
<radialGradient id="paint2_radial_525_381" cx="0" cy="0" r="1" gradientUnits="userSpaceOnUse" gradientTransform="translate(65.6915 2.5341) rotate(3.16998) scale(37.5093 37.5093)">
<stop stop-color="#C8BFA7"/>
<stop offset="0.7299" stop-color="#8A7560"/>
</radialGradient>
<radialGradient id="paint3_radial_525_381" cx="0" cy="0" r="1" gradientUnits="userSpaceOnUse" gradientTransform="translate(65.69 2.53755) rotate(3.16998) scale(37.5069 37.507)">
<stop stop-color="#C8BFA7"/>
<stop offset="0.7299" stop-color="#8A7560"/>
</radialGradient>
<radialGradient id="paint4_radial_525_381" cx="0" cy="0" r="1" gradientUnits="userSpaceOnUse" gradientTransform="translate(65.692 2.5351) rotate(3.16998) scale(37.5083 37.5083)">
<stop stop-color="#C8BFA7"/>
<stop offset="0.7299" stop-color="#8A7560"/>
</radialGradient>
<radialGradient id="paint5_radial_525_381" cx="0" cy="0" r="1" gradientUnits="userSpaceOnUse" gradientTransform="translate(65.6912 2.53429) rotate(3.16998) scale(37.5111 37.5111)">
<stop stop-color="#C8BFA7"/>
<stop offset="0.7299" stop-color="#8A7560"/>
</radialGradient>
<radialGradient id="paint6_radial_525_381" cx="0" cy="0" r="1" gradientUnits="userSpaceOnUse" gradientTransform="translate(6.8283 2.28068) rotate(3.16998) scale(42.6056 42.6056)">
<stop stop-color="#C8BFA7"/>
<stop offset="0.7299" stop-color="#8A7560"/>
</radialGradient>
<radialGradient id="paint7_radial_525_381" cx="0" cy="0" r="1" gradientUnits="userSpaceOnUse" gradientTransform="translate(6.82768 2.28128) rotate(3.16998) scale(42.6035 42.6035)">
<stop stop-color="#C8BFA7"/>
<stop offset="0.7299" stop-color="#8A7560"/>
</radialGradient>
<radialGradient id="paint8_radial_525_381" cx="0" cy="0" r="1" gradientUnits="userSpaceOnUse" gradientTransform="translate(6.82722 2.2768) rotate(3.16998) scale(42.608 42.608)">
<stop stop-color="#C8BFA7"/>
<stop offset="0.7299" stop-color="#8A7560"/>
</radialGradient>
<radialGradient id="paint9_radial_525_381" cx="0" cy="0" r="1" gradientUnits="userSpaceOnUse" gradientTransform="translate(6.82742 2.27781) rotate(3.16997) scale(42.6079 42.6078)">
<stop stop-color="#C8BFA7"/>
<stop offset="0.7299" stop-color="#8A7560"/>
</radialGradient>
<radialGradient id="paint10_radial_525_381" cx="0" cy="0" r="1" gradientUnits="userSpaceOnUse" gradientTransform="translate(56.9883 108.247) rotate(3.16998) scale(3.17029 3.17029)">
<stop offset="0.2806" stop-color="#483934"/>
<stop offset="1" stop-color="#2D231B"/>
</radialGradient>
<radialGradient id="paint11_radial_525_381" cx="0" cy="0" r="1" gradientUnits="userSpaceOnUse" gradientTransform="translate(56.3062 108.9) rotate(3.16998) scale(1.35524 1.35524)">
<stop offset="0.2806" stop-color="#483934"/>
<stop offset="1" stop-color="#2D231B"/>
</radialGradient>
<radialGradient id="paint12_radial_525_381" cx="0" cy="0" r="1" gradientUnits="userSpaceOnUse" gradientTransform="translate(78.1863 91.7111) rotate(3.16998) scale(24.1813)">
<stop offset="0.0893" stop-color="#A55031"/>
<stop offset="0.8634" stop-color="#7D4430"/>
</radialGradient>
<radialGradient id="paint13_radial_525_381" cx="0" cy="0" r="1" gradientUnits="userSpaceOnUse" gradientTransform="translate(78.1863 91.7111) rotate(3.16998) scale(24.1813 24.1813)">
<stop offset="0.0893" stop-color="#A55031"/>
<stop offset="0.8634" stop-color="#7D4430"/>
</radialGradient>
<radialGradient id="paint14_radial_525_381" cx="0" cy="0" r="1" gradientUnits="userSpaceOnUse" gradientTransform="translate(79.7603 110.843) rotate(3.16998) scale(3.76711 3.76711)">
<stop offset="0.2806" stop-color="#483934"/>
<stop offset="1" stop-color="#2D231B"/>
</radialGradient>
<radialGradient id="paint15_radial_525_381" cx="0" cy="0" r="1" gradientUnits="userSpaceOnUse" gradientTransform="translate(62.247 117.18) rotate(3.16998) scale(4.23913 4.23913)">
<stop offset="0.2806" stop-color="#483934"/>
<stop offset="1" stop-color="#2D231B"/>
</radialGradient>
<radialGradient id="paint16_radial_525_381" cx="0" cy="0" r="1" gradientUnits="userSpaceOnUse" gradientTransform="translate(33.6845 115.793) rotate(3.16998) scale(3.93442 3.93442)">
<stop offset="0.2806" stop-color="#483934"/>
<stop offset="1" stop-color="#2D231B"/>
</radialGradient>
<radialGradient id="paint17_radial_525_381" cx="0" cy="0" r="1" gradientUnits="userSpaceOnUse" gradientTransform="translate(79.7411 42.5111) rotate(3.16998) scale(9.21468 9.21467)">
<stop offset="0.0573" stop-color="#BF6C40"/>
<stop offset="0.7702" stop-color="#A55031"/>
</radialGradient>
<radialGradient id="paint18_radial_525_381" cx="0" cy="0" r="1" gradientUnits="userSpaceOnUse" gradientTransform="translate(79.7412 42.5115) rotate(3.16999) scale(9.21449 9.21451)">
<stop offset="0.0573" stop-color="#BF6C40"/>
<stop offset="0.7702" stop-color="#A55031"/>
</radialGradient>
<radialGradient id="paint19_radial_525_381" cx="0" cy="0" r="1" gradientUnits="userSpaceOnUse" gradientTransform="translate(31.6177 117.906) rotate(3.16998) scale(45.6671 45.6671)">
<stop offset="0.0573" stop-color="#BF6C40"/>
<stop offset="0.7702" stop-color="#A55031"/>
</radialGradient>
<radialGradient id="paint20_radial_525_381" cx="0" cy="0" r="1" gradientUnits="userSpaceOnUse" gradientTransform="translate(31.6176 117.904) rotate(3.16998) scale(45.6671 45.6671)">
<stop offset="0.0573" stop-color="#BF6C40"/>
<stop offset="0.7702" stop-color="#A55031"/>
</radialGradient>
<radialGradient id="paint21_radial_525_381" cx="0" cy="0" r="1" gradientUnits="userSpaceOnUse" gradientTransform="translate(59.1604 77.8552) rotate(3.17002) scale(32.4943 32.4948)">
<stop offset="0.262" stop-color="#0BB8FF"/>
<stop offset="1" stop-color="#00496E"/>
</radialGradient>
<radialGradient id="paint22_radial_525_381" cx="0" cy="0" r="1" gradientUnits="userSpaceOnUse" gradientTransform="translate(67.1219 56.045) rotate(3.16998) scale(47.6167)">
<stop offset="0.0573" stop-color="#BF6C40"/>
<stop offset="0.7702" stop-color="#A55031"/>
</radialGradient>
<radialGradient id="paint23_radial_525_381" cx="0" cy="0" r="1" gradientUnits="userSpaceOnUse" gradientTransform="translate(46.3511 68.6825) rotate(3.16998) scale(20.3895 20.3895)">
<stop offset="0.0627" stop-color="#F5D3A3"/>
<stop offset="1" stop-color="#E9B583"/>
</radialGradient>
<radialGradient id="paint24_radial_525_381" cx="0" cy="0" r="1" gradientUnits="userSpaceOnUse" gradientTransform="translate(68.9856 33.4131) rotate(3.16997) scale(40.9781 40.978)">
<stop offset="0.1232" stop-color="#A55031"/>
<stop offset="1" stop-color="#592500"/>
</radialGradient>
<radialGradient id="paint25_radial_525_381" cx="0" cy="0" r="1" gradientUnits="userSpaceOnUse" gradientTransform="translate(68.9894 33.3952) rotate(3.16999) scale(41.006 41.0062)">
<stop offset="0.1232" stop-color="#A55031"/>
<stop offset="1" stop-color="#592500"/>
</radialGradient>
<radialGradient id="paint26_radial_525_381" cx="0" cy="0" r="1" gradientUnits="userSpaceOnUse" gradientTransform="translate(68.9888 33.398) rotate(3.16999) scale(41.0003 41.0004)">
<stop offset="0.1232" stop-color="#A55031"/>
<stop offset="1" stop-color="#592500"/>
</radialGradient>
<radialGradient id="paint27_radial_525_381" cx="0" cy="0" r="1" gradientUnits="userSpaceOnUse" gradientTransform="translate(68.9888 33.4139) rotate(3.16998) scale(40.9772 40.9772)">
<stop offset="0.1232" stop-color="#A55031"/>
<stop offset="1" stop-color="#592500"/>
</radialGradient>
<radialGradient id="paint28_radial_525_381" cx="0" cy="0" r="1" gradientUnits="userSpaceOnUse" gradientTransform="translate(68.9863 33.3995) rotate(3.16999) scale(40.9994 40.9995)">
<stop offset="0.1232" stop-color="#A55031"/>
<stop offset="1" stop-color="#592500"/>
</radialGradient>
<radialGradient id="paint29_radial_525_381" cx="0" cy="0" r="1" gradientUnits="userSpaceOnUse" gradientTransform="translate(68.9882 33.4174) rotate(3.16998) scale(40.9749 40.9749)">
<stop offset="0.1232" stop-color="#A55031"/>
<stop offset="1" stop-color="#592500"/>
</radialGradient>
<radialGradient id="paint30_radial_525_381" cx="0" cy="0" r="1" gradientUnits="userSpaceOnUse" gradientTransform="translate(68.9867 33.4057) rotate(3.16999) scale(40.9867 40.9868)">
<stop offset="0.1232" stop-color="#A55031"/>
<stop offset="1" stop-color="#592500"/>
</radialGradient>
<radialGradient id="paint31_radial_525_381" cx="0" cy="0" r="1" gradientUnits="userSpaceOnUse" gradientTransform="translate(68.993 33.4011) rotate(3.16998) scale(40.9959 40.9959)">
<stop offset="0.1232" stop-color="#A55031"/>
<stop offset="1" stop-color="#592500"/>
</radialGradient>
<radialGradient id="paint32_radial_525_381" cx="0" cy="0" r="1" gradientUnits="userSpaceOnUse" gradientTransform="translate(68.9899 33.3758) rotate(3.16994) scale(41.0318 41.0314)">
<stop offset="0.1232" stop-color="#A55031"/>
<stop offset="1" stop-color="#592500"/>
</radialGradient>
<radialGradient id="paint33_radial_525_381" cx="0" cy="0" r="1" gradientUnits="userSpaceOnUse" gradientTransform="translate(62.3967 35.8286) rotate(-15.9974) scale(40.9887 40.9888)">
<stop offset="0.1232" stop-color="#A55031"/>
<stop offset="1" stop-color="#592500"/>
</radialGradient>
<radialGradient id="paint34_radial_525_381" cx="0" cy="0" r="1" gradientUnits="userSpaceOnUse" gradientTransform="translate(62.8118 71.9295) rotate(3.16998) scale(5.63677 5.63677)">
<stop offset="0.0573" stop-color="#BF6C40"/>
<stop offset="0.7702" stop-color="#A55031"/>
</radialGradient>
<radialGradient id="paint35_radial_525_381" cx="0" cy="0" r="1" gradientUnits="userSpaceOnUse" gradientTransform="translate(73.9111 68.1722) rotate(3.16998) scale(6.30819)">
<stop offset="0.0573" stop-color="#BF6C40"/>
<stop offset="0.7702" stop-color="#A55031"/>
</radialGradient>
<radialGradient id="paint36_radial_525_381" cx="0" cy="0" r="1" gradientUnits="userSpaceOnUse" gradientTransform="translate(34.7419 32.3456) rotate(3.16998) scale(24.816 24.816)">
<stop offset="0.0573" stop-color="#BF6C40"/>
<stop offset="0.7702" stop-color="#A55031"/>
</radialGradient>
<radialGradient id="paint37_radial_525_381" cx="0" cy="0" r="1" gradientUnits="userSpaceOnUse" gradientTransform="translate(28.2238 39.4841) rotate(3.16998) scale(3.61461 3.61461)">
<stop offset="0.0573" stop-color="#BF6C40"/>
<stop offset="0.7702" stop-color="#A55031"/>
</radialGradient>
<radialGradient id="paint38_radial_525_381" cx="0" cy="0" r="1" gradientUnits="userSpaceOnUse" gradientTransform="translate(38.8828 40.0536) rotate(3.16998) scale(4.37573 4.37573)">
<stop offset="0.0573" stop-color="#BF6C40"/>
<stop offset="0.7702" stop-color="#A55031"/>
</radialGradient>
<linearGradient id="paint39_linear_525_381" x1="26.4225" y1="39.4178" x2="30.359" y2="39.6358" gradientUnits="userSpaceOnUse">
<stop stop-color="white"/>
<stop offset="0.8358" stop-color="#EAEAEA"/>
<stop offset="1" stop-color="#E5E5E5"/>
</linearGradient>
<linearGradient id="paint40_linear_525_381" x1="35.9081" y1="39.3905" x2="41.7001" y2="39.7113" gradientUnits="userSpaceOnUse">
<stop stop-color="white"/>
<stop offset="0.8358" stop-color="#EAEAEA"/>
<stop offset="1" stop-color="#E5E5E5"/>
</linearGradient>
<radialGradient id="paint41_radial_525_381" cx="0" cy="0" r="1" gradientUnits="userSpaceOnUse" gradientTransform="translate(28.7228 36.2132) rotate(-13.5079) scale(5.50791 4.86629)">
<stop offset="0.262" stop-color="#0BB8FF"/>
<stop offset="1" stop-color="#00496E"/>
</radialGradient>
<radialGradient id="paint42_radial_525_381" cx="0" cy="0" r="1" gradientUnits="userSpaceOnUse" gradientTransform="translate(29.6041 37.897) rotate(-22.8521) scale(4.6053 3.78713)">
<stop offset="0.2679" stop-color="#215673"/>
<stop offset="0.4726" stop-color="#1F526F"/>
<stop offset="0.6939" stop-color="#194862"/>
<stop offset="0.9223" stop-color="#0F364C"/>
<stop offset="1" stop-color="#0B2E43"/>
</radialGradient>
<linearGradient id="paint43_linear_525_381" x1="30.6497" y1="37.9585" x2="28.511" y2="38.8998" gradientUnits="userSpaceOnUse">
<stop stop-color="white"/>
<stop offset="0.8358" stop-color="#EAEAEA"/>
<stop offset="1" stop-color="#E5E5E5"/>
</linearGradient>
<radialGradient id="paint44_radial_525_381" cx="0" cy="0" r="1" gradientUnits="userSpaceOnUse" gradientTransform="translate(38.7608 36.1682) rotate(-15.2572) scale(6.17792 5.45804)">
<stop offset="0.262" stop-color="#0BB8FF"/>
<stop offset="1" stop-color="#00496E"/>
</radialGradient>
<radialGradient id="paint45_radial_525_381" cx="0" cy="0" r="1" gradientUnits="userSpaceOnUse" gradientTransform="translate(39.807 38.0259) rotate(-24.6103) scale(5.16522 4.24673)">
<stop offset="0.2679" stop-color="#215673"/>
<stop offset="0.4726" stop-color="#1F526F"/>
<stop offset="0.6939" stop-color="#194862"/>
<stop offset="0.9223" stop-color="#0F364C"/>
<stop offset="1" stop-color="#0B2E43"/>
</radialGradient>
<linearGradient id="paint46_linear_525_381" x1="40.9801" y1="38.0617" x2="38.6147" y2="39.1902" gradientUnits="userSpaceOnUse">
<stop stop-color="white"/>
<stop offset="0.8358" stop-color="#EAEAEA"/>
<stop offset="1" stop-color="#E5E5E5"/>
</linearGradient>
<radialGradient id="paint47_radial_525_381" cx="0" cy="0" r="1" gradientUnits="userSpaceOnUse" gradientTransform="translate(34.7365 20.912) rotate(3.16997) scale(8.71337 8.71336)">
<stop offset="0.1232" stop-color="#A55031"/>
<stop offset="1" stop-color="#592500"/>
</radialGradient>
<radialGradient id="paint48_radial_525_381" cx="0" cy="0" r="1" gradientUnits="userSpaceOnUse" gradientTransform="translate(34.7373 20.913) rotate(3.16998) scale(8.71376 8.71378)">
<stop offset="0.1232" stop-color="#A55031"/>
<stop offset="1" stop-color="#592500"/>
</radialGradient>
<radialGradient id="paint49_radial_525_381" cx="0" cy="0" r="1" gradientUnits="userSpaceOnUse" gradientTransform="translate(27.0216 49.0918) rotate(3.16997) scale(3.4527 3.4527)">
<stop offset="0.2806" stop-color="#483934"/>
<stop offset="1" stop-color="#2D231B"/>
</radialGradient>
<radialGradient id="paint50_radial_525_381" cx="0" cy="0" r="1" gradientUnits="userSpaceOnUse" gradientTransform="translate(34.2285 41.6974) rotate(3.16998) scale(11.7724 11.7724)">
<stop offset="0.1232" stop-color="#A55031"/>
<stop offset="1" stop-color="#592500"/>
</radialGradient>
<linearGradient id="paint51_linear_525_381" x1="30.7205" y1="58.5851" x2="32.0336" y2="52.8833" gradientUnits="userSpaceOnUse">
<stop offset="0.1146" stop-color="#E75667"/>
<stop offset="1" stop-color="#CA1A18"/>
</linearGradient>
<linearGradient id="paint52_linear_525_381" x1="28.8416" y1="52.8088" x2="35.3489" y2="53.1692" gradientUnits="userSpaceOnUse">
<stop stop-color="white"/>
<stop offset="0.8358" stop-color="#EAEAEA"/>
<stop offset="1" stop-color="#E5E5E5"/>
</linearGradient>
<radialGradient id="paint53_radial_525_381" cx="0" cy="0" r="1" gradientUnits="userSpaceOnUse" gradientTransform="translate(56.174 40.3721) rotate(3.16998) scale(12.1026 12.1026)">
<stop offset="0.1232" stop-color="#A55031"/>
<stop offset="1" stop-color="#592500"/>
</radialGradient>
<radialGradient id="paint54_radial_525_381" cx="0" cy="0" r="1" gradientUnits="userSpaceOnUse" gradientTransform="translate(38.3093 40.4694) rotate(3.16999) scale(10.338 10.338)">
<stop offset="0.1232" stop-color="#A55031"/>
<stop offset="1" stop-color="#592500"/>
</radialGradient>
<radialGradient id="paint55_radial_525_381" cx="0" cy="0" r="1" gradientUnits="userSpaceOnUse" gradientTransform="translate(31.714 116.11) rotate(3.16998) scale(1.65405)">
<stop offset="0.2806" stop-color="#483934"/>
<stop offset="1" stop-color="#2D231B"/>
</radialGradient>
<radialGradient id="paint56_radial_525_381" cx="0" cy="0" r="1" gradientUnits="userSpaceOnUse" gradientTransform="translate(60.9435 118.292) rotate(3.16998) scale(1.69295 1.69295)">
<stop offset="0.2806" stop-color="#483934"/>
<stop offset="1" stop-color="#2D231B"/>
</radialGradient>
<radialGradient id="paint57_radial_525_381" cx="0" cy="0" r="1" gradientUnits="userSpaceOnUse" gradientTransform="translate(78.4752 111.951) rotate(3.16997) scale(1.35174 1.35174)">
<stop offset="0.2806" stop-color="#483934"/>
<stop offset="1" stop-color="#2D231B"/>
</radialGradient>
<radialGradient id="paint58_radial_525_381" cx="0" cy="0" r="1" gradientUnits="userSpaceOnUse" gradientTransform="translate(31.1341 33.2296) rotate(3.16998) scale(12.2904 12.2904)">
<stop offset="0.1232" stop-color="#A55031"/>
<stop offset="1" stop-color="#592500"/>
</radialGradient>
<radialGradient id="paint59_radial_525_381" cx="0" cy="0" r="1" gradientUnits="userSpaceOnUse" gradientTransform="translate(55.7358 58.3833) rotate(3.16998) scale(47.4572 47.4572)">
<stop offset="0.1232" stop-color="#A55031"/>
<stop offset="1" stop-color="#592500"/>
</radialGradient>
<radialGradient id="paint60_radial_525_381" cx="0" cy="0" r="1" gradientUnits="userSpaceOnUse" gradientTransform="translate(55.757 58.3737) rotate(3.16998) scale(47.4744 47.4744)">
<stop offset="0.1232" stop-color="#A55031"/>
<stop offset="1" stop-color="#592500"/>
</radialGradient>
<radialGradient id="paint61_radial_525_381" cx="0" cy="0" r="1" gradientUnits="userSpaceOnUse" gradientTransform="translate(55.7709 58.3346) rotate(3.16999) scale(47.5112 47.5113)">
<stop offset="0.1232" stop-color="#A55031"/>
<stop offset="1" stop-color="#592500"/>
</radialGradient>
<radialGradient id="paint62_radial_525_381" cx="0" cy="0" r="1" gradientUnits="userSpaceOnUse" gradientTransform="translate(55.7655 58.2933) rotate(3.16999) scale(47.5651 47.5653)">
<stop offset="0.1232" stop-color="#A55031"/>
<stop offset="1" stop-color="#592500"/>
</radialGradient>
<radialGradient id="paint63_radial_525_381" cx="0" cy="0" r="1" gradientUnits="userSpaceOnUse" gradientTransform="translate(55.762 58.377) rotate(3.16997) scale(47.4733 47.4732)">
<stop offset="0.1232" stop-color="#A55031"/>
<stop offset="1" stop-color="#592500"/>
</radialGradient>
<radialGradient id="paint64_radial_525_381" cx="0" cy="0" r="1" gradientUnits="userSpaceOnUse" gradientTransform="translate(28.6635 32.1736) rotate(3.16998) scale(1.33494 1.33494)">
<stop offset="0.1232" stop-color="#A55031"/>
<stop offset="1" stop-color="#592500"/>
</radialGradient>
<radialGradient id="paint65_radial_525_381" cx="0" cy="0" r="1" gradientUnits="userSpaceOnUse" gradientTransform="translate(38.9115 32.635) rotate(3.16998) scale(1.87386 1.87386)">
<stop offset="0.1232" stop-color="#A55031"/>
<stop offset="1" stop-color="#592500"/>
</radialGradient>
<linearGradient id="paint66_linear_525_381" x1="24.7876" y1="50.0326" x2="28.2921" y2="50.2267" gradientUnits="userSpaceOnUse">
<stop stop-color="white"/>
<stop offset="0.8358" stop-color="#EAEAEA"/>
<stop offset="1" stop-color="#E5E5E5"/>
</linearGradient>
<linearGradient id="paint67_linear_525_381" x1="28.6237" y1="49.8271" x2="29.1283" y2="49.855" gradientUnits="userSpaceOnUse">
<stop stop-color="white"/>
<stop offset="0.8358" stop-color="#EAEAEA"/>
<stop offset="1" stop-color="#E5E5E5"/>
</linearGradient>
<radialGradient id="paint68_radial_525_381" cx="0" cy="0" r="1" gradientUnits="userSpaceOnUse" gradientTransform="translate(27.2877 46.1489) rotate(3.16998) scale(2.57828 2.57828)">
<stop offset="0.0627" stop-color="#F5D3A3"/>
<stop offset="1" stop-color="#E9B583"/>
</radialGradient>
<radialGradient id="paint69_radial_525_381" cx="0" cy="0" r="1" gradientUnits="userSpaceOnUse" gradientTransform="translate(24.9559 49.6642) rotate(3.16996) scale(0.144405)">
<stop offset="0.0627" stop-color="#F5D3A3"/>
<stop offset="1" stop-color="#E9B583"/>
</radialGradient>
<radialGradient id="paint70_radial_525_381" cx="0" cy="0" r="1" gradientUnits="userSpaceOnUse" gradientTransform="translate(46.3527 68.6983) rotate(3.16996) scale(20.41 20.4099)">
<stop offset="0.0627" stop-color="#F5D3A3"/>
<stop offset="1" stop-color="#E9B583"/>
</radialGradient>
<radialGradient id="paint71_radial_525_381" cx="0" cy="0" r="1" gradientUnits="userSpaceOnUse" gradientTransform="translate(46.3516 68.6851) rotate(3.16998) scale(20.3891 20.3891)">
<stop offset="0.0627" stop-color="#F5D3A3"/>
<stop offset="1" stop-color="#E9B583"/>
</radialGradient>
<radialGradient id="paint72_radial_525_381" cx="0" cy="0" r="1" gradientUnits="userSpaceOnUse" gradientTransform="translate(39.0758 58.2711) rotate(3.16998) scale(5.79268)">
<stop offset="0.0627" stop-color="#F5D3A3"/>
<stop offset="1" stop-color="#E9B583"/>
</radialGradient>
<radialGradient id="paint73_radial_525_381" cx="0" cy="0" r="1" gradientUnits="userSpaceOnUse" gradientTransform="translate(38.342 68.4719) rotate(3.16998) scale(1.95376 1.95376)">
<stop offset="0.0627" stop-color="#F5D3A3"/>
<stop offset="1" stop-color="#E9B583"/>
</radialGradient>
<radialGradient id="paint74_radial_525_381" cx="0" cy="0" r="1" gradientUnits="userSpaceOnUse" gradientTransform="translate(40.5184 74.0216) rotate(3.16998) scale(2.41847 2.41847)">
<stop offset="0.0627" stop-color="#F5D3A3"/>
<stop offset="1" stop-color="#E9B583"/>
</radialGradient>
<radialGradient id="paint75_radial_525_381" cx="0" cy="0" r="1" gradientUnits="userSpaceOnUse" gradientTransform="translate(67.8653 56.148) rotate(3.16998) scale(44.5728 44.5728)">
<stop offset="0.0573" stop-color="#BF6C40"/>
<stop offset="0.7702" stop-color="#A55031"/>
</radialGradient>
<radialGradient id="paint76_radial_525_381" cx="0" cy="0" r="1" gradientUnits="userSpaceOnUse" gradientTransform="translate(67.1244 56.0427) rotate(3.16996) scale(47.6185 47.6183)">
<stop offset="0.0573" stop-color="#BF6C40"/>
<stop offset="0.7702" stop-color="#A55031"/>
</radialGradient>
<radialGradient id="paint77_radial_525_381" cx="0" cy="0" r="1" gradientUnits="userSpaceOnUse" gradientTransform="translate(67.1225 56.0455) rotate(3.16998) scale(47.6159 47.6159)">
<stop offset="0.0573" stop-color="#BF6C40"/>
<stop offset="0.7702" stop-color="#A55031"/>
</radialGradient>
<radialGradient id="paint78_radial_525_381" cx="0" cy="0" r="1" gradientUnits="userSpaceOnUse" gradientTransform="translate(34.7415 32.3472) rotate(3.16998) scale(24.8167 24.8167)">
<stop offset="0.0573" stop-color="#BF6C40"/>
<stop offset="0.7702" stop-color="#A55031"/>
</radialGradient>
<radialGradient id="paint79_radial_525_381" cx="0" cy="0" r="1" gradientUnits="userSpaceOnUse" gradientTransform="translate(67.5004 53.0888) rotate(3.16998) scale(3.64541 3.64541)">
<stop offset="0.0627" stop-color="#F5D3A3"/>
<stop offset="1" stop-color="#E9B583"/>
</radialGradient>
<radialGradient id="paint80_radial_525_381" cx="0" cy="0" r="1" gradientUnits="userSpaceOnUse" gradientTransform="translate(73.1606 52.9614) rotate(3.16996) scale(0.617519 0.617516)">
<stop offset="0.0627" stop-color="#F5D3A3"/>
<stop offset="1" stop-color="#E9B583"/>
</radialGradient>
</defs>
</svg>
