<svg width="100" height="122" viewBox="0 0 100 122" fill="none" xmlns="http://www.w3.org/2000/svg">
<path d="M78.6568 116.522C78.5998 116.473 78.5638 116.417 78.5448 116.356C78.0448 116.889 77.1288 118.07 76.6738 119.919C76.5628 120.364 77.7328 121.559 80.7908 121.133C83.8528 120.708 84.3768 119.594 84.3768 119.401C84.3768 119.234 84.3108 117.569 83.9408 116.203C82.5238 117.273 79.3148 117.074 78.6568 116.522Z" fill="url(#paint0_radial_525_9)"/>
<path d="M48.1829 116.008C47.6009 116.25 46.4809 116.444 45.1959 116.393C44.0149 116.346 42.7848 115.772 42.1688 115.293C41.4168 115.97 40.0579 117.512 39.6719 120.059C39.6089 120.472 41.6149 121.479 44.2739 121.149C46.9299 120.82 48.3849 119.19 48.4539 118.929C48.5089 118.711 48.4379 116.995 48.1829 116.008Z" fill="url(#paint1_radial_525_9)"/>
<path d="M68.8688 114.331C68.1808 114.184 67.5298 113.878 67.1908 113.586C66.7778 114.003 65.4808 115.312 65.6478 116.631C65.7058 117.087 66.7508 117.547 68.9818 117.468C70.8808 117.4 72.0168 116.314 72.0348 116.133C72.0908 115.612 71.9388 114.312 71.6348 113.733C70.9528 114.096 69.6718 114.501 68.8688 114.331Z" fill="url(#paint2_radial_525_9)"/>
<path d="M68.5668 93.0644C69.1358 97.7924 68.4738 99.9644 68.5888 102.3C68.7058 104.637 68.4778 110.909 66.3398 113.536C66.0058 113.943 67.2068 114.477 68.5808 114.769C69.9528 115.063 71.9488 114.602 72.0228 114.193C72.0938 113.785 71.5848 106.021 71.7668 105.13C71.9518 104.239 73.2718 98.1524 73.9318 95.3314C74.5928 92.5124 76.6258 89.6864 76.7338 88.0184C76.8388 86.3484 75.5428 86.0184 74.7598 84.9814C73.9808 83.9454 73.8918 77.8984 73.8918 77.8984C70.1338 80.9494 65.1858 82.8164 65.1858 82.8164C65.1858 82.8164 68.0008 88.3374 68.5668 93.0644Z" fill="url(#paint3_radial_525_9)"/>
<g opacity="0.4">
<path d="M74.7608 84.9814C73.9818 83.9454 73.8928 77.8984 73.8928 77.8984C70.1348 80.9494 65.1868 82.8164 65.1868 82.8164C65.1868 82.8164 65.7068 83.8354 66.3428 85.3704C66.9518 84.8194 68.4198 84.6214 68.9938 84.4924C69.8488 84.2994 71.3768 83.7654 71.9658 84.7034C72.4398 85.4614 72.7938 86.2974 73.2248 87.0784C73.6308 87.8114 73.9398 88.6484 73.6988 89.4954C73.3108 90.8604 72.5668 92.0864 72.1688 93.4414C71.7488 94.8644 71.5198 96.3454 71.3328 97.8134C70.9578 100.814 70.6228 103.816 70.5168 106.84C70.4648 108.32 70.4248 109.805 70.4578 111.285C70.4738 112.003 70.5168 112.741 70.3958 113.453C70.2958 114.054 70.0748 114.514 69.7578 114.857C70.8748 114.819 71.9698 114.492 72.0248 114.192C72.0958 113.784 71.5868 106.02 71.7688 105.129C71.9538 104.238 73.2738 98.1514 73.9338 95.3304C74.5948 92.5114 76.6278 89.6854 76.7358 88.0174C76.8398 86.3484 75.5428 86.0184 74.7608 84.9814Z" fill="#C9771D"/>
</g>
<path d="M99.4829 92.8063C97.6919 91.4913 96.6119 89.6663 95.9529 87.6573C96.3119 88.0093 96.7269 88.3023 97.1919 88.5153C97.4619 88.5053 97.7349 88.5043 98.0029 88.4863C97.3819 86.8533 96.2459 85.4893 95.6449 83.8473C95.4819 83.4003 95.3929 82.9313 95.3279 82.4543C95.6919 83.1053 96.1279 83.7223 96.6409 84.2923C95.6689 81.8853 95.5789 79.1233 95.9199 76.4983C96.5369 71.7483 95.3369 66.6083 94.0119 62.0623C92.7749 57.8153 90.7159 53.5963 87.0519 50.9353C85.2579 49.6323 83.1539 50.0573 81.3799 51.1543C81.3199 51.1923 81.2619 51.3763 81.3739 51.3303C80.6289 52.1853 81.0319 53.4373 81.4489 54.3923C82.2489 56.2363 83.5859 57.8623 84.7899 59.4533C88.5489 64.4223 90.2498 71.4123 87.0988 77.0873C87.0088 77.2493 87.0569 77.4963 87.2699 77.3343C88.1069 76.6943 88.7489 75.8883 89.2249 74.9853C88.2089 78.6443 86.4669 82.4263 88.6279 85.9383C88.7409 86.1223 88.9649 85.7693 88.9799 85.6763C89.0879 84.9943 89.1379 84.3063 89.1659 83.6153C89.2299 85.0083 89.4279 86.4033 89.7959 87.8073C90.3709 90.0023 92.4689 93.6403 91.2869 95.9663C91.1529 96.3623 90.9789 96.7413 90.7789 97.1133C91.5419 96.5993 92.0899 95.9013 92.4399 95.1013C92.4829 96.8613 92.2249 98.6023 91.4959 100.199C92.0339 100.138 92.5599 99.9863 93.0569 99.7593C93.9909 98.8583 94.4909 97.5373 94.6819 96.1113C94.8249 96.7083 94.9569 97.3083 95.0619 97.9173C95.4409 97.5623 95.7449 97.1173 95.9879 96.6373C96.5249 94.9133 96.2749 93.0673 95.7989 91.2883C96.4769 92.0973 97.3209 92.7493 98.2699 93.0743C98.7019 93.0913 99.1409 93.0253 99.5339 92.8863C99.5239 92.8563 99.5109 92.8273 99.4829 92.8063Z" fill="url(#paint4_radial_525_9)"/>
<path opacity="0.5" d="M99.4828 92.8037C97.6918 91.4887 96.6118 89.6637 95.9528 87.6547C96.3118 88.0067 96.7268 88.2997 97.1918 88.5127C97.2688 88.5107 97.3448 88.5077 97.4218 88.5057C96.1568 87.3937 94.9358 85.9887 94.1908 84.4317C94.0938 84.2867 94.0058 84.1357 93.9188 83.9867C93.6408 85.1847 93.4448 86.3957 93.5538 87.6247C93.7368 89.6867 94.5658 91.5447 95.2658 93.4677C95.3368 93.6657 95.0578 93.8137 94.9208 93.6697C92.9568 91.6197 91.3498 89.5727 91.1838 86.6127C91.1658 86.2907 91.1628 85.9697 91.1708 85.6517C91.0648 84.3977 91.1238 83.1237 91.3408 81.8697C92.0108 77.9567 93.3698 74.3447 92.9868 70.3057C92.5908 66.1327 91.3088 62.1677 89.5378 58.3857C88.6538 56.4987 87.6078 54.8307 86.2928 53.2137C85.7178 52.5067 85.1598 51.7177 84.4668 51.1237C84.1408 50.8427 83.8378 50.5817 83.6668 50.2227C82.8788 50.3747 82.1038 50.7067 81.3808 51.1537C81.3208 51.1917 81.2628 51.3757 81.3748 51.3297C80.6298 52.1847 81.0328 53.4367 81.4498 54.3917C82.2498 56.2357 83.5868 57.8617 84.7908 59.4527C88.5498 64.4217 90.2508 71.4117 87.0998 77.0867C87.0098 77.2487 87.0578 77.4957 87.2708 77.3337C88.1078 76.6937 88.7498 75.8877 89.2258 74.9847C88.2098 78.6437 86.4678 82.4257 88.6288 85.9377C88.7418 86.1217 88.9658 85.7687 88.9808 85.6757C89.0888 84.9937 89.1388 84.3057 89.1668 83.6147C89.2308 85.0077 89.4288 86.4027 89.7968 87.8067C90.3718 90.0017 92.4698 93.6397 91.2878 95.9657C91.1538 96.3617 90.9798 96.7407 90.7798 97.1127C91.5428 96.5987 92.0908 95.9007 92.4408 95.1007C92.4838 96.8607 92.2258 98.6017 91.4968 100.199C92.0348 100.138 92.5608 99.9857 93.0578 99.7587C93.9918 98.8577 94.4918 97.5367 94.6828 96.1107C94.8258 96.7077 94.9578 97.3077 95.0628 97.9167C95.4418 97.5617 95.7458 97.1167 95.9888 96.6367C96.5258 94.9127 96.2758 93.0667 95.7998 91.2877C96.4778 92.0967 97.3218 92.7487 98.2708 93.0737C98.7028 93.0907 99.1418 93.0247 99.5348 92.8857C99.5238 92.8537 99.5108 92.8247 99.4828 92.8037Z" fill="#A16114"/>
<path d="M38.9258 113.709C37.0338 114.538 34.9518 114.23 34.0038 113.667C33.9288 113.62 33.8648 113.57 33.8068 113.517C33.3928 113.903 32.7858 114.568 32.2978 115.524C31.5768 116.947 31.6948 117.401 32.0188 117.63C32.3428 117.859 35.6218 119.165 38.9998 117.22C39.7958 116.763 39.4178 114.135 39.2948 113.387C39.1878 113.539 39.0638 113.647 38.9258 113.709Z" fill="url(#paint5_radial_525_9)"/>
<path d="M24.3638 65.8477C24.2118 68.0567 24.1318 70.0467 24.5308 71.6037C25.4728 75.2837 28.8258 80.5967 30.8308 83.8767C32.8348 87.1557 34.8938 90.0877 34.4118 92.9847C33.9298 95.8837 34.4988 96.1277 35.3728 97.0577C36.2478 97.9847 35.1428 100.872 34.0908 104.767C33.0368 108.66 31.9538 114.32 33.0978 114.752C34.2408 115.185 37.3998 115.146 39.3048 113.873C40.4218 113.126 39.6098 104.953 38.9848 99.5357C38.8478 98.3737 38.8108 97.6207 39.4848 97.0857C40.1578 96.5527 40.7098 95.6167 39.7298 93.7757C38.7498 91.9337 38.6808 90.7607 39.0638 88.0487C39.4448 85.3357 39.6498 83.4977 39.5018 81.0417C30.8538 79.2057 24.2708 69.7997 24.3638 65.8477Z" fill="url(#paint6_linear_525_9)"/>
<path opacity="0.4" d="M39.4838 97.0877C40.1568 96.5547 40.7088 95.6187 39.7288 93.7777C38.7488 91.9357 38.6798 90.7627 39.0628 88.0507C39.4438 85.3377 39.6488 83.4997 39.5008 81.0437C30.8548 79.2047 24.2718 69.7997 24.3648 65.8477C24.2128 68.0567 24.1328 70.0467 24.5318 71.6037C24.6398 72.0227 24.7808 72.4647 24.9458 72.9197L24.9478 72.9227C26.6268 75.1977 28.4858 77.3647 30.5088 79.3417C32.1078 80.9027 34.2618 82.1847 35.5628 84.0187C36.7288 85.6637 37.0148 87.7027 37.0578 89.6767C37.0828 90.7887 36.8298 92.1247 37.2048 93.1907C37.4908 94.0007 37.9828 94.9577 37.8298 95.8477C37.6228 97.0747 36.9258 97.9937 37.0618 99.2917C37.2018 100.603 37.3428 101.913 37.4008 103.231C37.5198 105.831 37.5428 108.479 37.4008 111.08C37.3238 112.537 37.3298 113.943 36.2588 114.912C37.3288 114.77 38.4428 114.449 39.3028 113.875C40.4198 113.128 39.6078 104.955 38.9828 99.5377C38.8468 98.3757 38.8098 97.6227 39.4838 97.0877Z" fill="#C9771D"/>
<path d="M88.9618 82.7077C90.1388 78.1057 92.9118 74.5737 91.7078 67.1587C90.5028 59.7427 83.3518 46.9637 76.2318 47.8147C69.1108 48.6657 71.4768 49.9967 63.9938 49.3447C54.8688 48.5507 50.0538 51.5297 44.1868 49.6897C40.4508 48.5157 34.4588 32.5787 30.8568 21.8667C30.3098 20.9407 29.7708 20.0107 29.1948 19.0997C28.4548 17.9297 27.4598 17.0257 26.4418 16.1367C23.9528 22.2687 21.8968 31.9977 21.3148 32.9937C21.9998 34.3017 25.5668 52.6517 25.5798 54.7767C25.5998 58.1137 24.7178 61.4347 24.0328 64.3737C23.3098 68.2607 28.3058 78.5957 36.5478 81.7907C36.5478 81.7907 38.3688 83.0097 39.9648 83.9707C39.9648 83.9707 41.7348 87.2867 42.7408 89.6217C43.7488 91.9567 44.4028 94.2727 43.8508 95.4987C43.2958 96.7237 43.5558 97.3907 44.4878 97.9077C45.4148 98.4257 44.5708 102.21 43.5758 105.365C42.5838 108.521 41.6668 115.027 41.7038 115.435C41.7428 115.843 41.9138 116.519 44.3428 116.874C46.0058 117.118 47.9428 116.669 48.1618 116.298C48.3858 115.926 48.8408 103.72 48.6858 101.568C48.5328 99.4177 48.2548 99.1957 48.8168 97.9327C49.3798 96.6707 50.9358 95.7397 49.7438 94.2217C48.5538 92.7037 48.7378 91.8867 49.0678 90.3297C49.3988 88.7697 49.8708 85.1337 49.8708 85.1337C49.8708 85.1337 57.9248 86.4877 65.1878 83.9857C65.1878 83.9857 70.1348 82.1187 73.8928 79.0677L75.5588 77.5807C75.5588 77.5807 80.6748 83.9117 82.1378 91.1417C83.6008 98.3707 81.9998 101.857 80.9478 105.666C80.1958 108.394 77.6248 115.943 78.3288 116.535C79.0348 117.127 82.9268 117.802 84.1468 116.454C84.5168 116.044 83.6828 109.164 85.4138 103.635C87.1428 98.1037 88.2498 95.2807 88.9878 94.0937C89.7268 92.9047 90.2098 92.7167 89.1278 90.6437C88.0488 88.5697 87.7868 87.3087 88.9618 82.7077Z" fill="url(#paint7_radial_525_9)"/>
<path opacity="0.4" d="M78.2328 78.8444C78.3948 77.3224 79.1428 76.0224 79.9418 74.7454C80.8368 72.8684 82.0938 71.1614 82.4858 69.0614C82.8948 66.8624 82.8498 64.6344 82.4228 62.4564C82.3818 62.3414 82.3488 62.2234 82.3028 62.1094C81.6568 66.9684 79.4448 71.5224 74.8438 73.9074C72.1308 75.3124 69.1278 76.1204 66.2048 76.9664C65.2648 77.2374 64.3028 77.5154 63.3268 77.7444C61.0868 78.3654 58.7638 78.8374 56.4858 78.7874C55.3698 78.7644 53.9058 78.6494 53.1048 77.7474C52.7668 77.3644 52.5468 76.9014 52.5078 76.3854C52.4138 75.1274 52.4528 73.8644 52.3918 72.6034C52.2378 69.4694 50.9888 66.8284 48.6838 64.6774C47.7968 63.8514 46.8318 63.1204 45.8458 62.4184C47.3458 64.7804 48.5648 67.2934 48.9778 70.1034C49.7908 75.6064 47.9518 80.8054 47.3858 86.2054C47.2888 87.1384 47.1958 88.0924 46.9628 89.0034C46.9018 89.2334 46.8318 89.5494 46.7148 89.8344C46.7088 90.3044 46.7408 90.7694 46.8428 91.2244C47.1278 92.5174 48.0618 93.5404 48.1498 94.8914C48.1818 95.4054 47.8068 95.8504 47.5468 96.2464C46.9398 97.1734 47.1558 97.9194 47.2008 98.9374C47.2748 100.615 47.1728 102.29 46.9528 103.953C46.6888 105.932 46.3158 107.891 46.0818 109.875C45.9008 111.392 45.8098 113.063 45.2308 114.488C44.6438 115.93 43.1068 116.29 41.8148 115.827C42.0158 116.196 42.5918 116.619 44.3418 116.875C46.0048 117.119 47.9418 116.67 48.1608 116.299C48.3848 115.927 48.8398 103.721 48.6848 101.569C48.5318 99.4194 48.2538 99.1974 48.8158 97.9344C49.3788 96.6724 50.9348 95.7414 49.7428 94.2234C48.5528 92.7054 48.7368 91.8884 49.0668 90.3314C49.3978 88.7714 49.8698 85.1354 49.8698 85.1354C49.8698 85.1354 57.9238 86.4894 65.1868 83.9874C65.1868 83.9874 70.1338 82.1204 73.8918 79.0694L75.5578 77.5824C75.5578 77.5824 76.8658 79.2054 78.3508 81.7424C78.1948 80.7894 78.1308 79.8244 78.2328 78.8444Z" fill="#C9771D"/>
<path opacity="0.4" d="M88.9618 82.7077C90.1388 78.1057 92.9118 74.5737 91.7078 67.1587C90.5028 59.7427 83.3518 46.9637 76.2318 47.8147C69.1108 48.6657 71.4768 49.9967 63.9938 49.3447C54.8688 48.5507 50.0538 51.5297 44.1868 49.6897C40.4508 48.5157 34.4588 32.5787 30.8568 21.8667C30.3098 20.9407 29.7708 20.0107 29.1948 19.0997C28.4548 17.9297 27.4598 17.0257 26.4418 16.1367C23.9528 22.2687 21.8968 31.9977 21.3148 32.9937C21.9998 34.3017 25.5668 52.6517 25.5798 54.7767C25.5998 58.1137 24.7178 61.4347 24.0328 64.3737C23.3098 68.2607 28.3058 78.5957 36.5478 81.7907C36.5478 81.7907 38.3688 83.0097 39.9648 83.9707C39.9648 83.9707 41.3458 86.5587 42.3628 88.7717C42.2978 88.5607 42.2348 88.3507 42.1698 88.1407C41.3778 85.5857 40.0198 83.5367 38.4378 81.4167C36.1358 78.3327 33.5428 74.9347 32.7728 71.0787C32.3728 69.6307 32.1938 68.1497 32.2768 66.6517C31.3688 69.4427 31.2068 72.4527 31.9308 75.3657C31.9678 75.5187 31.8308 75.6607 31.6768 75.6207C30.2518 75.2537 29.1388 74.0227 28.2228 72.9407C27.1688 71.7007 26.1818 70.3687 25.6178 68.8257C25.0038 67.1457 24.8018 65.3447 25.1658 63.5847C25.6098 61.4427 26.5488 59.4227 26.7158 57.2247C27.0468 52.8727 25.8018 48.4117 24.8138 44.2047C24.6378 43.4577 24.3798 42.6067 24.1928 41.7417C23.9378 40.8787 23.6448 40.0227 23.5198 39.1337C23.5088 39.0507 23.4908 38.9437 23.4708 38.8257C23.1168 37.8707 22.6098 36.6867 23.8038 36.2357C25.8608 35.4597 27.7708 34.3527 29.4688 32.9607C29.6028 32.8497 29.8188 32.9117 29.8218 33.1057C29.8328 33.7247 29.8018 34.3327 29.7368 34.9337C29.8408 34.8637 29.9428 34.7937 30.0418 34.7157C30.1968 34.5917 30.4388 34.6997 30.3868 34.9157C30.1218 36.0017 29.8448 37.1377 29.4548 38.2027C30.1208 37.9247 30.7668 37.6127 31.3808 37.2107C31.4728 37.1497 31.6098 37.1907 31.6628 37.2837C32.5428 38.8357 32.8898 40.9897 33.1398 42.7327C33.3048 43.8747 33.4848 45.0357 33.5268 46.1877C33.5298 46.2587 33.5298 46.3317 33.5318 46.4037C33.8828 46.1697 34.2408 45.9447 34.6048 45.7247C34.7188 45.6557 34.8698 45.7207 34.9068 45.8477C35.3058 47.1917 34.8718 48.5327 34.4678 49.8277C35.2108 49.7047 35.8778 49.3497 36.5968 48.9877C36.7438 48.9127 37.0038 48.7667 37.1538 48.9257C37.4238 49.2147 37.4168 49.7397 37.5578 50.0937C37.9748 51.1447 38.6058 52.0687 39.3448 52.9197C39.7368 53.3697 40.1488 53.8047 40.5788 54.2207C40.5478 53.7967 40.4998 53.3757 40.3608 52.9677C40.2868 52.7457 40.6328 52.5997 40.7388 52.8087C41.6068 54.5137 44.9088 54.8427 46.6098 55.0957C46.8458 55.1307 47.0908 55.1647 47.3408 55.1967C46.7778 54.5817 46.2368 53.9527 45.9418 53.1617C45.8748 52.9817 46.0958 52.8487 46.2438 52.9277C48.1818 53.9657 50.5198 52.5587 52.3068 51.7967C54.1448 51.0127 56.0668 50.7377 58.0598 50.6957C60.7738 50.6377 63.5438 50.7227 66.2398 51.0627C66.2898 51.0697 66.3398 51.0757 66.3888 51.0827C67.2178 51.0057 68.0438 50.8947 68.8618 50.7457C70.2238 50.4957 71.5458 50.1357 72.8858 49.7967C74.8558 49.2987 76.4908 49.0327 78.4568 49.7297C78.8728 49.8767 79.2798 49.9097 79.7698 50.2657C80.3338 50.6777 80.8698 51.1267 81.3768 51.6077C83.7868 53.8957 85.2288 56.5417 86.6238 59.5157C87.4548 61.2857 88.3228 62.9787 88.8108 64.8887C89.4518 67.4117 89.3848 69.6917 88.3278 72.1027C87.9898 72.8737 87.6028 73.6237 87.2028 74.3727C86.2398 77.0617 85.0278 79.6887 84.6488 82.5227C84.3398 84.8287 84.7748 86.8487 85.5508 89.0127C86.1778 90.7707 86.6938 92.5417 85.9988 94.3577C85.6238 95.3317 85.0988 96.2127 84.8188 97.2337C84.5408 98.2427 84.3388 99.2697 84.1888 100.306C83.8758 102.501 83.6228 104.7 83.2818 106.892C82.9098 109.308 82.5718 111.697 82.7348 114.142C82.7808 114.857 82.8388 115.739 82.3888 116.358C82.1418 116.7 81.8348 116.972 81.5188 117.238C82.5798 117.243 83.6178 117.04 84.1478 116.454C84.5178 116.044 83.6838 109.164 85.4148 103.635C87.1438 98.1037 88.2508 95.2807 88.9888 94.0937C89.7278 92.9047 90.2108 92.7167 89.1288 90.6437C88.0488 88.5697 87.7868 87.3087 88.9618 82.7077Z" fill="#C9771D"/>
<g opacity="0.5">
<path d="M32.5198 72.0078C32.5198 72.0078 32.5538 72.2688 32.6458 72.7218C32.6938 72.9478 32.7528 73.2218 32.8348 73.5308C32.9158 73.8418 33.0188 74.1878 33.1398 74.5638C33.2638 74.9388 33.4098 75.3398 33.5828 75.7558C33.6698 75.9648 33.7718 76.1718 33.8688 76.3888C33.9698 76.6018 34.0848 76.8148 34.1938 77.0348C34.3068 77.2538 34.4388 77.4648 34.5638 77.6838C34.6938 77.9018 34.8418 78.1088 34.9838 78.3248C35.1268 78.5388 35.2948 78.7378 35.4488 78.9468C35.6078 79.1518 35.7928 79.3388 35.9638 79.5368C36.3158 79.9258 36.6878 80.3038 37.0448 80.6808C37.4028 81.0548 37.7588 81.4258 38.0998 81.7838C38.2708 81.9638 38.4378 82.1418 38.5998 82.3158C38.7618 82.4918 38.9128 82.6718 39.0628 82.8428C39.2128 83.0118 39.3498 83.1878 39.4808 83.3598C39.6078 83.5308 39.7448 83.6878 39.8468 83.8578C39.9578 84.0248 40.0628 84.1838 40.1618 84.3358C40.2598 84.4868 40.3358 84.6438 40.4148 84.7828C40.4938 84.9258 40.5648 85.0578 40.6318 85.1798C40.6958 85.3028 40.7478 85.4208 40.7988 85.5248C40.9948 85.9428 41.1088 86.1818 41.1088 86.1818C41.1088 86.1818 40.9838 85.9498 40.7618 85.5448C40.7048 85.4428 40.6478 85.3288 40.5788 85.2098C40.5058 85.0908 40.4268 84.9628 40.3438 84.8258C40.2588 84.6888 40.1768 84.5398 40.0718 84.3928C39.9688 84.2468 39.8608 84.0918 39.7478 83.9308C39.6408 83.7648 39.4978 83.6158 39.3678 83.4488C39.2358 83.2818 39.0958 83.1128 38.9378 82.9508C38.6388 82.6128 38.3048 82.2718 37.9608 81.9168C37.6138 81.5618 37.2578 81.1958 36.8958 80.8258C36.5348 80.4498 36.1608 80.0808 35.8008 79.6888C35.6288 79.4848 35.4438 79.2928 35.2818 79.0818C35.1268 78.8668 34.9598 78.6618 34.8138 78.4438C34.6718 78.2228 34.5218 78.0088 34.3928 77.7898C34.2678 77.5638 34.1358 77.3488 34.0228 77.1258C33.9148 76.9008 33.7968 76.6848 33.7028 76.4658C33.6138 76.2428 33.5148 76.0298 33.4348 75.8178C33.2708 75.3908 33.1358 74.9818 33.0208 74.6008C32.9078 74.2198 32.8228 73.8658 32.7538 73.5498C32.6868 73.2338 32.6398 72.9568 32.6038 72.7288C32.5348 72.2728 32.5198 72.0078 32.5198 72.0078Z" fill="#AC6710"/>
</g>
<g opacity="0.5">
<path d="M81.9738 67.7188C81.9738 67.7188 81.9228 67.9278 81.8068 68.2848C81.7438 68.4618 81.6768 68.6788 81.5818 68.9238C81.5358 69.0448 81.4858 69.1768 81.4338 69.3148C81.3778 69.4478 81.3158 69.5908 81.2528 69.7398C81.1298 70.0368 80.9748 70.3488 80.8198 70.6848C80.6478 71.0118 80.4858 71.3678 80.2788 71.7128C80.1778 71.8888 80.0778 72.0668 79.9738 72.2448C79.8658 72.4218 79.7518 72.5988 79.6428 72.7808C79.4238 73.1428 79.1758 73.4947 78.9348 73.8497C78.6918 74.2057 78.4158 74.5358 78.1618 74.8748C77.9038 75.2098 77.6268 75.5198 77.3688 75.8298C77.1098 76.1388 76.8268 76.4098 76.5748 76.6788C76.3268 76.9518 76.0638 77.1838 75.8318 77.4058C75.5948 77.6248 75.3878 77.8328 75.1818 77.9958C74.9788 78.1618 74.8028 78.3068 74.6568 78.4268C74.3658 78.6618 74.1998 78.7968 74.1998 78.7968C74.1998 78.7968 74.3558 78.6508 74.6278 78.3928C74.7688 78.2668 74.9338 78.1128 75.1248 77.9358C75.3198 77.7608 75.5148 77.5408 75.7448 77.3168C75.9698 77.0868 76.2208 76.8478 76.4578 76.5688C76.6978 76.2918 76.9658 76.0118 77.2198 75.7038C77.4728 75.3928 77.7458 75.0838 77.9988 74.7478C78.2478 74.4078 78.5188 74.0778 78.7528 73.7218C78.9978 73.3718 79.2488 73.0278 79.4668 72.6698C79.5818 72.4918 79.6928 72.3178 79.8038 72.1438C79.9078 71.9658 80.0118 71.7888 80.1118 71.6178C80.3178 71.2748 80.4948 70.9298 80.6768 70.6118C80.8418 70.2858 81.0068 69.9788 81.1378 69.6868C81.2778 69.3968 81.4038 69.1318 81.5038 68.8928C81.6138 68.6558 81.6948 68.4438 81.7688 68.2698C81.9028 67.9218 81.9738 67.7188 81.9738 67.7188Z" fill="#AC6710"/>
</g>
<g opacity="0.5">
<path d="M50.9299 68.9609C50.9299 68.9609 50.9689 69.0249 51.0349 69.1529C51.0979 69.2809 51.1939 69.4689 51.2909 69.7199C51.3939 69.9679 51.4979 70.2769 51.6009 70.6359C51.7049 70.9949 51.7939 71.4069 51.8689 71.8629C51.9029 72.0919 51.9309 72.3309 51.9619 72.5769C51.9779 72.8239 51.9939 73.0809 52.0109 73.3449C52.0139 73.6099 52.0219 73.8809 52.0169 74.1569C52.0019 74.4339 51.9889 74.7189 51.9679 75.0059C51.9339 75.2909 51.8999 75.5829 51.8629 75.8779C51.8119 76.1699 51.7569 76.4649 51.7039 76.7639C51.5679 77.3549 51.4179 77.9489 51.2669 78.5389C51.1899 78.8349 51.1109 79.1289 51.0339 79.4239C50.9949 79.5719 50.9579 79.7179 50.9179 79.8639C50.8849 80.0109 50.8529 80.1579 50.8189 80.3039C50.6909 80.8909 50.5479 81.4639 50.4379 82.0259C50.3299 82.5869 50.2239 83.1299 50.1229 83.6439C50.0339 84.1619 49.9489 84.6499 49.8729 85.0999C49.8039 85.5529 49.7389 85.9679 49.6829 86.3369C49.6309 86.7049 49.5889 87.0259 49.5519 87.2909C49.5209 87.5559 49.4949 87.7649 49.4779 87.9069C49.4609 88.0499 49.4529 88.1249 49.4529 88.1249C49.4529 88.1249 49.4679 87.8189 49.5099 87.2859C49.5349 87.0199 49.5669 86.6959 49.6009 86.3249C49.6469 85.9549 49.6959 85.5379 49.7489 85.0819C49.8159 84.6279 49.8879 84.1369 49.9649 83.6159C50.0499 83.0969 50.1489 82.5519 50.2509 81.9859C50.3559 81.4229 50.4949 80.8429 50.6199 80.2549C50.6509 80.1069 50.6829 79.9579 50.7169 79.8109C50.7509 79.6639 50.7909 79.5169 50.8279 79.3709C50.9019 79.0749 50.9779 78.7789 51.0529 78.4829C51.2119 77.8909 51.3649 77.2979 51.5019 76.7199C51.5559 76.4259 51.6119 76.1349 51.6669 75.8459C51.7029 75.5559 51.7399 75.2699 51.7769 74.9879C51.8019 74.7039 51.8139 74.4239 51.8369 74.1499C51.8479 73.8779 51.8459 73.6099 51.8519 73.3479C51.8419 73.0869 51.8309 72.8319 51.8229 72.5879C51.7959 72.3429 51.7769 72.1059 51.7489 71.8809C51.6849 71.4299 51.6129 71.0179 51.5239 70.6559C51.4359 70.2969 51.3449 69.9849 51.2539 69.7339C51.0769 69.2309 50.9299 68.9609 50.9299 68.9609Z" fill="#AC6710"/>
</g>
<path d="M45.8759 48.636C45.6009 48.45 45.3419 48.248 45.1099 48.023C45.1569 48.041 45.2059 48.053 45.2529 48.07C45.1919 48.009 45.1389 47.945 45.0809 47.882C45.4059 47.966 45.7279 48.045 46.0519 48.123C46.2079 48.16 46.3759 47.815 46.2479 47.717C44.4349 46.313 43.3439 44.321 41.9919 42.532C42.0659 42.584 42.1389 42.636 42.2159 42.685C42.3609 42.779 42.5289 42.452 42.4919 42.34C41.7949 40.272 40.5449 38.479 39.3009 36.695C39.4859 36.858 39.6729 37.02 39.8619 37.179C39.9919 37.288 40.1739 36.941 40.1339 36.838C39.4089 34.891 38.5549 32.92 37.4409 31.14C37.5949 31.276 37.7539 31.408 37.9209 31.534C38.0599 31.636 38.2249 31.302 38.1909 31.197C37.5949 29.39 36.7509 27.713 35.7329 26.131C35.6859 25.976 35.6399 25.819 35.5919 25.662C35.8049 25.819 36.0239 25.968 36.2559 26.098C36.4039 26.18 36.5599 25.876 36.5259 25.76C35.6769 22.921 34.5449 20.191 33.4819 17.427C32.8829 15.866 32.2899 13.921 31.0669 12.664C30.8519 12.118 30.5789 11.606 30.0539 11.288C29.4299 10.909 28.4209 11.372 27.8439 11.629C26.5839 12.187 26.4729 13.542 27.1899 14.568C27.2049 14.589 27.2249 14.587 27.2459 14.575C28.8699 19.586 31.7649 24.437 31.5349 29.712C31.2769 31.021 31.1099 32.349 30.6579 33.616C30.6359 33.679 30.6209 33.882 30.7519 33.826C31.1879 33.638 31.5939 33.325 31.9539 32.946C31.6899 34.075 31.2069 35.13 30.6409 36.198C30.5949 36.284 30.5499 36.477 30.7079 36.457C31.4619 36.359 32.1289 36.102 32.6869 35.692C32.6659 37.608 33.0329 39.524 33.7539 41.299C33.8489 41.529 34.0589 41.172 34.0729 41.063C34.1479 40.374 34.2819 39.691 34.4119 39.009C34.4829 39.649 34.5409 40.292 34.5319 40.938C34.5149 42.357 34.0029 43.731 33.9099 45.147C33.9059 45.211 33.9569 45.292 34.0319 45.26C34.7949 44.94 35.3239 44.246 35.6659 43.446C35.5419 44.014 35.3949 44.582 35.2959 45.161C35.2769 45.274 35.3319 45.364 35.4499 45.305C35.9439 45.058 36.3529 44.691 36.6799 44.256C36.5989 45.77 36.2909 47.232 35.8659 48.734C35.8379 48.831 35.9029 48.9 35.9939 48.853C36.6789 48.501 37.2909 47.976 37.7799 47.351C38.0189 49.285 38.5979 51.148 40.0849 52.534C40.2039 52.646 40.3429 52.309 40.3289 52.228C40.1549 51.28 39.9739 50.348 39.8599 49.406C40.8319 51.668 42.5869 53.558 45.1469 53.976C45.3239 54.004 45.5719 53.609 45.4389 53.472C44.7429 52.759 44.1459 51.955 43.7779 51.04C44.9419 51.87 46.2079 52.243 47.7099 52.037C47.7889 52.026 47.8659 52.008 47.9449 51.993C49.2609 51.591 50.5639 51.026 51.3679 49.948C49.4349 50.175 47.4499 49.882 45.8759 48.636Z" fill="url(#paint8_radial_525_9)"/>
<path opacity="0.3" d="M33.5479 34.368C33.3059 34.664 33.0399 34.943 32.7469 35.209C32.6069 35.337 32.3189 35.216 32.3989 35.01C33.0759 33.29 33.5259 31.481 33.7409 29.646C33.2989 30.351 32.8549 31.055 32.3559 31.726C32.2229 31.907 31.9169 31.808 31.9779 31.568C32.4629 29.679 32.9379 27.782 33.2049 25.848C33.4839 23.838 33.0999 21.92 32.6399 19.968C32.5979 19.785 32.7819 19.652 32.9449 19.734C33.9069 20.215 34.5899 21.017 35.1999 21.879C34.6429 20.391 34.0539 18.914 33.4819 17.427C32.8829 15.866 32.2899 13.921 31.0669 12.664C30.8519 12.118 30.5789 11.606 30.0539 11.288C29.4299 10.909 28.4209 11.372 27.8439 11.629C26.5839 12.187 26.4729 13.542 27.1899 14.568C27.2049 14.589 27.2249 14.587 27.2459 14.575C28.8699 19.586 31.7649 24.437 31.5349 29.712C31.2769 31.021 31.1099 32.349 30.6579 33.616C30.6359 33.679 30.6209 33.882 30.7519 33.826C31.1879 33.638 31.5939 33.325 31.9539 32.946C31.6899 34.075 31.2069 35.13 30.6409 36.198C30.5949 36.284 30.5499 36.477 30.7079 36.457C31.4619 36.359 32.1289 36.102 32.6869 35.692C32.6769 36.735 32.7829 37.778 32.9949 38.796C32.9719 37.314 33.2049 35.818 33.5479 34.368Z" fill="url(#paint9_radial_525_9)"/>
<path d="M20.1018 0.00417201C18.4968 0.507172 17.2058 1.73817 16.0598 2.91717C15.1108 3.89317 14.4798 5.00417 14.2568 6.35617C14.0548 7.59117 14.4218 8.70117 14.8928 9.82617C15.4078 11.0572 16.2938 12.5982 15.8568 13.9632C15.7318 14.2022 15.5958 14.4362 15.4398 14.6622C15.3838 14.7452 15.3838 15.1312 15.5478 14.9962C15.9248 14.6872 16.2588 14.3442 16.5728 13.9772C16.4888 14.2622 16.4218 14.5522 16.4068 14.8552C16.3888 15.2382 16.6098 15.6242 16.7568 15.9642C16.7758 16.0112 16.8298 16.0472 16.8738 16.0042C17.0368 15.8452 17.1768 15.6672 17.3128 15.4902C17.3018 15.5362 17.2858 15.5832 17.2758 15.6312C17.2568 15.7132 17.3208 15.9992 17.4318 15.8282C17.6538 15.4932 17.9518 15.2352 18.2048 14.9342C18.5718 14.6752 18.9338 14.4122 19.3298 14.1912C19.9858 13.8272 20.6008 13.3992 21.1398 12.8782C22.0698 11.9812 22.4678 10.7062 22.5938 9.45217C22.7318 8.07917 22.4868 6.67617 22.2028 5.33717C21.8048 3.47017 20.7838 1.91817 20.2258 0.115172C20.2098 0.0581721 20.1768 -0.018828 20.1018 0.00417201Z" fill="url(#paint10_radial_525_9)"/>
<path d="M20.1018 0.00417201C18.4968 0.507172 17.2058 1.73817 16.0598 2.91717C15.1108 3.89317 14.4798 5.00417 14.2568 6.35617C14.0548 7.59117 14.4218 8.70117 14.8928 9.82617C15.4078 11.0572 16.2938 12.5982 15.8568 13.9632C15.7318 14.2022 15.5958 14.4362 15.4398 14.6622C15.3838 14.7452 15.3838 15.1312 15.5478 14.9962C15.9248 14.6872 16.2588 14.3442 16.5728 13.9772C16.4888 14.2622 16.4218 14.5522 16.4068 14.8552C16.3888 15.2382 16.6098 15.6242 16.7568 15.9642C16.7758 16.0112 16.8298 16.0472 16.8738 16.0042C17.0368 15.8452 17.1768 15.6672 17.3128 15.4902C17.3018 15.5362 17.2858 15.5832 17.2758 15.6312C17.2568 15.7132 17.3208 15.9992 17.4318 15.8282C17.6538 15.4932 17.9518 15.2352 18.2048 14.9342C18.5718 14.6752 18.9338 14.4122 19.3298 14.1912C19.9858 13.8272 20.6008 13.3992 21.1398 12.8782C22.0698 11.9812 22.4678 10.7062 22.5938 9.45217C22.7318 8.07917 22.4868 6.67617 22.2028 5.33717C21.8048 3.47017 20.7838 1.91817 20.2258 0.115172C20.2098 0.0581721 20.1768 -0.018828 20.1018 0.00417201Z" fill="url(#paint11_radial_525_9)"/>
<path d="M15.8288 10.1061C15.8758 10.2621 15.9248 10.4191 15.9748 10.5791C16.0788 10.9161 16.1648 11.2501 16.2318 11.5801C16.4608 12.4681 16.6468 13.3271 16.7258 14.2391C18.2018 12.6021 19.4478 10.4391 19.4198 8.30813C19.3918 6.12013 18.7668 4.04612 18.2098 1.95312C16.1978 3.89213 14.8348 6.41313 15.6288 9.37213C15.6948 9.62413 15.7628 9.86712 15.8288 10.1061Z" fill="url(#paint12_radial_525_9)"/>
<path d="M31.4678 19.9383C31.0668 18.4083 30.4018 17.1334 29.5988 15.8324C29.4668 15.7064 29.3268 15.5623 29.1718 15.4053C25.2438 11.4203 19.2998 11.5453 14.4518 13.6323C14.4208 13.6453 14.3898 13.6504 14.3598 13.6504C12.6768 14.3754 11.0118 15.1893 9.43683 18.1423C6.79383 23.0973 7.80784 24.2304 7.04784 27.1084C6.24084 30.1704 4.40784 31.7894 4.40784 31.7894C4.40784 31.7894 6.63783 30.8093 10.9068 32.8963C13.5848 34.2053 15.5978 37.3933 15.4958 39.1183C15.4958 39.1183 17.4468 36.2204 19.1858 35.8154C20.9248 35.4144 27.2808 35.9423 30.4338 30.8423C31.8018 28.6273 32.1708 26.5414 32.2418 24.7634C32.0608 23.1444 31.8788 21.5123 31.4678 19.9383Z" fill="url(#paint13_radial_525_9)"/>
<path opacity="0.4" d="M31.5238 20.1836C31.7608 21.8116 31.7878 23.4876 31.4308 25.0706C30.9788 27.0696 30.0608 29.1116 28.4318 30.4316C26.6298 31.8946 24.5408 32.5126 22.2838 32.9076C21.0788 33.1186 19.8568 33.2906 18.6738 33.6076C17.6818 33.8756 16.9318 34.7536 15.9388 34.9596C15.1588 35.1216 14.5878 34.8326 14.0618 34.2486C13.1618 33.2516 12.2968 32.3466 11.0368 31.7936C10.1018 31.3846 9.19478 31.3016 8.21378 31.0846C7.59378 30.9456 6.78676 30.7556 6.36476 30.2276C6.21276 30.0356 6.10277 29.8376 6.02977 29.6346C5.24077 31.0496 4.41077 31.7856 4.41077 31.7856C4.41077 31.7856 6.64077 30.8056 10.9098 32.8926C13.5878 34.2016 15.6008 37.3896 15.4988 39.1146C15.4988 39.1146 17.4498 36.2166 19.1888 35.8116C20.9278 35.4106 27.2838 35.9386 30.4368 30.8386C31.8048 28.6236 32.1738 26.5376 32.2448 24.7596C32.0698 23.2276 31.8898 21.6836 31.5238 20.1836Z" fill="#C46F12"/>
<path opacity="0.4" d="M14.3608 13.6504C13.8818 13.8574 13.4038 14.0733 12.9288 14.3413C12.3978 14.9533 11.9228 15.5974 11.6538 16.3474C12.2178 15.8604 13.7998 15.1023 13.6438 15.2673C12.5848 16.3873 12.3298 18.2764 12.5388 19.8184C12.8808 19.2474 13.2108 18.6813 13.7208 18.2303C13.8638 18.1043 14.1428 18.2204 14.0658 18.4294C13.3268 20.4864 14.1298 23.7203 15.6938 25.3133C16.4698 23.8803 17.5548 22.6653 18.4488 21.3083C18.5728 21.1183 18.5448 22.4053 18.4548 22.8843C19.3148 22.1053 20.2098 21.3684 21.1128 20.6394C21.2558 20.5274 21.2208 21.3463 21.0838 21.5893C22.7638 20.9283 24.2028 19.8483 25.7918 18.9953C27.2458 18.2123 28.7358 17.7324 30.3988 17.6784C30.4448 17.6774 30.4918 17.6793 30.5378 17.6773C30.5368 17.6753 30.5368 17.6723 30.5368 17.6693C30.4318 17.3853 30.3138 17.1073 30.1888 16.8363C30.0038 16.4993 29.8058 16.1664 29.5998 15.8324C29.4678 15.7064 29.3278 15.5623 29.1728 15.4053C25.2448 11.4203 19.3008 11.5453 14.4528 13.6323C14.4218 13.6463 14.3908 13.6504 14.3608 13.6504Z" fill="#C46F12"/>
<path d="M4.07282 40.8375C5.66882 41.0135 6.56081 42.1105 8.54581 42.8465C10.5278 43.5825 12.8818 43.4885 13.4198 38.8625C13.4198 38.8625 13.3918 39.5215 13.5638 39.9775C13.7338 40.4345 14.0838 40.6174 14.4238 40.5724C14.4238 40.5724 15.3458 40.3615 15.4978 39.1175C15.5998 37.3925 13.5868 34.2045 10.9088 32.8955C6.63982 30.8085 4.40982 31.7885 4.40982 31.7885C4.40982 31.7885 0.771813 32.8865 0.166813 35.0135C-0.581187 37.6355 1.42882 39.5815 1.42882 39.5815C1.42882 39.5815 -0.0451759 39.5875 0.0778241 40.5655C0.198824 41.5455 1.31582 41.0985 1.31582 41.0985C1.73682 40.9055 2.47682 40.6605 4.07282 40.8375Z" fill="url(#paint14_radial_525_9)"/>
<path d="M5.06883 43.5792C6.84883 43.9762 7.10983 43.1932 8.69783 42.9022C8.64783 42.8842 8.59582 42.8672 8.54582 42.8462C6.56182 42.1112 5.66883 41.0132 4.07283 40.8372C3.42483 40.7652 2.91982 40.7652 2.51782 40.8002C2.58282 41.4832 2.96283 43.1072 5.06883 43.5792Z" fill="url(#paint15_radial_525_9)"/>
<path opacity="0.5" d="M8.5457 42.8459C7.1117 42.3159 6.2497 41.5969 5.2787 41.1719C4.8217 41.8289 4.46471 42.5419 4.23071 43.2899C4.47571 43.4059 4.74871 43.5049 5.06871 43.5779C6.84871 43.9749 7.10971 43.1919 8.69771 42.9009C8.64771 42.8849 8.5967 42.8669 8.5457 42.8459Z" fill="#CF325A"/>
<path d="M14.4238 40.5733C14.0838 40.6183 13.7338 40.4353 13.5638 39.9783C13.3918 39.5223 13.4198 38.8633 13.4198 38.8633C12.8958 43.3713 10.6488 43.5763 8.69776 42.9033C7.10976 43.1943 6.84877 43.9773 5.06877 43.5803C2.96277 43.1083 2.58276 41.4843 2.51776 40.8023C1.92976 40.8543 1.56576 40.9863 1.31576 41.1013C1.31576 41.1013 0.403756 43.9693 5.01776 45.5733C9.63676 47.1753 12.4598 45.7353 14.4238 40.5733Z" fill="url(#paint16_radial_525_9)"/>
<path opacity="0.5" d="M15.4978 39.1175C15.5998 37.3925 13.5868 34.2045 10.9088 32.8955C6.63982 30.8085 4.40982 31.7885 4.40982 31.7885C4.40982 31.7885 0.771813 32.8865 0.166813 35.0135C-0.581187 37.6355 1.42882 39.5815 1.42882 39.5815C1.42882 39.5815 -0.0451759 39.5875 0.0778241 40.5655C0.198824 41.5455 1.31582 41.0985 1.31582 41.0985C1.73682 40.9055 2.47582 40.6594 4.07282 40.8364C5.66882 41.0124 6.56081 42.1095 8.54581 42.8455C10.5278 43.5815 12.8818 43.4875 13.4198 38.8615C13.4198 38.8615 13.3918 39.5204 13.5638 39.9764C13.7338 40.4334 14.0838 40.6165 14.4238 40.5715C14.4238 40.5715 15.3458 40.3615 15.4978 39.1175ZM12.3158 37.8545C12.3158 37.8545 12.7708 43.7595 8.13482 41.7665C6.29982 40.9765 4.49382 39.9325 2.98082 40.1805C1.46682 40.4305 0.584812 40.7605 0.543812 40.2785C0.502812 39.7965 1.56882 39.5715 2.14682 39.5925C2.14682 39.5925 1.23482 39.0405 0.617817 37.5505C-0.239183 35.4795 0.547817 33.8555 3.45182 32.4005C6.35882 30.9465 10.9588 32.7035 13.1378 35.4375C14.7138 37.4165 13.9028 38.6225 12.3158 37.8545Z" fill="#B05C31"/>
<path opacity="0.5" d="M1.12585 34.3424C1.12585 34.3424 3.82385 31.0924 7.82385 32.3464C11.8229 33.5964 12.8059 35.7234 12.8059 35.7234C12.8059 35.7234 7.00585 30.3734 1.12585 34.3424Z" fill="white"/>
<path opacity="0.5" d="M14.4238 40.5733C14.0838 40.6183 13.7338 40.4353 13.5638 39.9783C13.3918 39.5223 13.4198 38.8633 13.4198 38.8633C12.8958 43.3713 10.6488 43.5763 8.69776 42.9033C7.10976 43.1943 6.84877 43.9773 5.06877 43.5803C2.96277 43.1083 2.58276 41.4843 2.51776 40.8023C1.92976 40.8543 1.56576 40.9863 1.31576 41.1013C1.31576 41.1013 0.403756 43.9693 5.01776 45.5733C9.63676 47.1753 12.4598 45.7353 14.4238 40.5733ZM4.64076 44.8963C1.17076 43.6433 1.87376 40.9183 2.46276 42.0063C3.12976 43.2383 4.43176 44.7103 6.66776 44.0433C8.90376 43.3753 9.97377 43.1953 10.4808 43.7983C10.9888 44.3993 9.46276 46.6373 4.64076 44.8963Z" fill="#7C421F"/>
<path opacity="0.9" d="M1.86279 34.8816C1.86279 34.8816 3.1478 34.6056 3.7588 35.4106C4.3718 36.2176 3.14079 38.4836 3.14079 38.4836C3.14079 38.4836 3.1568 37.1106 2.9108 36.4196C2.5408 35.3816 1.86279 34.8816 1.86279 34.8816Z" fill="#562D10"/>
<g opacity="0.9">
<path d="M9.45986 37.2544C9.45986 37.2544 8.39386 36.0094 7.82286 36.1474C7.25286 36.2844 6.34087 37.9214 6.59287 39.5644C6.59287 39.5644 7.84786 37.0774 9.45986 37.2544Z" fill="#562D10"/>
</g>
<path opacity="0.4" d="M19.5918 32.6533C19.5918 32.6533 16.4418 30.9923 18.0258 26.6513C19.4978 22.6183 23.5248 22.2553 24.8348 25.1623C26.1448 28.0673 23.3508 31.7103 23.3508 31.7103C23.3508 31.7103 21.7378 31.3943 19.5918 32.6533Z" fill="#C46F12"/>
<path d="M14.6748 20.118C15.0708 18.881 14.7338 17.117 13.0488 16.975C11.6128 16.854 10.2238 18.541 10.2238 18.541C10.2238 18.541 11.7028 17.848 12.9238 18.293C14.2588 18.782 14.6748 20.118 14.6748 20.118Z" fill="url(#paint17_radial_525_9)"/>
<path d="M14.7638 20.5949C15.2038 19.2169 14.8308 17.2519 12.9528 17.0929C11.3538 16.9579 9.80579 18.8359 9.80579 18.8359C9.80579 18.8359 11.4548 18.0639 12.8128 18.5619C14.2998 19.1059 14.7638 20.5949 14.7638 20.5949Z" fill="url(#paint18_radial_525_9)"/>
<path opacity="0.7" d="M13.1078 17.8612C12.2768 17.5552 11.3238 17.7832 10.8008 17.9572C10.4438 18.2712 10.2228 18.5402 10.2228 18.5402C10.2228 18.5402 11.7018 17.8472 12.9228 18.2922C14.2578 18.7812 14.6738 20.1172 14.6738 20.1172C14.7338 19.9312 14.7738 19.7312 14.7978 19.5282C14.6428 19.1602 14.1638 18.2472 13.1078 17.8612Z" fill="url(#paint19_radial_525_9)"/>
<path d="M25.4949 24.8836C25.9829 23.5366 25.7819 21.4686 23.9309 21.2376C22.3549 21.0416 20.7489 22.8416 20.7489 22.8416C20.7489 22.8416 22.6459 21.7996 23.9449 22.6796C25.2429 23.5596 25.4949 24.8836 25.4949 24.8836Z" fill="url(#paint20_radial_525_9)"/>
<path d="M25.5839 25.7934C26.1719 24.1774 25.9299 21.6954 23.7079 21.4204C21.8149 21.1844 19.8909 23.3434 19.8909 23.3434C19.8909 23.3434 22.1649 22.0944 23.7249 23.1494C25.2829 24.2054 25.5839 25.7934 25.5839 25.7934Z" fill="url(#paint21_radial_525_9)"/>
<path opacity="0.7" d="M24.1229 22.2636C23.2449 21.6676 22.0939 21.9526 21.4409 22.1976C21.0159 22.5396 20.7489 22.8396 20.7489 22.8396C20.7489 22.8396 22.6459 21.7976 23.9449 22.6776C25.2429 23.5586 25.4949 24.8816 25.4949 24.8816C25.5559 24.7126 25.6049 24.5336 25.6429 24.3486C25.5509 24.0076 25.1899 22.9876 24.1229 22.2636Z" fill="url(#paint22_radial_525_9)"/>
<mask id="mask0_525_9" style="mask-type:luminance" maskUnits="userSpaceOnUse" x="17" y="23" width="9" height="10">
<path d="M25.2828 27.2161C25.3168 24.6121 22.9888 21.6611 19.8648 24.0171C16.9258 26.2361 17.2348 30.8161 19.8278 32.4901C20.5978 31.9801 21.8878 31.4031 23.5018 31.7391C24.1018 30.9371 25.2588 29.1451 25.2828 27.2161Z" fill="white"/>
</mask>
<g mask="url(#mask0_525_9)">
<path d="M24.6507 28.9289C23.9487 31.2779 22.0007 32.7739 20.3037 32.2689C18.6077 31.7619 17.8017 29.4479 18.5057 27.0979C19.2077 24.7479 21.1537 23.2519 22.8517 23.7589C24.5497 24.2639 25.3537 26.5789 24.6507 28.9289Z" fill="url(#paint23_linear_525_9)"/>
<path d="M24.5697 29.1654C23.7867 31.0054 22.1647 32.1074 20.7297 31.6814C19.1467 31.2084 18.3947 29.0474 19.0527 26.8544C19.5867 25.0704 20.8887 23.8134 22.2087 23.6604C20.6887 23.6394 19.1207 25.0404 18.5057 27.0984C17.8017 29.4484 18.6077 31.7624 20.3037 32.2694C21.9417 32.7544 23.8087 31.3764 24.5697 29.1654Z" fill="url(#paint24_linear_525_9)"/>
<path d="M24.3897 28.78C23.9117 30.525 22.5077 31.654 21.2507 31.302C19.9917 30.948 19.3577 29.246 19.8367 27.5C20.3137 25.755 21.7187 24.625 22.9767 24.979C24.2327 25.332 24.8677 27.035 24.3897 28.78Z" fill="url(#paint25_radial_525_9)"/>
<path d="M24.2548 28.5541C23.9388 29.7121 23.0048 30.4611 22.1708 30.2281C21.3338 29.9911 20.9148 28.8631 21.2318 27.7041C21.5478 26.5451 22.4808 25.7971 23.3168 26.0311C24.1508 26.2651 24.5698 27.3941 24.2548 28.5541Z" fill="#020202"/>
<path d="M22.8117 26.6945C22.5377 27.3425 21.9297 27.7255 21.4557 27.5455C20.9807 27.3665 20.8187 26.6955 21.0977 26.0475C21.3697 25.3985 21.9797 25.0175 22.4517 25.1965C22.9277 25.3745 23.0887 26.0465 22.8117 26.6945Z" fill="url(#paint26_linear_525_9)"/>
</g>
<path d="M19.0498 33.1244C19.0498 33.1244 19.1018 33.0504 19.2088 32.9384C19.3188 32.8284 19.4768 32.6674 19.6888 32.5054C19.7938 32.4194 19.9138 32.3354 20.0438 32.2524C20.1718 32.1664 20.3158 32.0924 20.4638 32.0114C20.6208 31.9444 20.7728 31.8574 20.9448 31.8064C21.0288 31.7764 21.1138 31.7474 21.1988 31.7184C21.2828 31.6904 21.3738 31.6734 21.4598 31.6514C21.6358 31.6034 21.8158 31.5834 21.9928 31.5604C22.1678 31.5274 22.3458 31.5444 22.5138 31.5374C22.6838 31.5254 22.8438 31.5654 22.9988 31.5774C23.1538 31.5864 23.2958 31.6294 23.4268 31.6604C23.5568 31.6954 23.6788 31.7164 23.7788 31.7614C23.8788 31.8014 23.9678 31.8374 24.0408 31.8654C24.1838 31.9244 24.2648 31.9604 24.2648 31.9604C24.2648 31.9604 24.1758 31.9424 24.0278 31.9094C23.9528 31.8924 23.8608 31.8704 23.7568 31.8464C23.6528 31.8194 23.5308 31.8174 23.4018 31.7944C23.2728 31.7764 23.1338 31.7524 22.9848 31.7524C22.8338 31.7524 22.6778 31.7294 22.5168 31.7444C22.3538 31.7594 22.1858 31.7554 22.0208 31.7874C21.8518 31.8104 21.6788 31.8334 21.5158 31.8804C21.4308 31.9014 21.3448 31.9174 21.2638 31.9434C21.1818 31.9674 21.1018 31.9944 21.0198 32.0214C20.8568 32.0694 20.7058 32.1424 20.5518 32.2004C20.4088 32.2744 20.2618 32.3314 20.1308 32.4074C20.0008 32.4774 19.8768 32.5474 19.7658 32.6174C19.5418 32.7544 19.3598 32.8784 19.2408 32.9734C19.1178 33.0644 19.0498 33.1244 19.0498 33.1244Z" fill="#A23B16"/>
<path opacity="0.4" d="M13.1348 19.7981C11.6358 18.7581 10.0328 19.4861 8.77483 21.5671C7.87783 23.0511 7.81583 24.3111 7.85183 24.9131C8.26583 25.1341 9.13383 25.6771 9.57883 26.5421C13.6108 26.5881 14.8738 21.0061 13.1348 19.7981Z" fill="#C46F12"/>
<mask id="mask1_525_9" style="mask-type:luminance" maskUnits="userSpaceOnUse" x="7" y="19" width="7" height="8">
<path d="M13.1348 19.7981C11.6358 18.7581 10.0328 19.4861 8.77483 21.5671C7.87783 23.0511 7.81583 24.3111 7.85183 24.9131C8.26583 25.1341 9.13383 25.6771 9.57883 26.5421C13.6108 26.5881 14.8738 21.0061 13.1348 19.7981Z" fill="white"/>
</mask>
<g mask="url(#mask1_525_9)">
<path d="M12.8088 24.1788C11.8288 25.9018 10.1598 26.7638 9.0798 26.1068C7.9988 25.4478 7.9208 23.5158 8.9028 21.7938C9.8818 20.0698 11.5528 19.2068 12.6308 19.8658C13.7088 20.5258 13.7888 22.4578 12.8088 24.1788Z" fill="url(#paint27_linear_525_9)"/>
<path d="M12.7018 24.349C11.7728 25.662 10.4118 26.271 9.49879 25.715C8.49279 25.1 8.41679 23.298 9.33279 21.688C10.0788 20.381 11.2488 19.604 12.2028 19.689C11.1448 19.435 9.7588 20.286 8.9028 21.793C7.9208 23.515 7.9988 25.446 9.0798 26.106C10.1218 26.74 11.7128 25.957 12.7018 24.349Z" fill="url(#paint28_linear_525_9)"/>
<path d="M12.6568 24.0224C11.9598 25.3104 10.7448 25.9724 9.93977 25.5014C9.13377 25.0304 9.04676 23.6034 9.74476 22.3164C10.4398 21.0294 11.6588 20.3684 12.4618 20.8394C13.2658 21.3104 13.3548 22.7364 12.6568 24.0224Z" fill="url(#paint29_radial_525_9)"/>
<path d="M12.6098 23.8283C12.1458 24.6833 11.3398 25.1223 10.8048 24.8103C10.2718 24.4963 10.2128 23.5493 10.6768 22.6943C11.1378 21.8403 11.9448 21.4013 12.4788 21.7143C13.0148 22.0273 13.0718 22.9733 12.6098 23.8283Z" fill="#020202"/>
<path d="M11.9907 22.1516C11.6627 22.6126 11.1607 22.8156 10.8667 22.6036C10.5727 22.3886 10.5987 21.8416 10.9267 21.3786C11.2547 20.9136 11.7577 20.7106 12.0507 20.9256C12.3447 21.1376 12.3187 21.6866 11.9907 22.1516Z" fill="url(#paint30_linear_525_9)"/>
</g>
<path d="M7.61987 24.7969C7.61987 24.7969 7.83388 24.8479 8.12888 24.9939C8.27688 25.0689 8.44687 25.1599 8.61287 25.2809C8.78487 25.3979 8.95087 25.5449 9.10887 25.7009C9.17987 25.7859 9.25987 25.8629 9.32387 25.9519C9.39187 26.0399 9.45688 26.1259 9.50688 26.2189C9.56188 26.3099 9.61187 26.3959 9.64787 26.4869C9.68387 26.5759 9.72487 26.6569 9.74287 26.7389C9.76587 26.8199 9.78087 26.8939 9.79688 26.9589C9.80687 27.0259 9.81088 27.0859 9.81488 27.1329C9.82288 27.2279 9.82588 27.2819 9.82588 27.2819C9.82588 27.2819 9.80587 27.2319 9.77087 27.1419C9.75287 27.0989 9.73487 27.0459 9.71187 26.9839C9.68387 26.9259 9.65188 26.8599 9.61688 26.7889C9.58788 26.7159 9.53388 26.6459 9.49188 26.5679C9.44988 26.4869 9.38988 26.4149 9.33588 26.3329C9.28488 26.2509 9.21287 26.1779 9.14987 26.0969C9.08887 26.0159 9.00987 25.9439 8.94087 25.8649C8.86787 25.7919 8.79387 25.7179 8.71687 25.6489C8.63787 25.5819 8.56787 25.5079 8.48987 25.4469C8.33787 25.3169 8.18788 25.2089 8.05988 25.1099C7.80188 24.9199 7.61987 24.7969 7.61987 24.7969Z" fill="#A23B16"/>
<path d="M27.4897 9.96391C25.9787 9.07991 24.0898 9.0109 22.3878 8.9549C21.1178 8.9139 18.5547 9.30091 18.1667 7.65091C18.1287 7.49691 17.9608 7.6569 17.9238 7.7189C17.2648 8.7989 17.2678 10.2589 17.8788 11.2649C16.0338 11.5459 14.2747 12.3069 14.2097 14.2349C14.2087 14.3029 14.2538 14.3709 14.3298 14.3459C14.5278 14.2809 14.7228 14.2059 14.9158 14.1279C14.2918 14.7119 13.8458 15.4529 13.7668 16.3439C13.7248 16.8099 13.6358 17.5689 14.3268 17.2159C14.6828 17.0329 15.0147 16.8219 15.3347 16.5949C14.3707 18.3669 14.2887 20.7079 14.9577 22.5419C15.4197 23.8059 16.1657 23.1659 16.6967 22.3439C17.2887 21.4289 17.7048 20.5419 18.4788 19.7409C18.7558 19.4539 19.0528 19.1879 19.3558 18.9289C19.1038 19.3329 18.9018 19.7649 18.7828 20.2139C18.7688 20.2699 18.7778 20.3699 18.8548 20.3719C20.2478 20.4329 21.6218 19.6619 22.7848 18.7519C22.6078 19.0729 22.4378 19.3999 22.2708 19.7309C22.1988 19.8749 22.2317 20.1519 22.4337 19.9709C23.6787 18.8599 25.1368 18.2319 26.6978 17.6989C27.7758 17.3299 28.9558 17.0729 29.9648 16.5279C30.6308 16.1669 30.8617 15.7069 30.8307 15.2239C31.7737 13.0959 29.0947 10.9029 27.4897 9.96391Z" fill="url(#paint31_radial_525_9)"/>
<path opacity="0.3" d="M27.4899 9.96387C25.9789 9.07987 24.0899 9.01087 22.3879 8.95487C21.1179 8.91387 18.5549 9.30088 18.1669 7.65088C18.1429 7.54888 18.0619 7.58488 17.9969 7.63788C18.8479 10.0599 23.4509 9.16387 25.2539 10.7029C26.3669 11.6509 26.7699 14.0169 25.8959 15.2499C25.3279 16.0509 24.4689 16.4609 23.6239 16.9129C22.4079 17.5589 21.3809 18.4979 20.1319 19.0879C20.0229 19.1389 19.8549 19.1069 19.8279 18.9649C19.6959 18.1979 19.7839 17.4539 19.9049 16.7039C18.2039 18.6309 16.1139 20.6569 15.8599 23.1999C16.1519 23.0719 16.4479 22.7289 16.6969 22.3449C17.2889 21.4299 17.7049 20.5429 18.4789 19.7419C18.7559 19.4549 19.0529 19.1889 19.3559 18.9299C19.1039 19.3339 18.9019 19.7659 18.7829 20.2149C18.7689 20.2709 18.7779 20.3709 18.8549 20.3729C20.2479 20.4339 21.6219 19.6629 22.7849 18.7529C22.6079 19.0739 22.4379 19.4009 22.2709 19.7319C22.1989 19.8759 22.2319 20.1529 22.4339 19.9719C23.6789 18.8609 25.1369 18.2329 26.6979 17.6999C27.7759 17.3309 28.9559 17.0739 29.9649 16.5289C30.6309 16.1679 30.8619 15.7079 30.8309 15.2249C31.7739 13.0959 29.0949 10.9029 27.4899 9.96387Z" fill="url(#paint32_radial_525_9)"/>
<path d="M37.9148 5.51136C36.1678 5.29936 34.4068 5.91535 32.8038 6.54435C31.4808 7.06535 30.3978 7.85335 29.6038 9.04535C28.8768 10.1354 28.7498 11.3524 28.7128 12.6274C28.6718 14.0234 28.8548 15.8734 27.8468 16.9874C27.6238 17.1594 27.3948 17.3244 27.1488 17.4734C27.0598 17.5284 26.8938 17.8954 27.1068 17.8384C27.6008 17.7044 28.0668 17.5234 28.5238 17.3074C28.3218 17.5444 28.1308 17.7914 27.9878 18.0744C27.8058 18.4324 27.8488 18.8944 27.8428 19.2814C27.8408 19.3344 27.8768 19.3933 27.9388 19.3703C28.1628 19.2893 28.3728 19.1824 28.5798 19.0694C28.5468 19.1084 28.5138 19.1464 28.4828 19.1874C28.4288 19.2604 28.3658 19.5584 28.5458 19.4434C28.9008 19.2194 29.2968 19.1023 29.6698 18.9263C30.1308 18.8373 30.5888 18.7413 31.0618 18.7023C31.8448 18.6373 32.6138 18.4943 33.3528 18.2303C34.6278 17.7753 35.5558 16.7304 36.2158 15.5904C36.9378 14.3424 37.3128 12.8984 37.6198 11.4994C38.0428 9.54735 37.7408 7.62735 37.9858 5.66935C37.9958 5.61035 37.9968 5.52236 37.9148 5.51136Z" fill="url(#paint33_radial_525_9)"/>
<path d="M34.8738 6.55434C34.3948 6.71434 33.9078 6.88034 33.4208 7.05634C31.5538 7.87434 29.9568 9.29834 29.5298 11.2333C29.0718 13.3013 29.6078 15.9963 28.6848 17.9053C31.3068 17.3473 33.8498 15.7993 34.7678 13.1833C35.1888 11.9823 35.5028 10.6153 35.4908 9.33934C35.4788 8.37434 35.3098 7.35034 35.5458 6.40234C35.3208 6.44234 35.0978 6.49534 34.8738 6.55434Z" fill="url(#paint34_radial_525_9)"/>
<path d="M7.60184 25.5195C7.58084 25.5585 7.56685 25.5945 7.56285 25.6205C7.45085 26.3025 7.39684 26.9535 7.18184 27.6155C7.05284 28.0115 6.93185 28.4185 6.81885 28.8225C7.18885 28.5175 7.49985 28.1275 7.77585 27.7225C7.78585 27.7005 7.79184 27.6775 7.80084 27.6555C7.83384 26.9435 7.78384 26.2105 7.60184 25.5195Z" fill="#C97727"/>
<path d="M38.7078 80.1031C38.2848 79.4571 37.8438 78.8101 37.4348 78.1461C36.4668 76.7141 35.5578 75.2501 34.8318 73.6871C34.1338 72.1891 33.7898 70.5081 33.5958 68.8421C33.3208 67.4641 33.2328 66.0471 33.2078 64.6211C33.1898 64.7461 33.1688 64.8701 33.1538 64.9941C33.0408 66.0401 32.9948 67.0531 33.0738 68.1031C33.2238 70.0521 33.5118 72.0531 34.2878 73.8611C35.1098 75.7731 36.3538 77.4441 37.5238 79.1531C38.4928 80.5701 39.4208 82.0841 40.4758 83.4671C39.9158 82.3321 39.4038 81.1681 38.7078 80.1031Z" fill="#C97727"/>
<path d="M25.9859 63.2771C26.2039 61.5071 26.7999 59.7611 27.1389 58.0291C27.4909 56.2461 27.5089 54.3151 27.2969 52.3981C27.2059 51.7661 27.1199 51.1051 27.0059 50.4441C26.9289 50.0431 26.8479 49.6451 26.7549 49.2521C26.5579 48.4621 26.2869 47.7051 25.8869 47.0391C26.2049 49.0141 26.6579 50.9621 26.8709 52.9561C27.1109 55.2271 26.9259 57.4001 26.3849 59.6151C25.9089 61.5671 25.3439 63.4981 25.4439 65.5261C25.5009 66.6231 25.7809 67.7521 26.2209 68.7971C25.6839 66.9491 25.4409 65.1141 25.9859 63.2771Z" fill="#C97727"/>
<path d="M52.7139 53.0189C53.4289 52.7699 54.1908 52.5919 54.9348 52.4419C56.2198 52.1819 57.4609 52.1209 58.7699 52.1909C58.9389 52.1989 59.1068 52.2089 59.2748 52.2189C60.8518 52.2299 62.4228 52.3119 64.0018 52.3419C64.1938 52.3269 64.3868 52.3069 64.5788 52.2829C64.6558 52.1949 64.6999 52.0489 64.5909 52.0249C62.0159 51.4659 59.2748 51.5109 56.6608 51.6939C54.5108 51.8429 52.6029 52.5929 50.6879 53.5489C50.6799 53.5509 50.6708 53.5639 50.6628 53.5779C51.3668 53.5639 52.0629 53.2479 52.7139 53.0189Z" fill="#C97727"/>
<path d="M83.0849 90.0844C82.8889 89.2564 82.6559 88.4294 82.3789 87.6174C81.8989 86.4774 81.2859 85.3774 80.5829 84.3594C81.6829 86.8964 82.3569 89.5154 83.2109 92.1474C83.1569 91.4614 83.1569 90.7664 83.0849 90.0844Z" fill="#C97727"/>
<path d="M44.2138 95.5664C44.1198 95.8754 44.0828 96.1874 44.1078 96.5154C44.1288 96.8264 44.2288 97.3184 44.5408 97.4654C44.6788 96.8194 44.3408 96.1944 44.2138 95.5664Z" fill="#C97727"/>
<path d="M35.0899 92.2015C35.2359 91.1425 35.0769 90.1925 34.7809 89.1715C34.3559 87.7175 33.6479 86.3765 32.8279 85.1045C32.3359 84.6325 31.8689 84.1345 31.3899 83.6445C32.6829 85.5695 33.8739 87.6105 34.5229 89.8355C34.8899 91.0935 34.7239 92.2325 34.5739 93.5025C34.4719 94.3445 34.5529 95.1975 34.9909 95.9255C34.8139 95.1735 34.8199 94.4715 34.9699 93.7315C34.9689 93.2465 35.0159 92.7505 35.0899 92.2015Z" fill="#C97727"/>
<path d="M68.7518 91.0156C68.9148 92.3206 69.0478 93.6256 69.1268 94.9396C69.1988 96.0926 69.2058 97.2496 69.2378 98.4056C69.3658 97.3156 69.5098 96.2266 69.4798 95.1246C69.4398 93.6846 69.1998 92.3256 68.7518 91.0156Z" fill="#C97727"/>
<defs>
<radialGradient id="paint0_radial_525_9" cx="0" cy="0" r="1" gradientUnits="userSpaceOnUse" gradientTransform="translate(78.1687 117.413) rotate(-0.137509) scale(6.11442 6.11441)">
<stop offset="0.0085" stop-color="#434747"/>
<stop offset="0.1299" stop-color="#3B3F40"/>
<stop offset="0.6875" stop-color="#1D2121"/>
<stop offset="1" stop-color="#111516"/>
</radialGradient>
<radialGradient id="paint1_radial_525_9" cx="0" cy="0" r="1" gradientUnits="userSpaceOnUse" gradientTransform="translate(41.3462 117.724) rotate(8.59196) scale(6.98616 6.98616)">
<stop offset="0.0085" stop-color="#434747"/>
<stop offset="0.1299" stop-color="#3B3F40"/>
<stop offset="0.6875" stop-color="#1D2121"/>
<stop offset="1" stop-color="#111516"/>
</radialGradient>
<radialGradient id="paint2_radial_525_9" cx="0" cy="0" r="1" gradientUnits="userSpaceOnUse" gradientTransform="translate(65.8989 114.248) rotate(-0.13751) scale(5.64782 5.64782)">
<stop offset="0.0085" stop-color="#434747"/>
<stop offset="0.1299" stop-color="#3B3F40"/>
<stop offset="0.6875" stop-color="#1D2121"/>
<stop offset="1" stop-color="#111516"/>
</radialGradient>
<radialGradient id="paint3_radial_525_9" cx="0" cy="0" r="1" gradientUnits="userSpaceOnUse" gradientTransform="translate(76.1733 113.471) rotate(-0.13751) scale(35.8151 35.8151)">
<stop offset="0.1732" stop-color="#F5AF5A"/>
<stop offset="0.83" stop-color="#CB8145"/>
</radialGradient>
<radialGradient id="paint4_radial_525_9" cx="0" cy="0" r="1" gradientUnits="userSpaceOnUse" gradientTransform="translate(98.2373 67.0368) rotate(-0.137509) scale(37.3135 37.3135)">
<stop stop-color="#B05C31"/>
<stop offset="0.3919" stop-color="#824522"/>
<stop offset="1" stop-color="#551E16"/>
</radialGradient>
<radialGradient id="paint5_radial_525_9" cx="0" cy="0" r="1" gradientUnits="userSpaceOnUse" gradientTransform="translate(33.2567 115.236) rotate(0.796439) scale(6.59218 6.59217)">
<stop offset="0.0085" stop-color="#434747"/>
<stop offset="0.1299" stop-color="#3B3F40"/>
<stop offset="0.6875" stop-color="#1D2121"/>
<stop offset="1" stop-color="#111516"/>
</radialGradient>
<linearGradient id="paint6_linear_525_9" x1="31.7176" y1="113.538" x2="32.3204" y2="77.8628" gradientUnits="userSpaceOnUse">
<stop offset="0.1732" stop-color="#F5AF5A"/>
<stop offset="0.83" stop-color="#CB8145"/>
</linearGradient>
<radialGradient id="paint7_radial_525_9" cx="0" cy="0" r="1" gradientUnits="userSpaceOnUse" gradientTransform="translate(16.0454 81.3836) rotate(-0.13751) scale(102.808 102.808)">
<stop offset="0.1732" stop-color="#F5AF5A"/>
<stop offset="0.8261" stop-color="#EC9550"/>
</radialGradient>
<radialGradient id="paint8_radial_525_9" cx="0" cy="0" r="1" gradientUnits="userSpaceOnUse" gradientTransform="translate(58.1861 19.7173) rotate(-0.13751) scale(34.3757 34.3757)">
<stop stop-color="#B05C31"/>
<stop offset="0.3919" stop-color="#824522"/>
<stop offset="1" stop-color="#551E16"/>
</radialGradient>
<radialGradient id="paint9_radial_525_9" cx="0" cy="0" r="1" gradientUnits="userSpaceOnUse" gradientTransform="translate(58.183 19.716) rotate(-0.13751) scale(34.371 34.371)">
<stop stop-color="#B05C31"/>
<stop offset="0.3919" stop-color="#824522"/>
<stop offset="1" stop-color="#551E16"/>
</radialGradient>
<radialGradient id="paint10_radial_525_9" cx="0" cy="0" r="1" gradientUnits="userSpaceOnUse" gradientTransform="translate(6.54906 6.79125) rotate(-24.4814) scale(21.1445 21.1445)">
<stop offset="0.3964" stop-color="#CB8336"/>
<stop offset="1" stop-color="#B8542F"/>
</radialGradient>
<radialGradient id="paint11_radial_525_9" cx="0" cy="0" r="1" gradientUnits="userSpaceOnUse" gradientTransform="translate(6.54906 6.79125) rotate(-24.4814) scale(21.1445 21.1445)">
<stop offset="0.3964" stop-color="#CB8336"/>
<stop offset="1" stop-color="#B8542F"/>
</radialGradient>
<radialGradient id="paint12_radial_525_9" cx="0" cy="0" r="1" gradientUnits="userSpaceOnUse" gradientTransform="translate(8.24986 1.9628) rotate(-0.13751) scale(14.4789 14.4789)">
<stop stop-color="#B05C31"/>
<stop offset="1" stop-color="#160000"/>
</radialGradient>
<radialGradient id="paint13_radial_525_9" cx="0" cy="0" r="1" gradientUnits="userSpaceOnUse" gradientTransform="translate(18.3208 25.6576) rotate(-0.13751) scale(13.6907)">
<stop offset="0.1732" stop-color="#F5AF5A"/>
<stop offset="0.8261" stop-color="#EC9550"/>
</radialGradient>
<radialGradient id="paint14_radial_525_9" cx="0" cy="0" r="1" gradientUnits="userSpaceOnUse" gradientTransform="translate(4.6155 33.4485) rotate(-0.137509) scale(15.3806 15.3805)">
<stop stop-color="#B05C31"/>
<stop offset="0.3919" stop-color="#824522"/>
<stop offset="1" stop-color="#551E16"/>
</radialGradient>
<radialGradient id="paint15_radial_525_9" cx="0" cy="0" r="1" gradientUnits="userSpaceOnUse" gradientTransform="translate(4.78356 46.2601) rotate(-0.13751) scale(9.03854 9.03854)">
<stop stop-color="#9F0000"/>
<stop offset="1" stop-color="#4A0000"/>
</radialGradient>
<radialGradient id="paint16_radial_525_9" cx="0" cy="0" r="1" gradientUnits="userSpaceOnUse" gradientTransform="translate(6.16063 45.9824) rotate(-0.13751) scale(9.37153 9.37154)">
<stop stop-color="#824522"/>
<stop offset="1" stop-color="#551E16"/>
</radialGradient>
<radialGradient id="paint17_radial_525_9" cx="0" cy="0" r="1" gradientUnits="userSpaceOnUse" gradientTransform="translate(-380.983 130.115) rotate(40.994) scale(7.39182 7.39182)">
<stop stop-color="#B05C31"/>
<stop offset="0.3919" stop-color="#824522"/>
<stop offset="1" stop-color="#551E16"/>
</radialGradient>
<radialGradient id="paint18_radial_525_9" cx="0" cy="0" r="1" gradientUnits="userSpaceOnUse" gradientTransform="translate(15.3062 14.8884) rotate(40.9941) scale(5.37555)">
<stop offset="0.00020952" stop-color="#F2F2F2"/>
<stop offset="0.5285" stop-color="#C3C3C2"/>
<stop offset="1" stop-color="#9E9E9C"/>
</radialGradient>
<radialGradient id="paint19_radial_525_9" cx="0" cy="0" r="1" gradientUnits="userSpaceOnUse" gradientTransform="translate(12.8127 16.328) rotate(23.2783) scale(3.22552 3.22551)">
<stop offset="0.0085" stop-color="#434747"/>
<stop offset="0.1299" stop-color="#3B3F40"/>
<stop offset="0.6875" stop-color="#1D2121"/>
<stop offset="1" stop-color="#111516"/>
</radialGradient>
<radialGradient id="paint20_radial_525_9" cx="0" cy="0" r="1" gradientUnits="userSpaceOnUse" gradientTransform="translate(-426.667 145.817) rotate(43.2495) scale(7.39214)">
<stop stop-color="#B05C31"/>
<stop offset="0.3919" stop-color="#824522"/>
<stop offset="1" stop-color="#551E16"/>
</radialGradient>
<radialGradient id="paint21_radial_525_9" cx="0" cy="0" r="1" gradientUnits="userSpaceOnUse" gradientTransform="translate(23.4058 23.0137) rotate(23.2783) scale(2.49691 2.49691)">
<stop offset="0.00020952" stop-color="#F2F2F2"/>
<stop offset="0.5285" stop-color="#C3C3C2"/>
<stop offset="1" stop-color="#9E9E9C"/>
</radialGradient>
<radialGradient id="paint22_radial_525_9" cx="0" cy="0" r="1" gradientUnits="userSpaceOnUse" gradientTransform="translate(23.5599 20.4799) rotate(23.2783) scale(3.50131 3.50131)">
<stop offset="0.0085" stop-color="#434747"/>
<stop offset="0.1299" stop-color="#3B3F40"/>
<stop offset="0.6875" stop-color="#1D2121"/>
<stop offset="1" stop-color="#111516"/>
</radialGradient>
<linearGradient id="paint23_linear_525_9" x1="21.1307" y1="24.0395" x2="21.9448" y2="31.2624" gradientUnits="userSpaceOnUse">
<stop stop-color="white"/>
<stop offset="1" stop-color="#C8C8CE"/>
</linearGradient>
<linearGradient id="paint24_linear_525_9" x1="25.0361" y1="23.4133" x2="19.4581" y2="30.8273" gradientUnits="userSpaceOnUse">
<stop stop-color="white"/>
<stop offset="1" stop-color="#ACACB5"/>
</linearGradient>
<radialGradient id="paint25_radial_525_9" cx="0" cy="0" r="1" gradientUnits="userSpaceOnUse" gradientTransform="translate(25.2038 26.6083) rotate(23.2783) scale(7.01894 7.01893)">
<stop offset="0.0085" stop-color="#8E9191"/>
<stop offset="0.2195" stop-color="#6D7171"/>
<stop offset="0.5769" stop-color="#3C3F40"/>
<stop offset="0.8484" stop-color="#1D2121"/>
<stop offset="1" stop-color="#111516"/>
</radialGradient>
<linearGradient id="paint26_linear_525_9" x1="23.6577" y1="26.941" x2="20.6393" y2="25.9313" gradientUnits="userSpaceOnUse">
<stop stop-color="white"/>
<stop offset="0.8358" stop-color="#EAEAEA"/>
<stop offset="1" stop-color="#E5E5E5"/>
</linearGradient>
<linearGradient id="paint27_linear_525_9" x1="12.3061" y1="19.3995" x2="9.30058" y2="26.8313" gradientUnits="userSpaceOnUse">
<stop stop-color="white"/>
<stop offset="1" stop-color="#C8C8CE"/>
</linearGradient>
<linearGradient id="paint28_linear_525_9" x1="11.3468" y1="19.4374" x2="9.89057" y2="27.0566" gradientUnits="userSpaceOnUse">
<stop stop-color="white"/>
<stop offset="1" stop-color="#ACACB5"/>
</linearGradient>
<radialGradient id="paint29_radial_525_9" cx="0" cy="0" r="1" gradientUnits="userSpaceOnUse" gradientTransform="translate(13.317 21.9744) rotate(23.2784) scale(5.01922 5.01922)">
<stop offset="0.0085" stop-color="#8E9191"/>
<stop offset="0.2195" stop-color="#6D7171"/>
<stop offset="0.5769" stop-color="#3C3F40"/>
<stop offset="0.8484" stop-color="#1D2121"/>
<stop offset="1" stop-color="#111516"/>
</radialGradient>
<linearGradient id="paint30_linear_525_9" x1="12.5428" y1="22.4511" x2="10.622" y2="21.2353" gradientUnits="userSpaceOnUse">
<stop stop-color="white"/>
<stop offset="0.8358" stop-color="#EAEAEA"/>
<stop offset="1" stop-color="#E5E5E5"/>
</linearGradient>
<radialGradient id="paint31_radial_525_9" cx="0" cy="0" r="1" gradientUnits="userSpaceOnUse" gradientTransform="translate(19.2329 3.27754) rotate(-0.13751) scale(18.6158 18.6159)">
<stop stop-color="#B05C31"/>
<stop offset="0.3919" stop-color="#824522"/>
<stop offset="1" stop-color="#551E16"/>
</radialGradient>
<radialGradient id="paint32_radial_525_9" cx="0" cy="0" r="1" gradientUnits="userSpaceOnUse" gradientTransform="translate(19.233 3.27731) rotate(-0.13751) scale(18.6158 18.6158)">
<stop stop-color="#B05C31"/>
<stop offset="0.3919" stop-color="#824522"/>
<stop offset="1" stop-color="#551E16"/>
</radialGradient>
<radialGradient id="paint33_radial_525_9" cx="0" cy="0" r="1" gradientUnits="userSpaceOnUse" gradientTransform="translate(22.0688 6.13699) rotate(-0.13751) scale(22.123 22.123)">
<stop offset="0.3964" stop-color="#CB8336"/>
<stop offset="1" stop-color="#B8542F"/>
</radialGradient>
<radialGradient id="paint34_radial_525_9" cx="0" cy="0" r="1" gradientUnits="userSpaceOnUse" gradientTransform="translate(26.7518 6.67375) rotate(-0.13751) scale(12.7175 12.7175)">
<stop stop-color="#B05C31"/>
<stop offset="1" stop-color="#160000"/>
</radialGradient>
</defs>
</svg>
